<svg width="80" height="27" viewBox="0 0 80 27" fill="none" xmlns="http://www.w3.org/2000/svg">
<path d="M6.65 26.45H4.91C4.04 26.45 3.8 26.21 3.8 25.34V23.48C3.8 23.18 3.74 23.09 3.35 22.97C0.86 22.25 -0.01 20.33 -0.01 16.4V7.1C-0.01 2.06 1.43 0.199998 5.78 0.199998C10.13 0.199998 11.57 2.06 11.57 7.1V16.4C11.57 20.33 10.7 22.25 8.21 22.97C7.82 23.09 7.76 23.18 7.76 23.48V25.34C7.76 26.21 7.52 26.45 6.65 26.45ZM7.31 6.08C7.31 4.88 6.83 4.4 5.78 4.4C4.73 4.4 4.25 4.88 4.25 6.08V17.42C4.25 18.62 4.73 19.1 5.78 19.1C6.83 19.1 7.31 18.62 7.31 17.42V6.08ZM16.858 20.39V21.17C16.858 22.4 16.258 23 15.028 23H14.248C13.048 23 12.418 22.4 12.418 21.17V20.39C12.418 19.19 13.048 18.56 14.248 18.56H15.028C16.258 18.56 16.858 19.19 16.858 20.39Z" fill="#E3572B"/>
<path d="M22.8123 8.51L26.6523 11.99C28.6623 13.79 29.1123 14.87 29.1123 16.88V17.42C29.1123 21.2 27.6723 23.3 23.3223 23.3C18.9723 23.3 17.5323 21.53 17.5323 16.7V16.1C17.5323 15.23 17.7723 14.99 18.6423 14.99H20.6823C21.5523 14.99 21.7923 15.23 21.7923 16.1V17.42C21.7923 18.62 22.2723 19.1 23.3223 19.1C24.3723 19.1 24.8523 18.65 24.8523 17.57V17C24.8523 16.16 24.6723 15.74 23.5623 14.75L19.9623 11.54C17.9523 9.77 17.5323 8.75 17.5323 6.74V6.08C17.5323 2.3 18.9723 0.199998 23.3223 0.199998C27.6723 0.199998 29.1123 1.97 29.1123 6.8V7.4C29.1123 8.27 28.8723 8.51 28.0023 8.51H25.9623C25.0923 8.51 24.8523 8.27 24.8523 7.4V6.08C24.8523 4.88 24.3723 4.4 23.3223 4.4C22.2723 4.4 21.7923 4.85 21.7923 5.93V6.44C21.7923 7.31 21.9723 7.73 22.8123 8.51ZM41.7329 16.4C41.7329 21.47 40.2929 23.3 35.9429 23.3C31.5929 23.3 30.1529 21.47 30.1529 16.4V7.1C30.1529 2.06 31.5929 0.199998 35.9429 0.199998C40.2929 0.199998 41.7329 2.06 41.7329 7.1V16.4ZM34.4129 17.42C34.4129 18.62 34.8929 19.1 35.9429 19.1C36.9929 19.1 37.4729 18.62 37.4729 17.42V6.23C37.4729 4.91 36.9929 4.4 35.9429 4.4C34.8929 4.4 34.4129 4.91 34.4129 6.23V17.42ZM50.7073 1.61C50.7073 0.739999 50.9473 0.499998 51.8173 0.499998H53.7373C54.6073 0.499998 54.8473 0.739999 54.8473 1.61V16.7C54.8473 21.53 53.4073 23.3 49.0573 23.3C44.7073 23.3 43.2673 21.53 43.2673 16.7V1.61C43.2673 0.739999 43.5073 0.499998 44.3773 0.499998H46.2973C47.1673 0.499998 47.4073 0.739999 47.4073 1.61V17.42C47.4073 18.62 47.9173 19.1 49.0573 19.1C50.1673 19.1 50.7073 18.62 50.7073 17.42V1.61ZM67.8948 15.8V16.7C67.8948 21.53 66.5148 23.3 62.1648 23.3C57.8148 23.3 56.3748 21.53 56.3748 16.7V6.8C56.3748 1.97 57.8148 0.199998 62.1648 0.199998C66.5148 0.199998 67.8948 1.97 67.8948 6.8V7.7C67.8948 8.57 67.6548 8.81 66.7848 8.81H64.8648C63.9948 8.81 63.7548 8.57 63.7548 7.7V6.08C63.7548 4.88 63.2448 4.4 62.1948 4.4C61.1448 4.4 60.6348 4.88 60.6348 6.08V17.42C60.6348 18.62 61.1448 19.1 62.1948 19.1C63.2448 19.1 63.7548 18.62 63.7548 17.42V15.8C63.7548 14.93 63.9948 14.69 64.8648 14.69H66.7848C67.6548 14.69 67.8948 14.93 67.8948 15.8ZM73.3984 5.24V8.6C73.3984 8.99 73.5184 9.14 73.9384 9.14H77.6584C78.5284 9.14 78.7684 9.38 78.7684 10.25V12.23C78.7684 13.1 78.5284 13.34 77.7184 13.34H73.9384C73.5184 13.34 73.3984 13.46 73.3984 13.88V18.26C73.3984 18.65 73.5184 18.8 73.9384 18.8H78.0184C78.8884 18.8 79.1284 19.04 79.1284 19.91V21.89C79.1284 22.76 78.8884 23 78.0184 23H70.3684C69.4984 23 69.2584 22.76 69.2584 21.89V1.61C69.2584 0.739999 69.4984 0.499998 70.3684 0.499998H78.0184C78.8884 0.499998 79.1284 0.739999 79.1284 1.61V3.59C79.1284 4.46 78.8884 4.7 78.0184 4.7H73.9384C73.5184 4.7 73.3984 4.82 73.3984 5.24Z" fill="#122C24"/>
</svg>
