<svg width="25" height="25" viewBox="0 0 25 25" fill="none" xmlns="http://www.w3.org/2000/svg">
<path d="M21.1475 12.8971L14.3975 19.6471C14.2909 19.7465 14.1498 19.8006 14.0041 19.798C13.8584 19.7955 13.7193 19.7364 13.6163 19.6334C13.5132 19.5303 13.4542 19.3913 13.4516 19.2455C13.449 19.0998 13.5031 18.9588 13.6025 18.8521L19.3916 13.0621H4.25C4.10082 13.0621 3.95774 13.0029 3.85225 12.8974C3.74676 12.7919 3.6875 12.6488 3.6875 12.4996C3.6875 12.3505 3.74676 12.2074 3.85225 12.1019C3.95774 11.9964 4.10082 11.9371 4.25 11.9371H19.3916L13.6025 6.14714C13.5031 6.04051 13.449 5.89947 13.4516 5.75375C13.4542 5.60802 13.5132 5.46898 13.6163 5.36592C13.7193 5.26286 13.8584 5.20383 14.0041 5.20126C14.1498 5.19869 14.2909 5.25278 14.3975 5.35214L21.1475 12.1021C21.2528 12.2076 21.312 12.3506 21.312 12.4996C21.312 12.6487 21.2528 12.7917 21.1475 12.8971Z" fill="#111111"/>
</svg>
