<svg version="1.1" id="Layer_1" xmlns:x="ns_extend;" xmlns:i="ns_ai;" xmlns:graph="ns_graphs;" xmlns="http://www.w3.org/2000/svg" xmlns:xlink="http://www.w3.org/1999/xlink" x="0px" y="0px" viewBox="0 0 229 54" style="enable-background:new 0 0 229 54;" xml:space="preserve">
 <style type="text/css">
  .st0{fill-rule:evenodd;clip-rule:evenodd;fill:#FFFFFF;}
	.st1{fill:none;}
	.st2{fill-rule:evenodd;clip-rule:evenodd;fill:#DFBB24;}
 </style>
 <metadata>
  <sfw xmlns="ns_sfw;">
   <slices>
   </slices>
   <sliceSourceBounds bottomLeftOrigin="true" height="53.1" width="228.7" x="0" y="0.4">
   </sliceSourceBounds>
  </sfw>
 </metadata>
 <path class="st0" d="M38.4,17.7c0,4.5,0.1,6.5,0.7,7.1c0.5,0.5,1.3,0.7,3.7,0.7c1.6,0,3,0,3.7-0.9c0.4-0.5,0.7-1.3,0.8-1.9
	c0-0.2,0.1-0.4,0.3-0.4c0.2,0,0.2,0.1,0.2,0.5s-0.2,2.2-0.5,3.1c-0.2,0.7-0.3,0.8-2,0.8c-4.4,0-6.5-0.2-8.3-0.2
	c-0.3,0-2.1,0.1-3,0.1c-0.3,0-0.5-0.1-0.5-0.2c0-0.1,0.1-0.2,0.2-0.2c0.3,0,0.7-0.1,0.9-0.1c0.6-0.1,0.8-0.8,0.9-1.7
	c0.2-1.3,0.2-3.7,0.2-6.7v-5.4c0-4.8,0-5.7-0.1-6.7c-0.1-1-0.3-1.5-1.3-1.8c-0.2-0.1-0.8-0.1-1-0.1c-0.1,0-0.2-0.1-0.2-0.2
	c0-0.2,0.2-0.2,0.5-0.2c1.4,0,3.3,0.1,3.5,0.1s2.4-0.1,3.3-0.1c0.3,0,0.5,0.1,0.5,0.2c0,0.1-0.1,0.2-0.2,0.2c-0.2,0-0.7,0-1,0.1
	c-0.9,0.2-1.1,0.7-1.2,1.8c-0.1,1-0.1,1.9-0.1,6.7C38.4,12.2,38.4,17.7,38.4,17.7z M52.5,23.2c-0.5,1.5-1.2,2.7-2.6,2.9
	c-0.2,0-0.7,0.1-0.9,0.1c-0.2,0-0.3,0.1-0.3,0.2c0,0.2,0.2,0.2,0.6,0.2c1.5,0,3.1-0.1,3.5-0.1s1.7,0.1,2.4,0.1
	c0.3,0,0.5-0.1,0.5-0.2c0-0.1-0.1-0.2-0.3-0.2h-0.3c-0.5,0-1.2-0.3-1.2-0.9c0-0.5,0.2-1.3,0.4-2.1l1.8-5.4c0.1-0.2,0.2-0.2,0.3-0.2
	h6.6c0.2,0,0.2,0.1,0.3,0.2l2.9,7.6c0.2,0.5,0,0.8-0.2,0.8c-0.1,0-0.2,0.1-0.2,0.2c0,0.2,0.3,0.2,0.9,0.2c2.1,0.1,4.4,0.1,4.8,0.1
	c0.3,0,0.6-0.1,0.6-0.2c0-0.2-0.1-0.2-0.3-0.2c-0.3,0-0.8,0-1.2-0.2c-0.7-0.2-1.5-0.7-2.7-3.4C66.2,17.9,61.4,5.1,60.9,4
	c-0.4-1-0.5-1.1-0.7-1.1c-0.2,0-0.3,0.2-0.7,1.2C59.5,4.1,52.5,23.2,52.5,23.2z M56.9,16.4c-0.1,0-0.2-0.1-0.1-0.2l2.7-8.3
	c0.2-0.5,0.3-0.5,0.5,0l2.9,8.3c0,0.1,0,0.2-0.1,0.2H56.9z M78.2,22.4c0.1,2.5,0.4,3.3,1.2,3.6c0.6,0.2,1.3,0.2,1.5,0.2
	c0.2,0,0.2,0.1,0.2,0.2c0,0.2-0.2,0.2-0.6,0.2c-1.8,0-3-0.1-3.3-0.1s-1.6,0.1-3,0.1c-0.3,0-0.5,0-0.5-0.2c0-0.1,0.1-0.2,0.2-0.2
	c0.2,0,0.8,0,1.3-0.2c0.8-0.2,0.9-1.1,0.9-3.9l0-17.6c0-1.2,0.1-1.5,0.3-1.5c0.2,0,0.8,0.7,1.1,1c0.5,0.5,5.1,5.5,9.8,10.6
	c3.1,3.3,6.4,7,7.4,8L94.7,6.8c0-2-0.2-2.7-1.2-2.9c-0.6-0.1-1.3-0.2-1.5-0.2c-0.2,0-0.2-0.1-0.2-0.2c0-0.2,0.2-0.2,0.6-0.2
	c1.4,0,2.9,0.1,3.2,0.1s1.4-0.1,2.6-0.1c0.3,0,0.6,0,0.6,0.2c0,0.1-0.1,0.2-0.3,0.2c-0.2,0-0.4,0-0.7,0.1c-1,0.2-1.1,0.9-1.1,2.8
	l-0.1,18c0,2-0.1,2.2-0.3,2.2c-0.2,0-0.6-0.3-2.2-2c-0.3-0.3-4.8-4.8-8.1-8.4c-3.6-3.9-7.1-7.7-8.1-8.8L78.2,22.4L78.2,22.4z
	 M103.6,17.7c0,3,0,5.4-0.2,6.7c-0.1,0.9-0.3,1.6-0.9,1.7c-0.3,0.1-0.6,0.1-0.9,0.1c-0.2,0-0.2,0.1-0.2,0.2c0,0.2,0.2,0.2,0.5,0.2
	c0.9,0,2.9-0.1,3-0.1c0.3,0,4.2,0.4,6.8,0.4c5.2,0,8-2.1,9.3-3.5c1.7-1.8,3.3-4.8,3.3-8.7c0-3.7-1.4-6.2-3-7.8
	c-3.7-3.8-9.3-3.5-12.4-3.5c-1.8,0-3.8,0.1-4.2,0.1c-0.2,0-2.1-0.1-3.5-0.1c-0.3,0-0.5,0.1-0.5,0.2c0,0.1,0.1,0.2,0.2,0.2
	c0.3,0,0.8,0,1.1,0.1c1,0.2,1.3,0.7,1.3,1.8c0.1,1,0.1,1.9,0.1,6.7L103.6,17.7L103.6,17.7z M106.2,11.7c0-2.4,0-5.5,0-6.6
	c0-0.3,0.1-0.5,0.4-0.6c0.2-0.1,1.4-0.2,2-0.2c3.7,0,7.2,0.4,10.1,3.5c1.3,1.3,3,3.9,3,7.8c0,2.8-0.9,5.8-2.5,7.4
	c-1.8,1.8-4.5,2.9-7.3,2.9c-3.6,0-4.8-0.6-5.2-1.2c-0.2-0.3-0.3-1.6-0.3-2.3c0-0.6-0.1-3.4-0.1-6.7
	C106.2,15.6,106.2,11.7,106.2,11.7z M152.3,22.6c0.1,1.1,0.3,2.8,1.7,3.3c0.9,0.3,1.7,0.3,2,0.3c0.1,0,0.2,0,0.2,0.1
	c0,0.2-0.3,0.3-0.6,0.3c-0.7,0-4-0.1-5.1-0.2c-0.7,0-0.9-0.1-0.9-0.3c0-0.1,0.1-0.2,0.2-0.2c0.2,0,0.2-0.6,0.1-1.1l-1.5-15.9h-0.1
	l-7.6,16c-0.6,1.4-0.7,1.6-1,1.6c-0.2,0-0.4-0.3-0.9-1.4c-0.8-1.5-3.5-6.8-3.6-7.1c-0.3-0.5-3.7-7.9-4.1-8.8h-0.1l-1.2,14.3
	c0,0.5,0,1,0,1.6c0,0.5,0.3,0.9,0.8,0.9c0.5,0.1,1,0.2,1.2,0.2c0.1,0,0.2,0.1,0.2,0.1c0,0.2-0.2,0.3-0.6,0.3c-1.1,0-2.6-0.1-2.9-0.1
	c-0.3,0-1.8,0.1-2.6,0.1c-0.3,0-0.5-0.1-0.5-0.3c0-0.1,0.2-0.1,0.3-0.1c0.3,0,0.5,0,0.9-0.1c1-0.2,1.1-1.4,1.2-2.6l2.2-20.1
	c0.1-0.3,0.2-0.5,0.3-0.5c0.2,0,0.3,0.1,0.5,0.5l9.4,19.4l9.1-19.3c0.1-0.3,0.2-0.5,0.5-0.5c0.2,0,0.3,0.2,0.4,0.8L152.3,22.6
	L152.3,22.6z M160.5,23.2c-0.6,1.5-1.2,2.7-2.6,2.9c-0.2,0-0.7,0.1-0.9,0.1c-0.2,0-0.3,0.1-0.3,0.2c0,0.2,0.2,0.2,0.6,0.2
	c1.5,0,3.2-0.1,3.5-0.1c0.3,0,1.7,0.1,2.4,0.1c0.3,0,0.5-0.1,0.5-0.2c0-0.1-0.1-0.2-0.3-0.2H163c-0.5,0-1.2-0.3-1.2-0.9
	c0-0.5,0.1-1.3,0.4-2.1l1.8-5.4c0.1-0.2,0.2-0.2,0.3-0.2h6.6c0.2,0,0.2,0.1,0.3,0.2l2.9,7.6c0.2,0.5,0,0.8-0.2,0.8
	c-0.1,0-0.2,0.1-0.2,0.2c0,0.2,0.3,0.2,0.9,0.2c2.1,0.1,4.4,0.1,4.9,0.1c0.3,0,0.6-0.1,0.6-0.2c0-0.2-0.1-0.2-0.3-0.2
	c-0.3,0-0.8,0-1.2-0.2c-0.7-0.2-1.6-0.7-2.7-3.4c-1.9-4.7-6.7-17.4-7.2-18.6c-0.4-1-0.5-1.1-0.7-1.1c-0.2,0-0.3,0.2-0.7,1.2
	L160.5,23.2L160.5,23.2z M164.8,16.4c-0.1,0-0.2-0.1-0.1-0.2l2.7-8.3c0.2-0.5,0.3-0.5,0.5,0l2.9,8.3c0,0.1,0,0.2-0.1,0.2H164.8z
	 M183.4,17.7c0,3,0,5.4-0.1,6.7c-0.1,0.9-0.3,1.6-0.9,1.7c-0.3,0.1-0.6,0.1-0.9,0.1c-0.2,0-0.2,0.1-0.2,0.2c0,0.2,0.1,0.2,0.5,0.2
	c0.9,0,2.9-0.1,2.9-0.1c0.1,0,2.1,0.1,3.8,0.1c0.3,0,0.5-0.1,0.5-0.2c0-0.1-0.1-0.2-0.2-0.2c-0.3,0-1-0.1-1.4-0.1
	c-0.9-0.1-1.1-0.8-1.2-1.7c-0.2-1.3-0.2-3.7-0.2-6.7v-0.8c0-0.1,0.1-0.2,0.2-0.2l3.8,0c0.2,0,0.3,0.1,0.4,0.2
	c0.6,0.8,2.1,2.9,3.4,4.6c1.8,2.3,2.8,3.8,4.2,4.5c0.8,0.5,1.6,0.6,3.3,0.6h2.2c0.6,0,0.8-0.1,0.8-0.2c0-0.1-0.1-0.2-0.3-0.2
	c-0.2,0-0.6,0-1.2-0.1c-0.8-0.1-2.1-0.5-3.8-2.2c-1.8-1.9-3.9-4.7-6.4-7.9c2.8-2.6,3.7-4.8,3.7-7.1c0-2.1-1.4-3.6-2.1-4.2
	c-1.6-1.2-3.7-1.4-5.6-1.4c-1,0-3.3,0.1-3.6,0.1c-0.2,0-2.1-0.1-3.5-0.1c-0.3,0-0.5,0.1-0.5,0.2c0,0.1,0.1,0.2,0.2,0.2
	c0.3,0,0.8,0,1.1,0.1c1,0.2,1.3,0.7,1.3,1.8c0.1,1,0.1,1.9,0.1,6.7V17.7z M185.9,4.8c0-0.2,0.1-0.3,0.3-0.4c0.3-0.1,1.1-0.2,2.1-0.2
	c3.3,0,5.3,2.3,5.3,6.1c0,2.4-0.8,4-1.9,4.8c-0.7,0.5-1.6,0.6-2.3,0.6c-1.4,0-2.8-0.2-3.2-0.5c-0.2-0.1-0.2-0.2-0.2-0.4L185.9,4.8
	L185.9,4.8z M207.4,12.2c0-4.8,0-5.7-0.1-6.7c-0.1-1-0.3-1.5-1.3-1.8c-0.2-0.1-0.8-0.1-1.1-0.1c-0.1,0-0.2-0.1-0.2-0.2
	c0-0.2,0.1-0.2,0.5-0.2c1.4,0,3.2,0.1,3.4,0.1c0.3,0,2.1-0.1,3-0.1c0.3,0,0.5,0.1,0.5,0.2c0,0.1-0.1,0.2-0.2,0.2
	c-0.2,0-0.4,0-0.8,0.1c-0.8,0.2-1.1,0.7-1.1,1.8c-0.1,1-0.1,1.9-0.1,6.7v1.9h0.1c0.5-0.6,6.1-6.3,7.2-7.5c0.9-0.9,1.7-1.7,1.7-2.2
	c0-0.4-0.1-0.6-0.4-0.7c-0.2-0.1-0.3-0.1-0.3-0.2c0-0.2,0.2-0.2,0.4-0.2c0.6,0,1.6,0.1,2.3,0.1c0.1,0,2.2-0.1,3-0.1
	c0.3,0,0.5,0.1,0.5,0.2s-0.1,0.2-0.3,0.2c-0.5,0-1.1,0.2-1.7,0.4c-1.3,0.6-1.9,1.3-3.3,2.7c-0.8,0.8-6.1,6-6.8,6.8
	c0.8,0.9,7.2,7.5,8.5,8.7c2.6,2.4,3.1,2.9,4.6,3.5c0.8,0.3,1.7,0.4,1.9,0.4s0.4,0.1,0.4,0.2c0,0.1-0.2,0.2-0.7,0.2h-1.6
	c-0.9,0-1.5,0-2.1-0.1c-1.6-0.1-2.4-0.8-3.7-1.9c-1.4-1.1-7.9-8.2-9.4-10h-0.1v3c0,3,0,5.4,0.1,6.7c0.1,0.9,0.3,1.6,1.2,1.7
	c0.4,0.1,0.9,0.1,1.2,0.1c0.2,0,0.2,0.1,0.2,0.2c0,0.1-0.2,0.2-0.5,0.2c-1.5,0-3.3-0.1-3.6-0.1c-0.2,0-2,0.1-3,0.1
	c-0.3,0-0.5-0.1-0.5-0.2c0-0.1,0.1-0.2,0.3-0.2c0.3,0,0.6-0.1,0.9-0.1c0.6-0.1,0.8-0.8,0.9-1.7c0.2-1.3,0.2-3.7,0.2-6.7L207.4,12.2
	L207.4,12.2z M156,47.1c0-2-0.1-2.2-1.1-2.5c-0.2-0.1-0.6-0.1-0.8-0.1c-0.1,0-0.2,0-0.2-0.1c0-0.2,0.1-0.2,0.4-0.2
	c1.1,0,2.6,0.1,2.7,0.1s1.6-0.1,2.4-0.1c0.3,0,0.4,0,0.4,0.2c0,0.1-0.1,0.1-0.2,0.1c-0.2,0-0.3,0-0.6,0.1c-0.6,0.1-0.8,0.5-0.9,1.4
	c0,0.8,0,1.5,0,2.5v2.7c0,1.1,0,1.1-0.3,1.3c-1.6,0.8-3.7,1.1-5.1,1.1c-1.8,0-5.3-0.2-7.9-2.6c-1.5-1.3-2.9-3.8-2.9-6.9
	c0-3.8,1.9-6.6,4-7.9c2.2-1.3,4.6-1.5,6.4-1.5c1.5,0,3.2,0.3,3.7,0.4c0.5,0.1,1.3,0.2,1.9,0.2c0.2,0,0.3,0.1,0.3,0.2
	c0,0.3-0.2,1-0.2,3.4c0,0.4-0.1,0.5-0.2,0.5c-0.1,0-0.1-0.1-0.2-0.4c0-0.3-0.1-1-0.5-1.6c-0.6-0.9-2.6-2-5.7-2
	c-1.5,0-3.3,0.2-5.2,1.6c-1.4,1.1-2.4,3.3-2.4,6.1c0,3.4,1.7,5.8,2.6,6.7c1.9,1.9,4.1,2.6,6.3,2.6c0.9,0,2.1-0.1,2.7-0.5
	c0.3-0.2,0.5-0.4,0.5-0.8V47.1z M162.5,46.2c0,2.3,0,4.2-0.1,5.2c-0.1,0.7-0.2,1.2-0.7,1.3c-0.2,0-0.5,0.1-0.7,0.1
	c-0.1,0-0.2,0.1-0.2,0.2c0,0.1,0.1,0.2,0.4,0.2c0.7,0,2.2-0.1,2.3-0.1c0.1,0,1.6,0.1,3,0.1c0.3,0,0.4-0.1,0.4-0.2
	c0-0.1-0.1-0.2-0.2-0.2c-0.2,0-0.7,0-1.1-0.1c-0.7-0.1-0.9-0.6-0.9-1.3c-0.1-1-0.1-2.9-0.1-5.2v-0.6c0-0.1,0-0.2,0.2-0.2l3,0
	c0.1,0,0.2,0,0.3,0.1c0.5,0.6,1.6,2.2,2.6,3.6c1.4,1.8,2.2,3,3.2,3.5c0.6,0.3,1.2,0.5,2.6,0.5h1.7c0.4,0,0.6,0,0.6-0.2
	c0-0.1-0.1-0.2-0.2-0.2c-0.1,0-0.5,0-0.9-0.1c-0.6-0.1-1.6-0.4-2.9-1.7c-1.4-1.5-3.1-3.7-5-6.2c2.2-2,2.9-3.8,2.9-5.6
	c0-1.7-1.1-2.8-1.7-3.3c-1.3-0.9-2.9-1.1-4.4-1.1c-0.8,0-2.6,0.1-2.8,0.1c-0.1,0-1.6-0.1-2.7-0.1c-0.3,0-0.4,0-0.4,0.2
	c0,0.1,0.1,0.2,0.2,0.2c0.2,0,0.6,0,0.8,0.1c0.8,0.2,1,0.5,1,1.4c0,0.8,0,1.4,0,5.2C162.5,42,162.5,46.2,162.5,46.2z M164.5,36.2
	c0-0.1,0.1-0.2,0.2-0.3c0.2-0.1,0.9-0.2,1.6-0.2c2.6,0,4.2,1.8,4.2,4.8c0,1.8-0.6,3.1-1.5,3.7c-0.6,0.4-1.2,0.5-1.8,0.5
	c-1.1,0-2.2-0.2-2.5-0.4c-0.1-0.1-0.2-0.2-0.2-0.3V36.2z">
 </path>
 <path class="st1" d="M196.4,53.6h-19V34.7h19V53.6z">
 </path>
 <path class="st0" d="M177.4,44.1c0,4.3,2.8,9.5,9.4,9.5c5.8,0,9.6-4.5,9.6-9.8c0-5.6-4.1-9-9.5-9C180.2,34.7,177.4,40.2,177.4,44.1
	 M179.7,43.4c0-5.3,3-7.9,7.1-7.9c3.8,0,7.3,3.1,7.3,8.9c0,7-4.5,8.2-6.7,8.2C183.1,52.7,179.7,49,179.7,43.4 M198.9,42
	c0-3.8,0-4.4,0-5.2c-0.1-0.8-0.2-1.2-1.1-1.4c-0.2,0-0.6-0.1-0.8-0.1c-0.1,0-0.2,0-0.2-0.2c0-0.2,0.1-0.2,0.4-0.2
	c1.1,0,2.6,0.1,2.8,0.1s1.7-0.1,2.4-0.1c0.3,0,0.4,0,0.4,0.2c0,0.1-0.1,0.2-0.2,0.2c-0.2,0-0.3,0-0.6,0.1c-0.6,0.1-0.9,0.5-0.9,1.4
	c-0.1,0.8-0.1,1.4-0.1,5.2v3.4c0,3.5,0.8,5,1.8,5.9c1.2,1.1,2.3,1.3,3.6,1.3c1.5,0,2.9-0.7,3.8-1.7c1.1-1.4,1.4-3.4,1.4-5.9v-3
	c0-3.8,0-4.4-0.1-5.2c-0.1-0.8-0.2-1.2-1-1.4c-0.2,0-0.6-0.1-0.8-0.1c-0.1,0-0.2,0-0.2-0.2c0-0.2,0.1-0.2,0.4-0.2
	c1.1,0,2.4,0.1,2.6,0.1c0.2,0,1.3-0.1,2-0.1c0.3,0,0.4,0,0.4,0.2c0,0.1-0.1,0.2-0.2,0.2c-0.2,0-0.3,0-0.6,0.1
	c-0.7,0.1-0.8,0.5-0.9,1.4c-0.1,0.8-0.1,1.4-0.1,5.2v2.6c0,2.6-0.3,5.5-2.2,7.2c-1.7,1.5-3.6,1.8-5,1.8c-0.8,0-3.2-0.1-5-1.7
	c-1.2-1.1-2.1-2.8-2.1-6.3L198.9,42L198.9,42z">
 </path>
 <path class="st1" d="M228.7,53.2V35h-11.9v18.2C216.9,53.2,228.7,53.2,228.7,53.2z">
 </path>
 <path class="st0" d="M219,42c0-3.8,0-4.4-0.1-5.2c0-0.8-0.2-1.2-1-1.4c-0.2,0-0.6-0.1-0.8-0.1c-0.1,0-0.2,0-0.2-0.2
	c0-0.2,0.1-0.2,0.4-0.2c1.1,0,2.5,0.1,2.7,0.1c0.5,0,1.9-0.1,3-0.1c3,0,4.1,1,4.5,1.4c0.5,0.5,1.2,1.6,1.2,2.9
	c0,3.4-2.5,5.7-5.9,5.7c-0.1,0-0.4,0-0.5,0c-0.1,0-0.3,0-0.3-0.2c0-0.2,0.1-0.2,0.6-0.2c2.3,0,4.2-1.7,4.2-3.9
	c0-0.8-0.1-2.4-1.4-3.7c-1.3-1.3-2.8-1.2-3.3-1.2c-0.4,0-0.8,0-1.1,0.1c-0.1,0.1-0.2,0.2-0.2,0.5v9.9c0,2.3,0,4.2,0.1,5.2
	c0.1,0.7,0.2,1.2,0.9,1.3c0.3,0,0.9,0.1,1.1,0.1c0.1,0,0.2,0.1,0.2,0.2c0,0.1-0.1,0.2-0.4,0.2c-1.3,0-2.8-0.1-3-0.1
	c-0.1,0-1.6,0.1-2.3,0.1c-0.3,0-0.4,0-0.4-0.2c0-0.1,0.1-0.2,0.2-0.2c0.2,0,0.5,0,0.7-0.1c0.5-0.1,0.6-0.6,0.7-1.3
	c0.1-1,0.1-2.9,0.1-5.2L219,42L219,42z">
 </path>
 <path class="st2" d="M24.7,20.3C24.7,20.3,24.7,20.3,24.7,20.3l-9.4,0v3.8h6.3c-1.9,1.5-4.1,2-6.6,2c-4.6,0-8.5-2.8-10.2-6.7h18v0
	h6.4c0.4-1.2,0.6-2.5,0.7-3.8H26c0,0,0,0,0,0l-22.2,0v0H0c0.4,7.9,6.9,14.2,14.9,14.2c6.5,0,11.8-3.8,13.8-9.5
	C28.7,20.3,24.7,20.3,24.7,20.3z M25.1,10.9l-20.5,0c1.7-3.9,5.6-6.7,10.2-6.7V0.4C6.9,0.4,0.4,6.7,0,14.6h29.7
	c0-1.3-0.3-2.6-0.7-3.7C29.1,10.9,25.1,10.9,25.1,10.9z">
 </path>
</svg>