<?xml version="1.0" encoding="UTF-8" standalone="no"?>
<!-- Created with Inkscape (http://www.inkscape.org/) -->

<svg
   xmlns="http://www.w3.org/2000/svg"
   xmlns:xlink="http://www.w3.org/1999/xlink"
   width="146.92488"
   height="78.081062"
   viewBox="0 0 38.873874 20.658948"
   version="1.1">
  <g
     transform="translate(-51.363183,-81.042464)">
    <switch
       id="switch3722"
       transform="matrix(0.33987052,0,0,0.33987052,-134.99148,-111.35976)">

	<g>
		<g
   id="XMLID_47_">
			<path
   d="m 608.3,569 c 0,-1.8 0.3,-2.1 1.9,-2.1 1.6,0 1.9,0.2 1.9,2.1 v 18.7 c 0,0.9 0.5,1.8 1.5,1.8 H 627 c 1.2,0 1.4,-1 1.4,-1.8 v -6.6 c 0,-1.9 0.3,-2.1 1.9,-2.1 1.6,0 1.9,0.2 1.9,2.1 v 6.6 c 0,0.9 0.5,1.8 1.5,1.8 h 9 c 1.2,0 1,-1 1,-1.8 v -6.6 c 0,-1.9 0.8,-2.1 2.4,-2.1 1.6,0 2.4,0.2 2.4,2.1 v 6.6 c 0,0.9 0,1.8 1.2,1.8 h 6.8 c 1.2,0 1.6,-1 1.6,-1.8 v -6.6 c 0,-1.9 0.3,-2.1 1.9,-2.1 1.6,0 1.9,0.2 1.9,2.1 v 6.6 c 0,4 -1,4.8 -4.8,4.8 H 613 c -3.8,0 -4.7,-0.9 -4.7,-4.8 z M 580,567.6 c 1,1.3 1,1.7 -0.5,2.8 l -10.2,8.2 c -0.3,0.2 -0.4,0.9 0.3,0.9 h 14.5 c 3.5,0 4,0.4 4,3.8 v 4.3 c 0,0.9 0.4,1.8 1.4,1.8 h 9 c 1.1,0 1,-1 1,-1.8 V 581 c 0,-1.9 0.8,-2.1 2.4,-2.1 1.6,0 2.4,0.2 2.4,2.1 v 6.6 c 0,4 -1.2,4.8 -5.1,4.8 h -50.5 c 0.3,-2 2.5,-3 5.4,-3 h 28.7 c 0.9,0 1.4,-0.6 1.4,-1.5 v -4.3 c 0,-0.8 -0.4,-1.2 -1.4,-1.2 h -15.9 c -2.7,0 -3.5,-1.5 -3.5,-2.8 0,-1.2 0.9,-2.2 1.9,-3 l 11.9,-9.4 c 1.5,-1 1.8,-1 2.8,0.4 m 15.7,32.5 -1,1.1 c -1.2,1.2 -2.2,1.3 -3.2,0.4 -1,-1 -0.9,-2.1 0.3,-3.3 l 1.1,-1.1 c 1.2,-1.2 2.2,-1.3 3.2,-0.4 0.9,1 0.8,2.1 -0.4,3.3"
   id="XMLID_156_"
   style="fill:#0047af" />

			<path
   d="m 596.4,626.5 c 2.5,0 3.3,-0.8 3.3,-3.3 v -1.5 c 0,-2.6 -0.7,-3.2 -3.3,-3.2 h -8.2 c -0.1,0 -0.2,0 -0.2,-0.1 0,-0.3 3.5,-2.6 10.2,-2.8 1.1,0 1.2,-0.5 1.2,-1.5 0,-0.9 -0.3,-1.4 -1.5,-1.4 -8.8,0 -13.9,4.6 -13.9,7 0,1.1 0.6,1.8 2.9,1.8 h 8.7 c 0.7,0 0.3,0 0.3,0.5 v 0.9 c 0,0.5 0.3,0.6 -0.3,0.6 h -11.7 c -2.1,0 -3.7,1 -4,3 z m 43.9,-17.4 -0.7,0.7 c -1,1 -1.7,1.1 -2.5,0.3 -0.8,-0.8 -0.7,-1.7 0.3,-2.6 l 0.7,-0.8 c 1,-0.9 1.7,-1.1 2.5,-0.3 0.7,0.9 0.6,1.8 -0.3,2.7 m -37.2,17.4 c -1.2,0 -2.1,-0.4 -2.1,-2.1 0,-7 7.2,-11.7 10.1,-11.7 1,0 1.2,0.7 1.2,1.6 v 4.4 c 0,1.2 0,1.6 -1.4,1.6 -1.3,0 -1.4,-0.4 -1.4,-1.6 v -2.3 c 0,-0.1 0.1,-0.1 0.1,-0.1 -1.2,0 -5.3,3.7 -5.3,6.7 0,0.3 0.1,0.5 0.9,0.5 h 8.4 c 0.7,0 0.7,-0.2 0.7,-0.8 v -12 c 0,-1.4 0.7,-1.7 1.9,-1.7 1.2,0 1.9,0.2 1.9,1.7 v 12 c 0,2.9 -1.2,3.8 -4,3.8 z m 20.2,0 c -2.8,0 -3.5,-0.9 -3.5,-3.8 v -19.5 c 0,-1.4 0.2,-1.6 1.4,-1.6 1.2,0 1.4,0.2 1.4,1.6 v 19.5 c 0,0.6 0.4,0.8 1.1,0.8 h 8.3 c 0.8,0 0.8,-0.2 0.8,-0.5 0,-1.4 -1.9,-5.5 -7.8,-7.3 -1.1,-0.3 -1.2,-0.9 -0.8,-1.9 0.4,-1.1 1.1,-1.1 1.9,-0.9 6.9,2.1 9.9,6.9 9.9,11.5 0,1.7 -1,2.1 -2.1,2.1 z m 14.7,-2 V 616 c 0,-0.2 0.2,-0.5 -0.1,-0.5 h -0.6 c -1.2,0 -1.6,-0.4 -1.6,-1.5 0,-1.1 0.4,-1.5 1.6,-1.5 h 2.6 c 0.9,0 1.1,0.7 1.1,1.7 v 10.6 c 0,1.4 -0.3,1.7 -1.4,1.7 -1.2,0 -1.5,-0.2 -1.5,-1.7 v -0.3 z m 5.2,-0.1 c 0,-5.1 4.2,-11.7 12.8,-11.7 1,0 1.2,0.7 1.2,1.6 v 4.4 c 0,1.2 -0.1,1.6 -1.4,1.6 -1.3,0 -1.4,-0.4 -1.4,-1.6 v -2.3 c 0,-0.4 0,-0.5 -0.2,-0.5 -4.6,0 -7.9,4.9 -7.9,7.1 0,0.3 0.1,0.5 0.9,0.5 h 11.1 c 2.1,0 3.7,1 4,3 h -16.8 c -1.3,0 -2.3,-0.4 -2.3,-2.1"
   id="XMLID_49_"
   style="fill:#ff9700" />

		</g>

	</g>

</switch>
  </g>
</svg>
