<svg xmlns="http://www.w3.org/2000/svg" xmlns:xlink="http://www.w3.org/1999/xlink" viewBox="0 0 118.82 52.71"><defs><style>.cls-1{fill:url(#linear-gradient);}.cls-2{fill:#fff;}.cls-3{fill:url(#linear-gradient-2);}.cls-4{fill:url(#linear-gradient-3);}.cls-5{fill:url(#linear-gradient-4);}.cls-6{fill:url(#linear-gradient-5);}.cls-7{fill:url(#linear-gradient-6);}.cls-8,.cls-9{fill:#00486c;}.cls-9{fill-rule:evenodd;}</style><linearGradient id="linear-gradient" x1="23.29" y1="35.61" x2="33.66" y2="4.35" gradientUnits="userSpaceOnUse"><stop offset="0" stop-color="#f4dd55"/><stop offset="0.2" stop-color="#f3d74b"/><stop offset="0.53" stop-color="#f0c830"/><stop offset="0.97" stop-color="#ebb004"/><stop offset="1" stop-color="#ebae00"/></linearGradient><linearGradient id="linear-gradient-2" x1="26.43" y1="52.71" x2="26.43" y2="32.46" gradientUnits="userSpaceOnUse"><stop offset="0.79" stop-color="#f4dd55"/><stop offset="1" stop-color="#ebae00"/></linearGradient><linearGradient id="linear-gradient-3" x1="26.2" y1="52.71" x2="26.2" y2="33.13" gradientUnits="userSpaceOnUse"><stop offset="0.65" stop-color="#f4dd55"/><stop offset="1" stop-color="#ebae00"/></linearGradient><linearGradient id="linear-gradient-4" x1="26.63" y1="52.71" x2="26.63" y2="39.84" gradientUnits="userSpaceOnUse"><stop offset="0.68" stop-color="#f4dd55"/><stop offset="0.9" stop-color="#ebae00"/></linearGradient><linearGradient id="linear-gradient-5" x1="25.88" y1="52.71" x2="25.88" y2="44.29" gradientUnits="userSpaceOnUse"><stop offset="0" stop-color="#f4dd55"/><stop offset="0.43" stop-color="#f4dd55"/><stop offset="0.71" stop-color="#ebae00"/><stop offset="1" stop-color="#ebae00"/></linearGradient><linearGradient id="linear-gradient-6" x1="31.45" y1="57.53" x2="31.45" y2="48.47" gradientUnits="userSpaceOnUse"><stop offset="0" stop-color="#f4dd55"/><stop offset="1" stop-color="#ebae00"/></linearGradient></defs><g id="Layer_2" data-name="Layer 2"><g id="Layer_1-2" data-name="Layer 1"><path class="cls-1" d="M26.36,52.71A26.36,26.36,0,1,1,52.71,26.36,26.36,26.36,0,0,1,26.36,52.71Z"/><circle class="cls-2" cx="14.77" cy="31.7" r="8.76"/><path class="cls-2" d="M25.74,52.35A26.29,26.29,0,0,0,51.59,32.46a15.74,15.74,0,0,0-3.8.49c-1.27.4-1.84,1-3.14,1.4-2.27.68-5.89.44-8.61-.06s-5.17-1.23-8.14-1.5a59.45,59.45,0,0,0-12,.62c-3.87.43-8.38.74-11.93,0a17,17,0,0,1-3.31-1A26.12,26.12,0,0,0,25.74,52.35Z"/><path class="cls-3" d="M26.36,52.71A26.36,26.36,0,0,0,52,32.46a15.82,15.82,0,0,0-3.84.59c-1.26.41-1.82,1-3.12,1.44-2.26.7-5.88.51-8.61,0a82,82,0,0,0-8.16-1.4,59.35,59.35,0,0,0-11.95.77c-3.86.48-8.37.84-11.92.13-1.27-.25-2.38-.63-3.53-1A26.35,26.35,0,0,0,26.36,52.71Z"/><path class="cls-2" d="M50.74,35.83l0-.1a43.81,43.81,0,0,1-5-1.06,15.48,15.48,0,0,0-5.82-1c-2.39.25-3.76,1.62-5.78,2.37a16.81,16.81,0,0,1-8.57.27A66.23,66.23,0,0,1,17.73,34a26.58,26.58,0,0,0-8.38-1.56C6.44,32.43,1.14,34,1.14,34s.22.73.3.92C6.07,46.38,50.72,35.88,50.74,35.83Z"/><path class="cls-4" d="M26.36,52.71A26.35,26.35,0,0,0,51,35.82a39.7,39.7,0,0,1-4.9-1,15.32,15.32,0,0,0-5.8-.87c-2.37.29-3.71,1.68-5.71,2.45a16.54,16.54,0,0,1-8.51.4,63.58,63.58,0,0,1-7.87-2.26,26.68,26.68,0,0,0-8.35-1.44,25.39,25.39,0,0,0-8,1.7L1.44,35A26.36,26.36,0,0,0,26.36,52.71Z"/><path class="cls-2" d="M49,39.93a21.28,21.28,0,0,0-3.4-.19c-4.06.09-7.77,1.62-11.83,1.69-4.93.09-9.25-2-14.18-1.84a36.15,36.15,0,0,0-7.9,1.46,27.27,27.27,0,0,1-5.6.89c2.48,3.23,12.15,4.53,21.76,4.12,14-.59,19.5-3.64,20.45-5C48.72,40.35,48.72,40.3,49,39.93Z"/><path class="cls-5" d="M26.36,52.71A26.31,26.31,0,0,0,48.25,41a24.92,24.92,0,0,0-3.68-.32c-4.06,0-7.82,1.41-11.88,1.37-4.92,0-9.19-2.23-14.11-2.24a37.06,37.06,0,0,0-7.94,1.24A27.65,27.65,0,0,1,5,41.82,26.33,26.33,0,0,0,26.36,52.71Z"/><path class="cls-2" d="M25.54,52.47a26.5,26.5,0,0,0,18.25-6.62,52.14,52.14,0,0,0-9,.48c-4.23.5-8.75,1-12.84.14-3.21-.69-5.82-2.19-9.15-2.65a20.72,20.72,0,0,0-6,.16c.16.16.4.44.69.73a26.49,26.49,0,0,0,18.1,7.76Z"/><path class="cls-6" d="M26.36,52.71a26.28,26.28,0,0,0,18-7.08,50.47,50.47,0,0,0-8.94.72c-4.19.6-8.67,1.24-12.76.46-3.21-.61-5.83-2-9.15-2.42a20.73,20.73,0,0,0-6,.32A26.31,26.31,0,0,0,26.36,52.71Z"/><path class="cls-2" d="M41.08,48.22c-2.62-.86-5.47-.33-8.16.48-3.19,1-6.6,2.84-9.79,3.76.14,0,.19,0,.52.07a5.81,5.81,0,0,0,3.12-.85c.84-.33,6.05,1.37,12.9-2.57C40.49,48.63,40.73,48.44,41.08,48.22Z"/><path class="cls-7" d="M39.67,49.11a13.21,13.21,0,0,0-7.74.24c-3,.88-5.73,2.33-8.7,3.18a27,27,0,0,0,3.13.18A26.26,26.26,0,0,0,39.67,49.11Z"/><path class="cls-8" d="M63.68,23.2a1.66,1.66,0,1,0,1.66,1.66,1.66,1.66,0,0,0-1.66-1.66Z"/><path class="cls-8" d="M63.68,23.2a1.66,1.66,0,1,0,1.66,1.66,1.66,1.66,0,0,0-1.66-1.66Z"/><path class="cls-8" d="M29.26,23.2a1.66,1.66,0,1,0,1.65,1.66,1.67,1.67,0,0,0-1.65-1.66Z"/><path class="cls-8" d="M33.66,23.2a1.66,1.66,0,1,0,1.66,1.66,1.66,1.66,0,0,0-1.66-1.66Z"/><path class="cls-9" d="M70.28,35c0-2.86-1.68-4.66-4.59-4.66a4.29,4.29,0,0,0-4.64,4.48c0,2.89,2.08,4.46,4.85,4.46,1.91,0,3.79-.9,4.27-2.88H67.31a1.48,1.48,0,0,1-1.42.77A1.67,1.67,0,0,1,64,35.33h6.26V35Zm-6.06-1.41a1.79,1.79,0,0,1,3.45,0Z"/><path class="cls-8" d="M74.26,30.64h-3V39h3V35c0-.93,0-2.35,1.33-2.35s1.32,1.42,1.32,2.35v4h3V35c0-1,.05-2.29,1.42-2.29s1.23,1.42,1.23,2.29v4h3V33.68c0-1.93-.73-3.32-2.86-3.32A3.21,3.21,0,0,0,79.8,32a3.32,3.32,0,0,0-5.5-.27l0-1.05Z"/><path class="cls-8" d="M51.31,25.46V39h3V34.73c0-1,.38-2,1.55-2s1.34,1,1.34,2V39h3V33.89c0-2.12-1-3.53-3.16-3.53a3.08,3.08,0,0,0-2.67,1.34l0-6.24Z"/><path class="cls-9" d="M37,32.94a1.82,1.82,0,0,1,1.91,1.9,1.91,1.91,0,0,1-3.82,0A1.82,1.82,0,0,1,37,32.94Zm-1.82-2.3h-3V43.2h3v-5a3.43,3.43,0,0,0,2.6,1.08A4.24,4.24,0,0,0,42,34.86a4.31,4.31,0,0,0-4.23-4.5,3,3,0,0,0-2.53,1.23l0-.95Z"/><path class="cls-8" d="M49.62,30.85a4.1,4.1,0,0,0-2-.49A4.49,4.49,0,0,0,43,34.92a4.42,4.42,0,0,0,4.55,4.38,4.73,4.73,0,0,0,2.09-.47V36.31a2.26,2.26,0,0,1-1.48.57,2.05,2.05,0,1,1,0-4.1,2.59,2.59,0,0,1,1.53.59V30.85Z"/><path class="cls-8" d="M25.94,27.39a8.47,8.47,0,0,0-3.86-1,4,4,0,0,0-4.25,4.13c0,2.39,1.33,2.91,3.33,3.48.69.19,1.95.51,1.95,1.41s-.8,1.24-1.55,1.24a4.34,4.34,0,0,1-2.84-1.28l-1.38,2.58a7.56,7.56,0,0,0,4.33,1.41,5.41,5.41,0,0,0,3.5-1.16,4.19,4.19,0,0,0,1.27-3.32c0-2-1.32-2.86-3-3.36l-.81-.25c-.56-.18-1.43-.46-1.43-1.17s.79-1,1.38-1a3.37,3.37,0,0,1,2.12.81l1.28-2.48Z"/><polygon class="cls-8" points="30.73 30.65 27.76 30.65 27.76 39.03 30.73 39.03 30.73 30.65 30.73 30.65"/><path class="cls-8" d="M35.1,20a2.22,2.22,0,0,1-1.59-.6,2.49,2.49,0,0,1-.65-1.06c-.29,1.09-1,1.66-2.55,1.66H27.19a4.6,4.6,0,0,1-5,3.43h-.17a4.5,4.5,0,0,1-1.31-.34,1.55,1.55,0,0,1-.43-.26v2.42H17.39V18.41a3.71,3.71,0,0,1,1-2.45,5.27,5.27,0,0,1,3.88-1.48,4.86,4.86,0,0,1,4.83,3h2.17a1.23,1.23,0,0,0,1.19-1.21V11.5h3v4.76a1.21,1.21,0,0,0,1.33,1.19l21,0v-.41c0-1.49-1.39-1.36-2.19-1.36H38.42V13.09l3.1-3h4.09l-3.25,3H54.68c2.07,0,3.49.91,3.49,3.17,0,0,0,.75,0,1.16h2.59c1.49,0,1.35-1.56,1.35-2.36V11.5h3v3.73c0,.81-.13,2.22,1.35,2.22h3.65c1.49,0,1.35-1.41,1.35-2.22V11.5h3v4s-.18,2.25,1.29,2.23c1.31,0,1.31-1.41,1.31-2.32V11.47H80v3.95c0,1,0,2.25,1.41,2.25s1.2-1.4,1.2-2.25V11.47h2.94v5.37c0,1.73-.74,3.17-2.82,3.17a3.17,3.17,0,0,1-2.81-1.58A3,3,0,0,1,77.11,20a3.08,3.08,0,0,1-2.62-1.3l-.29-.48A2.31,2.31,0,0,1,71.59,20H67.3a2.39,2.39,0,0,1-2.37-1.32l-.23-.52A2.4,2.4,0,0,1,62.08,20h-27Zm-12.86-3A1.83,1.83,0,0,0,20.32,19a1.8,1.8,0,0,0,1.92,1.88A1.8,1.8,0,0,0,24.16,19a1.83,1.83,0,0,0-1.92-1.91Z"/><path class="cls-8" d="M51.33,44.59c0-.27,0-.48,0-.72a3.31,3.31,0,0,1,.61-.07h1.3a.74.74,0,0,1-.16.43,2,2,0,0,1-.5,0H52v1h1.17c-.05.39-.17.47-.36.47H52v1.1a2.14,2.14,0,0,0,.5,0,8.53,8.53,0,0,0,.86,0h0a.61.61,0,0,1-.29.46,6.37,6.37,0,0,1-.73,0,5.47,5.47,0,0,1-1-.06l-.08-.11Z"/><path class="cls-8" d="M53.89,43.89a3,3,0,0,1,.64-.12c.06,0,.11,0,.18.18.31.5.48.76.66,1.06.2-.3.5-.76.73-1.13.06-.08.09-.11.14-.11a1.52,1.52,0,0,1,.48.12v0c-.17.27-.61.91-1.06,1.55l1.14,1.82v0a1.8,1.8,0,0,1-.63.09c-.07,0-.12,0-.18-.12-.22-.34-.45-.73-.74-1.24-.26.45-.63,1-.77,1.24a.17.17,0,0,1-.15.1,2,2,0,0,1-.52-.07v0c.24-.36.75-1.1,1.15-1.71-.31-.5-.87-1.39-1.07-1.67Z"/><path class="cls-8" d="M59.86,46.78a.75.75,0,0,1-.18.44,1.39,1.39,0,0,1-.78.2A1.71,1.71,0,0,1,57,45.6a1.81,1.81,0,0,1,1.9-1.89,1.52,1.52,0,0,1,1,.29c0,.19-.11.38-.28.35a1.88,1.88,0,0,0-.71-.15,1.18,1.18,0,0,0-1.18,1.35,1.25,1.25,0,0,0,1.32,1.36,2.59,2.59,0,0,0,.78-.14Z"/><path class="cls-8" d="M60.52,44.59c0-.27,0-.48,0-.72a3.19,3.19,0,0,1,.6-.07h1.31a.82.82,0,0,1-.16.43,2.1,2.1,0,0,1-.51,0h-.56v1h1.17c-.05.39-.16.47-.35.47h-.82v1.1a2.27,2.27,0,0,0,.5,0c.22,0,.62,0,.87,0h0a.63.63,0,0,1-.28.46,6.7,6.7,0,0,1-.73,0,5.38,5.38,0,0,1-.95-.06l-.08-.11Z"/><path class="cls-8" d="M63.1,44.55c0-.38,0-.61,0-.73a4.18,4.18,0,0,1,.58,0c.09,0,.11,0,.11.34v2.74a1.9,1.9,0,0,0,.48,0,7.68,7.68,0,0,0,.81,0h0a.63.63,0,0,1-.27.46,5.18,5.18,0,0,1-.68,0,5.46,5.46,0,0,1-.93-.06l-.08-.11Z"/><path class="cls-8" d="M65.58,44.55c0-.38,0-.61,0-.73a4,4,0,0,1,.58,0c.09,0,.1,0,.1.34v2.74a2,2,0,0,0,.49,0,7.68,7.68,0,0,0,.81,0h0a.63.63,0,0,1-.27.46,5.33,5.33,0,0,1-.68,0,5.7,5.7,0,0,1-.94-.06l-.07-.11Z"/><path class="cls-8" d="M68.05,44.59c0-.27,0-.48,0-.72a3.31,3.31,0,0,1,.61-.07h1.3a.74.74,0,0,1-.16.43,2,2,0,0,1-.5,0h-.56v1h1.17c0,.39-.17.47-.36.47h-.81v1.1a2.14,2.14,0,0,0,.5,0c.22,0,.61,0,.87,0h0a.61.61,0,0,1-.29.46,6.53,6.53,0,0,1-.73,0,5.47,5.47,0,0,1-1-.06l-.08-.11Z"/><path class="cls-8" d="M70.83,43.85v0c.1,0,.56,0,.66,0a.22.22,0,0,1,.15.1l1,1.6a8.54,8.54,0,0,1,.56,1c0-.44,0-.66,0-.94V44c0-.13,0-.15.11-.16l.44,0c0,.25,0,.58,0,1v2.49a2.37,2.37,0,0,1-.51.09.13.13,0,0,1-.13-.08c-.28-.41-.56-.85-1-1.54-.28-.47-.44-.79-.66-1.23,0,.58,0,.87,0,1.16v1.48c0,.12,0,.13-.12.15a2.54,2.54,0,0,1-.43,0c0-.23,0-.56,0-1V44Z"/><path class="cls-8" d="M77.2,46.78a.75.75,0,0,1-.18.44,1.39,1.39,0,0,1-.78.2,1.71,1.71,0,0,1-1.88-1.82,1.81,1.81,0,0,1,1.9-1.89,1.52,1.52,0,0,1,1,.29c0,.19-.11.38-.28.35a1.88,1.88,0,0,0-.71-.15,1.18,1.18,0,0,0-1.18,1.35,1.25,1.25,0,0,0,1.32,1.36,2.59,2.59,0,0,0,.78-.14Z"/><path class="cls-8" d="M77.85,44.59c0-.27,0-.48,0-.72a3.31,3.31,0,0,1,.61-.07h1.3a.68.68,0,0,1-.16.43,2,2,0,0,1-.5,0h-.56v1h1.17c0,.39-.17.47-.36.47h-.81v1.1a2.14,2.14,0,0,0,.5,0c.22,0,.61,0,.87,0h0a.61.61,0,0,1-.29.46,6.37,6.37,0,0,1-.73,0,5.47,5.47,0,0,1-.95-.06l-.08-.11Z"/><path class="cls-8" d="M85.54,46.51a1,1,0,0,1-.41.77,2.06,2.06,0,0,1-.73.15,1.65,1.65,0,0,1-1.78-1.88,1.82,1.82,0,0,1,1.69-2A1.35,1.35,0,0,1,85.7,45a.91.91,0,0,1,0,.27c0,.13-.33.24-.66.32a10,10,0,0,1-1.44,0,1,1,0,0,0,1.08,1,2.26,2.26,0,0,0,.88-.19Zm-1.32-2.35c-.29,0-.6.29-.64.91a8.3,8.3,0,0,0,1.12,0s.1-.08.1-.17c0-.41-.17-.74-.57-.74Z"/><path class="cls-8" d="M86.81,43.58c.1,0,.16.08.2.19.18.56.49,1.49.77,2.47.32-1,.68-2,.87-2.66a1.23,1.23,0,0,1,.6.14c.17.07.13.25,0,.55-.33.86-.78,2-1.11,2.86a.31.31,0,0,1-.24.22,2.85,2.85,0,0,1-.62.08c-.26-.81-.55-1.59-.9-2.57-.16-.44-.28-.77-.41-1.07a2.07,2.07,0,0,1,.81-.21Z"/><path class="cls-8" d="M92.55,46.51a1,1,0,0,1-.41.77,2.06,2.06,0,0,1-.73.15,1.65,1.65,0,0,1-1.78-1.88,1.81,1.81,0,0,1,1.68-2A1.36,1.36,0,0,1,92.71,45a.91.91,0,0,1,0,.27c0,.13-.34.24-.66.32a10.14,10.14,0,0,1-1.45,0,1,1,0,0,0,1.08,1,2.17,2.17,0,0,0,.88-.19Zm-1.32-2.35c-.29,0-.61.29-.64.91a8.31,8.31,0,0,0,1.12,0c.05,0,.1-.08.1-.17,0-.41-.17-.74-.58-.74Z"/><path class="cls-8" d="M93.27,44a.76.76,0,0,1,.58-.43c.34,0,.48.35.49.86.23-.56.56-.86,1-.86a.66.66,0,0,1,.37.14.73.73,0,0,1,0,.49c0,.17-.19.38-.31.39a.92.92,0,0,0-.37-.08c-.13,0-.36.1-.48.45a1,1,0,0,0-.07.4v1.74c0,.13,0,.2-.18.23a7,7,0,0,1-.8,0c0-.44,0-.94,0-1.51v-1.4a.46.46,0,0,0-.18-.43Z"/><path class="cls-8" d="M96.4,48.68a9.37,9.37,0,0,0,1-1.54,2.13,2.13,0,0,1-.18-.37c-.15-.39-.83-2.3-1.13-3a2.17,2.17,0,0,1,.8-.23c.15,0,.18.1.24.23.19.54.57,1.71.76,2.33a18.63,18.63,0,0,0,.73-2.56,3.19,3.19,0,0,1,.54.09c.19,0,.21.16.16.36a15.65,15.65,0,0,1-1,2.92A5.84,5.84,0,0,1,97,49a.9.9,0,0,1-.64-.3Z"/><path class="cls-8" d="M100.6,43.58c.1,0,.15.06.18.2.18.63.34,1.31.61,2.47.37-1.27.49-1.62.64-2.18,0-.07,0-.17,0-.25a3,3,0,0,1,.7-.15c.12,0,.15.09.2.28.14.58.39,1.49.58,2.25.27-.87.56-1.94.73-2.62a2.68,2.68,0,0,1,.65.1c.1,0,.12.16,0,.44-.33,1-.65,1.94-1,3-.05.17-.08.24-.24.28a3.3,3.3,0,0,1-.64.07c-.21-.81-.4-1.44-.63-2.36-.17.56-.41,1.3-.63,2,0,.17-.1.23-.22.27a3.46,3.46,0,0,1-.62.07c-.21-.67-.45-1.53-.75-2.48-.17-.55-.28-.88-.39-1.16a3,3,0,0,1,.85-.21Z"/><path class="cls-8" d="M106.46,44.07a1.69,1.69,0,0,1,1.1-.49c.74,0,1.12.6,1.12,1.48v1.1c0,.43,0,.87,0,1.16a7.17,7.17,0,0,1-.82.06c-.12,0-.16-.05-.16-.17V45.1c0-.49-.24-.76-.6-.76a1.09,1.09,0,0,0-.67.28v2.49c0,.15,0,.2-.18.23a6.74,6.74,0,0,1-.79,0c0-.44,0-.94,0-1.5V42.75a7.85,7.85,0,0,0,0-.89,3.53,3.53,0,0,1,.84-.15c.11,0,.14,0,.14.54Z"/><path class="cls-8" d="M112.34,46.51a1,1,0,0,1-.41.77,2.06,2.06,0,0,1-.73.15,1.65,1.65,0,0,1-1.78-1.88,1.81,1.81,0,0,1,1.68-2A1.34,1.34,0,0,1,112.49,45a1,1,0,0,1,0,.27c0,.13-.34.24-.66.32a10.14,10.14,0,0,1-1.45,0,1,1,0,0,0,1.08,1,2.17,2.17,0,0,0,.88-.19ZM111,44.16c-.29,0-.61.29-.64.91a8.31,8.31,0,0,0,1.12,0s.1-.08.1-.17c0-.41-.18-.74-.58-.74Z"/><path class="cls-8" d="M113.06,44a.75.75,0,0,1,.58-.43c.34,0,.48.35.49.86.23-.56.56-.86,1-.86a.63.63,0,0,1,.37.14.73.73,0,0,1,0,.49c0,.17-.19.38-.31.39a.9.9,0,0,0-.38-.08c-.12,0-.35.1-.47.45a1,1,0,0,0-.08.4v1.74c0,.13,0,.2-.17.23a7,7,0,0,1-.8,0c0-.44,0-.94,0-1.51v-1.4a.46.46,0,0,0-.18-.43Z"/><path class="cls-8" d="M118.66,46.51a1,1,0,0,1-.41.77,2,2,0,0,1-.73.15,1.65,1.65,0,0,1-1.78-1.88,1.81,1.81,0,0,1,1.68-2,1.36,1.36,0,0,1,1.4,1.43.91.91,0,0,1,0,.27c0,.13-.34.24-.66.32a10,10,0,0,1-1.44,0,1,1,0,0,0,1.07,1,2.17,2.17,0,0,0,.88-.19Zm-1.32-2.35c-.29,0-.61.29-.64.91a8.31,8.31,0,0,0,1.12,0c.05,0,.1-.08.1-.17,0-.41-.17-.74-.58-.74Z"/></g></g></svg>