<svg version="1.1" id="Layer_1" xmlns:x="ns_extend;" xmlns:i="ns_ai;" xmlns:graph="ns_graphs;" xmlns="http://www.w3.org/2000/svg" xmlns:xlink="http://www.w3.org/1999/xlink" x="0px" y="0px" viewBox="0 0 289.2 71" style="enable-background:new 0 0 289.2 71;" xml:space="preserve">
 <style type="text/css">
  .st0{fill:#E30613;}
 </style>
 <metadata>
  <sfw xmlns="ns_sfw;">
   <slices>
   </slices>
   <sliceSourceBounds bottomLeftOrigin="true" height="71" width="289.2" x="55.1" y="-244.7">
   </sliceSourceBounds>
  </sfw>
 </metadata>
 <g>
  <path class="st0" d="M35.5,0C15.9,0,0,15.9,0,35.5C0,55.1,15.9,71,35.5,71C55.1,71,71,55.1,71,35.5C71,15.9,55.1,0,35.5,0
		 M35.7,55.8c4.4-4.9,8.7-11.5,7.6-17c-0.9-5.5-5-7.4-7.8-7.3c-2.7-0.1-6.9,1.8-7.8,7.3c-1.1,5.5,3.2,12.1,7.6,17
		c-13.8-0.2-24.9-11.4-24.9-25.2c0-13.9,11.3-25.2,25.2-25.2c13.9,0,25.2,11.3,25.2,25.2C60.8,44.5,49.5,55.8,35.7,55.8">
  </path>
  <path class="st0" d="M180.7,56.7c-5.4,0-10.5-1.3-13.7-3.6c-4.1-2.9-6.3-8.2-6.3-15.1c0-12.9,6.3-19.1,19.4-19.1
		c13,0,19.3,6.3,19.3,19.4C199.5,50.4,193.1,56.7,180.7,56.7 M180.2,25.2c-7.1,0-10.2,3.8-10.2,12.6c-0.1,8.8,3.2,12.7,10.2,12.7
		c7,0,10.1-4,10.1-12.8C190.3,29.1,187.2,25.2,180.2,25.2">
  </path>
  <path class="st0" d="M224.3,49.4c-5.1,0-6.8-0.3-8.2-1.5c-1.3-1.2-1.7-2-1.9-5.6V23.7c0-1.9-1.6-3.4-3.6-3.5h-4.7v20
		c0,6.2,0.6,9,2.8,11.4c2.4,2.8,6,4.1,11.6,4.1h11.2v-6.3H224.3z">
  </path>
  <path class="st0" d="M273.7,20.3h-5.6c-2.2,0.1-4,1.3-4.9,3.1l-14.1,32.4h5.7c2.2,0,4.1-1.3,4.9-3.2l2.2-5.1h14.2l2.2,5.2
		c0.9,1.8,2.7,3.1,4.9,3.1h5.7L273.7,20.3z M263.8,41.2l5.3-12.5l5.3,12.5H263.8z">
  </path>
  <path class="st0" d="M240.2,20.3c-1.9,0-3.5,1.5-3.6,3.4v32.1h4.6c2,0,3.6-1.5,3.6-3.4V20.3H240.2z">
  </path>
  <path class="st0" d="M115.8,20.3c-2.2,0.1-4,1.3-4.9,3.1l-8.7,21.9l-9.3-21.8c-0.8-1.8-2.7-3.1-4.9-3.2h-5.7L98,55.8h4.5
		c2.1,0,4-1.3,4.8-3L122,20.3H115.8z">
  </path>
  <path class="st0" d="M134.5,30.5c1.4-2.8,4.2-3.9,9.4-3.9h10.8v-6.3h-14.1c-2.3,0-4,0.2-5.5,0.5h-0.1c-1,0.3-1.9,0.6-2.8,1.1
		c-2.1,1-3.2,2.3-3.2,2.3c-1.3,1.3-2.4,2.8-3.2,4.7c-1.3,2.6-1.8,5.4-1.8,8.9v0.6c0,3.5,0.6,6.3,1.8,8.9c0.8,1.9,2,3.6,3.3,4.9
		c0,0,0.8,0.7,1.1,1c1,0.8,2.1,1.3,2.9,1.6c0.3,0.1,0.7,0.3,1.1,0.4c0.4,0.1,0.6,0.1,0.6,0.1c1.5,0.4,3.3,0.6,5.7,0.6h14.1v-6.3
		h-10.8c-5.2-0.1-8-1.1-9.4-3.9c-0.5-1.1-0.9-2.4-1-4.1v-0.3h20.3v-6.1h-20.3v-0.3C133.7,33,134,31.6,134.5,30.5">
  </path>
 </g>
</svg>