<svg width="24" height="24" viewBox="0 0 24 24" fill="none" xmlns="http://www.w3.org/2000/svg">
<path d="M3.77762 11.9385C2.8296 10.2854 2.37185 8.93557 2.09584 7.56731C1.68762 5.54367 2.62181 3.5669 4.16938 2.30557C4.82345 1.77248 5.57323 1.95461 5.96 2.64849L6.83318 4.215C7.52529 5.45666 7.87134 6.07749 7.8027 6.73569C7.73407 7.39388 7.26737 7.92996 6.33397 9.0021L3.77762 11.9385ZM3.77762 11.9385C5.69651 15.2844 8.70784 18.2974 12.0576 20.2185M12.0576 20.2185C13.7107 21.1665 15.0605 21.6242 16.4288 21.9003C18.4524 22.3085 20.4292 21.3743 21.6905 19.8267C22.2236 19.1726 22.0415 18.4229 21.3476 18.0361L19.7811 17.1629C18.5394 16.4708 17.9186 16.1248 17.2604 16.1934C16.6022 16.262 16.0661 16.7287 14.994 17.6621L12.0576 20.2185Z" stroke="white" stroke-width="1.5" stroke-linejoin="round"/>
<path d="M14 6.82795C15.4232 7.43233 16.5638 8.57286 17.1682 9.99609M14.654 1.99609C18.1912 3.01685 20.9791 5.80462 22 9.34172" stroke="white" stroke-width="1.5" stroke-linecap="round"/>
</svg>
