<svg width="28" height="28" viewBox="0 0 28 28" fill="none" xmlns="http://www.w3.org/2000/svg">
<path d="M7.00065 8.16699H12.834C13.1434 8.16699 13.4402 8.28991 13.6589 8.5087C13.8777 8.72749 14.0007 9.02424 14.0007 9.33366C14.0007 9.64308 13.8777 9.93982 13.6589 10.1586C13.4402 10.3774 13.1434 10.5003 12.834 10.5003H7.00065C6.69123 10.5003 6.39449 10.3774 6.17569 10.1586C5.9569 9.93982 5.83398 9.64308 5.83398 9.33366C5.83398 9.02424 5.9569 8.72749 6.17569 8.5087C6.39449 8.28991 6.69123 8.16699 7.00065 8.16699ZM15.1673 17.5003H21.0007C21.3101 17.5003 21.6068 17.6232 21.8256 17.842C22.0444 18.0608 22.1673 18.3576 22.1673 18.667C22.1673 18.9764 22.0444 19.2732 21.8256 19.492C21.6068 19.7107 21.3101 19.8337 21.0007 19.8337H15.1673C14.8579 19.8337 14.5612 19.7107 14.3424 19.492C14.1236 19.2732 14.0007 18.9764 14.0007 18.667C14.0007 18.3576 14.1236 18.0608 14.3424 17.842C14.5612 17.6232 14.8579 17.5003 15.1673 17.5003ZM7.00065 12.8337H21.0007C21.3101 12.8337 21.6068 12.9566 21.8256 13.1754C22.0444 13.3942 22.1673 13.6909 22.1673 14.0003C22.1673 14.3097 22.0444 14.6065 21.8256 14.8253C21.6068 15.0441 21.3101 15.167 21.0007 15.167H7.00065C6.69123 15.167 6.39449 15.0441 6.17569 14.8253C5.9569 14.6065 5.83398 14.3097 5.83398 14.0003C5.83398 13.6909 5.9569 13.3942 6.17569 13.1754C6.39449 12.9566 6.69123 12.8337 7.00065 12.8337Z" fill="#122C24"/>
</svg>
