<svg width="24" height="24" viewBox="0 0 24 24" fill="none" xmlns="http://www.w3.org/2000/svg">
<path d="M2 5.99609L8.91302 9.91306C11.4616 11.3571 12.5384 11.3571 15.087 9.91306L22 5.99609" stroke="white" stroke-width="1.5" stroke-linejoin="round"/>
<path d="M2.01577 13.4717C2.08114 16.5373 2.11383 18.07 3.24496 19.2054C4.37608 20.3409 5.95033 20.3804 9.09883 20.4595C11.0393 20.5083 12.9607 20.5083 14.9012 20.4595C18.0497 20.3804 19.6239 20.3409 20.7551 19.2054C21.8862 18.07 21.9189 16.5372 21.9842 13.4717C22.0053 12.486 22.0053 11.5062 21.9842 10.5205C21.9189 7.45495 21.8862 5.92219 20.7551 4.78676C19.6239 3.65132 18.0497 3.61177 14.9012 3.53266C12.9607 3.48391 11.0393 3.4839 9.09882 3.53266C5.95033 3.61176 4.37608 3.65131 3.24495 4.78674C2.11382 5.92217 2.08114 7.45494 2.01576 10.5205C1.99474 11.5062 1.99475 12.486 2.01577 13.4717Z" stroke="white" stroke-width="1.5" stroke-linejoin="round"/>
</svg>
