<svg width="16" height="16" viewBox="0 0 16 16" fill="none" xmlns="http://www.w3.org/2000/svg">
<path d="M8 1.43762C10.136 1.43762 10.389 1.44562 11.2328 1.48409C11.7401 1.4903 12.2426 1.58346 12.7185 1.75952C13.0636 1.8926 13.3769 2.09647 13.6385 2.358C13.9 2.61952 14.1039 2.93292 14.237 3.278C14.413 3.75385 14.5062 4.25637 14.5124 4.76371C14.5505 5.60752 14.5589 5.86047 14.5589 7.99647C14.5589 10.1325 14.5509 10.3854 14.5124 11.2292C14.5062 11.7366 14.413 12.2391 14.237 12.7149C14.1039 13.06 13.9 13.3734 13.6385 13.6349C13.3769 13.8965 13.0636 14.1003 12.7185 14.2334C12.2426 14.4095 11.7401 14.5026 11.2328 14.5089C10.3893 14.5469 10.1364 14.5553 8 14.5553C5.86362 14.5553 5.61067 14.5473 4.76724 14.5089C4.2599 14.5026 3.75738 14.4095 3.28152 14.2334C2.93644 14.1003 2.62305 13.8965 2.36152 13.6349C2.1 13.3734 1.89613 13.06 1.76305 12.7149C1.58699 12.2391 1.49383 11.7366 1.48762 11.2292C1.44952 10.3854 1.44114 10.1325 1.44114 7.99647C1.44114 5.86047 1.44914 5.60752 1.48762 4.76371C1.49383 4.25637 1.58699 3.75385 1.76305 3.278C1.89613 2.93292 2.1 2.61952 2.36152 2.358C2.62305 2.09647 2.93644 1.8926 3.28152 1.75952C3.75738 1.58346 4.2599 1.4903 4.76724 1.48409C5.61105 1.446 5.864 1.43762 8 1.43762ZM8 -0.00390625C5.82857 -0.00390625 5.55505 0.00523658 4.70171 0.0440937C4.03773 0.0573005 3.3808 0.18302 2.75886 0.415903C2.22533 0.616919 1.74209 0.931928 1.34286 1.33895C0.935467 1.73833 0.620188 2.22184 0.419048 2.75571C0.186164 3.37765 0.060445 4.03459 0.0472381 4.69857C0.00914288 5.55114 0 5.82466 0 7.99609C0 10.1675 0.00914283 10.441 0.048 11.2944C0.0612068 11.9584 0.186926 12.6153 0.41981 13.2372C0.620727 13.771 0.935742 14.2545 1.34286 14.654C1.74231 15.0611 2.22582 15.3761 2.75962 15.577C3.38156 15.8099 4.03849 15.9356 4.70248 15.9489C5.55581 15.9869 5.82819 15.9969 8.00076 15.9969C10.1733 15.9969 10.4457 15.9877 11.299 15.9489C11.963 15.9356 12.62 15.8099 13.2419 15.577C13.7732 15.3711 14.2556 15.0566 14.6584 14.6535C15.0611 14.2505 15.3754 13.7679 15.581 13.2365C15.8138 12.6145 15.9396 11.9576 15.9528 11.2936C15.9909 10.441 16 10.1675 16 7.99609C16 5.82466 15.9909 5.55114 15.952 4.69781C15.9388 4.03382 15.8131 3.37689 15.5802 2.75495C15.3793 2.22115 15.0643 1.73764 14.6571 1.33819C14.2577 0.931073 13.7742 0.616059 13.2404 0.415141C12.6184 0.182258 11.9615 0.0565387 11.2975 0.0433319C10.445 0.00523663 10.1714 -0.00390625 8 -0.00390625Z" fill="white"/>
<path d="M7.99912 3.89062C7.1866 3.89062 6.39232 4.13157 5.71673 4.58298C5.04115 5.03439 4.51459 5.67601 4.20365 6.42668C3.89271 7.17735 3.81135 8.00337 3.96987 8.80028C4.12839 9.59719 4.51965 10.3292 5.09419 10.9037C5.66873 11.4783 6.40074 11.8696 7.19765 12.0281C7.99457 12.1866 8.82058 12.1052 9.57126 11.7943C10.3219 11.4833 10.9635 10.9568 11.415 10.2812C11.8664 9.60562 12.1073 8.81134 12.1073 7.99882C12.1073 6.90926 11.6745 5.86432 10.9041 5.09389C10.1336 4.32345 9.08868 3.89062 7.99912 3.89062ZM7.99912 10.6655C7.47171 10.6655 6.95613 10.5091 6.5176 10.2161C6.07907 9.92305 5.73728 9.50657 5.53544 9.0193C5.33361 8.53203 5.2808 7.99586 5.38369 7.47857C5.48659 6.96129 5.74056 6.48614 6.1135 6.1132C6.48644 5.74026 6.9616 5.48628 7.47888 5.38339C7.99616 5.28049 8.53234 5.3333 9.01961 5.53514C9.50688 5.73697 9.92336 6.07876 10.2164 6.51729C10.5094 6.95583 10.6658 7.4714 10.6658 7.99882C10.6658 8.70606 10.3848 9.38434 9.88474 9.88443C9.38464 10.3845 8.70637 10.6655 7.99912 10.6655Z" fill="white"/>
<path d="M12.2703 4.68563C12.8005 4.68563 13.2303 4.25582 13.2303 3.72562C13.2303 3.19543 12.8005 2.76562 12.2703 2.76562C11.7401 2.76562 11.3103 3.19543 11.3103 3.72562C11.3103 4.25582 11.7401 4.68563 12.2703 4.68563Z" fill="white"/>
</svg>
