<svg width="87" height="87" viewBox="0 0 87 87" fill="none" xmlns="http://www.w3.org/2000/svg">
<path opacity="0.4" d="M32.9833 74.18C40.0175 74.3567 46.9825 74.3567 54.0168 74.18C65.4301 73.8932 71.1367 73.7498 75.2371 69.6339C79.3374 65.518 79.4559 59.9617 79.6929 48.8493V48.8491C79.7691 45.276 79.7691 41.724 79.6929 38.1509C79.5296 30.4957 79.4226 25.4772 78.0313 21.75L43.5 39.875L8.96864 21.75C7.57741 25.4772 7.47039 30.4957 7.30715 38.1509C7.23095 41.724 7.23095 45.276 7.30715 48.8491C7.54414 59.9617 7.66263 65.518 11.763 69.6339C15.8633 73.7498 21.57 73.8932 32.9833 74.18Z" fill="#122C24"/>
<path d="M7.25 21.75L32.3097 35.949C41.5483 41.1837 45.4517 41.1837 54.6903 35.949L79.75 21.75" stroke="#122C24" stroke-width="5" stroke-linejoin="round"/>
<path d="M7.30715 48.8491C7.54414 59.9617 7.66263 65.518 11.763 69.6339C15.8633 73.7498 21.57 73.8932 32.9833 74.18C40.0175 74.3567 46.9825 74.3567 54.0168 74.18C65.4301 73.8932 71.1367 73.7498 75.2371 69.6339C79.3374 65.518 79.4559 59.9617 79.6929 48.8491C79.7691 45.276 79.7691 41.724 79.6929 38.1509C79.4559 27.0384 79.3374 21.4821 75.2371 17.3662C71.1367 13.2502 65.4301 13.1068 54.0168 12.8201C46.9825 12.6433 40.0175 12.6433 32.9832 12.82C21.5699 13.1068 15.8633 13.2502 11.763 17.3661C7.66261 21.482 7.54412 27.0383 7.30715 38.1509C7.23095 41.724 7.23095 45.276 7.30715 48.8491Z" stroke="#122C24" stroke-width="5" stroke-linejoin="round"/>
</svg>
