<svg width="87" height="24" viewBox="0 0 87 24" fill="none" xmlns="http://www.w3.org/2000/svg">
<path d="M7.55 14.99C7.55 14.57 7.43 14.45 7.01 14.45H6.65C5.78 14.45 5.54 14.21 5.54 13.34V11.36C5.54 10.49 5.78 10.25 6.65 10.25H10.46C11.33 10.25 11.57 10.49 11.57 11.36V16.7C11.57 21.53 10.13 23.3 5.78 23.3C1.43 23.3 -0.01 21.53 -0.01 16.7V6.8C-0.01 1.97 1.43 0.199998 5.78 0.199998C10.13 0.199998 11.51 1.97 11.51 6.8V6.95C11.51 7.82 11.27 8.06 10.4 8.06H8.48C7.61 8.06 7.37 7.82 7.37 6.95V6.08C7.37 4.88 6.86 4.4 5.81 4.4C4.76 4.4 4.25 4.88 4.25 6.08V17.42C4.25 18.62 4.79 19.1 5.9 19.1C7.04 19.1 7.55 18.62 7.55 17.42V14.99ZM21.2037 22.16L18.8038 14.87C18.6538 14.45 18.5337 14.33 18.0837 14.33H17.9638C17.5437 14.33 17.4237 14.45 17.4237 14.87V21.89C17.4237 22.76 17.1837 23 16.3137 23H14.3937C13.5237 23 13.2837 22.76 13.2837 21.89V1.61C13.2837 0.739999 13.5237 0.499998 14.3937 0.499998H18.3537C22.9138 0.499998 24.9838 2.06 24.9838 5.9V8.06C24.9838 10.88 24.5337 11.96 22.9437 13.31C22.7638 13.43 22.7337 13.49 22.7337 13.64C22.7337 13.73 22.7638 13.82 22.8238 14.03L25.4638 21.86C25.7338 22.64 25.4338 23 24.6538 23H22.4637C21.6237 23 21.4438 22.88 21.2037 22.16ZM17.4237 5.09V9.71C17.4237 10.13 17.5437 10.25 17.9638 10.25H18.5938C20.0038 10.25 20.7237 9.62 20.7237 8.18V6.53C20.7237 5.12 20.0638 4.55 18.5938 4.55H17.9638C17.5437 4.55 17.4237 4.67 17.4237 5.09ZM30.6812 5.24V8.6C30.6812 8.99 30.8012 9.14 31.2212 9.14H34.9412C35.8112 9.14 36.0512 9.38 36.0512 10.25V12.23C36.0512 13.1 35.8112 13.34 35.0012 13.34H31.2212C30.8012 13.34 30.6812 13.46 30.6812 13.88V18.26C30.6812 18.65 30.8012 18.8 31.2212 18.8H35.3012C36.1712 18.8 36.4112 19.04 36.4112 19.91V21.89C36.4112 22.76 36.1712 23 35.3012 23H27.6512C26.7812 23 26.5412 22.76 26.5412 21.89V1.61C26.5412 0.739999 26.7812 0.499998 27.6512 0.499998H35.3012C36.1712 0.499998 36.4112 0.739999 36.4112 1.61V3.59C36.4112 4.46 36.1712 4.7 35.3012 4.7H31.2212C30.8012 4.7 30.6812 4.82 30.6812 5.24ZM41.8585 5.24V8.6C41.8585 8.99 41.9785 9.14 42.3985 9.14H46.1185C46.9885 9.14 47.2285 9.38 47.2285 10.25V12.23C47.2285 13.1 46.9885 13.34 46.1785 13.34H42.3985C41.9785 13.34 41.8585 13.46 41.8585 13.88V18.26C41.8585 18.65 41.9785 18.8 42.3985 18.8H46.4785C47.3485 18.8 47.5885 19.04 47.5885 19.91V21.89C47.5885 22.76 47.3485 23 46.4785 23H38.8285C37.9585 23 37.7185 22.76 37.7185 21.89V1.61C37.7185 0.739999 37.9585 0.499998 38.8285 0.499998H46.4785C47.3485 0.499998 47.5885 0.739999 47.5885 1.61V3.59C47.5885 4.46 47.3485 4.7 46.4785 4.7H42.3985C41.9785 4.7 41.8585 4.82 41.8585 5.24Z" fill="#FFE208"/>
<path d="M54.8959 13.94C54.8359 13.7 54.6259 13.67 54.5059 13.88L53.2159 16.25C53.0659 16.55 53.0359 16.67 53.0359 17.03V21.89C53.0359 22.76 52.7959 23 51.9259 23H50.0059C49.1359 23 48.8959 22.76 48.8959 21.89V1.61C48.8959 0.739999 49.1359 0.499998 50.0059 0.499998H51.8659C52.7359 0.499998 52.9759 0.739999 52.9759 1.61V8.03C52.9759 8.27 53.0659 8.33 53.2159 8.33C53.3359 8.33 53.4259 8.3 53.5159 8.09L56.6059 1.61C57.0859 0.619998 57.2959 0.499998 58.4359 0.499998H60.2959C61.1659 0.499998 61.3459 0.95 60.9859 1.67L57.5059 8.6C57.3259 8.93 57.3259 9.08 57.4459 9.44L61.2259 21.74C61.4659 22.55 61.1959 23 60.3859 23H58.5559C57.6559 23 57.3559 22.76 57.1159 21.95L54.8959 13.94ZM72.9352 16.4C72.9352 21.47 71.4952 23.3 67.1452 23.3C62.7952 23.3 61.3552 21.47 61.3552 16.4V7.1C61.3552 2.06 62.7952 0.199998 67.1452 0.199998C71.4952 0.199998 72.9352 2.06 72.9352 7.1V16.4ZM65.6152 17.42C65.6152 18.62 66.0952 19.1 67.1452 19.1C68.1952 19.1 68.6752 18.62 68.6752 17.42V6.23C68.6752 4.91 68.1952 4.4 67.1452 4.4C66.0952 4.4 65.6152 4.91 65.6152 6.23V17.42ZM82.9862 11.39V1.61C82.9862 0.739999 83.2262 0.499998 84.0962 0.499998H85.7762C86.6462 0.499998 86.8862 0.739999 86.8862 1.61V21.89C86.8862 22.76 86.6462 23 85.7762 23H84.3962C83.4662 23 83.1962 22.79 82.8962 21.98L79.1462 12.05C79.0562 11.84 78.9662 11.78 78.8462 11.78C78.6962 11.78 78.6362 11.84 78.6362 12.11V21.89C78.6362 22.76 78.3962 23 77.5262 23H75.8762C75.0062 23 74.7662 22.76 74.7662 21.89V1.61C74.7662 0.739999 75.0062 0.499998 75.8762 0.499998H77.2262C78.0962 0.499998 78.3962 0.589999 78.6662 1.28L82.4762 11.45C82.5662 11.66 82.6562 11.72 82.7762 11.72C82.9262 11.72 82.9862 11.66 82.9862 11.39Z" fill="black"/>
</svg>
