<svg width="133" height="40" viewBox="0 0 133 40" fill="none" xmlns="http://www.w3.org/2000/svg">
<g clip-path="url(#clip0_2010_2185)">
<path d="M12.3892 0L22.7741 8.82887C23.3907 9.35302 23.746 10.1222 23.746 10.9323V17.5862L13.3611 8.75734C12.7445 8.23319 12.3892 7.464 12.3892 6.65386V0Z" fill="#FAF4DF"/>
<path d="M12.3892 40L22.7741 31.1711C23.3907 30.647 23.746 29.8778 23.746 29.0677V22.4138L13.3611 31.2427C12.7445 31.7668 12.3892 32.536 12.3892 33.3461V40Z" fill="#FAF4DF"/>
<path d="M0 9.3103L10.2437 17.9705C10.7403 18.3904 11.3693 18.6207 12.0191 18.6207H20.2802L10.0617 9.96249C9.56472 9.54137 8.93487 9.3103 8.28397 9.3103H0Z" fill="#FAF4DF"/>
<path d="M0 30.6897L10.1807 22.0345C10.6782 21.6115 11.3095 21.3793 11.9619 21.3793H20.3048L10.0611 30.0394C9.56446 30.4593 8.93555 30.6897 8.28569 30.6897H0Z" fill="#FAF4DF"/>
<path d="M37.8563 0L27.4714 8.82887C26.8548 9.35302 26.4995 10.1222 26.4995 10.9323V17.5862L36.8844 8.75734C37.501 8.23319 37.8563 7.464 37.8563 6.65386V0Z" fill="#FAF4DF"/>
<path d="M37.8563 40L27.4714 31.1711C26.8548 30.647 26.4995 29.8778 26.4995 29.0677V22.4138L36.8844 31.2427C37.501 31.7668 37.8563 32.536 37.8563 33.3461V40Z" fill="#FAF4DF"/>
<path d="M50.2455 9.3103L40.0018 17.9705C39.5052 18.3904 38.8762 18.6207 38.2264 18.6207H29.9653L40.1838 9.96249C40.6808 9.54137 41.3106 9.3103 41.9615 9.3103H50.2455Z" fill="#FAF4DF"/>
<path d="M50.2457 30.6897L40.065 22.0345C39.5675 21.6115 38.9362 21.3793 38.2838 21.3793H29.9409L40.1846 30.0394C40.6812 30.4593 41.3101 30.6897 41.96 30.6897H50.2457Z" fill="#FAF4DF"/>
<path fill-rule="evenodd" clip-rule="evenodd" d="M115.343 29.7907C116.693 30.5368 118.203 30.9099 119.874 30.9099C121.568 30.9099 123.11 30.5368 124.503 29.7907C125.917 29.0233 127.031 27.9467 127.845 26.561C128.659 25.1754 129.066 23.5872 129.066 21.7965C129.066 20.0058 128.67 18.4176 127.877 17.032C127.085 15.6463 126.002 14.5804 124.632 13.8343C123.26 13.0882 121.728 12.7151 120.035 12.7151C118.343 12.7151 116.81 13.0882 115.439 13.8343C114.068 14.5804 112.986 15.6463 112.193 17.032C111.4 18.4176 111.004 20.0058 111.004 21.7965C111.004 23.6085 111.39 25.2074 112.161 26.593C112.932 27.9574 113.993 29.0233 115.343 29.7907ZM122.51 27.0727C121.696 27.5203 120.817 27.7442 119.874 27.7442C118.396 27.7442 117.164 27.2326 116.178 26.2093C115.214 25.1647 114.732 23.6938 114.732 21.7965C114.732 20.5174 114.967 19.4409 115.439 18.5669C115.911 17.6715 116.543 17 117.335 16.5523C118.15 16.1047 119.028 15.8808 119.971 15.8808C120.913 15.8808 121.792 16.1047 122.607 16.5523C123.421 17 124.074 17.6715 124.567 18.5669C125.06 19.4409 125.306 20.5174 125.306 21.7965C125.306 23.0756 125.049 24.1628 124.535 25.0581C124.021 25.9535 123.345 26.625 122.51 27.0727Z" fill="#FAF4DF"/>
<path fill-rule="evenodd" clip-rule="evenodd" d="M96.0463 29.8314C96.0215 29.818 95.9966 29.8044 95.9718 29.7907C94.6219 29.0233 93.5612 27.9574 92.7899 26.593C92.0185 25.2074 91.6328 23.6085 91.6328 21.7965C91.6328 20.0058 92.0292 18.4176 92.822 17.032C93.6148 15.6463 94.6969 14.5804 96.0682 13.8343C97.4396 13.0882 98.9716 12.7151 100.664 12.7151C102.357 12.7151 103.889 13.0882 105.261 13.8343C106.632 14.5804 107.714 15.6463 108.507 17.032C109.3 18.4176 109.696 20.0058 109.696 21.7965C109.696 23.5872 109.289 25.1754 108.475 26.561C107.661 27.9467 106.546 29.0233 105.132 29.7907C103.934 30.4323 102.626 30.7981 101.206 30.8879C102.946 31.6797 105.591 32.319 107.077 32.6779C107.713 32.8316 108.136 32.9338 108.185 32.9747L108.187 32.9752V36.6231H94.8384V32.9752H102.531C100.574 32.5355 97.9162 31.0922 96.0463 29.8314ZM100.504 27.7442C101.446 27.7442 102.324 27.5203 103.139 27.0727C103.975 26.625 104.65 25.9535 105.164 25.0581C105.678 24.1628 105.935 23.0756 105.935 21.7965C105.935 20.5174 105.689 19.4409 105.197 18.5669C104.703 17.6715 104.05 17 103.236 16.5523C102.421 16.1047 101.543 15.8808 100.6 15.8808C99.6573 15.8808 98.7788 16.1047 97.9645 16.5523C97.1717 17 96.5396 17.6715 96.0682 18.5669C95.5968 19.4409 95.3611 20.5174 95.3611 21.7965C95.3611 23.6938 95.8432 25.1647 96.8074 26.2093C97.7931 27.2326 99.0252 27.7442 100.504 27.7442Z" fill="#FAF4DF"/>
<path fill-rule="evenodd" clip-rule="evenodd" d="M76.6006 29.7907C77.9505 30.5368 79.4611 30.9099 81.1325 30.9099C82.8252 30.9099 84.3679 30.5368 85.7607 29.7907C87.1748 29.0233 88.2891 27.9467 89.1033 26.561C89.9176 25.1754 90.3247 23.5872 90.3247 21.7965C90.3247 20.0058 89.9282 18.4176 89.1354 17.032C88.3427 15.6463 87.2606 14.5804 85.8893 13.8343C84.518 13.0882 82.9859 12.7151 81.2932 12.7151C79.6004 12.7151 78.0684 13.0882 76.6971 13.8343C75.3258 14.5804 74.2437 15.6463 73.4509 17.032C72.6582 18.4176 72.2617 20.0058 72.2617 21.7965C72.2617 23.6085 72.6474 25.2074 73.4188 26.593C74.1901 27.9574 75.2507 29.0233 76.6006 29.7907ZM83.768 27.0727C82.9538 27.5203 82.0752 27.7442 81.1325 27.7442C79.654 27.7442 78.4219 27.2326 77.4363 26.2093C76.4721 25.1647 75.99 23.6938 75.99 21.7965C75.99 20.5174 76.2257 19.4409 76.6971 18.5669C77.1685 17.6715 77.8006 17 78.5934 16.5523C79.4076 16.1047 80.2861 15.8808 81.2289 15.8808C82.1717 15.8808 83.0502 16.1047 83.8644 16.5523C84.6786 17 85.3321 17.6715 85.8249 18.5669C86.3178 19.4409 86.5642 20.5174 86.5642 21.7965C86.5642 23.0756 86.3071 24.1628 85.7928 25.0581C85.2786 25.9535 84.6037 26.625 83.768 27.0727Z" fill="#FAF4DF"/>
<path d="M63.9589 27.6802H71.5119V30.6221H60.2949V8.39819H63.9589V27.6802Z" fill="#FAF4DF"/>
</g>
<defs>
<clipPath id="clip0_2010_2185">
<rect width="133" height="40" fill="white"/>
</clipPath>
</defs>
</svg>
