<svg width="16" height="16" viewBox="0 0 16 16" fill="none" xmlns="http://www.w3.org/2000/svg">
<path d="M3.61351 5.25391H0.270325V15.9151H3.61351V5.25391Z" fill="white"/>
<path d="M12.6568 5.03072C12.5336 5.01532 12.4026 5.00761 12.2717 4.99991C10.3998 4.92288 9.34447 6.03214 8.97471 6.50973C8.87457 6.64069 8.82835 6.71772 8.82835 6.71772V5.29263H5.63153V15.9538H8.82835H8.97471C8.97471 14.8677 8.97471 13.7892 8.97471 12.7031C8.97471 12.1176 8.97471 11.5322 8.97471 10.9468C8.97471 10.2227 8.92079 9.45235 9.28284 8.78988C9.59097 8.23525 10.1456 7.95793 10.7695 7.95793C12.6183 7.95793 12.6568 9.62952 12.6568 9.78359C12.6568 9.79129 12.6568 9.79899 12.6568 9.79899V16.0001H16V9.04408C16 6.6638 14.7906 5.26182 12.6568 5.03072Z" fill="white"/>
<path d="M1.9412 3.8785C3.01329 3.8785 3.8824 3.00939 3.8824 1.9373C3.8824 0.865199 3.01329 -0.00390625 1.9412 -0.00390625C0.869102 -0.00390625 0 0.865199 0 1.9373C0 3.00939 0.869102 3.8785 1.9412 3.8785Z" fill="white"/>
</svg>
