<svg width="62" height="61" viewBox="0 0 62 61" fill="none" xmlns="http://www.w3.org/2000/svg">
<path opacity="0.3" d="M30.9765 55.9178C16.9392 55.9178 5.55981 44.5384 5.55981 30.5011C5.55981 23.4034 8.46914 16.9852 13.1603 12.374C15.3189 12.6018 16.5275 13.7582 18.5349 15.8793C22.346 19.9062 26.1571 20.2422 28.6978 18.8999C32.5089 16.8865 29.3062 13.6252 33.7792 11.8529C36.5213 10.7664 37.0439 7.92091 35.7461 5.53125C47.5034 7.76348 56.3932 18.0941 56.3932 30.5011C56.3932 31.9678 56.2689 33.4055 56.0304 34.8042C50.7357 32.9433 47.7635 38.5788 43.6848 37.763C34.6074 35.9475 32.0354 37.9771 32.0354 42.3056C32.0354 46.6342 32.0354 46.6342 30.1475 49.8806C28.9195 51.9923 28.5288 54.1039 30.9765 55.9178Z" fill="#b5a000"/>
<path d="M30.9765 55.9173C16.9392 55.9173 5.55981 44.5379 5.55981 30.5007C5.55981 23.4029 8.46914 16.9848 13.1603 12.3735M30.9765 55.9173C28.5288 54.1035 28.9195 51.9918 30.1475 49.8802C32.0354 46.6337 32.0354 46.6337 32.0354 42.3052C32.0354 37.9766 34.6074 35.9471 43.6848 37.7626C47.7635 38.5783 50.7357 32.9429 56.0304 34.8037M30.9765 55.9173C43.547 55.9173 53.9862 46.7916 56.0304 34.8037M56.0304 34.8037C56.2689 33.405 56.3931 31.9673 56.3931 30.5007C56.3931 18.0937 47.5034 7.76302 35.7461 5.53079M35.7461 5.53079C37.0439 7.92045 36.5213 10.7659 33.7792 11.8524C29.3062 13.6247 32.5089 16.886 28.6978 18.8995C26.1571 20.2418 22.346 19.9058 18.5349 15.8789C16.5275 13.7578 15.3189 12.6013 13.1603 12.3735M35.7461 5.53079C34.2012 5.23747 32.6067 5.08398 30.9765 5.08398C24.0369 5.08398 17.747 7.86509 13.1603 12.3735" stroke="#b5a000" stroke-width="4.35714" stroke-linejoin="round"/>
</svg>
