<svg width="28" height="28" viewBox="0 0 28 28" fill="none" xmlns="http://www.w3.org/2000/svg">
<path d="M7.00065 8.16797H12.834C13.1434 8.16797 13.4402 8.29089 13.6589 8.50968C13.8777 8.72847 14.0007 9.02522 14.0007 9.33464C14.0007 9.64405 13.8777 9.9408 13.6589 10.1596C13.4402 10.3784 13.1434 10.5013 12.834 10.5013H7.00065C6.69123 10.5013 6.39449 10.3784 6.17569 10.1596C5.9569 9.9408 5.83398 9.64405 5.83398 9.33464C5.83398 9.02522 5.9569 8.72847 6.17569 8.50968C6.39449 8.29089 6.69123 8.16797 7.00065 8.16797ZM15.1673 17.5013H21.0007C21.3101 17.5013 21.6068 17.6242 21.8256 17.843C22.0444 18.0618 22.1673 18.3586 22.1673 18.668C22.1673 18.9774 22.0444 19.2741 21.8256 19.4929C21.6068 19.7117 21.3101 19.8346 21.0007 19.8346H15.1673C14.8579 19.8346 14.5612 19.7117 14.3424 19.4929C14.1236 19.2741 14.0007 18.9774 14.0007 18.668C14.0007 18.3586 14.1236 18.0618 14.3424 17.843C14.5612 17.6242 14.8579 17.5013 15.1673 17.5013ZM7.00065 12.8346H21.0007C21.3101 12.8346 21.6068 12.9576 21.8256 13.1763C22.0444 13.3951 22.1673 13.6919 22.1673 14.0013C22.1673 14.3107 22.0444 14.6075 21.8256 14.8263C21.6068 15.0451 21.3101 15.168 21.0007 15.168H7.00065C6.69123 15.168 6.39449 15.0451 6.17569 14.8263C5.9569 14.6075 5.83398 14.3107 5.83398 14.0013C5.83398 13.6919 5.9569 13.3951 6.17569 13.1763C6.39449 12.9576 6.69123 12.8346 7.00065 12.8346Z" fill="white"/>
</svg>
