<svg xmlns="http://www.w3.org/2000/svg" xmlns:xlink="http://www.w3.org/1999/xlink" width="192" zoomAndPan="magnify" viewBox="0 0 144 143.999998" height="192" preserveAspectRatio="xMidYMid meet" version="1.2"><defs><clipPath id="83cf2182ac"><path d="M 16.109375 21 L 83 21 L 83 87 L 16.109375 87 Z M 16.109375 21 "/></clipPath></defs><g id="b52c06f55a"><rect x="0" width="144" y="0" height="143.999998" style="fill:#ffffff;fill-opacity:1;stroke:none;"/><rect x="0" width="144" y="0" height="143.999998" style="fill:#000000;fill-opacity:1;stroke:none;"/><path style=" stroke:none;fill-rule:nonzero;fill:#b5a001;fill-opacity:1;" d="M 58.425781 54.210938 L 58.75 54.535156 C 58.789062 54.90625 58.789062 54.90625 58.789062 55.378906 L 58.789062 55.921875 L 58.785156 56.523438 L 58.785156 57.152344 C 58.785156 57.605469 58.78125 58.054688 58.78125 58.507812 C 58.777344 59.226562 58.773438 59.945312 58.773438 60.664062 C 58.773438 61.800781 58.769531 62.941406 58.765625 64.078125 C 58.757812 66.109375 58.753906 68.140625 58.75 70.171875 C 58.746094 70.765625 58.746094 71.363281 58.742188 71.957031 C 58.738281 73.386719 58.738281 74.8125 58.75 76.242188 L 58.753906 76.699219 C 58.757812 77.074219 58.769531 77.445312 58.78125 77.820312 L 58.796875 78.394531 L 58.914062 78.832031 C 59.234375 79.167969 59.234375 79.167969 59.722656 79.320312 C 60.179688 79.363281 60.636719 79.382812 61.09375 79.375 L 61.503906 79.375 C 61.953125 79.375 62.402344 79.371094 62.847656 79.367188 C 63.160156 79.367188 63.472656 79.367188 63.78125 79.363281 C 64.601562 79.363281 65.417969 79.359375 66.238281 79.351562 C 67.070312 79.347656 67.90625 79.347656 68.742188 79.34375 C 70.378906 79.339844 72.015625 79.332031 73.65625 79.320312 C 73.664062 80.023438 73.667969 80.726562 73.671875 81.429688 C 73.675781 81.667969 73.675781 81.90625 73.679688 82.148438 C 73.683594 82.492188 73.683594 82.835938 73.6875 83.179688 L 73.691406 83.808594 C 73.65625 84.34375 73.65625 84.34375 73.542969 84.71875 C 73.332031 84.988281 73.332031 84.988281 72.980469 85.1875 C 72.414062 85.34375 71.878906 85.363281 71.296875 85.367188 L 70.929688 85.371094 C 70.523438 85.375 70.121094 85.378906 69.71875 85.382812 L 68.859375 85.390625 C 68.09375 85.398438 67.324219 85.40625 66.558594 85.410156 C 65.921875 85.417969 65.285156 85.421875 64.648438 85.429688 C 62.628906 85.449219 60.609375 85.464844 58.589844 85.476562 L 58.195312 85.476562 C 56.589844 85.488281 54.988281 85.492188 53.382812 85.496094 L 52.847656 85.496094 C 51.683594 85.5 50.519531 85.492188 49.355469 85.476562 L 48.753906 85.46875 C 48.125 85.460938 47.5 85.449219 46.875 85.433594 L 46.285156 85.425781 L 45.734375 85.410156 L 45.246094 85.402344 C 44.820312 85.3125 44.820312 85.3125 44.472656 85.046875 C 44.171875 84.664062 44.171875 84.664062 44.089844 84.210938 L 44.09375 83.675781 L 44.089844 83.0625 L 44.097656 82.390625 C 44.097656 82.15625 44.097656 81.917969 44.097656 81.683594 C 44.097656 81.042969 44.101562 80.398438 44.105469 79.757812 C 44.109375 79.089844 44.109375 78.417969 44.109375 77.746094 C 44.113281 76.480469 44.117188 75.210938 44.125 73.941406 C 44.132812 72.496094 44.136719 71.050781 44.136719 69.605469 C 44.144531 66.632812 44.15625 63.660156 44.171875 60.691406 C 44.582031 60.457031 44.992188 60.222656 45.402344 59.988281 L 45.753906 59.789062 C 46.558594 59.332031 47.375 58.953125 48.238281 58.609375 C 49.089844 58.265625 49.90625 57.851562 50.730469 57.449219 C 51.113281 57.265625 51.496094 57.082031 51.878906 56.894531 L 52.171875 56.753906 C 53.203125 56.257812 54.234375 55.761719 55.273438 55.273438 C 55.566406 55.132812 55.859375 54.992188 56.15625 54.851562 L 56.699219 54.597656 L 57.179688 54.371094 C 57.632812 54.203125 57.945312 54.152344 58.425781 54.210938 "/><path style=" stroke:none;fill-rule:nonzero;fill:#b5a001;fill-opacity:1;" d="M 73.65625 46.757812 L 73.65625 77.375 C 72.695312 77.472656 71.8125 77.558594 70.863281 77.5625 L 70.542969 77.566406 C 70.203125 77.570312 69.859375 77.570312 69.519531 77.570312 L 69.164062 77.570312 C 68.542969 77.574219 67.921875 77.574219 67.300781 77.578125 C 66.660156 77.578125 66.023438 77.582031 65.382812 77.585938 C 64.886719 77.589844 64.394531 77.589844 63.902344 77.589844 C 63.664062 77.589844 63.429688 77.59375 63.191406 77.59375 C 62.863281 77.597656 62.535156 77.597656 62.207031 77.59375 L 61.640625 77.597656 C 61.179688 77.539062 61.179688 77.539062 60.914062 77.351562 C 60.695312 77.050781 60.695312 77.050781 60.632812 76.621094 L 60.632812 76.09375 L 60.628906 75.488281 L 60.632812 74.820312 C 60.632812 74.585938 60.632812 74.355469 60.632812 74.121094 C 60.632812 73.484375 60.632812 72.851562 60.632812 72.214844 C 60.636719 71.550781 60.636719 70.886719 60.636719 70.222656 C 60.636719 69.105469 60.636719 67.992188 60.640625 66.875 C 60.644531 65.585938 60.644531 64.296875 60.644531 63.007812 C 60.640625 61.765625 60.644531 60.527344 60.644531 59.285156 C 60.644531 58.757812 60.644531 58.230469 60.644531 57.703125 C 60.644531 57.078125 60.644531 56.457031 60.648438 55.835938 C 60.648438 55.609375 60.648438 55.378906 60.648438 55.152344 C 60.648438 54.839844 60.648438 54.527344 60.652344 54.214844 L 60.652344 53.6875 C 60.695312 53.230469 60.761719 52.96875 61.019531 52.589844 C 61.378906 52.371094 61.75 52.175781 62.132812 52 L 62.472656 51.832031 C 62.84375 51.65625 63.21875 51.480469 63.589844 51.304688 C 63.847656 51.179688 64.105469 51.058594 64.363281 50.933594 C 66.144531 50.085938 67.933594 49.246094 69.726562 48.425781 C 70.753906 47.953125 71.765625 47.457031 72.765625 46.9375 C 73.167969 46.757812 73.167969 46.757812 73.65625 46.757812 "/><path style=" stroke:none;fill-rule:nonzero;fill:#f8f8f8;fill-opacity:1;" d="M 81.59375 45.300781 C 82.21875 45.347656 82.636719 45.402344 83.164062 45.757812 L 83.578125 46.128906 C 84.292969 46.75 85.015625 47.261719 85.824219 47.753906 C 86.324219 48.074219 86.796875 48.425781 87.273438 48.78125 C 88.503906 49.683594 89.824219 50.421875 91.148438 51.175781 C 92.273438 51.8125 93.382812 52.46875 94.480469 53.15625 C 95.71875 53.929688 96.964844 54.695312 98.21875 55.445312 L 98.730469 55.753906 C 99.527344 56.230469 100.328125 56.703125 101.136719 57.160156 L 101.5625 57.402344 C 101.820312 57.550781 102.082031 57.695312 102.339844 57.839844 C 103.21875 58.335938 103.867188 58.867188 104.433594 59.71875 C 104.574219 60.253906 104.617188 60.753906 104.621094 61.304688 L 104.621094 62.261719 L 104.625 62.792969 C 104.628906 63.371094 104.628906 63.945312 104.628906 64.523438 L 104.632812 65.726562 C 104.632812 66.566406 104.636719 67.40625 104.636719 68.246094 C 104.636719 69.324219 104.640625 70.402344 104.644531 71.476562 C 104.648438 72.304688 104.648438 73.132812 104.648438 73.960938 C 104.648438 74.359375 104.652344 74.753906 104.652344 75.152344 C 104.65625 75.707031 104.65625 76.261719 104.65625 76.816406 L 104.660156 77.316406 L 104.65625 77.773438 L 104.65625 78.171875 L 104.597656 78.511719 C 104.351562 78.796875 104.351562 78.796875 104.109375 78.996094 L 103.625 78.832031 L 103.785156 78.671875 C 103.851562 78.320312 103.90625 77.964844 103.960938 77.609375 L 104.046875 77.019531 L 104.109375 76.566406 L 103.140625 76.402344 L 103.109375 76.804688 L 103.066406 77.335938 C 103.054688 77.507812 103.042969 77.679688 103.027344 77.859375 C 102.988281 78.257812 102.925781 78.613281 102.816406 78.996094 L 103.140625 79.15625 C 100.695312 79.292969 98.253906 79.339844 95.808594 79.359375 L 95.34375 79.363281 C 93.894531 79.375 92.445312 79.386719 90.996094 79.398438 C 90.195312 79.402344 89.394531 79.410156 88.59375 79.417969 C 88.289062 79.417969 87.988281 79.421875 87.6875 79.421875 C 85.511719 79.425781 85.511719 79.425781 83.375 79.804688 L 83.210938 79.96875 C 83.171875 80.519531 83.183594 81.074219 83.183594 81.628906 L 83.175781 82.097656 C 83.175781 82.714844 83.1875 83.269531 83.335938 83.875 L 83.535156 84.179688 C 85.339844 84.800781 87.671875 84.527344 89.558594 84.523438 C 89.867188 84.523438 90.171875 84.523438 90.476562 84.527344 C 91.304688 84.527344 92.128906 84.527344 92.953125 84.527344 C 93.820312 84.523438 94.691406 84.527344 95.558594 84.527344 C 97.015625 84.527344 98.46875 84.527344 99.925781 84.523438 C 101.605469 84.523438 103.285156 84.523438 104.964844 84.523438 C 106.410156 84.527344 107.859375 84.527344 109.304688 84.527344 C 110.167969 84.523438 111.027344 84.527344 111.890625 84.527344 C 112.699219 84.527344 113.511719 84.527344 114.320312 84.523438 C 114.617188 84.523438 114.914062 84.523438 115.210938 84.523438 C 118.5 84.675781 118.5 84.675781 121.605469 83.855469 C 121.957031 83.613281 122.304688 83.367188 122.648438 83.117188 C 123.390625 82.578125 124.042969 82.179688 124.964844 82.066406 C 125.59375 82.078125 126.082031 82.253906 126.628906 82.558594 C 127.171875 82.898438 127.414062 83.164062 127.742188 83.714844 C 127.976562 84.339844 127.949219 84.894531 127.855469 85.546875 C 127.648438 86.472656 127.308594 87.179688 126.710938 87.917969 C 126.355469 88.175781 126.121094 88.234375 125.683594 88.296875 C 124.941406 88.316406 124.265625 88.320312 123.589844 87.988281 L 123.226562 87.742188 L 123.226562 87.257812 L 123.734375 87.199219 L 124.402344 87.117188 L 124.734375 87.078125 C 125.316406 87.003906 125.808594 86.929688 126.304688 86.609375 C 126.527344 86.335938 126.527344 86.335938 126.628906 85.960938 C 126.683594 85.351562 126.675781 84.941406 126.4375 84.371094 C 126.164062 84 126.164062 84 125.769531 83.804688 C 125.257812 83.675781 124.886719 83.628906 124.359375 83.695312 C 123.832031 83.921875 123.832031 83.921875 123.390625 84.34375 C 122.933594 85.039062 122.65625 85.8125 122.417969 86.609375 L 122.09375 86.457031 C 121.097656 86.105469 120.050781 86.101562 119.007812 86.105469 L 118.628906 86.105469 C 118.214844 86.105469 117.800781 86.105469 117.382812 86.109375 L 116.488281 86.109375 C 115.84375 86.109375 115.199219 86.109375 114.554688 86.113281 C 113.53125 86.113281 112.507812 86.113281 111.480469 86.117188 C 109.113281 86.117188 106.746094 86.121094 104.378906 86.125 C 102.222656 86.128906 100.066406 86.132812 97.910156 86.132812 C 97.0625 86.132812 96.214844 86.132812 95.367188 86.136719 C 92.101562 86.144531 88.839844 86.140625 85.578125 86.070312 C 85.285156 86.066406 84.992188 86.058594 84.699219 86.054688 C 84.296875 86.046875 83.894531 86.039062 83.496094 86.027344 L 83.136719 86.023438 C 82.675781 86.007812 82.28125 85.976562 81.847656 85.816406 C 81.59375 85.636719 81.59375 85.636719 81.429688 85.3125 C 81.414062 84.90625 81.402344 84.5 81.402344 84.09375 C 81.398438 83.847656 81.394531 83.597656 81.390625 83.351562 C 81.382812 82.960938 81.378906 82.570312 81.378906 82.179688 C 81.375 81.800781 81.371094 81.421875 81.363281 81.046875 L 81.363281 80.691406 C 81.359375 80.324219 81.359375 80.324219 81.269531 79.804688 C 81.035156 79.460938 81.035156 79.460938 80.621094 79.320312 C 80.199219 79.269531 79.777344 79.238281 79.351562 79.238281 L 78.984375 79.226562 C 78.597656 79.21875 78.210938 79.214844 77.828125 79.207031 C 77.5625 79.203125 77.300781 79.199219 77.039062 79.191406 C 76.398438 79.179688 75.753906 79.167969 75.113281 79.15625 L 74.789062 77.863281 L 75.332031 77.835938 C 76 77.800781 76.664062 77.765625 77.332031 77.730469 C 77.621094 77.71875 77.910156 77.703125 78.199219 77.6875 C 78.613281 77.667969 79.027344 77.648438 79.441406 77.625 L 79.832031 77.605469 C 80.492188 77.582031 80.492188 77.582031 81.105469 77.375 C 81.257812 76.507812 81.292969 75.65625 81.292969 74.777344 L 81.296875 74.398438 C 81.296875 73.988281 81.296875 73.574219 81.300781 73.160156 L 81.304688 72.265625 C 81.304688 71.625 81.308594 70.988281 81.3125 70.347656 C 81.3125 69.335938 81.320312 68.324219 81.324219 67.316406 C 81.332031 64.988281 81.34375 62.660156 81.351562 60.335938 C 81.359375 58.199219 81.367188 56.0625 81.378906 53.929688 C 81.382812 52.921875 81.386719 51.917969 81.390625 50.914062 C 81.390625 50.289062 81.394531 49.664062 81.398438 49.039062 C 81.398438 48.75 81.402344 48.460938 81.402344 48.171875 C 81.402344 47.777344 81.402344 47.378906 81.40625 46.984375 L 81.40625 46.636719 C 81.410156 46.144531 81.4375 45.769531 81.59375 45.300781 M 83.050781 48.539062 L 82.890625 48.703125 C 82.875 49.058594 82.867188 49.414062 82.867188 49.773438 L 82.863281 50.117188 C 82.863281 50.5 82.863281 50.878906 82.863281 51.261719 L 82.859375 52.082031 C 82.859375 52.824219 82.855469 53.570312 82.855469 54.3125 C 82.855469 54.777344 82.855469 55.242188 82.855469 55.707031 C 82.851562 57.160156 82.851562 58.609375 82.851562 60.0625 C 82.847656 61.742188 82.847656 63.417969 82.84375 65.097656 C 82.839844 66.394531 82.835938 67.6875 82.835938 68.984375 C 82.835938 69.757812 82.835938 70.535156 82.832031 71.308594 C 82.828125 72.035156 82.828125 72.765625 82.832031 73.496094 C 82.832031 73.761719 82.832031 74.027344 82.828125 74.296875 C 82.828125 74.660156 82.828125 75.027344 82.828125 75.390625 L 82.828125 76.011719 C 82.894531 76.621094 83.054688 77.015625 83.375 77.539062 C 84.585938 78.144531 86.367188 77.886719 87.6875 77.882812 C 87.914062 77.882812 88.144531 77.882812 88.375 77.882812 C 88.855469 77.882812 89.339844 77.882812 89.820312 77.882812 C 90.421875 77.882812 91.023438 77.882812 91.625 77.882812 C 94.011719 77.886719 96.398438 77.871094 98.78125 77.800781 L 99.359375 77.785156 C 100.386719 77.75 101.339844 77.671875 102.328125 77.375 C 102.699219 76.90625 102.699219 76.90625 102.703125 76.308594 C 102.710938 76.0625 102.714844 75.816406 102.71875 75.570312 L 102.730469 75.160156 C 102.738281 74.714844 102.746094 74.269531 102.753906 73.820312 L 102.773438 72.886719 C 102.8125 70.609375 102.832031 68.328125 102.835938 66.046875 L 102.835938 65.589844 C 102.917969 62.921875 102.917969 62.921875 102.492188 60.316406 C 101.332031 58.757812 99.253906 57.808594 97.628906 56.800781 L 96.789062 56.277344 C 95.421875 55.425781 94.050781 54.582031 92.667969 53.753906 L 92.28125 53.519531 C 91.574219 53.097656 90.863281 52.679688 90.152344 52.265625 C 89.757812 52.035156 89.367188 51.804688 88.972656 51.574219 C 88.6875 51.410156 88.402344 51.246094 88.121094 51.082031 C 87.195312 50.542969 86.359375 49.996094 85.578125 49.261719 C 85.195312 48.910156 84.835938 48.710938 84.347656 48.539062 C 83.898438 48.496094 83.503906 48.507812 83.050781 48.539062 "/><path style=" stroke:none;fill-rule:nonzero;fill:#b5a102;fill-opacity:1;" d="M 46.960938 38.945312 L 47.351562 38.945312 C 47.769531 38.945312 48.191406 38.949219 48.609375 38.949219 L 49.488281 38.953125 C 50.253906 38.953125 51.023438 38.957031 51.789062 38.960938 C 52.574219 38.960938 53.359375 38.964844 54.140625 38.964844 C 55.679688 38.96875 57.214844 38.976562 58.75 38.980469 C 58.761719 40.578125 58.769531 42.175781 58.777344 43.773438 C 58.777344 44.515625 58.78125 45.253906 58.789062 45.996094 C 58.792969 46.710938 58.796875 47.425781 58.796875 48.144531 C 58.796875 48.417969 58.800781 48.6875 58.800781 48.960938 C 58.804688 49.34375 58.804688 49.726562 58.804688 50.109375 L 58.8125 50.453125 C 58.808594 50.769531 58.808594 50.769531 58.75 51.292969 C 58.453125 51.726562 58.058594 51.910156 57.59375 52.140625 L 57.179688 52.339844 L 56.738281 52.554688 L 56.273438 52.78125 C 55.945312 52.941406 55.617188 53.101562 55.292969 53.257812 C 54.804688 53.496094 54.316406 53.734375 53.828125 53.972656 C 51.921875 54.902344 50.003906 55.789062 48.066406 56.652344 C 47.378906 56.960938 46.695312 57.285156 46.011719 57.613281 L 45.621094 57.796875 C 44.976562 58.105469 44.976562 58.105469 44.332031 58.421875 C 44.210938 57.257812 44.148438 56.105469 44.148438 54.933594 L 44.144531 54.449219 C 44.144531 53.925781 44.144531 53.402344 44.144531 52.878906 L 44.140625 51.78125 C 44.140625 51.019531 44.140625 50.253906 44.140625 49.488281 C 44.140625 48.511719 44.136719 47.53125 44.136719 46.554688 C 44.132812 45.800781 44.132812 45.042969 44.132812 44.289062 C 44.132812 43.929688 44.132812 43.566406 44.132812 43.207031 C 44.128906 42.703125 44.128906 42.199219 44.132812 41.695312 C 44.128906 41.546875 44.128906 41.398438 44.128906 41.246094 C 44.132812 40.691406 44.160156 40.179688 44.265625 39.632812 L 44.496094 39.304688 C 45.304688 38.96875 46.09375 38.9375 46.960938 38.945312 "/><path style=" stroke:none;fill-rule:nonzero;fill:#b6a104;fill-opacity:1;" d="M 59.910156 21.570312 L 60.289062 21.578125 L 60.726562 21.582031 L 61.179688 21.597656 L 61.605469 21.601562 C 62.488281 21.617188 63.371094 21.660156 64.253906 21.707031 C 66.019531 21.804688 67.777344 21.835938 69.542969 21.828125 L 69.980469 21.828125 C 71.839844 21.828125 73.695312 21.804688 75.554688 21.761719 L 76.117188 21.75 C 77.019531 21.726562 77.925781 21.703125 78.832031 21.675781 L 79.824219 21.652344 L 80.28125 21.636719 C 80.875 21.621094 81.355469 21.625 81.925781 21.789062 L 82.242188 21.972656 C 82.765625 23.019531 82.589844 24.523438 82.589844 25.671875 L 82.589844 26.175781 C 82.589844 26.726562 82.59375 27.273438 82.59375 27.820312 L 82.59375 28.96875 C 82.59375 29.769531 82.59375 30.570312 82.59375 31.371094 C 82.59375 32.398438 82.597656 33.421875 82.601562 34.445312 C 82.601562 35.238281 82.601562 36.027344 82.601562 36.820312 C 82.601562 37.195312 82.601562 37.574219 82.605469 37.953125 C 82.605469 38.480469 82.605469 39.007812 82.605469 39.539062 C 82.605469 39.691406 82.605469 39.847656 82.605469 40.007812 C 82.601562 40.90625 82.519531 41.6875 82.242188 42.546875 C 81.683594 43.136719 81.035156 43.390625 80.285156 43.679688 L 79.960938 43.804688 C 79.3125 44.054688 78.660156 44.28125 78 44.488281 C 77.117188 44.769531 76.335938 45.171875 75.53125 45.628906 L 75.113281 45.785156 C 74.746094 45.675781 74.746094 45.675781 74.464844 45.460938 C 74.261719 45.035156 74.261719 45.035156 74.140625 44.652344 C 72.929688 44.851562 71.9375 45.292969 70.84375 45.839844 C 70.328125 46.097656 69.8125 46.351562 69.292969 46.601562 C 69.1875 46.65625 69.082031 46.707031 68.972656 46.761719 C 67.886719 47.296875 66.792969 47.8125 65.695312 48.324219 C 65.390625 48.464844 65.089844 48.605469 64.785156 48.75 C 61.414062 50.320312 61.414062 50.320312 60.855469 50.320312 C 60.625 49.859375 60.675781 49.46875 60.675781 48.949219 L 60.675781 48.625 C 60.675781 48.269531 60.679688 47.914062 60.679688 47.554688 L 60.679688 46.816406 C 60.679688 46.167969 60.683594 45.519531 60.683594 44.867188 C 60.683594 44.207031 60.6875 43.542969 60.6875 42.882812 C 60.6875 41.582031 60.691406 40.28125 60.695312 38.980469 C 62.222656 38.96875 63.75 38.960938 65.277344 38.957031 C 65.988281 38.953125 66.699219 38.949219 67.40625 38.945312 C 68.09375 38.941406 68.777344 38.9375 69.460938 38.9375 C 69.722656 38.933594 69.984375 38.933594 70.246094 38.929688 C 70.609375 38.925781 70.976562 38.925781 71.34375 38.925781 L 71.972656 38.921875 C 72.519531 38.980469 72.519531 38.980469 72.980469 39.199219 C 73.332031 39.46875 73.332031 39.46875 73.65625 39.953125 C 73.691406 40.410156 73.691406 40.410156 73.6875 40.957031 L 73.683594 41.550781 L 73.675781 42.171875 L 73.671875 42.796875 C 73.667969 43.308594 73.660156 43.816406 73.65625 44.328125 C 74.542969 44.125 75.347656 43.871094 76.175781 43.496094 L 76.507812 43.347656 C 77.3125 42.988281 78.101562 42.601562 78.878906 42.191406 L 79.183594 42.035156 C 79.75 41.730469 80.199219 41.414062 80.621094 40.925781 C 80.804688 40.554688 80.804688 40.347656 80.804688 39.933594 L 80.808594 39.511719 L 80.8125 39.042969 L 80.816406 38.554688 C 80.816406 38.015625 80.820312 37.480469 80.820312 36.941406 L 80.824219 36.386719 C 80.828125 35.421875 80.828125 34.453125 80.832031 33.484375 C 80.832031 32.480469 80.839844 31.480469 80.84375 30.480469 C 80.847656 29.710938 80.851562 28.941406 80.851562 28.171875 C 80.851562 27.804688 80.851562 27.433594 80.855469 27.066406 C 80.859375 26.546875 80.859375 26.03125 80.859375 25.515625 L 80.867188 25.050781 C 80.859375 24.453125 80.84375 24.03125 80.566406 23.496094 C 79.859375 23.121094 79.148438 23.179688 78.363281 23.1875 L 77.8125 23.1875 C 77.214844 23.1875 76.617188 23.191406 76.019531 23.191406 C 75.605469 23.195312 75.1875 23.195312 74.773438 23.195312 C 73.902344 23.195312 73.03125 23.195312 72.160156 23.199219 C 71.15625 23.207031 70.148438 23.207031 69.144531 23.207031 C 68.175781 23.207031 67.207031 23.210938 66.238281 23.210938 C 65.828125 23.210938 65.414062 23.214844 65.003906 23.214844 C 64.429688 23.214844 63.851562 23.21875 63.277344 23.21875 L 62.761719 23.21875 L 62.285156 23.222656 L 61.875 23.226562 C 61.460938 23.273438 61.203125 23.363281 60.855469 23.59375 C 60.667969 24.160156 60.667969 24.613281 60.660156 25.210938 L 60.65625 25.558594 C 60.652344 25.9375 60.648438 26.316406 60.644531 26.695312 L 60.632812 27.488281 C 60.625 28.1875 60.617188 28.886719 60.609375 29.582031 C 60.601562 30.148438 60.59375 30.714844 60.585938 31.28125 C 60.570312 32.570312 60.554688 33.859375 60.542969 35.148438 C 60.535156 35.75 60.535156 36.355469 60.542969 36.957031 L 60.53125 37.523438 L 60.371094 37.6875 C 59.335938 37.574219 59.335938 37.574219 58.914062 37.363281 C 58.898438 35.410156 58.886719 33.457031 58.878906 31.503906 C 58.875 30.59375 58.871094 29.6875 58.863281 28.78125 C 58.855469 27.90625 58.851562 27.03125 58.851562 26.15625 C 58.851562 25.824219 58.847656 25.488281 58.84375 25.15625 C 58.839844 24.6875 58.839844 24.21875 58.839844 23.753906 L 58.832031 23.332031 C 58.835938 22.976562 58.84375 22.648438 58.914062 22.296875 C 59.230469 21.871094 59.390625 21.683594 59.910156 21.570312 M 59.722656 23.59375 L 59.722656 29.101562 L 59.886719 29.101562 C 59.917969 28.363281 59.945312 27.628906 59.976562 26.890625 L 60.003906 26.261719 L 60.027344 25.652344 L 60.050781 25.089844 C 60.046875 24.574219 59.984375 24.097656 59.886719 23.59375 Z M 59.722656 23.59375 "/><g clip-rule="nonzero" clip-path="url(#83cf2182ac)"><path style=" stroke:none;fill-rule:nonzero;fill:#f9f9f9;fill-opacity:1;" d="M 59.910156 21.570312 L 60.289062 21.578125 L 60.726562 21.582031 L 61.179688 21.597656 L 61.605469 21.601562 C 62.488281 21.617188 63.371094 21.660156 64.253906 21.707031 C 66.019531 21.804688 67.777344 21.835938 69.542969 21.828125 L 69.980469 21.828125 C 71.839844 21.828125 73.695312 21.804688 75.554688 21.761719 L 76.117188 21.75 C 77.019531 21.726562 77.925781 21.703125 78.832031 21.675781 L 79.824219 21.652344 L 80.28125 21.636719 C 80.875 21.621094 81.355469 21.625 81.925781 21.789062 L 82.242188 21.972656 C 82.765625 23.019531 82.589844 24.523438 82.589844 25.671875 L 82.589844 26.175781 C 82.589844 26.726562 82.59375 27.273438 82.59375 27.820312 L 82.59375 28.96875 C 82.59375 29.769531 82.59375 30.570312 82.59375 31.371094 C 82.59375 32.398438 82.597656 33.421875 82.601562 34.445312 C 82.601562 35.238281 82.601562 36.027344 82.601562 36.820312 C 82.601562 37.195312 82.601562 37.574219 82.605469 37.953125 C 82.605469 38.480469 82.605469 39.007812 82.605469 39.539062 C 82.605469 39.691406 82.605469 39.847656 82.605469 40.007812 C 82.601562 40.90625 82.519531 41.6875 82.242188 42.546875 C 81.683594 43.136719 81.035156 43.390625 80.285156 43.679688 L 79.960938 43.804688 C 79.3125 44.054688 78.660156 44.28125 78 44.488281 C 77.117188 44.769531 76.335938 45.171875 75.53125 45.628906 L 75.113281 45.785156 C 74.742188 45.675781 74.742188 45.675781 74.464844 45.460938 L 74.304688 45.046875 L 74.140625 44.652344 C 73.8125 44.539062 73.8125 44.539062 73.492188 44.488281 L 74.058594 44.316406 C 75.726562 43.757812 77.324219 43.007812 78.878906 42.191406 L 79.183594 42.035156 C 79.75 41.730469 80.199219 41.414062 80.621094 40.925781 C 80.804688 40.554688 80.804688 40.347656 80.804688 39.933594 L 80.808594 39.511719 L 80.8125 39.042969 L 80.816406 38.554688 C 80.816406 38.015625 80.820312 37.480469 80.820312 36.941406 L 80.824219 36.386719 C 80.828125 35.421875 80.828125 34.453125 80.832031 33.484375 C 80.832031 32.480469 80.839844 31.480469 80.84375 30.480469 C 80.847656 29.710938 80.851562 28.941406 80.851562 28.171875 C 80.851562 27.804688 80.851562 27.433594 80.855469 27.066406 C 80.859375 26.546875 80.859375 26.03125 80.859375 25.515625 L 80.867188 25.050781 C 80.859375 24.453125 80.84375 24.03125 80.566406 23.496094 C 79.859375 23.121094 79.148438 23.179688 78.363281 23.1875 L 77.8125 23.1875 C 77.214844 23.1875 76.617188 23.191406 76.019531 23.191406 C 75.605469 23.195312 75.1875 23.195312 74.773438 23.195312 C 73.902344 23.195312 73.03125 23.195312 72.160156 23.199219 C 71.15625 23.207031 70.148438 23.207031 69.144531 23.207031 C 68.175781 23.207031 67.207031 23.210938 66.238281 23.210938 C 65.828125 23.210938 65.414062 23.214844 65.003906 23.214844 C 64.429688 23.214844 63.851562 23.21875 63.277344 23.21875 L 62.761719 23.21875 L 62.285156 23.222656 L 61.875 23.226562 C 61.460938 23.273438 61.203125 23.363281 60.855469 23.59375 C 60.667969 24.160156 60.667969 24.613281 60.660156 25.210938 L 60.65625 25.558594 C 60.652344 25.9375 60.648438 26.316406 60.644531 26.695312 L 60.632812 27.488281 C 60.625 28.1875 60.617188 28.886719 60.609375 29.582031 C 60.601562 30.148438 60.59375 30.714844 60.585938 31.28125 C 60.570312 32.570312 60.554688 33.859375 60.542969 35.148438 C 60.535156 35.75 60.535156 36.355469 60.542969 36.957031 L 60.53125 37.523438 L 60.371094 37.6875 C 59.335938 37.574219 59.335938 37.574219 58.914062 37.363281 C 58.898438 35.410156 58.886719 33.457031 58.878906 31.503906 C 58.875 30.59375 58.871094 29.6875 58.863281 28.78125 C 58.855469 27.90625 58.851562 27.03125 58.851562 26.15625 C 58.851562 25.824219 58.847656 25.488281 58.84375 25.15625 C 58.839844 24.6875 58.839844 24.21875 58.839844 23.753906 L 58.832031 23.332031 C 58.835938 22.976562 58.84375 22.648438 58.914062 22.296875 C 59.230469 21.871094 59.390625 21.683594 59.910156 21.570312 M 59.722656 23.59375 L 59.722656 29.101562 L 59.886719 29.101562 C 59.917969 28.363281 59.945312 27.628906 59.976562 26.890625 L 60.003906 26.261719 L 60.027344 25.652344 L 60.050781 25.089844 C 60.046875 24.574219 59.984375 24.097656 59.886719 23.59375 Z M 43.359375 59.554688 C 42.988281 60.417969 42.316406 60.945312 41.578125 61.5 C 40.980469 61.84375 40.359375 62.125 39.726562 62.402344 C 38.476562 62.953125 37.289062 63.535156 36.234375 64.414062 C 35.824219 65.046875 35.605469 65.65625 35.566406 66.410156 L 35.566406 67.3125 L 35.570312 67.839844 L 35.574219 68.394531 C 35.574219 68.796875 35.574219 69.195312 35.578125 69.59375 C 35.582031 70.226562 35.582031 70.859375 35.582031 71.488281 C 35.585938 73.285156 35.59375 75.082031 35.601562 76.878906 C 35.605469 77.976562 35.609375 79.074219 35.609375 80.171875 C 35.609375 80.59375 35.613281 81.011719 35.613281 81.429688 C 35.617188 82.015625 35.617188 82.601562 35.617188 83.1875 L 35.625 83.714844 L 35.621094 84.195312 L 35.625 84.617188 C 35.582031 85.027344 35.480469 85.289062 35.261719 85.636719 C 33.199219 86.667969 29.328125 86.019531 27.078125 86.050781 C 26.472656 86.058594 25.867188 86.070312 25.261719 86.078125 L 24.699219 86.085938 L 24.175781 86.09375 L 23.714844 86.097656 C 23.234375 86.125 22.773438 86.199219 22.300781 86.285156 L 22.28125 85.882812 C 22.226562 85.335938 22.15625 84.863281 21.976562 84.34375 C 21.640625 84.023438 21.375 83.910156 20.9375 83.773438 C 20.242188 83.640625 19.601562 83.574219 18.898438 83.695312 L 18.492188 83.917969 C 18.125 84.5625 18.042969 85.234375 17.925781 85.960938 C 17.875 86.179688 17.820312 86.394531 17.765625 86.609375 L 17.277344 86.609375 C 16.953125 85.890625 16.742188 85.347656 16.8125 84.554688 C 16.882812 84.132812 16.976562 83.800781 17.136719 83.398438 C 17.5625 82.90625 17.992188 82.691406 18.574219 82.398438 C 19.164062 82.199219 19.570312 82.183594 20.195312 82.234375 C 21.125 82.554688 21.882812 83.152344 22.644531 83.761719 C 23.832031 84.414062 25.234375 84.390625 26.554688 84.386719 L 27.066406 84.386719 C 27.417969 84.386719 27.769531 84.386719 28.121094 84.382812 C 28.660156 84.382812 29.199219 84.382812 29.734375 84.386719 C 30.082031 84.386719 30.425781 84.386719 30.769531 84.386719 L 31.253906 84.386719 C 32.050781 84.382812 32.742188 84.367188 33.480469 84.019531 C 34.191406 82.660156 33.996094 80.699219 34.035156 79.207031 C 34.074219 77.765625 34.125 76.328125 34.210938 74.886719 L 34.230469 74.496094 C 34.292969 73.445312 34.292969 73.445312 34.320312 72.917969 C 34.410156 71.394531 34.460938 69.875 34.449219 68.34375 L 34.445312 67.914062 C 34.441406 67.230469 34.425781 66.550781 34.410156 65.867188 L 34.398438 65.132812 L 34.382812 64.488281 C 34.449219 63.929688 34.449219 63.929688 34.734375 63.472656 C 35.085938 63.132812 35.355469 62.941406 35.796875 62.742188 L 36.210938 62.554688 L 36.648438 62.359375 C 36.953125 62.21875 37.261719 62.078125 37.566406 61.9375 L 38.035156 61.722656 C 38.894531 61.3125 39.726562 60.859375 40.558594 60.402344 C 41.472656 59.90625 42.296875 59.554688 43.359375 59.554688 M 34.289062 82.558594 L 34.289062 84.503906 L 34.773438 84.503906 C 34.789062 84.269531 34.796875 84.039062 34.804688 83.804688 L 34.820312 83.414062 L 34.773438 83.046875 Z M 34.289062 82.558594 "/></g><path style=" stroke:none;fill-rule:nonzero;fill:#e4e5e8;fill-opacity:1;" d="M 103.460938 58.746094 L 103.949219 58.90625 C 104.332031 59.441406 104.492188 59.886719 104.597656 60.527344 C 104.609375 60.785156 104.617188 61.046875 104.621094 61.304688 L 104.621094 62.261719 L 104.625 62.792969 C 104.628906 63.371094 104.628906 63.945312 104.628906 64.523438 L 104.632812 65.726562 C 104.632812 66.566406 104.636719 67.40625 104.636719 68.246094 C 104.636719 69.324219 104.640625 70.402344 104.644531 71.476562 C 104.648438 72.304688 104.648438 73.132812 104.648438 73.960938 C 104.648438 74.359375 104.652344 74.753906 104.652344 75.152344 C 104.65625 75.707031 104.65625 76.261719 104.65625 76.816406 L 104.660156 77.316406 C 104.65625 77.46875 104.65625 77.617188 104.65625 77.773438 L 104.65625 78.171875 L 104.597656 78.511719 C 104.351562 78.796875 104.351562 78.796875 104.109375 78.996094 L 103.625 78.832031 L 103.785156 78.671875 C 104.097656 76.570312 104.15625 74.476562 104.148438 72.355469 L 104.148438 71.457031 C 104.148438 70.835938 104.144531 70.214844 104.144531 69.59375 C 104.140625 68.804688 104.140625 68.015625 104.140625 67.222656 C 104.140625 66.609375 104.140625 65.992188 104.140625 65.375 L 104.136719 64.503906 C 104.289062 61.726562 104.289062 61.726562 103.695312 59.101562 Z M 103.460938 58.746094 "/><path style=" stroke:none;fill-rule:nonzero;fill:#e6e7ea;fill-opacity:1;" d="M 58.914062 22.621094 L 59.238281 22.78125 C 59.289062 23.171875 59.320312 23.539062 59.335938 23.929688 L 59.355469 24.285156 C 59.414062 25.484375 59.421875 26.679688 59.421875 27.878906 L 59.421875 28.566406 C 59.421875 29.039062 59.421875 29.515625 59.417969 29.988281 C 59.417969 30.59375 59.417969 31.195312 59.421875 31.800781 C 59.421875 32.269531 59.421875 32.742188 59.421875 33.210938 C 59.421875 33.433594 59.421875 33.65625 59.421875 33.878906 C 59.421875 35.054688 59.394531 36.199219 59.238281 37.363281 L 58.914062 37.363281 Z M 58.914062 22.621094 "/><path style=" stroke:none;fill-rule:nonzero;fill:#e7e8eb;fill-opacity:1;" d="M 102.816406 61.5 L 103.140625 61.660156 C 103.144531 63.679688 103.152344 65.699219 103.15625 67.71875 C 103.15625 68.65625 103.160156 69.59375 103.164062 70.53125 C 103.167969 71.4375 103.167969 72.339844 103.167969 73.246094 C 103.171875 73.589844 103.171875 73.9375 103.171875 74.28125 C 103.175781 74.765625 103.175781 75.25 103.175781 75.730469 L 103.179688 76.167969 L 103.179688 76.910156 C 103.140625 77.214844 103.140625 77.214844 102.816406 77.699219 C 102.667969 76.695312 102.628906 75.71875 102.632812 74.703125 L 102.628906 74.207031 C 102.628906 73.671875 102.632812 73.140625 102.632812 72.605469 L 102.632812 72.054688 C 102.636719 68.535156 102.707031 65.019531 102.816406 61.5 "/><path style=" stroke:none;fill-rule:nonzero;fill:#e3e5e8;fill-opacity:1;" d="M 102.816406 85.800781 L 122.253906 85.800781 L 122.09375 86.449219 L 121.765625 86.378906 C 120.671875 86.160156 119.632812 86.078125 118.515625 86.085938 L 118.003906 86.085938 C 117.449219 86.085938 116.898438 86.089844 116.34375 86.09375 L 115.1875 86.09375 C 114.175781 86.09375 113.164062 86.097656 112.152344 86.101562 C 111.121094 86.105469 110.085938 86.105469 109.050781 86.109375 C 107.027344 86.113281 105 86.117188 102.976562 86.125 Z M 102.816406 85.800781 "/><path style=" stroke:none;fill-rule:nonzero;fill:#d8dadc;fill-opacity:1;" d="M 61.492188 22.921875 L 63.160156 22.921875 C 63.695312 22.921875 64.230469 22.921875 64.769531 22.921875 C 65.328125 22.921875 65.890625 22.921875 66.449219 22.921875 C 67.390625 22.921875 68.332031 22.921875 69.273438 22.921875 C 70.363281 22.921875 71.453125 22.921875 72.542969 22.921875 C 73.476562 22.921875 74.410156 22.921875 75.347656 22.921875 C 75.902344 22.921875 76.460938 22.921875 77.019531 22.921875 C 77.644531 22.921875 78.265625 22.921875 78.890625 22.921875 L 80.410156 22.921875 C 80.78125 22.945312 80.78125 22.945312 81.269531 23.105469 L 81.269531 24.238281 L 80.945312 24.238281 C 80.78125 23.972656 80.617188 23.703125 80.457031 23.429688 C 80.070312 23.234375 79.828125 23.246094 79.394531 23.246094 L 78.917969 23.242188 L 78.398438 23.246094 L 77.851562 23.242188 C 77.25 23.242188 76.652344 23.242188 76.050781 23.242188 L 74.804688 23.238281 C 73.929688 23.238281 73.058594 23.238281 72.1875 23.238281 C 71.179688 23.238281 70.167969 23.238281 69.160156 23.234375 C 68.191406 23.230469 67.222656 23.230469 66.25 23.230469 C 65.839844 23.230469 65.425781 23.230469 65.011719 23.230469 C 64.4375 23.226562 63.859375 23.226562 63.285156 23.230469 C 63.113281 23.226562 62.941406 23.226562 62.765625 23.226562 L 61.875 23.226562 C 61.460938 23.273438 61.203125 23.359375 60.855469 23.59375 C 60.714844 24.023438 60.671875 24.285156 60.660156 24.726562 L 60.652344 25.121094 L 60.644531 25.542969 L 60.632812 25.976562 C 60.621094 26.433594 60.613281 26.890625 60.605469 27.347656 L 60.582031 28.277344 C 60.566406 29.039062 60.546875 29.796875 60.53125 30.558594 L 60.371094 30.558594 L 60.371094 23.105469 C 60.773438 22.90625 61.042969 22.921875 61.492188 22.921875 "/><path style=" stroke:none;fill-rule:nonzero;fill:#e3e5e8;fill-opacity:1;" d="M 22.785156 85.636719 L 34.9375 85.636719 L 34.9375 85.800781 C 32.539062 85.996094 30.140625 86.011719 27.734375 86.046875 C 27.175781 86.054688 26.617188 86.066406 26.058594 86.074219 C 24.96875 86.089844 23.878906 86.109375 22.785156 86.125 Z M 22.785156 85.636719 "/><path style=" stroke:none;fill-rule:nonzero;fill:#e4e6e9;fill-opacity:1;" d="M 80.945312 78.996094 C 81.214844 79.039062 81.488281 79.09375 81.753906 79.15625 L 81.746094 79.683594 C 81.738281 80.332031 81.734375 80.976562 81.726562 81.621094 C 81.726562 81.902344 81.722656 82.183594 81.71875 82.460938 C 81.710938 82.863281 81.710938 83.265625 81.707031 83.667969 C 81.703125 83.792969 81.703125 83.917969 81.699219 84.046875 C 81.695312 84.4375 81.695312 84.4375 81.753906 84.988281 C 81.925781 85.320312 81.925781 85.320312 82.242188 85.476562 C 82.816406 85.640625 83.382812 85.667969 83.980469 85.6875 L 84.503906 85.710938 L 85.046875 85.730469 L 85.597656 85.75 C 86.042969 85.765625 86.492188 85.785156 86.9375 85.800781 L 86.9375 85.960938 C 86.28125 85.96875 85.625 85.976562 84.96875 85.980469 C 84.742188 85.980469 84.519531 85.984375 84.296875 85.984375 C 83.976562 85.988281 83.652344 85.992188 83.332031 85.992188 L 82.746094 86 C 82.261719 85.964844 81.992188 85.910156 81.59375 85.636719 C 81.347656 85.148438 81.40625 84.636719 81.402344 84.101562 C 81.398438 83.851562 81.394531 83.605469 81.390625 83.359375 C 81.386719 82.96875 81.378906 82.578125 81.378906 82.191406 C 81.375 81.8125 81.367188 81.4375 81.363281 81.0625 L 81.363281 80.710938 C 81.359375 80.335938 81.359375 80.335938 81.269531 79.804688 C 80.964844 79.40625 80.964844 79.40625 80.621094 79.15625 Z M 80.945312 78.996094 "/><path style=" stroke:none;fill-rule:nonzero;fill:#d8dbdb;fill-opacity:1;" d="M 81.917969 21.808594 L 81.917969 22.132812 L 70.253906 22.132812 L 70.253906 21.972656 C 72.449219 21.839844 74.640625 21.765625 76.839844 21.71875 C 77.367188 21.707031 77.894531 21.695312 78.421875 21.683594 C 78.757812 21.675781 79.097656 21.667969 79.433594 21.660156 L 79.910156 21.648438 L 80.351562 21.640625 L 80.734375 21.632812 C 81.144531 21.648438 81.519531 21.71875 81.917969 21.808594 "/><path style=" stroke:none;fill-rule:nonzero;fill:#e5e6e9;fill-opacity:1;" d="M 70.414062 22.945312 C 71.757812 22.941406 73.101562 22.9375 74.445312 22.933594 C 75.070312 22.933594 75.691406 22.933594 76.316406 22.933594 C 76.917969 22.929688 77.519531 22.929688 78.121094 22.929688 C 78.351562 22.929688 78.582031 22.925781 78.8125 22.925781 C 79.132812 22.925781 79.453125 22.925781 79.777344 22.925781 L 80.332031 22.925781 C 80.78125 22.945312 80.78125 22.945312 81.269531 23.105469 L 81.269531 24.238281 L 80.945312 24.238281 C 80.78125 23.972656 80.617188 23.703125 80.457031 23.429688 C 80.027344 23.214844 79.6875 23.242188 79.207031 23.234375 L 78.617188 23.226562 L 77.976562 23.214844 L 77.324219 23.207031 C 76.75 23.199219 76.179688 23.1875 75.605469 23.183594 C 75.023438 23.171875 74.4375 23.164062 73.855469 23.15625 C 72.707031 23.136719 71.5625 23.121094 70.414062 23.105469 Z M 70.414062 22.945312 "/><path style=" stroke:none;fill-rule:nonzero;fill:#eaecee;fill-opacity:1;" d="M 59.5625 21.648438 C 60.144531 21.636719 60.726562 21.632812 61.3125 21.628906 L 61.816406 21.621094 L 62.296875 21.617188 L 62.742188 21.609375 C 63.125 21.648438 63.125 21.648438 63.609375 21.972656 L 63.449219 22.132812 C 63.148438 22.148438 62.847656 22.152344 62.546875 22.148438 L 61.996094 22.148438 L 60.832031 22.140625 C 60.351562 22.140625 59.875 22.136719 59.398438 22.132812 Z M 59.5625 21.648438 "/><path style=" stroke:none;fill-rule:nonzero;fill:#e9ebed;fill-opacity:1;" d="M 81.269531 76.078125 L 81.429688 76.078125 C 81.433594 76.3125 81.4375 76.546875 81.441406 76.777344 L 81.445312 77.171875 C 81.429688 77.539062 81.429688 77.539062 81.269531 78.023438 L 78.027344 78.023438 L 78.351562 77.699219 C 78.761719 77.652344 79.15625 77.625 79.566406 77.609375 C 80.363281 77.601562 80.363281 77.601562 81.105469 77.375 C 81.183594 77.070312 81.183594 77.070312 81.207031 76.71875 Z M 81.269531 76.078125 "/><path style=" stroke:none;fill-rule:nonzero;fill:#e4e5e9;fill-opacity:1;" d="M 82.890625 76.566406 L 83.210938 77.050781 C 83.402344 77.328125 83.402344 77.328125 83.699219 77.539062 C 84.214844 77.667969 84.214844 77.667969 84.78125 77.730469 L 85.359375 77.808594 L 85.804688 77.863281 L 85.804688 78.023438 C 85.347656 78.027344 84.894531 78.03125 84.4375 78.035156 L 84.042969 78.039062 C 83.710938 78.039062 83.382812 78.03125 83.050781 78.023438 L 82.890625 77.863281 C 82.867188 77.429688 82.882812 77 82.890625 76.566406 "/><path style=" stroke:none;fill-rule:nonzero;fill:#e9ebed;fill-opacity:1;" d="M 79.488281 41.898438 L 79.972656 42.058594 C 79.765625 42.167969 79.554688 42.277344 79.34375 42.382812 L 78.992188 42.566406 C 78.675781 42.707031 78.675781 42.707031 78.351562 42.707031 L 78.351562 43.03125 L 76.894531 43.679688 L 76.894531 43.195312 C 77.316406 42.972656 77.738281 42.753906 78.160156 42.535156 L 78.523438 42.34375 L 78.871094 42.164062 L 79.195312 42 Z M 79.488281 41.898438 "/><path style=" stroke:none;fill-rule:nonzero;fill:#dad7dd;fill-opacity:1;" d="M 36.070312 64.09375 L 36.394531 64.253906 L 36.171875 64.507812 C 35.847656 64.996094 35.726562 65.46875 35.585938 66.035156 L 35.421875 66.035156 C 35.386719 65.542969 35.363281 65.066406 35.421875 64.578125 C 35.746094 64.242188 35.746094 64.242188 36.070312 64.09375 "/><path style=" stroke:none;fill-rule:nonzero;fill:#e7e8eb;fill-opacity:1;" d="M 75.113281 44.164062 L 75.113281 44.488281 C 74.757812 44.660156 74.757812 44.660156 74.304688 44.8125 C 73.847656 44.753906 73.847656 44.753906 73.492188 44.652344 L 73.65625 44.328125 C 74.152344 44.21875 74.605469 44.164062 75.113281 44.164062 "/><path style=" stroke:none;fill-rule:nonzero;fill:#e7e9eb;fill-opacity:1;" d="M 76.570312 43.519531 L 76.570312 43.84375 L 75.4375 44.328125 L 75.4375 43.84375 C 76.207031 43.519531 76.207031 43.519531 76.570312 43.519531 "/><g style="fill:#ffffff;fill-opacity:1;"><g transform="translate(9.777301, 105.242324)"><path style="stroke:none" d="M 0.828125 -9.46875 L 1.03125 -9.46875 C 1.03125 -9.300781 1.085938 -9.179688 1.203125 -9.109375 C 1.316406 -9.046875 1.453125 -9.015625 1.609375 -9.015625 L 8.84375 -9.015625 C 9.226562 -9.015625 9.421875 -9.164062 9.421875 -9.46875 L 9.640625 -9.46875 L 9.640625 -7.4375 L 9.421875 -7.4375 C 9.421875 -7.625 9.375 -7.742188 9.28125 -7.796875 C 9.1875 -7.859375 9.039062 -7.890625 8.84375 -7.890625 L 5.953125 -7.890625 L 5.953125 -0.609375 C 5.953125 -0.484375 5.976562 -0.382812 6.03125 -0.3125 C 6.09375 -0.238281 6.203125 -0.203125 6.359375 -0.203125 L 6.359375 0 L 4.09375 0 L 4.09375 -0.203125 C 4.375 -0.203125 4.515625 -0.335938 4.515625 -0.609375 L 4.515625 -7.890625 L 1.625 -7.890625 C 1.4375 -7.890625 1.289062 -7.859375 1.1875 -7.796875 C 1.082031 -7.742188 1.03125 -7.625 1.03125 -7.4375 L 0.828125 -7.4375 Z M 0.828125 -9.46875 "/></g></g><g style="fill:#ffffff;fill-opacity:1;"><g transform="translate(22.83642, 105.242324)"><path style="stroke:none" d="M 7.40625 -5.078125 C 8 -5.078125 8.460938 -5.191406 8.796875 -5.421875 C 9.128906 -5.648438 9.296875 -6.023438 9.296875 -6.546875 C 9.296875 -6.773438 9.265625 -6.972656 9.203125 -7.140625 C 9.140625 -7.304688 9.03125 -7.441406 8.875 -7.546875 C 8.726562 -7.648438 8.53125 -7.722656 8.28125 -7.765625 C 8.03125 -7.816406 7.707031 -7.84375 7.3125 -7.84375 L 3.640625 -7.84375 L 3.640625 -5.078125 Z M 7.53125 -9.015625 C 8.5625 -9.015625 9.347656 -8.816406 9.890625 -8.421875 C 10.429688 -8.035156 10.703125 -7.398438 10.703125 -6.515625 C 10.703125 -5.796875 10.507812 -5.222656 10.125 -4.796875 C 9.738281 -4.378906 9.125 -4.113281 8.28125 -4 L 10.25 -0.9375 C 10.4375 -0.664062 10.570312 -0.472656 10.65625 -0.359375 C 10.738281 -0.253906 10.878906 -0.203125 11.078125 -0.203125 L 11.109375 -0.203125 L 11.109375 0 L 8.640625 0 L 8.640625 -0.203125 C 8.796875 -0.203125 8.890625 -0.21875 8.921875 -0.25 C 8.960938 -0.28125 8.984375 -0.316406 8.984375 -0.359375 C 8.984375 -0.398438 8.957031 -0.457031 8.90625 -0.53125 C 8.851562 -0.613281 8.789062 -0.710938 8.71875 -0.828125 L 6.78125 -3.90625 L 3.640625 -3.90625 L 3.640625 -0.609375 C 3.640625 -0.484375 3.664062 -0.382812 3.71875 -0.3125 C 3.78125 -0.238281 3.890625 -0.203125 4.046875 -0.203125 L 4.046875 0 L 1.78125 0 L 1.78125 -0.203125 C 1.9375 -0.203125 2.039062 -0.238281 2.09375 -0.3125 C 2.15625 -0.382812 2.1875 -0.484375 2.1875 -0.609375 L 2.1875 -8.40625 C 2.1875 -8.53125 2.15625 -8.628906 2.09375 -8.703125 C 2.039062 -8.773438 1.9375 -8.8125 1.78125 -8.8125 L 1.78125 -9.015625 Z M 7.53125 -9.015625 "/></g></g><g style="fill:#ffffff;fill-opacity:1;"><g transform="translate(37.797696, 105.242324)"><path style="stroke:none" d="M 3.703125 -3.53125 L 7.421875 -3.53125 L 5.484375 -7.578125 Z M 6.78125 -9.015625 L 6.78125 -8.8125 C 6.664062 -8.8125 6.59375 -8.789062 6.5625 -8.75 C 6.53125 -8.707031 6.515625 -8.660156 6.515625 -8.609375 C 6.515625 -8.535156 6.539062 -8.441406 6.59375 -8.328125 C 6.65625 -8.222656 6.734375 -8.078125 6.828125 -7.890625 L 9.953125 -1.390625 C 10.078125 -1.128906 10.179688 -0.914062 10.265625 -0.75 C 10.347656 -0.59375 10.40625 -0.484375 10.4375 -0.421875 C 10.507812 -0.328125 10.578125 -0.265625 10.640625 -0.234375 C 10.710938 -0.210938 10.804688 -0.203125 10.921875 -0.203125 L 10.921875 0 L 8.53125 0 L 8.53125 -0.203125 C 8.664062 -0.203125 8.753906 -0.222656 8.796875 -0.265625 C 8.847656 -0.304688 8.875 -0.367188 8.875 -0.453125 C 8.875 -0.503906 8.859375 -0.566406 8.828125 -0.640625 C 8.796875 -0.710938 8.742188 -0.832031 8.671875 -1 L 8 -2.40625 L 3.15625 -2.40625 L 2.453125 -0.75 C 2.367188 -0.582031 2.328125 -0.460938 2.328125 -0.390625 C 2.328125 -0.265625 2.425781 -0.203125 2.625 -0.203125 L 2.625 0 L 0.515625 0 L 0.515625 -0.203125 C 0.597656 -0.203125 0.660156 -0.207031 0.703125 -0.21875 C 0.753906 -0.238281 0.804688 -0.273438 0.859375 -0.328125 C 0.910156 -0.390625 0.960938 -0.472656 1.015625 -0.578125 C 1.066406 -0.691406 1.140625 -0.847656 1.234375 -1.046875 L 4.296875 -7.90625 C 4.421875 -8.164062 4.5 -8.332031 4.53125 -8.40625 C 4.570312 -8.476562 4.59375 -8.546875 4.59375 -8.609375 C 4.59375 -8.660156 4.5625 -8.707031 4.5 -8.75 C 4.4375 -8.789062 4.363281 -8.8125 4.28125 -8.8125 L 4.28125 -9.015625 Z M 6.78125 -9.015625 "/></g></g><g style="fill:#ffffff;fill-opacity:1;"><g transform="translate(51.816463, 105.242324)"><path style="stroke:none" d="M 6.9375 -1.125 C 7.875 -1.125 8.609375 -1.398438 9.140625 -1.953125 C 9.671875 -2.515625 9.9375 -3.367188 9.9375 -4.515625 C 9.9375 -5.617188 9.644531 -6.457031 9.0625 -7.03125 C 8.476562 -7.601562 7.65625 -7.890625 6.59375 -7.890625 L 3.296875 -7.890625 L 3.296875 -1.125 Z M 6.78125 -9.015625 C 7.414062 -9.015625 8.007812 -8.910156 8.5625 -8.703125 C 9.113281 -8.503906 9.59375 -8.210938 10 -7.828125 C 10.414062 -7.441406 10.742188 -6.96875 10.984375 -6.40625 C 11.222656 -5.851562 11.34375 -5.222656 11.34375 -4.515625 C 11.34375 -3.828125 11.242188 -3.203125 11.046875 -2.640625 C 10.859375 -2.085938 10.582031 -1.613281 10.21875 -1.21875 C 9.851562 -0.832031 9.40625 -0.53125 8.875 -0.3125 C 8.351562 -0.101562 7.765625 0 7.109375 0 L 1.4375 0 L 1.4375 -0.203125 C 1.601562 -0.203125 1.710938 -0.238281 1.765625 -0.3125 C 1.816406 -0.382812 1.84375 -0.476562 1.84375 -0.59375 L 1.84375 -8.421875 C 1.84375 -8.503906 1.816406 -8.585938 1.765625 -8.671875 C 1.722656 -8.765625 1.613281 -8.8125 1.4375 -8.8125 L 1.4375 -9.015625 Z M 6.78125 -9.015625 "/></g></g><g style="fill:#ffffff;fill-opacity:1;"><g transform="translate(66.77774, 105.242324)"><path style="stroke:none" d="M 9.75 -7.40625 L 9.546875 -7.40625 C 9.546875 -7.726562 9.320312 -7.890625 8.875 -7.890625 L 3.53125 -7.890625 L 3.53125 -5.171875 L 7.03125 -5.171875 C 7.21875 -5.171875 7.378906 -5.203125 7.515625 -5.265625 C 7.648438 -5.335938 7.71875 -5.46875 7.71875 -5.65625 L 7.921875 -5.65625 L 7.921875 -3.578125 L 7.71875 -3.578125 C 7.71875 -3.753906 7.664062 -3.875 7.5625 -3.9375 C 7.457031 -4.007812 7.285156 -4.046875 7.046875 -4.046875 L 3.53125 -4.046875 L 3.53125 -1.125 L 9.265625 -1.125 C 9.472656 -1.125 9.640625 -1.164062 9.765625 -1.25 C 9.890625 -1.332031 9.953125 -1.488281 9.953125 -1.71875 L 10.171875 -1.71875 L 10.171875 0.375 L 9.953125 0.375 C 9.953125 0.226562 9.90625 0.128906 9.8125 0.078125 C 9.71875 0.0234375 9.570312 0 9.375 0 L 1.6875 0 L 1.6875 -0.203125 C 1.84375 -0.203125 1.945312 -0.238281 2 -0.3125 C 2.0625 -0.382812 2.09375 -0.484375 2.09375 -0.609375 L 2.09375 -8.40625 C 2.09375 -8.519531 2.066406 -8.613281 2.015625 -8.6875 C 1.960938 -8.769531 1.851562 -8.8125 1.6875 -8.8125 L 1.6875 -9.015625 L 8.765625 -9.015625 C 9.066406 -9.015625 9.269531 -9.03125 9.375 -9.0625 C 9.488281 -9.101562 9.546875 -9.203125 9.546875 -9.359375 L 9.75 -9.359375 Z M 9.75 -7.40625 "/></g></g><g style="fill:#ffffff;fill-opacity:1;"><g transform="translate(80.796506, 105.242324)"><path style="stroke:none" d="M 3.875 -9.015625 L 3.875 -8.8125 C 3.695312 -8.8125 3.582031 -8.765625 3.53125 -8.671875 C 3.488281 -8.585938 3.46875 -8.472656 3.46875 -8.328125 L 3.46875 -1.125 L 9.21875 -1.125 C 9.625 -1.125 9.828125 -1.296875 9.828125 -1.640625 L 10.03125 -1.640625 L 10.03125 0.375 L 9.828125 0.375 C 9.828125 0.226562 9.773438 0.128906 9.671875 0.078125 C 9.578125 0.0234375 9.429688 0 9.234375 0 L 1.609375 0 L 1.609375 -0.203125 C 1.765625 -0.203125 1.867188 -0.238281 1.921875 -0.3125 C 1.984375 -0.382812 2.015625 -0.484375 2.015625 -0.609375 L 2.015625 -8.40625 C 2.015625 -8.519531 1.988281 -8.613281 1.9375 -8.6875 C 1.894531 -8.769531 1.785156 -8.8125 1.609375 -8.8125 L 1.609375 -9.015625 Z M 3.875 -9.015625 "/></g></g><g style="fill:#ffffff;fill-opacity:1;"><g transform="translate(93.855625, 105.242324)"><path style="stroke:none" d="M 3 -9.015625 L 3 -8.8125 C 2.71875 -8.789062 2.578125 -8.710938 2.578125 -8.578125 C 2.578125 -8.523438 2.597656 -8.46875 2.640625 -8.40625 C 2.691406 -8.34375 2.765625 -8.25 2.859375 -8.125 L 5.234375 -4.90625 L 7.625 -8.09375 C 7.738281 -8.25 7.820312 -8.359375 7.875 -8.421875 C 7.9375 -8.492188 7.96875 -8.5625 7.96875 -8.625 C 7.96875 -8.664062 7.9375 -8.707031 7.875 -8.75 C 7.820312 -8.789062 7.726562 -8.8125 7.59375 -8.8125 L 7.59375 -9.015625 L 10.0625 -9.015625 L 10.0625 -8.8125 C 9.90625 -8.8125 9.769531 -8.753906 9.65625 -8.640625 C 9.539062 -8.535156 9.367188 -8.328125 9.140625 -8.015625 L 5.890625 -3.734375 L 5.890625 -0.609375 C 5.890625 -0.484375 5.914062 -0.382812 5.96875 -0.3125 C 6.03125 -0.238281 6.144531 -0.203125 6.3125 -0.203125 L 6.3125 0 L 4.046875 0 L 4.046875 -0.203125 C 4.203125 -0.203125 4.304688 -0.238281 4.359375 -0.3125 C 4.421875 -0.382812 4.453125 -0.484375 4.453125 -0.609375 L 4.453125 -3.734375 L 1.140625 -8.234375 C 0.984375 -8.441406 0.851562 -8.585938 0.75 -8.671875 C 0.65625 -8.765625 0.539062 -8.8125 0.40625 -8.8125 L 0.40625 -9.015625 Z M 3 -9.015625 "/></g></g><g style="fill:#ffffff;fill-opacity:1;"><g transform="translate(106.914743, 105.242324)"><path style="stroke:none" d="M 4.671875 -9.015625 L 4.671875 -8.8125 C 4.535156 -8.8125 4.445312 -8.796875 4.40625 -8.765625 C 4.375 -8.734375 4.359375 -8.691406 4.359375 -8.640625 C 4.359375 -8.597656 4.375 -8.550781 4.40625 -8.5 C 4.4375 -8.457031 4.503906 -8.378906 4.609375 -8.265625 L 9.875 -2.265625 L 9.90625 -2.265625 L 9.90625 -8.40625 C 9.90625 -8.53125 9.875 -8.628906 9.8125 -8.703125 C 9.757812 -8.773438 9.65625 -8.8125 9.5 -8.8125 L 9.5 -9.015625 L 11.546875 -9.015625 L 11.546875 -8.8125 C 11.390625 -8.8125 11.28125 -8.773438 11.21875 -8.703125 C 11.164062 -8.628906 11.140625 -8.53125 11.140625 -8.40625 L 11.140625 -0.609375 C 11.140625 -0.484375 11.164062 -0.382812 11.21875 -0.3125 C 11.28125 -0.238281 11.390625 -0.203125 11.546875 -0.203125 L 11.546875 0 L 9.359375 0 L 9.359375 -0.203125 C 9.585938 -0.203125 9.703125 -0.253906 9.703125 -0.359375 C 9.703125 -0.421875 9.675781 -0.476562 9.625 -0.53125 C 9.582031 -0.582031 9.507812 -0.675781 9.40625 -0.8125 L 3.421875 -7.609375 L 3.421875 -0.609375 C 3.421875 -0.484375 3.445312 -0.382812 3.5 -0.3125 C 3.5625 -0.238281 3.675781 -0.203125 3.84375 -0.203125 L 3.84375 0 L 1.78125 0 L 1.78125 -0.203125 C 1.9375 -0.203125 2.039062 -0.238281 2.09375 -0.3125 C 2.15625 -0.382812 2.1875 -0.484375 2.1875 -0.609375 L 2.1875 -8.40625 C 2.1875 -8.53125 2.15625 -8.628906 2.09375 -8.703125 C 2.039062 -8.773438 1.9375 -8.8125 1.78125 -8.8125 L 1.78125 -9.015625 Z M 4.671875 -9.015625 "/></g></g><g style="fill:#ffffff;fill-opacity:1;"><g transform="translate(122.835668, 105.242324)"><path style="stroke:none" d="M 6.359375 -9.125 C 6.753906 -9.125 7.128906 -9.09375 7.484375 -9.03125 C 7.835938 -8.976562 8.15625 -8.910156 8.4375 -8.828125 C 8.726562 -8.753906 8.984375 -8.675781 9.203125 -8.59375 C 9.421875 -8.507812 9.59375 -8.445312 9.71875 -8.40625 C 9.832031 -8.351562 9.941406 -8.300781 10.046875 -8.25 C 10.148438 -8.207031 10.238281 -8.1875 10.3125 -8.1875 C 10.363281 -8.1875 10.40625 -8.195312 10.4375 -8.21875 C 10.46875 -8.238281 10.507812 -8.28125 10.5625 -8.34375 L 10.765625 -8.203125 L 9.703125 -6.375 L 9.484375 -6.484375 C 9.503906 -6.515625 9.519531 -6.539062 9.53125 -6.5625 C 9.550781 -6.59375 9.5625 -6.640625 9.5625 -6.703125 C 9.5625 -6.804688 9.472656 -6.925781 9.296875 -7.0625 C 9.117188 -7.207031 8.878906 -7.34375 8.578125 -7.46875 C 8.273438 -7.601562 7.925781 -7.71875 7.53125 -7.8125 C 7.132812 -7.90625 6.722656 -7.953125 6.296875 -7.953125 C 5.753906 -7.953125 5.25 -7.875 4.78125 -7.71875 C 4.320312 -7.570312 3.914062 -7.351562 3.5625 -7.0625 C 3.207031 -6.78125 2.929688 -6.425781 2.734375 -6 C 2.535156 -5.582031 2.4375 -5.109375 2.4375 -4.578125 C 2.4375 -4.066406 2.550781 -3.59375 2.78125 -3.15625 C 3.007812 -2.71875 3.316406 -2.34375 3.703125 -2.03125 C 4.085938 -1.726562 4.53125 -1.488281 5.03125 -1.3125 C 5.53125 -1.144531 6.046875 -1.0625 6.578125 -1.0625 C 7.097656 -1.0625 7.5625 -1.144531 7.96875 -1.3125 C 8.382812 -1.476562 8.695312 -1.632812 8.90625 -1.78125 C 9.101562 -1.90625 9.28125 -2.046875 9.4375 -2.203125 C 9.601562 -2.367188 9.6875 -2.515625 9.6875 -2.640625 C 9.6875 -2.679688 9.675781 -2.722656 9.65625 -2.765625 C 9.644531 -2.816406 9.625 -2.851562 9.59375 -2.875 L 9.828125 -3.015625 L 11.09375 -1.375 L 10.859375 -1.21875 C 10.796875 -1.300781 10.71875 -1.34375 10.625 -1.34375 C 10.570312 -1.34375 10.503906 -1.304688 10.421875 -1.234375 C 10.347656 -1.171875 10.238281 -1.09375 10.09375 -1 C 9.582031 -0.613281 9.019531 -0.332031 8.40625 -0.15625 C 7.789062 0.0195312 7.128906 0.109375 6.421875 0.109375 C 5.640625 0.109375 4.921875 -0.0078125 4.265625 -0.25 C 3.609375 -0.488281 3.035156 -0.820312 2.546875 -1.25 C 2.066406 -1.6875 1.691406 -2.195312 1.421875 -2.78125 C 1.160156 -3.375 1.03125 -4.023438 1.03125 -4.734375 C 1.03125 -5.328125 1.15625 -5.890625 1.40625 -6.421875 C 1.664062 -6.953125 2.023438 -7.414062 2.484375 -7.8125 C 2.953125 -8.21875 3.515625 -8.535156 4.171875 -8.765625 C 4.828125 -9.003906 5.554688 -9.125 6.359375 -9.125 Z M 6.359375 -9.125 "/></g></g><g style="fill:#ffffff;fill-opacity:1;"><g transform="translate(6.352655, 119.73046)"><path style="stroke:none" d="M 2.28125 -5.15625 L 2.28125 -5.046875 C 2.1875 -5.046875 2.125 -5.023438 2.09375 -4.984375 C 2.0625 -4.941406 2.046875 -4.882812 2.046875 -4.8125 L 2.046875 -0.359375 C 2.046875 -0.285156 2.0625 -0.226562 2.09375 -0.1875 C 2.125 -0.144531 2.1875 -0.125 2.28125 -0.125 L 2.28125 0 L 0.984375 0 L 0.984375 -0.125 C 1.078125 -0.125 1.140625 -0.144531 1.171875 -0.1875 C 1.203125 -0.226562 1.21875 -0.285156 1.21875 -0.359375 L 1.21875 -4.8125 C 1.21875 -4.882812 1.203125 -4.941406 1.171875 -4.984375 C 1.140625 -5.023438 1.078125 -5.046875 0.984375 -5.046875 L 0.984375 -5.15625 Z M 2.28125 -5.15625 "/></g></g><g style="fill:#ffffff;fill-opacity:1;"><g transform="translate(8.542462, 119.73046)"><path style="stroke:none" d="M 2.671875 -5.15625 L 2.671875 -5.046875 C 2.597656 -5.046875 2.550781 -5.035156 2.53125 -5.015625 C 2.507812 -5.003906 2.5 -4.984375 2.5 -4.953125 C 2.5 -4.921875 2.503906 -4.890625 2.515625 -4.859375 C 2.535156 -4.835938 2.578125 -4.796875 2.640625 -4.734375 L 5.65625 -1.296875 L 5.671875 -1.296875 L 5.671875 -4.8125 C 5.671875 -4.882812 5.65625 -4.941406 5.625 -4.984375 C 5.59375 -5.023438 5.53125 -5.046875 5.4375 -5.046875 L 5.4375 -5.15625 L 6.609375 -5.15625 L 6.609375 -5.046875 C 6.515625 -5.046875 6.453125 -5.023438 6.421875 -4.984375 C 6.390625 -4.941406 6.375 -4.882812 6.375 -4.8125 L 6.375 -0.359375 C 6.375 -0.285156 6.390625 -0.226562 6.421875 -0.1875 C 6.453125 -0.144531 6.515625 -0.125 6.609375 -0.125 L 6.609375 0 L 5.359375 0 L 5.359375 -0.125 C 5.484375 -0.125 5.546875 -0.148438 5.546875 -0.203125 C 5.546875 -0.234375 5.53125 -0.265625 5.5 -0.296875 C 5.476562 -0.335938 5.441406 -0.394531 5.390625 -0.46875 L 1.96875 -4.359375 L 1.96875 -0.359375 C 1.96875 -0.285156 1.984375 -0.226562 2.015625 -0.1875 C 2.046875 -0.144531 2.109375 -0.125 2.203125 -0.125 L 2.203125 0 L 1.015625 0 L 1.015625 -0.125 C 1.109375 -0.125 1.171875 -0.144531 1.203125 -0.1875 C 1.234375 -0.226562 1.25 -0.285156 1.25 -0.359375 L 1.25 -4.8125 C 1.25 -4.882812 1.234375 -4.941406 1.203125 -4.984375 C 1.171875 -5.023438 1.109375 -5.046875 1.015625 -5.046875 L 1.015625 -5.15625 Z M 2.671875 -5.15625 "/></g></g><g style="fill:#ffffff;fill-opacity:1;"><g transform="translate(15.10204, 119.73046)"><path style="stroke:none" d="M 2.671875 -5.15625 L 2.671875 -5.046875 C 2.597656 -5.046875 2.550781 -5.035156 2.53125 -5.015625 C 2.507812 -5.003906 2.5 -4.984375 2.5 -4.953125 C 2.5 -4.921875 2.503906 -4.890625 2.515625 -4.859375 C 2.535156 -4.835938 2.578125 -4.796875 2.640625 -4.734375 L 5.65625 -1.296875 L 5.671875 -1.296875 L 5.671875 -4.8125 C 5.671875 -4.882812 5.65625 -4.941406 5.625 -4.984375 C 5.59375 -5.023438 5.53125 -5.046875 5.4375 -5.046875 L 5.4375 -5.15625 L 6.609375 -5.15625 L 6.609375 -5.046875 C 6.515625 -5.046875 6.453125 -5.023438 6.421875 -4.984375 C 6.390625 -4.941406 6.375 -4.882812 6.375 -4.8125 L 6.375 -0.359375 C 6.375 -0.285156 6.390625 -0.226562 6.421875 -0.1875 C 6.453125 -0.144531 6.515625 -0.125 6.609375 -0.125 L 6.609375 0 L 5.359375 0 L 5.359375 -0.125 C 5.484375 -0.125 5.546875 -0.148438 5.546875 -0.203125 C 5.546875 -0.234375 5.53125 -0.265625 5.5 -0.296875 C 5.476562 -0.335938 5.441406 -0.394531 5.390625 -0.46875 L 1.96875 -4.359375 L 1.96875 -0.359375 C 1.96875 -0.285156 1.984375 -0.226562 2.015625 -0.1875 C 2.046875 -0.144531 2.109375 -0.125 2.203125 -0.125 L 2.203125 0 L 1.015625 0 L 1.015625 -0.125 C 1.109375 -0.125 1.171875 -0.144531 1.203125 -0.1875 C 1.234375 -0.226562 1.25 -0.285156 1.25 -0.359375 L 1.25 -4.8125 C 1.25 -4.882812 1.234375 -4.941406 1.203125 -4.984375 C 1.171875 -5.023438 1.109375 -5.046875 1.015625 -5.046875 L 1.015625 -5.15625 Z M 2.671875 -5.15625 "/></g></g><g style="fill:#ffffff;fill-opacity:1;"><g transform="translate(21.661618, 119.73046)"><path style="stroke:none" d="M 1.453125 -2.578125 C 1.453125 -1.960938 1.632812 -1.476562 2 -1.125 C 2.375 -0.78125 2.890625 -0.609375 3.546875 -0.609375 C 4.203125 -0.609375 4.710938 -0.78125 5.078125 -1.125 C 5.441406 -1.46875 5.625 -1.953125 5.625 -2.578125 C 5.625 -3.191406 5.441406 -3.671875 5.078125 -4.015625 C 4.722656 -4.367188 4.207031 -4.546875 3.53125 -4.546875 C 2.875 -4.546875 2.363281 -4.367188 2 -4.015625 C 1.632812 -3.671875 1.453125 -3.191406 1.453125 -2.578125 Z M 3.546875 -5.21875 C 3.972656 -5.21875 4.367188 -5.15625 4.734375 -5.03125 C 5.097656 -4.914062 5.40625 -4.742188 5.65625 -4.515625 C 5.914062 -4.296875 6.117188 -4.019531 6.265625 -3.6875 C 6.421875 -3.363281 6.5 -2.992188 6.5 -2.578125 C 6.5 -2.171875 6.425781 -1.800781 6.28125 -1.46875 C 6.144531 -1.144531 5.945312 -0.867188 5.6875 -0.640625 C 5.425781 -0.410156 5.113281 -0.234375 4.75 -0.109375 C 4.382812 0.00390625 3.984375 0.0625 3.546875 0.0625 C 3.097656 0.0625 2.691406 0 2.328125 -0.125 C 1.960938 -0.25 1.648438 -0.425781 1.390625 -0.65625 C 1.140625 -0.882812 0.941406 -1.160156 0.796875 -1.484375 C 0.660156 -1.804688 0.59375 -2.171875 0.59375 -2.578125 C 0.59375 -2.992188 0.660156 -3.363281 0.796875 -3.6875 C 0.941406 -4.019531 1.144531 -4.296875 1.40625 -4.515625 C 1.675781 -4.742188 1.988281 -4.914062 2.34375 -5.03125 C 2.707031 -5.15625 3.109375 -5.21875 3.546875 -5.21875 Z M 3.546875 -5.21875 "/></g></g><g style="fill:#ffffff;fill-opacity:1;"><g transform="translate(27.671286, 119.73046)"><path style="stroke:none" d="M 1.546875 -5.15625 L 1.546875 -5.046875 C 1.367188 -5.046875 1.28125 -4.992188 1.28125 -4.890625 C 1.28125 -4.859375 1.285156 -4.828125 1.296875 -4.796875 C 1.316406 -4.773438 1.34375 -4.734375 1.375 -4.671875 L 3.046875 -0.9375 L 4.65625 -4.703125 C 4.695312 -4.796875 4.71875 -4.859375 4.71875 -4.890625 C 4.71875 -4.929688 4.703125 -4.96875 4.671875 -5 C 4.640625 -5.03125 4.570312 -5.046875 4.46875 -5.046875 L 4.46875 -5.15625 L 5.859375 -5.15625 L 5.859375 -5.046875 C 5.773438 -5.046875 5.703125 -5.023438 5.640625 -4.984375 C 5.578125 -4.941406 5.519531 -4.847656 5.46875 -4.703125 L 3.6875 -0.59375 C 3.632812 -0.488281 3.597656 -0.410156 3.578125 -0.359375 C 3.554688 -0.304688 3.546875 -0.265625 3.546875 -0.234375 C 3.546875 -0.160156 3.617188 -0.125 3.765625 -0.125 L 3.765625 0 L 2.265625 0 L 2.265625 -0.125 C 2.421875 -0.125 2.5 -0.164062 2.5 -0.25 C 2.5 -0.28125 2.492188 -0.304688 2.484375 -0.328125 C 2.484375 -0.359375 2.46875 -0.398438 2.4375 -0.453125 L 0.53125 -4.6875 C 0.46875 -4.832031 0.410156 -4.925781 0.359375 -4.96875 C 0.304688 -5.019531 0.226562 -5.046875 0.125 -5.046875 L 0.125 -5.15625 Z M 1.546875 -5.15625 "/></g></g><g style="fill:#ffffff;fill-opacity:1;"><g transform="translate(31.864307, 119.73046)"><path style="stroke:none" d="M 2.125 -2.015625 L 4.25 -2.015625 L 3.140625 -4.34375 Z M 3.890625 -5.15625 L 3.890625 -5.046875 C 3.816406 -5.046875 3.769531 -5.03125 3.75 -5 C 3.738281 -4.976562 3.734375 -4.953125 3.734375 -4.921875 C 3.734375 -4.878906 3.75 -4.828125 3.78125 -4.765625 C 3.8125 -4.710938 3.851562 -4.628906 3.90625 -4.515625 L 5.703125 -0.796875 C 5.773438 -0.640625 5.832031 -0.515625 5.875 -0.421875 C 5.925781 -0.335938 5.957031 -0.28125 5.96875 -0.25 C 6.007812 -0.1875 6.050781 -0.148438 6.09375 -0.140625 C 6.132812 -0.128906 6.1875 -0.125 6.25 -0.125 L 6.25 0 L 4.890625 0 L 4.890625 -0.125 C 4.960938 -0.125 5.007812 -0.132812 5.03125 -0.15625 C 5.0625 -0.175781 5.078125 -0.207031 5.078125 -0.25 C 5.078125 -0.28125 5.066406 -0.316406 5.046875 -0.359375 C 5.035156 -0.410156 5.007812 -0.476562 4.96875 -0.5625 L 4.578125 -1.375 L 1.8125 -1.375 L 1.40625 -0.4375 C 1.351562 -0.332031 1.328125 -0.257812 1.328125 -0.21875 C 1.328125 -0.15625 1.382812 -0.125 1.5 -0.125 L 1.5 0 L 0.296875 0 L 0.296875 -0.125 C 0.335938 -0.125 0.375 -0.125 0.40625 -0.125 C 0.4375 -0.132812 0.46875 -0.15625 0.5 -0.1875 C 0.53125 -0.226562 0.554688 -0.28125 0.578125 -0.34375 C 0.609375 -0.40625 0.648438 -0.488281 0.703125 -0.59375 L 2.46875 -4.53125 C 2.539062 -4.675781 2.582031 -4.769531 2.59375 -4.8125 C 2.613281 -4.851562 2.625 -4.890625 2.625 -4.921875 C 2.625 -4.953125 2.601562 -4.976562 2.5625 -5 C 2.53125 -5.03125 2.492188 -5.046875 2.453125 -5.046875 L 2.453125 -5.15625 Z M 3.890625 -5.15625 "/></g></g><g style="fill:#ffffff;fill-opacity:1;"><g transform="translate(36.607237, 119.73046)"><path style="stroke:none" d="M 0.46875 -5.421875 L 0.59375 -5.421875 C 0.59375 -5.328125 0.625 -5.257812 0.6875 -5.21875 C 0.75 -5.175781 0.828125 -5.15625 0.921875 -5.15625 L 5.0625 -5.15625 C 5.28125 -5.15625 5.390625 -5.242188 5.390625 -5.421875 L 5.515625 -5.421875 L 5.515625 -4.265625 L 5.390625 -4.265625 C 5.390625 -4.367188 5.363281 -4.4375 5.3125 -4.46875 C 5.257812 -4.5 5.175781 -4.515625 5.0625 -4.515625 L 3.40625 -4.515625 L 3.40625 -0.359375 C 3.40625 -0.285156 3.421875 -0.226562 3.453125 -0.1875 C 3.484375 -0.144531 3.546875 -0.125 3.640625 -0.125 L 3.640625 0 L 2.34375 0 L 2.34375 -0.125 C 2.5 -0.125 2.578125 -0.203125 2.578125 -0.359375 L 2.578125 -4.515625 L 0.9375 -4.515625 C 0.820312 -4.515625 0.734375 -4.5 0.671875 -4.46875 C 0.617188 -4.4375 0.59375 -4.367188 0.59375 -4.265625 L 0.46875 -4.265625 Z M 0.46875 -5.421875 "/></g></g><g style="fill:#ffffff;fill-opacity:1;"><g transform="translate(41.526918, 119.73046)"><path style="stroke:none" d="M 2.28125 -5.15625 L 2.28125 -5.046875 C 2.1875 -5.046875 2.125 -5.023438 2.09375 -4.984375 C 2.0625 -4.941406 2.046875 -4.882812 2.046875 -4.8125 L 2.046875 -0.359375 C 2.046875 -0.285156 2.0625 -0.226562 2.09375 -0.1875 C 2.125 -0.144531 2.1875 -0.125 2.28125 -0.125 L 2.28125 0 L 0.984375 0 L 0.984375 -0.125 C 1.078125 -0.125 1.140625 -0.144531 1.171875 -0.1875 C 1.203125 -0.226562 1.21875 -0.285156 1.21875 -0.359375 L 1.21875 -4.8125 C 1.21875 -4.882812 1.203125 -4.941406 1.171875 -4.984375 C 1.140625 -5.023438 1.078125 -5.046875 0.984375 -5.046875 L 0.984375 -5.15625 Z M 2.28125 -5.15625 "/></g></g><g style="fill:#ffffff;fill-opacity:1;"><g transform="translate(43.716725, 119.73046)"><path style="stroke:none" d="M 1.453125 -2.578125 C 1.453125 -1.960938 1.632812 -1.476562 2 -1.125 C 2.375 -0.78125 2.890625 -0.609375 3.546875 -0.609375 C 4.203125 -0.609375 4.710938 -0.78125 5.078125 -1.125 C 5.441406 -1.46875 5.625 -1.953125 5.625 -2.578125 C 5.625 -3.191406 5.441406 -3.671875 5.078125 -4.015625 C 4.722656 -4.367188 4.207031 -4.546875 3.53125 -4.546875 C 2.875 -4.546875 2.363281 -4.367188 2 -4.015625 C 1.632812 -3.671875 1.453125 -3.191406 1.453125 -2.578125 Z M 3.546875 -5.21875 C 3.972656 -5.21875 4.367188 -5.15625 4.734375 -5.03125 C 5.097656 -4.914062 5.40625 -4.742188 5.65625 -4.515625 C 5.914062 -4.296875 6.117188 -4.019531 6.265625 -3.6875 C 6.421875 -3.363281 6.5 -2.992188 6.5 -2.578125 C 6.5 -2.171875 6.425781 -1.800781 6.28125 -1.46875 C 6.144531 -1.144531 5.945312 -0.867188 5.6875 -0.640625 C 5.425781 -0.410156 5.113281 -0.234375 4.75 -0.109375 C 4.382812 0.00390625 3.984375 0.0625 3.546875 0.0625 C 3.097656 0.0625 2.691406 0 2.328125 -0.125 C 1.960938 -0.25 1.648438 -0.425781 1.390625 -0.65625 C 1.140625 -0.882812 0.941406 -1.160156 0.796875 -1.484375 C 0.660156 -1.804688 0.59375 -2.171875 0.59375 -2.578125 C 0.59375 -2.992188 0.660156 -3.363281 0.796875 -3.6875 C 0.941406 -4.019531 1.144531 -4.296875 1.40625 -4.515625 C 1.675781 -4.742188 1.988281 -4.914062 2.34375 -5.03125 C 2.707031 -5.15625 3.109375 -5.21875 3.546875 -5.21875 Z M 3.546875 -5.21875 "/></g></g><g style="fill:#ffffff;fill-opacity:1;"><g transform="translate(49.726393, 119.73046)"><path style="stroke:none" d="M 2.671875 -5.15625 L 2.671875 -5.046875 C 2.597656 -5.046875 2.550781 -5.035156 2.53125 -5.015625 C 2.507812 -5.003906 2.5 -4.984375 2.5 -4.953125 C 2.5 -4.921875 2.503906 -4.890625 2.515625 -4.859375 C 2.535156 -4.835938 2.578125 -4.796875 2.640625 -4.734375 L 5.65625 -1.296875 L 5.671875 -1.296875 L 5.671875 -4.8125 C 5.671875 -4.882812 5.65625 -4.941406 5.625 -4.984375 C 5.59375 -5.023438 5.53125 -5.046875 5.4375 -5.046875 L 5.4375 -5.15625 L 6.609375 -5.15625 L 6.609375 -5.046875 C 6.515625 -5.046875 6.453125 -5.023438 6.421875 -4.984375 C 6.390625 -4.941406 6.375 -4.882812 6.375 -4.8125 L 6.375 -0.359375 C 6.375 -0.285156 6.390625 -0.226562 6.421875 -0.1875 C 6.453125 -0.144531 6.515625 -0.125 6.609375 -0.125 L 6.609375 0 L 5.359375 0 L 5.359375 -0.125 C 5.484375 -0.125 5.546875 -0.148438 5.546875 -0.203125 C 5.546875 -0.234375 5.53125 -0.265625 5.5 -0.296875 C 5.476562 -0.335938 5.441406 -0.394531 5.390625 -0.46875 L 1.96875 -4.359375 L 1.96875 -0.359375 C 1.96875 -0.285156 1.984375 -0.226562 2.015625 -0.1875 C 2.046875 -0.144531 2.109375 -0.125 2.203125 -0.125 L 2.203125 0 L 1.015625 0 L 1.015625 -0.125 C 1.109375 -0.125 1.171875 -0.144531 1.203125 -0.1875 C 1.234375 -0.226562 1.25 -0.285156 1.25 -0.359375 L 1.25 -4.8125 C 1.25 -4.882812 1.234375 -4.941406 1.203125 -4.984375 C 1.171875 -5.023438 1.109375 -5.046875 1.015625 -5.046875 L 1.015625 -5.15625 Z M 2.671875 -5.15625 "/></g></g><g style="fill:#ffffff;fill-opacity:1;"><g transform="translate(56.285971, 119.73046)"><path style="stroke:none" d=""/></g></g><g style="fill:#ffffff;fill-opacity:1;"><g transform="translate(58.210642, 119.73046)"><path style="stroke:none" d="M 2.28125 -5.15625 L 2.28125 -5.046875 C 2.1875 -5.046875 2.125 -5.023438 2.09375 -4.984375 C 2.0625 -4.941406 2.046875 -4.882812 2.046875 -4.8125 L 2.046875 -0.359375 C 2.046875 -0.285156 2.0625 -0.226562 2.09375 -0.1875 C 2.125 -0.144531 2.1875 -0.125 2.28125 -0.125 L 2.28125 0 L 0.984375 0 L 0.984375 -0.125 C 1.078125 -0.125 1.140625 -0.144531 1.171875 -0.1875 C 1.203125 -0.226562 1.21875 -0.285156 1.21875 -0.359375 L 1.21875 -4.8125 C 1.21875 -4.882812 1.203125 -4.941406 1.171875 -4.984375 C 1.140625 -5.023438 1.078125 -5.046875 0.984375 -5.046875 L 0.984375 -5.15625 Z M 2.28125 -5.15625 "/></g></g><g style="fill:#ffffff;fill-opacity:1;"><g transform="translate(60.400449, 119.73046)"><path style="stroke:none" d="M 2.671875 -5.15625 L 2.671875 -5.046875 C 2.597656 -5.046875 2.550781 -5.035156 2.53125 -5.015625 C 2.507812 -5.003906 2.5 -4.984375 2.5 -4.953125 C 2.5 -4.921875 2.503906 -4.890625 2.515625 -4.859375 C 2.535156 -4.835938 2.578125 -4.796875 2.640625 -4.734375 L 5.65625 -1.296875 L 5.671875 -1.296875 L 5.671875 -4.8125 C 5.671875 -4.882812 5.65625 -4.941406 5.625 -4.984375 C 5.59375 -5.023438 5.53125 -5.046875 5.4375 -5.046875 L 5.4375 -5.15625 L 6.609375 -5.15625 L 6.609375 -5.046875 C 6.515625 -5.046875 6.453125 -5.023438 6.421875 -4.984375 C 6.390625 -4.941406 6.375 -4.882812 6.375 -4.8125 L 6.375 -0.359375 C 6.375 -0.285156 6.390625 -0.226562 6.421875 -0.1875 C 6.453125 -0.144531 6.515625 -0.125 6.609375 -0.125 L 6.609375 0 L 5.359375 0 L 5.359375 -0.125 C 5.484375 -0.125 5.546875 -0.148438 5.546875 -0.203125 C 5.546875 -0.234375 5.53125 -0.265625 5.5 -0.296875 C 5.476562 -0.335938 5.441406 -0.394531 5.390625 -0.46875 L 1.96875 -4.359375 L 1.96875 -0.359375 C 1.96875 -0.285156 1.984375 -0.226562 2.015625 -0.1875 C 2.046875 -0.144531 2.109375 -0.125 2.203125 -0.125 L 2.203125 0 L 1.015625 0 L 1.015625 -0.125 C 1.109375 -0.125 1.171875 -0.144531 1.203125 -0.1875 C 1.234375 -0.226562 1.25 -0.285156 1.25 -0.359375 L 1.25 -4.8125 C 1.25 -4.882812 1.234375 -4.941406 1.203125 -4.984375 C 1.171875 -5.023438 1.109375 -5.046875 1.015625 -5.046875 L 1.015625 -5.15625 Z M 2.671875 -5.15625 "/></g></g><g style="fill:#ffffff;fill-opacity:1;"><g transform="translate(66.960027, 119.73046)"><path style="stroke:none" d=""/></g></g><g style="fill:#ffffff;fill-opacity:1;"><g transform="translate(68.884698, 119.73046)"><path style="stroke:none" d="M 5.578125 -4.234375 L 5.46875 -4.234375 C 5.46875 -4.421875 5.335938 -4.515625 5.078125 -4.515625 L 2.015625 -4.515625 L 2.015625 -2.96875 L 4.015625 -2.96875 C 4.128906 -2.96875 4.222656 -2.984375 4.296875 -3.015625 C 4.378906 -3.054688 4.421875 -3.128906 4.421875 -3.234375 L 4.53125 -3.234375 L 4.53125 -2.046875 L 4.421875 -2.046875 C 4.421875 -2.148438 4.390625 -2.21875 4.328125 -2.25 C 4.265625 -2.289062 4.164062 -2.3125 4.03125 -2.3125 L 2.015625 -2.3125 L 2.015625 -0.640625 L 5.3125 -0.640625 C 5.425781 -0.640625 5.519531 -0.660156 5.59375 -0.703125 C 5.664062 -0.753906 5.703125 -0.847656 5.703125 -0.984375 L 5.8125 -0.984375 L 5.8125 0.21875 L 5.703125 0.21875 C 5.703125 0.132812 5.671875 0.078125 5.609375 0.046875 C 5.554688 0.015625 5.476562 0 5.375 0 L 0.96875 0 L 0.96875 -0.125 C 1.050781 -0.125 1.109375 -0.144531 1.140625 -0.1875 C 1.179688 -0.226562 1.203125 -0.285156 1.203125 -0.359375 L 1.203125 -4.8125 C 1.203125 -4.875 1.1875 -4.925781 1.15625 -4.96875 C 1.125 -5.019531 1.0625 -5.046875 0.96875 -5.046875 L 0.96875 -5.15625 L 5.015625 -5.15625 C 5.191406 -5.15625 5.3125 -5.164062 5.375 -5.1875 C 5.4375 -5.207031 5.46875 -5.265625 5.46875 -5.359375 L 5.578125 -5.359375 Z M 5.578125 -4.234375 "/></g></g><g style="fill:#ffffff;fill-opacity:1;"><g transform="translate(74.35429, 119.73046)"><path style="stroke:none" d="M 1.546875 -5.15625 L 1.546875 -5.046875 C 1.367188 -5.046875 1.28125 -4.992188 1.28125 -4.890625 C 1.28125 -4.859375 1.285156 -4.828125 1.296875 -4.796875 C 1.316406 -4.773438 1.34375 -4.734375 1.375 -4.671875 L 3.046875 -0.9375 L 4.65625 -4.703125 C 4.695312 -4.796875 4.71875 -4.859375 4.71875 -4.890625 C 4.71875 -4.929688 4.703125 -4.96875 4.671875 -5 C 4.640625 -5.03125 4.570312 -5.046875 4.46875 -5.046875 L 4.46875 -5.15625 L 5.859375 -5.15625 L 5.859375 -5.046875 C 5.773438 -5.046875 5.703125 -5.023438 5.640625 -4.984375 C 5.578125 -4.941406 5.519531 -4.847656 5.46875 -4.703125 L 3.6875 -0.59375 C 3.632812 -0.488281 3.597656 -0.410156 3.578125 -0.359375 C 3.554688 -0.304688 3.546875 -0.265625 3.546875 -0.234375 C 3.546875 -0.160156 3.617188 -0.125 3.765625 -0.125 L 3.765625 0 L 2.265625 0 L 2.265625 -0.125 C 2.421875 -0.125 2.5 -0.164062 2.5 -0.25 C 2.5 -0.28125 2.492188 -0.304688 2.484375 -0.328125 C 2.484375 -0.359375 2.46875 -0.398438 2.4375 -0.453125 L 0.53125 -4.6875 C 0.46875 -4.832031 0.410156 -4.925781 0.359375 -4.96875 C 0.304688 -5.019531 0.226562 -5.046875 0.125 -5.046875 L 0.125 -5.15625 Z M 1.546875 -5.15625 "/></g></g><g style="fill:#ffffff;fill-opacity:1;"><g transform="translate(79.273971, 119.73046)"><path style="stroke:none" d="M 5.578125 -4.234375 L 5.46875 -4.234375 C 5.46875 -4.421875 5.335938 -4.515625 5.078125 -4.515625 L 2.015625 -4.515625 L 2.015625 -2.96875 L 4.015625 -2.96875 C 4.128906 -2.96875 4.222656 -2.984375 4.296875 -3.015625 C 4.378906 -3.054688 4.421875 -3.128906 4.421875 -3.234375 L 4.53125 -3.234375 L 4.53125 -2.046875 L 4.421875 -2.046875 C 4.421875 -2.148438 4.390625 -2.21875 4.328125 -2.25 C 4.265625 -2.289062 4.164062 -2.3125 4.03125 -2.3125 L 2.015625 -2.3125 L 2.015625 -0.640625 L 5.3125 -0.640625 C 5.425781 -0.640625 5.519531 -0.660156 5.59375 -0.703125 C 5.664062 -0.753906 5.703125 -0.847656 5.703125 -0.984375 L 5.8125 -0.984375 L 5.8125 0.21875 L 5.703125 0.21875 C 5.703125 0.132812 5.671875 0.078125 5.609375 0.046875 C 5.554688 0.015625 5.476562 0 5.375 0 L 0.96875 0 L 0.96875 -0.125 C 1.050781 -0.125 1.109375 -0.144531 1.140625 -0.1875 C 1.179688 -0.226562 1.203125 -0.285156 1.203125 -0.359375 L 1.203125 -4.8125 C 1.203125 -4.875 1.1875 -4.925781 1.15625 -4.96875 C 1.125 -5.019531 1.0625 -5.046875 0.96875 -5.046875 L 0.96875 -5.15625 L 5.015625 -5.15625 C 5.191406 -5.15625 5.3125 -5.164062 5.375 -5.1875 C 5.4375 -5.207031 5.46875 -5.265625 5.46875 -5.359375 L 5.578125 -5.359375 Z M 5.578125 -4.234375 "/></g></g><g style="fill:#ffffff;fill-opacity:1;"><g transform="translate(84.743562, 119.73046)"><path style="stroke:none" d="M 4.234375 -2.90625 C 4.578125 -2.90625 4.84375 -2.96875 5.03125 -3.09375 C 5.21875 -3.226562 5.3125 -3.445312 5.3125 -3.75 C 5.3125 -3.875 5.289062 -3.984375 5.25 -4.078125 C 5.21875 -4.179688 5.160156 -4.257812 5.078125 -4.3125 C 4.992188 -4.375 4.878906 -4.421875 4.734375 -4.453125 C 4.597656 -4.484375 4.414062 -4.5 4.1875 -4.5 L 2.078125 -4.5 L 2.078125 -2.90625 Z M 4.3125 -5.15625 C 4.90625 -5.15625 5.351562 -5.046875 5.65625 -4.828125 C 5.96875 -4.609375 6.125 -4.242188 6.125 -3.734375 C 6.125 -3.316406 6.015625 -2.988281 5.796875 -2.75 C 5.578125 -2.507812 5.222656 -2.351562 4.734375 -2.28125 L 5.875 -0.546875 C 5.976562 -0.378906 6.050781 -0.265625 6.09375 -0.203125 C 6.144531 -0.148438 6.226562 -0.125 6.34375 -0.125 L 6.359375 -0.125 L 6.359375 0 L 4.953125 0 L 4.953125 -0.125 C 5.035156 -0.125 5.085938 -0.128906 5.109375 -0.140625 C 5.128906 -0.160156 5.140625 -0.179688 5.140625 -0.203125 C 5.140625 -0.234375 5.125 -0.269531 5.09375 -0.3125 C 5.0625 -0.351562 5.03125 -0.40625 5 -0.46875 L 3.890625 -2.234375 L 2.078125 -2.234375 L 2.078125 -0.359375 C 2.078125 -0.285156 2.09375 -0.226562 2.125 -0.1875 C 2.15625 -0.144531 2.21875 -0.125 2.3125 -0.125 L 2.3125 0 L 1.015625 0 L 1.015625 -0.125 C 1.109375 -0.125 1.171875 -0.144531 1.203125 -0.1875 C 1.234375 -0.226562 1.25 -0.285156 1.25 -0.359375 L 1.25 -4.8125 C 1.25 -4.882812 1.234375 -4.941406 1.203125 -4.984375 C 1.171875 -5.023438 1.109375 -5.046875 1.015625 -5.046875 L 1.015625 -5.15625 Z M 4.3125 -5.15625 "/></g></g><g style="fill:#ffffff;fill-opacity:1;"><g transform="translate(90.576479, 119.73046)"><path style="stroke:none" d="M 1.71875 -5.15625 L 1.71875 -5.046875 C 1.550781 -5.035156 1.46875 -4.988281 1.46875 -4.90625 C 1.46875 -4.875 1.484375 -4.84375 1.515625 -4.8125 C 1.546875 -4.78125 1.585938 -4.726562 1.640625 -4.65625 L 3 -2.8125 L 4.359375 -4.625 C 4.429688 -4.71875 4.484375 -4.785156 4.515625 -4.828125 C 4.546875 -4.867188 4.5625 -4.90625 4.5625 -4.9375 C 4.5625 -4.957031 4.546875 -4.976562 4.515625 -5 C 4.484375 -5.03125 4.425781 -5.046875 4.34375 -5.046875 L 4.34375 -5.15625 L 5.765625 -5.15625 L 5.765625 -5.046875 C 5.671875 -5.046875 5.585938 -5.015625 5.515625 -4.953125 C 5.453125 -4.890625 5.359375 -4.769531 5.234375 -4.59375 L 3.375 -2.140625 L 3.375 -0.359375 C 3.375 -0.285156 3.390625 -0.226562 3.421875 -0.1875 C 3.453125 -0.144531 3.515625 -0.125 3.609375 -0.125 L 3.609375 0 L 2.3125 0 L 2.3125 -0.125 C 2.40625 -0.125 2.46875 -0.144531 2.5 -0.1875 C 2.53125 -0.226562 2.546875 -0.285156 2.546875 -0.359375 L 2.546875 -2.140625 L 0.65625 -4.703125 C 0.5625 -4.828125 0.488281 -4.914062 0.4375 -4.96875 C 0.382812 -5.019531 0.316406 -5.046875 0.234375 -5.046875 L 0.234375 -5.15625 Z M 1.71875 -5.15625 "/></g></g><g style="fill:#ffffff;fill-opacity:1;"><g transform="translate(95.496161, 119.73046)"><path style="stroke:none" d="M 5.578125 -4.234375 L 5.46875 -4.234375 C 5.46875 -4.421875 5.335938 -4.515625 5.078125 -4.515625 L 2.015625 -4.515625 L 2.015625 -2.96875 L 4.015625 -2.96875 C 4.128906 -2.96875 4.222656 -2.984375 4.296875 -3.015625 C 4.378906 -3.054688 4.421875 -3.128906 4.421875 -3.234375 L 4.53125 -3.234375 L 4.53125 -2.046875 L 4.421875 -2.046875 C 4.421875 -2.148438 4.390625 -2.21875 4.328125 -2.25 C 4.265625 -2.289062 4.164062 -2.3125 4.03125 -2.3125 L 2.015625 -2.3125 L 2.015625 -0.640625 L 5.3125 -0.640625 C 5.425781 -0.640625 5.519531 -0.660156 5.59375 -0.703125 C 5.664062 -0.753906 5.703125 -0.847656 5.703125 -0.984375 L 5.8125 -0.984375 L 5.8125 0.21875 L 5.703125 0.21875 C 5.703125 0.132812 5.671875 0.078125 5.609375 0.046875 C 5.554688 0.015625 5.476562 0 5.375 0 L 0.96875 0 L 0.96875 -0.125 C 1.050781 -0.125 1.109375 -0.144531 1.140625 -0.1875 C 1.179688 -0.226562 1.203125 -0.285156 1.203125 -0.359375 L 1.203125 -4.8125 C 1.203125 -4.875 1.1875 -4.925781 1.15625 -4.96875 C 1.125 -5.019531 1.0625 -5.046875 0.96875 -5.046875 L 0.96875 -5.15625 L 5.015625 -5.15625 C 5.191406 -5.15625 5.3125 -5.164062 5.375 -5.1875 C 5.4375 -5.207031 5.46875 -5.265625 5.46875 -5.359375 L 5.578125 -5.359375 Z M 5.578125 -4.234375 "/></g></g><g style="fill:#ffffff;fill-opacity:1;"><g transform="translate(100.965752, 119.73046)"><path style="stroke:none" d="M 1.984375 -5.15625 L 1.984375 -5.046875 C 1.921875 -5.046875 1.878906 -5.035156 1.859375 -5.015625 C 1.835938 -4.992188 1.828125 -4.96875 1.828125 -4.9375 C 1.828125 -4.882812 1.859375 -4.820312 1.921875 -4.75 L 3 -3.3125 L 4.15625 -4.8125 C 4.207031 -4.875 4.234375 -4.921875 4.234375 -4.953125 C 4.234375 -5.015625 4.171875 -5.046875 4.046875 -5.046875 L 4.046875 -5.15625 L 5.453125 -5.15625 L 5.453125 -5.046875 L 5.4375 -5.046875 C 5.363281 -5.046875 5.300781 -5.023438 5.25 -4.984375 C 5.195312 -4.953125 5.113281 -4.859375 5 -4.703125 L 3.46875 -2.75 L 5.15625 -0.53125 C 5.289062 -0.351562 5.382812 -0.238281 5.4375 -0.1875 C 5.5 -0.144531 5.582031 -0.125 5.6875 -0.125 L 5.6875 0 L 4.203125 0 L 4.203125 -0.125 C 4.296875 -0.125 4.351562 -0.128906 4.375 -0.140625 C 4.40625 -0.148438 4.421875 -0.171875 4.421875 -0.203125 C 4.421875 -0.234375 4.375 -0.304688 4.28125 -0.421875 L 3 -2.125 L 1.703125 -0.484375 C 1.640625 -0.398438 1.59375 -0.335938 1.5625 -0.296875 C 1.539062 -0.265625 1.53125 -0.234375 1.53125 -0.203125 C 1.53125 -0.171875 1.539062 -0.148438 1.5625 -0.140625 C 1.582031 -0.128906 1.625 -0.125 1.6875 -0.125 L 1.6875 0 L 0.296875 0 L 0.296875 -0.125 L 0.328125 -0.125 C 0.453125 -0.125 0.539062 -0.15625 0.59375 -0.21875 C 0.65625 -0.289062 0.726562 -0.378906 0.8125 -0.484375 L 2.53125 -2.703125 L 0.96875 -4.75 C 0.875 -4.875 0.789062 -4.953125 0.71875 -4.984375 C 0.65625 -5.023438 0.585938 -5.046875 0.515625 -5.046875 L 0.515625 -5.15625 Z M 1.984375 -5.15625 "/></g></g><g style="fill:#ffffff;fill-opacity:1;"><g transform="translate(105.885433, 119.73046)"><path style="stroke:none" d="M 2.3125 -5.15625 L 2.3125 -5.046875 C 2.21875 -5.046875 2.15625 -5.023438 2.125 -4.984375 C 2.09375 -4.941406 2.078125 -4.882812 2.078125 -4.8125 L 2.078125 -2.96875 L 5.546875 -2.96875 L 5.546875 -4.8125 C 5.546875 -4.882812 5.53125 -4.941406 5.5 -4.984375 C 5.46875 -5.023438 5.40625 -5.046875 5.3125 -5.046875 L 5.3125 -5.15625 L 6.609375 -5.15625 L 6.609375 -5.046875 C 6.515625 -5.046875 6.453125 -5.023438 6.421875 -4.984375 C 6.390625 -4.941406 6.375 -4.882812 6.375 -4.8125 L 6.375 -0.359375 C 6.375 -0.285156 6.390625 -0.226562 6.421875 -0.1875 C 6.453125 -0.144531 6.515625 -0.125 6.609375 -0.125 L 6.609375 0 L 5.3125 0 L 5.3125 -0.125 C 5.40625 -0.125 5.46875 -0.144531 5.5 -0.1875 C 5.53125 -0.226562 5.546875 -0.285156 5.546875 -0.359375 L 5.546875 -2.3125 L 2.078125 -2.3125 L 2.078125 -0.359375 C 2.078125 -0.285156 2.09375 -0.226562 2.125 -0.1875 C 2.15625 -0.144531 2.21875 -0.125 2.3125 -0.125 L 2.3125 0 L 1.015625 0 L 1.015625 -0.125 C 1.109375 -0.125 1.171875 -0.144531 1.203125 -0.1875 C 1.234375 -0.226562 1.25 -0.285156 1.25 -0.359375 L 1.25 -4.8125 C 1.25 -4.882812 1.234375 -4.941406 1.203125 -4.984375 C 1.171875 -5.023438 1.109375 -5.046875 1.015625 -5.046875 L 1.015625 -5.15625 Z M 2.3125 -5.15625 "/></g></g><g style="fill:#ffffff;fill-opacity:1;"><g transform="translate(112.445011, 119.73046)"><path style="stroke:none" d="M 2.125 -2.015625 L 4.25 -2.015625 L 3.140625 -4.34375 Z M 3.890625 -5.15625 L 3.890625 -5.046875 C 3.816406 -5.046875 3.769531 -5.03125 3.75 -5 C 3.738281 -4.976562 3.734375 -4.953125 3.734375 -4.921875 C 3.734375 -4.878906 3.75 -4.828125 3.78125 -4.765625 C 3.8125 -4.710938 3.851562 -4.628906 3.90625 -4.515625 L 5.703125 -0.796875 C 5.773438 -0.640625 5.832031 -0.515625 5.875 -0.421875 C 5.925781 -0.335938 5.957031 -0.28125 5.96875 -0.25 C 6.007812 -0.1875 6.050781 -0.148438 6.09375 -0.140625 C 6.132812 -0.128906 6.1875 -0.125 6.25 -0.125 L 6.25 0 L 4.890625 0 L 4.890625 -0.125 C 4.960938 -0.125 5.007812 -0.132812 5.03125 -0.15625 C 5.0625 -0.175781 5.078125 -0.207031 5.078125 -0.25 C 5.078125 -0.28125 5.066406 -0.316406 5.046875 -0.359375 C 5.035156 -0.410156 5.007812 -0.476562 4.96875 -0.5625 L 4.578125 -1.375 L 1.8125 -1.375 L 1.40625 -0.4375 C 1.351562 -0.332031 1.328125 -0.257812 1.328125 -0.21875 C 1.328125 -0.15625 1.382812 -0.125 1.5 -0.125 L 1.5 0 L 0.296875 0 L 0.296875 -0.125 C 0.335938 -0.125 0.375 -0.125 0.40625 -0.125 C 0.4375 -0.132812 0.46875 -0.15625 0.5 -0.1875 C 0.53125 -0.226562 0.554688 -0.28125 0.578125 -0.34375 C 0.609375 -0.40625 0.648438 -0.488281 0.703125 -0.59375 L 2.46875 -4.53125 C 2.539062 -4.675781 2.582031 -4.769531 2.59375 -4.8125 C 2.613281 -4.851562 2.625 -4.890625 2.625 -4.921875 C 2.625 -4.953125 2.601562 -4.976562 2.5625 -5 C 2.53125 -5.03125 2.492188 -5.046875 2.453125 -5.046875 L 2.453125 -5.15625 Z M 3.890625 -5.15625 "/></g></g><g style="fill:#ffffff;fill-opacity:1;"><g transform="translate(117.914603, 119.73046)"><path style="stroke:none" d="M 2.671875 -5.15625 L 2.671875 -5.046875 C 2.597656 -5.046875 2.550781 -5.035156 2.53125 -5.015625 C 2.507812 -5.003906 2.5 -4.984375 2.5 -4.953125 C 2.5 -4.921875 2.503906 -4.890625 2.515625 -4.859375 C 2.535156 -4.835938 2.578125 -4.796875 2.640625 -4.734375 L 5.65625 -1.296875 L 5.671875 -1.296875 L 5.671875 -4.8125 C 5.671875 -4.882812 5.65625 -4.941406 5.625 -4.984375 C 5.59375 -5.023438 5.53125 -5.046875 5.4375 -5.046875 L 5.4375 -5.15625 L 6.609375 -5.15625 L 6.609375 -5.046875 C 6.515625 -5.046875 6.453125 -5.023438 6.421875 -4.984375 C 6.390625 -4.941406 6.375 -4.882812 6.375 -4.8125 L 6.375 -0.359375 C 6.375 -0.285156 6.390625 -0.226562 6.421875 -0.1875 C 6.453125 -0.144531 6.515625 -0.125 6.609375 -0.125 L 6.609375 0 L 5.359375 0 L 5.359375 -0.125 C 5.484375 -0.125 5.546875 -0.148438 5.546875 -0.203125 C 5.546875 -0.234375 5.53125 -0.265625 5.5 -0.296875 C 5.476562 -0.335938 5.441406 -0.394531 5.390625 -0.46875 L 1.96875 -4.359375 L 1.96875 -0.359375 C 1.96875 -0.285156 1.984375 -0.226562 2.015625 -0.1875 C 2.046875 -0.144531 2.109375 -0.125 2.203125 -0.125 L 2.203125 0 L 1.015625 0 L 1.015625 -0.125 C 1.109375 -0.125 1.171875 -0.144531 1.203125 -0.1875 C 1.234375 -0.226562 1.25 -0.285156 1.25 -0.359375 L 1.25 -4.8125 C 1.25 -4.882812 1.234375 -4.941406 1.203125 -4.984375 C 1.171875 -5.023438 1.109375 -5.046875 1.015625 -5.046875 L 1.015625 -5.15625 Z M 2.671875 -5.15625 "/></g></g><g style="fill:#ffffff;fill-opacity:1;"><g transform="translate(124.474181, 119.73046)"><path style="stroke:none" d="M 3.421875 -5.21875 C 3.859375 -5.21875 4.234375 -5.175781 4.546875 -5.09375 C 4.859375 -5.019531 5.144531 -4.910156 5.40625 -4.765625 C 5.5 -4.710938 5.582031 -4.660156 5.65625 -4.609375 C 5.726562 -4.566406 5.789062 -4.546875 5.84375 -4.546875 C 5.875 -4.546875 5.898438 -4.550781 5.921875 -4.5625 C 5.953125 -4.582031 5.984375 -4.617188 6.015625 -4.671875 L 6.140625 -4.59375 L 5.453125 -3.578125 L 5.328125 -3.65625 C 5.359375 -3.695312 5.375 -3.738281 5.375 -3.78125 C 5.375 -3.832031 5.320312 -3.898438 5.21875 -3.984375 C 5.113281 -4.078125 4.972656 -4.164062 4.796875 -4.25 C 4.628906 -4.332031 4.425781 -4.398438 4.1875 -4.453125 C 3.957031 -4.515625 3.707031 -4.546875 3.4375 -4.546875 C 3.082031 -4.546875 2.769531 -4.5 2.5 -4.40625 C 2.238281 -4.3125 2.019531 -4.175781 1.84375 -4 C 1.664062 -3.820312 1.53125 -3.613281 1.4375 -3.375 C 1.351562 -3.132812 1.3125 -2.875 1.3125 -2.59375 C 1.3125 -2.289062 1.363281 -2.015625 1.46875 -1.765625 C 1.570312 -1.523438 1.710938 -1.316406 1.890625 -1.140625 C 2.078125 -0.972656 2.296875 -0.84375 2.546875 -0.75 C 2.796875 -0.65625 3.0625 -0.609375 3.34375 -0.609375 C 3.757812 -0.609375 4.140625 -0.660156 4.484375 -0.765625 C 4.828125 -0.878906 5.113281 -1.023438 5.34375 -1.203125 L 5.34375 -1.9375 L 4.203125 -1.9375 C 4.085938 -1.9375 4 -1.921875 3.9375 -1.890625 C 3.882812 -1.867188 3.859375 -1.816406 3.859375 -1.734375 L 3.75 -1.734375 L 3.75 -2.890625 L 3.859375 -2.890625 C 3.859375 -2.773438 3.890625 -2.695312 3.953125 -2.65625 C 4.015625 -2.613281 4.101562 -2.59375 4.21875 -2.59375 L 6.3125 -2.59375 L 6.3125 -2.46875 C 6.238281 -2.46875 6.191406 -2.445312 6.171875 -2.40625 C 6.148438 -2.375 6.140625 -2.300781 6.140625 -2.1875 L 6.140625 -1.40625 C 6.140625 -1.3125 6.144531 -1.234375 6.15625 -1.171875 C 6.175781 -1.117188 6.226562 -1.085938 6.3125 -1.078125 L 6.3125 -0.96875 C 5.894531 -0.632812 5.441406 -0.378906 4.953125 -0.203125 C 4.472656 -0.0234375 3.992188 0.0625 3.515625 0.0625 C 3.078125 0.0625 2.671875 0 2.296875 -0.125 C 1.929688 -0.257812 1.617188 -0.4375 1.359375 -0.65625 C 1.097656 -0.882812 0.890625 -1.15625 0.734375 -1.46875 C 0.585938 -1.789062 0.515625 -2.140625 0.515625 -2.515625 C 0.515625 -2.890625 0.582031 -3.242188 0.71875 -3.578125 C 0.863281 -3.910156 1.066406 -4.195312 1.328125 -4.4375 C 1.585938 -4.675781 1.894531 -4.863281 2.25 -5 C 2.601562 -5.144531 2.992188 -5.21875 3.421875 -5.21875 Z M 3.421875 -5.21875 "/></g></g><g style="fill:#ffffff;fill-opacity:1;"><g transform="translate(130.483849, 119.73046)"><path style="stroke:none" d="M 5.578125 -4.234375 L 5.46875 -4.234375 C 5.46875 -4.421875 5.335938 -4.515625 5.078125 -4.515625 L 2.015625 -4.515625 L 2.015625 -2.96875 L 4.015625 -2.96875 C 4.128906 -2.96875 4.222656 -2.984375 4.296875 -3.015625 C 4.378906 -3.054688 4.421875 -3.128906 4.421875 -3.234375 L 4.53125 -3.234375 L 4.53125 -2.046875 L 4.421875 -2.046875 C 4.421875 -2.148438 4.390625 -2.21875 4.328125 -2.25 C 4.265625 -2.289062 4.164062 -2.3125 4.03125 -2.3125 L 2.015625 -2.3125 L 2.015625 -0.640625 L 5.3125 -0.640625 C 5.425781 -0.640625 5.519531 -0.660156 5.59375 -0.703125 C 5.664062 -0.753906 5.703125 -0.847656 5.703125 -0.984375 L 5.8125 -0.984375 L 5.8125 0.21875 L 5.703125 0.21875 C 5.703125 0.132812 5.671875 0.078125 5.609375 0.046875 C 5.554688 0.015625 5.476562 0 5.375 0 L 0.96875 0 L 0.96875 -0.125 C 1.050781 -0.125 1.109375 -0.144531 1.140625 -0.1875 C 1.179688 -0.226562 1.203125 -0.285156 1.203125 -0.359375 L 1.203125 -4.8125 C 1.203125 -4.875 1.1875 -4.925781 1.15625 -4.96875 C 1.125 -5.019531 1.0625 -5.046875 0.96875 -5.046875 L 0.96875 -5.15625 L 5.015625 -5.15625 C 5.191406 -5.15625 5.3125 -5.164062 5.375 -5.1875 C 5.4375 -5.207031 5.46875 -5.265625 5.46875 -5.359375 L 5.578125 -5.359375 Z M 5.578125 -4.234375 "/></g></g></g></svg>