<svg width="64" height="64" viewBox="0 0 64 64" fill="none" xmlns="http://www.w3.org/2000/svg">
<g clip-path="url(#clip0_158_3843)">
<path d="M45.7626 14H18.0001C15.5647 14 13.1547 14.4942 10.9158 15.4527C8.67702 16.4111 6.65597 17.8139 4.97505 19.5762C3.29414 21.3385 1.98831 23.4235 1.13661 25.7051C0.28492 27.9867 -0.0949219 30.4173 0.0200816 32.85C0.442582 42.0225 7.96008 49.5475 17.1326 49.98C21.0926 50.16 25.1326 48.505 29.4776 44.905C30.1891 44.316 31.0839 43.9937 32.0076 43.9937C32.9313 43.9937 33.826 44.316 34.5376 44.905C37.1801 47.0975 41.2501 50 46.0001 50C48.384 50.0002 50.7442 49.5269 52.9437 48.6075C55.1432 47.6881 57.1381 46.3409 58.8127 44.6442C60.4873 42.9475 61.8082 40.9351 62.6987 38.7238C63.5892 36.5124 64.0315 34.1462 64.0001 31.7625C63.8726 21.9675 55.6901 14 45.7626 14ZM44.0001 26H20.0001C19.4697 26 18.9609 25.7893 18.5859 25.4142C18.2108 25.0391 18.0001 24.5304 18.0001 24C18.0001 23.4696 18.2108 22.9609 18.5859 22.5858C18.9609 22.2107 19.4697 22 20.0001 22H44.0001C44.5305 22 45.0392 22.2107 45.4143 22.5858C45.7894 22.9609 46.0001 23.4696 46.0001 24C46.0001 24.5304 45.7894 25.0391 45.4143 25.4142C45.0392 25.7893 44.5305 26 44.0001 26Z" fill="#122C24"/>
</g>
<defs>
<clipPath id="clip0_158_3843">
<rect width="64" height="64" fill="white"/>
</clipPath>
</defs>
</svg>
