<svg xmlns="http://www.w3.org/2000/svg" xmlns:xlink="http://www.w3.org/1999/xlink" width="480" zoomAndPan="magnify" viewBox="0 0 360 359.999987" height="480" preserveAspectRatio="xMidYMid meet" version="1.2"><defs/><g id="8545c8e451"><path style=" stroke:none;fill-rule:nonzero;fill:#b5a001;fill-opacity:1;" d="M 146.066406 135.523438 L 146.875 136.335938 C 146.972656 137.261719 146.972656 137.261719 146.96875 138.449219 L 146.972656 139.808594 L 146.960938 141.304688 L 146.957031 142.878906 C 146.957031 144.007812 146.953125 145.140625 146.949219 146.273438 C 146.9375 148.066406 146.9375 149.863281 146.933594 151.65625 C 146.929688 154.503906 146.921875 157.351562 146.910156 160.195312 C 146.890625 165.273438 146.878906 170.351562 146.871094 175.425781 C 146.867188 176.914062 146.863281 178.40625 146.855469 179.894531 C 146.84375 183.464844 146.839844 187.035156 146.875 190.605469 L 146.882812 191.746094 C 146.894531 192.679688 146.917969 193.613281 146.953125 194.546875 L 146.992188 195.988281 L 147.28125 197.085938 C 148.082031 197.921875 148.082031 197.921875 149.304688 198.300781 C 150.445312 198.40625 151.585938 198.453125 152.730469 198.4375 L 153.761719 198.4375 C 154.882812 198.4375 156 198.425781 157.121094 198.417969 C 157.898438 198.414062 158.675781 198.414062 159.457031 198.414062 C 161.5 198.40625 163.546875 198.394531 165.589844 198.382812 C 167.675781 198.371094 169.765625 198.363281 171.851562 198.359375 C 175.945312 198.34375 180.039062 198.324219 184.136719 198.300781 C 184.15625 200.058594 184.167969 201.816406 184.179688 203.574219 C 184.183594 204.171875 184.1875 204.769531 184.195312 205.367188 C 184.207031 206.230469 184.210938 207.089844 184.214844 207.949219 L 184.226562 209.515625 C 184.136719 210.855469 184.136719 210.855469 183.851562 211.792969 C 183.324219 212.472656 183.324219 212.472656 182.453125 212.972656 C 181.039062 213.355469 179.695312 213.410156 178.238281 213.414062 L 177.320312 213.425781 C 176.3125 213.4375 175.304688 213.445312 174.292969 213.453125 L 172.148438 213.476562 C 170.230469 213.496094 168.3125 213.511719 166.394531 213.527344 C 164.804688 213.539062 163.214844 213.554688 161.625 213.570312 C 156.570312 213.621094 151.519531 213.65625 146.46875 213.6875 L 145.480469 213.695312 C 141.472656 213.71875 137.46875 213.734375 133.460938 213.738281 L 132.121094 213.742188 C 129.207031 213.75 126.296875 213.730469 123.386719 213.6875 L 121.878906 213.671875 C 120.3125 213.652344 118.75 213.621094 117.1875 213.585938 L 115.707031 213.566406 L 114.328125 213.527344 L 113.109375 213.503906 C 112.042969 213.285156 112.042969 213.285156 111.179688 212.613281 C 110.425781 211.664062 110.425781 211.664062 110.226562 210.527344 L 110.230469 209.195312 L 110.222656 207.660156 L 110.242188 205.976562 C 110.242188 205.386719 110.242188 204.796875 110.238281 204.207031 C 110.238281 202.601562 110.25 201 110.261719 199.394531 C 110.269531 197.722656 110.273438 196.042969 110.273438 194.371094 C 110.277344 191.195312 110.292969 188.023438 110.308594 184.851562 C 110.328125 181.238281 110.335938 177.628906 110.34375 174.015625 C 110.359375 166.585938 110.390625 159.152344 110.425781 151.722656 C 111.453125 151.136719 112.480469 150.554688 113.507812 149.96875 L 114.378906 149.46875 C 116.398438 148.328125 118.4375 147.378906 120.597656 146.527344 C 122.722656 145.664062 124.769531 144.632812 126.828125 143.625 C 127.78125 143.160156 128.734375 142.699219 129.691406 142.238281 L 130.429688 141.882812 C 133.007812 140.640625 135.585938 139.402344 138.175781 138.183594 C 138.914062 137.832031 139.648438 137.480469 140.382812 137.128906 L 141.746094 136.492188 L 142.941406 135.921875 C 144.085938 135.507812 144.863281 135.378906 146.066406 135.523438 "/><path style=" stroke:none;fill-rule:nonzero;fill:#b5a001;fill-opacity:1;" d="M 184.136719 116.894531 L 184.136719 193.4375 C 181.738281 193.679688 179.53125 193.894531 177.152344 193.910156 L 176.355469 193.914062 C 175.503906 193.921875 174.648438 193.925781 173.796875 193.925781 L 172.90625 193.929688 C 171.355469 193.9375 169.804688 193.941406 168.253906 193.941406 C 166.652344 193.945312 165.054688 193.953125 163.453125 193.964844 C 162.21875 193.972656 160.984375 193.972656 159.75 193.976562 C 159.160156 193.976562 158.570312 193.980469 157.980469 193.984375 C 157.15625 193.992188 156.335938 193.992188 155.515625 193.988281 L 154.097656 193.992188 C 152.949219 193.84375 152.949219 193.84375 152.28125 193.378906 C 151.734375 192.628906 151.734375 192.628906 151.582031 191.554688 L 151.582031 190.234375 L 151.574219 188.71875 L 151.582031 187.050781 C 151.582031 186.46875 151.582031 185.882812 151.578125 185.300781 C 151.574219 183.710938 151.578125 182.125 151.585938 180.539062 C 151.589844 178.875 151.585938 177.21875 151.585938 175.558594 C 151.585938 172.769531 151.589844 169.980469 151.597656 167.191406 C 151.605469 163.964844 151.609375 160.742188 151.605469 157.515625 C 151.605469 154.414062 151.605469 151.316406 151.609375 148.214844 C 151.613281 146.894531 151.613281 145.574219 151.613281 144.253906 C 151.609375 142.699219 151.613281 141.144531 151.621094 139.589844 C 151.621094 139.019531 151.621094 138.449219 151.621094 137.878906 C 151.621094 137.097656 151.625 136.320312 151.628906 135.539062 L 151.632812 134.21875 C 151.734375 133.074219 151.90625 132.421875 152.542969 131.472656 C 153.445312 130.929688 154.371094 130.4375 155.324219 129.996094 L 156.183594 129.582031 C 157.113281 129.136719 158.042969 128.695312 158.972656 128.257812 C 159.617188 127.953125 160.261719 127.644531 160.902344 127.335938 C 165.359375 125.210938 169.832031 123.117188 174.320312 121.058594 C 176.882812 119.886719 179.414062 118.648438 181.917969 117.34375 C 182.917969 116.894531 182.917969 116.894531 184.136719 116.894531 "/><path style=" stroke:none;fill-rule:nonzero;fill:#f8f8f8;fill-opacity:1;" d="M 203.980469 113.25 C 205.550781 113.367188 206.589844 113.503906 207.910156 114.390625 L 208.941406 115.324219 C 210.730469 116.871094 212.539062 118.148438 214.554688 119.386719 C 215.808594 120.1875 216.988281 121.0625 218.179688 121.957031 C 221.253906 124.210938 224.558594 126.050781 227.871094 127.933594 C 230.679688 129.535156 233.460938 131.175781 236.203125 132.890625 C 239.300781 134.828125 242.410156 136.734375 245.542969 138.613281 L 246.828125 139.386719 C 248.820312 140.578125 250.816406 141.753906 252.835938 142.902344 L 253.902344 143.507812 C 254.550781 143.875 255.199219 144.242188 255.851562 144.601562 C 258.042969 145.839844 259.667969 147.167969 261.085938 149.292969 C 261.429688 150.628906 261.542969 151.882812 261.546875 153.261719 L 261.554688 154.410156 L 261.554688 155.65625 L 261.5625 156.980469 C 261.566406 158.421875 261.570312 159.867188 261.570312 161.308594 L 261.578125 164.3125 C 261.582031 166.414062 261.585938 168.511719 261.585938 170.613281 C 261.589844 173.304688 261.597656 176 261.609375 178.695312 C 261.617188 180.765625 261.621094 182.832031 261.621094 184.902344 C 261.621094 185.894531 261.625 186.886719 261.628906 187.882812 C 261.636719 189.269531 261.636719 190.65625 261.632812 192.042969 L 261.644531 193.292969 L 261.636719 194.433594 L 261.640625 195.429688 L 261.488281 196.273438 C 260.871094 196.996094 260.871094 196.996094 260.273438 197.488281 L 259.058594 197.085938 L 259.464844 196.679688 C 259.625 195.796875 259.765625 194.910156 259.894531 194.019531 L 260.113281 192.550781 L 260.273438 191.414062 L 257.84375 191.007812 L 257.769531 192.015625 L 257.667969 193.335938 C 257.636719 193.769531 257.601562 194.203125 257.566406 194.648438 C 257.464844 195.640625 257.3125 196.53125 257.035156 197.488281 L 257.84375 197.894531 C 251.738281 198.230469 245.636719 198.347656 239.523438 198.398438 L 238.355469 198.410156 C 234.730469 198.441406 231.109375 198.46875 227.484375 198.492188 C 225.480469 198.503906 223.480469 198.523438 221.476562 198.539062 C 220.722656 198.546875 219.96875 198.550781 219.214844 198.554688 C 213.773438 198.5625 213.773438 198.5625 208.433594 199.515625 L 208.03125 199.917969 C 207.929688 201.300781 207.953125 202.6875 207.953125 204.070312 L 207.9375 205.242188 C 207.933594 206.789062 207.96875 208.175781 208.339844 209.683594 L 208.839844 210.449219 C 213.347656 211.996094 219.171875 211.316406 223.894531 211.3125 C 224.660156 211.3125 225.425781 211.3125 226.191406 211.3125 C 228.257812 211.316406 230.320312 211.316406 232.382812 211.3125 C 234.554688 211.3125 236.722656 211.3125 238.890625 211.3125 C 242.53125 211.316406 246.171875 211.3125 249.816406 211.3125 C 254.011719 211.308594 258.210938 211.308594 262.40625 211.3125 C 266.023438 211.3125 269.640625 211.316406 273.257812 211.3125 C 275.414062 211.3125 277.570312 211.3125 279.722656 211.3125 C 281.75 211.316406 283.777344 211.316406 285.800781 211.3125 C 286.542969 211.3125 287.28125 211.3125 288.019531 211.3125 C 296.25 211.683594 296.25 211.683594 304.015625 209.640625 C 304.890625 209.035156 305.761719 208.417969 306.621094 207.792969 C 308.472656 206.449219 310.105469 205.453125 312.40625 205.160156 C 313.980469 205.199219 315.207031 205.636719 316.570312 206.398438 C 317.929688 207.246094 318.53125 207.910156 319.355469 209.285156 C 319.9375 210.847656 319.871094 212.234375 319.636719 213.867188 C 319.121094 216.183594 318.273438 217.953125 316.773438 219.789062 C 315.890625 220.4375 315.300781 220.582031 314.203125 220.738281 C 312.355469 220.792969 310.660156 220.800781 308.976562 219.964844 L 308.066406 219.359375 L 308.066406 218.144531 L 309.335938 217.996094 L 311 217.789062 L 311.835938 217.691406 C 313.285156 217.511719 314.523438 217.328125 315.761719 216.523438 C 316.320312 215.84375 316.320312 215.84375 316.570312 214.902344 C 316.707031 213.375 316.6875 212.351562 316.089844 210.929688 C 315.40625 210 315.40625 210 314.417969 209.511719 C 313.140625 209.1875 312.214844 209.074219 310.898438 209.234375 C 309.578125 209.800781 309.578125 209.800781 308.46875 210.855469 C 307.332031 212.601562 306.636719 214.53125 306.039062 216.523438 L 305.230469 216.144531 C 302.742188 215.265625 300.128906 215.25 297.515625 215.261719 L 296.570312 215.261719 C 295.53125 215.261719 294.496094 215.265625 293.457031 215.269531 L 291.214844 215.269531 C 289.605469 215.273438 287.996094 215.273438 286.390625 215.277344 C 283.828125 215.285156 281.265625 215.285156 278.703125 215.289062 C 272.785156 215.292969 266.867188 215.300781 260.949219 215.3125 C 255.558594 215.320312 250.164062 215.328125 244.773438 215.332031 C 242.652344 215.332031 240.53125 215.335938 238.414062 215.339844 C 230.253906 215.355469 222.101562 215.347656 213.945312 215.179688 C 213.210938 215.164062 212.480469 215.148438 211.746094 215.136719 C 210.742188 215.117188 209.738281 215.097656 208.734375 215.070312 L 207.839844 215.058594 C 206.683594 215.023438 205.703125 214.941406 204.621094 214.539062 C 203.980469 214.09375 203.980469 214.09375 203.574219 213.285156 C 203.53125 212.269531 203.507812 211.253906 203.503906 210.234375 C 203.496094 209.617188 203.484375 208.996094 203.472656 208.378906 C 203.460938 207.398438 203.449219 206.421875 203.441406 205.445312 C 203.433594 204.5 203.421875 203.558594 203.402344 202.617188 L 203.40625 201.730469 C 203.398438 200.804688 203.398438 200.804688 203.167969 199.515625 C 202.585938 198.652344 202.585938 198.652344 201.550781 198.300781 C 200.496094 198.167969 199.441406 198.101562 198.378906 198.089844 L 197.460938 198.070312 C 196.496094 198.050781 195.527344 198.03125 194.5625 198.019531 C 193.90625 198.007812 193.25 197.992188 192.59375 197.980469 C 190.992188 197.945312 189.386719 197.917969 187.78125 197.894531 L 186.96875 194.652344 L 188.332031 194.585938 C 189.996094 194.503906 191.664062 194.417969 193.328125 194.332031 C 194.046875 194.292969 194.769531 194.257812 195.492188 194.222656 C 196.527344 194.167969 197.5625 194.117188 198.597656 194.0625 L 199.578125 194.011719 C 201.226562 193.957031 201.226562 193.957031 202.765625 193.4375 C 203.140625 191.273438 203.230469 189.140625 203.230469 186.941406 L 203.234375 186 C 203.242188 184.964844 203.246094 183.933594 203.246094 182.898438 L 203.257812 180.664062 C 203.265625 179.066406 203.269531 177.46875 203.273438 175.867188 C 203.285156 173.339844 203.292969 170.8125 203.304688 168.285156 C 203.332031 162.46875 203.355469 156.652344 203.378906 150.835938 C 203.398438 145.496094 203.417969 140.160156 203.445312 134.820312 C 203.457031 132.308594 203.464844 129.796875 203.472656 127.28125 C 203.480469 125.722656 203.484375 124.160156 203.492188 122.601562 C 203.496094 121.875 203.5 121.152344 203.5 120.425781 C 203.503906 119.4375 203.507812 118.449219 203.515625 117.464844 L 203.515625 116.589844 C 203.523438 115.363281 203.589844 114.421875 203.980469 113.25 M 207.625 121.347656 L 207.21875 121.753906 C 207.179688 122.644531 207.164062 123.539062 207.164062 124.429688 L 207.160156 125.289062 C 207.15625 126.246094 207.15625 127.199219 207.15625 128.15625 L 207.148438 130.203125 C 207.144531 132.0625 207.140625 133.921875 207.140625 135.78125 C 207.136719 136.941406 207.136719 138.105469 207.132812 139.265625 C 207.128906 142.894531 207.125 146.527344 207.121094 150.160156 C 207.121094 154.351562 207.113281 158.546875 207.101562 162.742188 C 207.09375 165.980469 207.089844 169.222656 207.089844 172.460938 C 207.089844 174.398438 207.085938 176.332031 207.078125 178.269531 C 207.074219 180.089844 207.070312 181.914062 207.074219 183.734375 C 207.074219 184.402344 207.074219 185.070312 207.070312 185.738281 C 207.0625 186.652344 207.066406 187.566406 207.070312 188.480469 L 207.070312 190.027344 C 207.234375 191.558594 207.632812 192.539062 208.433594 193.84375 C 211.464844 195.359375 215.914062 194.714844 219.214844 194.707031 C 219.789062 194.707031 220.363281 194.707031 220.9375 194.710938 C 222.140625 194.710938 223.34375 194.707031 224.546875 194.707031 C 226.054688 194.707031 227.558594 194.707031 229.0625 194.707031 C 235.027344 194.714844 240.988281 194.675781 246.953125 194.5 L 248.394531 194.460938 C 250.964844 194.371094 253.347656 194.183594 255.820312 193.4375 C 256.742188 192.265625 256.742188 192.265625 256.757812 190.769531 C 256.777344 190.15625 256.789062 189.539062 256.796875 188.921875 L 256.820312 187.902344 C 256.847656 186.785156 256.863281 185.671875 256.882812 184.554688 L 256.929688 182.222656 C 257.035156 176.519531 257.074219 170.816406 257.085938 165.113281 L 257.089844 163.980469 C 257.289062 157.308594 257.289062 157.308594 256.226562 150.789062 C 253.328125 146.894531 248.136719 144.523438 244.074219 142.003906 L 241.96875 140.691406 C 238.554688 138.5625 235.121094 136.460938 231.671875 134.386719 L 230.695312 133.800781 C 228.929688 132.742188 227.160156 131.695312 225.378906 130.660156 C 224.394531 130.089844 223.410156 129.511719 222.429688 128.9375 C 221.71875 128.523438 221.007812 128.113281 220.296875 127.707031 C 217.988281 126.355469 215.894531 124.988281 213.941406 123.152344 C 212.980469 122.28125 212.085938 121.78125 210.863281 121.347656 C 209.746094 121.238281 208.753906 121.273438 207.625 121.347656 "/><path style=" stroke:none;fill-rule:nonzero;fill:#b5a102;fill-opacity:1;" d="M 117.402344 97.363281 L 118.375 97.363281 C 119.421875 97.363281 120.472656 97.367188 121.523438 97.375 L 123.71875 97.378906 C 125.636719 97.382812 127.554688 97.390625 129.472656 97.398438 C 131.433594 97.40625 133.390625 97.410156 135.351562 97.414062 C 139.191406 97.421875 143.035156 97.4375 146.875 97.453125 C 146.902344 101.445312 146.925781 105.4375 146.9375 109.429688 C 146.945312 111.285156 146.953125 113.136719 146.964844 114.992188 C 146.980469 116.78125 146.988281 118.566406 146.992188 120.355469 C 146.992188 121.039062 146.996094 121.722656 147.003906 122.40625 C 147.011719 123.359375 147.011719 124.316406 147.011719 125.269531 L 147.027344 126.128906 C 147.019531 126.917969 147.019531 126.917969 146.875 128.234375 C 146.125 129.3125 145.144531 129.777344 143.976562 130.347656 L 142.953125 130.851562 L 141.839844 131.386719 L 140.675781 131.957031 C 139.859375 132.355469 139.042969 132.75 138.226562 133.148438 C 137.003906 133.738281 135.785156 134.332031 134.566406 134.929688 C 129.804688 137.253906 125.003906 139.476562 120.164062 141.632812 C 118.441406 142.40625 116.734375 143.214844 115.03125 144.027344 L 114.050781 144.496094 C 112.433594 145.265625 112.433594 145.265625 110.828125 146.054688 C 110.523438 143.140625 110.363281 140.261719 110.367188 137.332031 L 110.363281 136.121094 C 110.359375 134.8125 110.355469 133.507812 110.355469 132.199219 L 110.351562 129.453125 C 110.351562 127.542969 110.347656 125.632812 110.351562 123.726562 C 110.351562 121.277344 110.34375 118.832031 110.335938 116.382812 C 110.332031 114.496094 110.332031 112.613281 110.332031 110.726562 C 110.332031 109.824219 110.332031 108.921875 110.328125 108.015625 C 110.324219 106.757812 110.324219 105.5 110.328125 104.242188 C 110.324219 103.867188 110.320312 103.496094 110.320312 103.113281 C 110.328125 101.726562 110.394531 100.445312 110.660156 99.082031 L 111.234375 98.265625 C 113.261719 97.417969 115.238281 97.339844 117.402344 97.363281 "/><path style=" stroke:none;fill-rule:nonzero;fill:#b6a104;fill-opacity:1;" d="M 149.773438 53.929688 L 150.722656 53.945312 L 151.8125 53.957031 L 152.949219 53.992188 L 154.007812 54.003906 C 156.222656 54.039062 158.425781 54.148438 160.636719 54.269531 C 165.046875 54.507812 169.441406 54.585938 173.859375 54.574219 L 174.949219 54.574219 C 179.597656 54.574219 184.242188 54.515625 188.886719 54.402344 L 190.285156 54.371094 C 192.550781 54.320312 194.816406 54.257812 197.078125 54.191406 L 199.558594 54.128906 L 200.703125 54.089844 C 202.179688 54.054688 203.382812 54.066406 204.8125 54.472656 L 205.601562 54.929688 C 206.90625 57.542969 206.46875 61.3125 206.46875 64.175781 L 206.472656 65.441406 C 206.476562 66.8125 206.476562 68.179688 206.476562 69.550781 L 206.480469 72.425781 C 206.484375 74.425781 206.484375 76.429688 206.484375 78.429688 C 206.484375 80.992188 206.492188 83.554688 206.496094 86.117188 C 206.5 88.09375 206.503906 90.070312 206.503906 92.046875 C 206.503906 92.992188 206.503906 93.933594 206.507812 94.878906 C 206.511719 96.199219 206.511719 97.523438 206.507812 98.84375 C 206.511719 99.230469 206.511719 99.617188 206.515625 100.015625 C 206.503906 102.269531 206.292969 104.214844 205.601562 106.363281 C 204.207031 107.839844 202.589844 108.472656 200.714844 109.199219 L 199.90625 109.515625 C 198.285156 110.140625 196.652344 110.699219 194.996094 111.222656 C 192.789062 111.921875 190.839844 112.929688 188.828125 114.070312 L 187.78125 114.464844 C 186.863281 114.191406 186.863281 114.191406 186.160156 113.652344 C 185.652344 112.589844 185.652344 112.589844 185.351562 111.628906 C 182.324219 112.132812 179.839844 113.230469 177.105469 114.601562 C 175.816406 115.242188 174.527344 115.875 173.234375 116.507812 C 172.96875 116.636719 172.699219 116.769531 172.425781 116.90625 C 169.710938 118.238281 166.976562 119.527344 164.234375 120.808594 C 163.476562 121.160156 162.71875 121.515625 161.960938 121.871094 C 153.53125 125.804688 153.53125 125.804688 152.140625 125.804688 C 151.5625 124.648438 151.6875 123.667969 151.6875 122.375 L 151.6875 121.558594 C 151.6875 120.667969 151.691406 119.78125 151.695312 118.890625 L 151.695312 117.042969 C 151.699219 115.417969 151.703125 113.796875 151.707031 112.171875 C 151.710938 110.515625 151.714844 108.859375 151.714844 107.203125 C 151.71875 103.953125 151.726562 100.703125 151.734375 97.453125 C 155.554688 97.425781 159.375 97.40625 163.195312 97.390625 C 164.96875 97.386719 166.742188 97.375 168.515625 97.363281 C 170.226562 97.347656 171.941406 97.339844 173.652344 97.339844 C 174.304688 97.335938 174.957031 97.332031 175.609375 97.324219 C 176.527344 97.316406 177.441406 97.316406 178.355469 97.316406 L 179.933594 97.308594 C 181.300781 97.453125 181.300781 97.453125 182.445312 97.996094 C 183.324219 98.667969 183.324219 98.667969 184.136719 99.882812 C 184.226562 101.027344 184.226562 101.027344 184.214844 102.394531 L 184.207031 103.878906 L 184.183594 105.425781 L 184.175781 106.992188 C 184.164062 108.265625 184.152344 109.542969 184.136719 110.820312 C 186.351562 110.3125 188.367188 109.671875 190.4375 108.742188 L 191.273438 108.371094 C 193.273438 107.464844 195.25 106.5 197.195312 105.476562 L 197.957031 105.085938 C 199.375 104.324219 200.492188 103.53125 201.550781 102.3125 C 202.011719 101.386719 202.007812 100.863281 202.015625 99.832031 L 202.023438 98.773438 L 202.027344 97.609375 L 202.035156 96.382812 C 202.042969 95.042969 202.046875 93.699219 202.050781 92.355469 L 202.054688 90.96875 C 202.066406 88.550781 202.070312 86.128906 202.074219 83.710938 C 202.078125 81.207031 202.09375 78.703125 202.109375 76.195312 C 202.121094 74.273438 202.121094 72.351562 202.125 70.429688 C 202.125 69.507812 202.132812 68.585938 202.136719 67.660156 C 202.148438 66.371094 202.148438 65.078125 202.144531 63.789062 L 202.160156 62.628906 C 202.148438 61.132812 202.105469 60.082031 201.410156 58.742188 C 199.640625 57.800781 197.871094 57.953125 195.902344 57.972656 L 194.53125 57.96875 C 193.035156 57.964844 191.542969 57.972656 190.046875 57.980469 C 189.007812 57.984375 187.96875 57.984375 186.929688 57.984375 C 184.753906 57.984375 182.578125 57.992188 180.402344 58.003906 C 177.886719 58.015625 175.371094 58.019531 172.859375 58.019531 C 170.4375 58.019531 168.015625 58.023438 165.597656 58.027344 C 164.566406 58.03125 163.535156 58.035156 162.507812 58.035156 C 161.070312 58.035156 159.632812 58.042969 158.195312 58.050781 L 156.898438 58.050781 L 155.710938 58.0625 L 154.683594 58.066406 C 153.648438 58.183594 153.003906 58.40625 152.140625 58.980469 C 151.667969 60.394531 151.671875 61.53125 151.652344 63.023438 L 151.640625 63.894531 C 151.628906 64.84375 151.617188 65.792969 151.605469 66.742188 L 151.582031 68.726562 C 151.558594 70.46875 151.539062 72.214844 151.519531 73.957031 C 151.503906 75.375 151.484375 76.789062 151.46875 78.203125 C 151.425781 81.425781 151.386719 84.648438 151.351562 87.871094 C 151.332031 89.378906 151.335938 90.882812 151.351562 92.390625 L 151.328125 93.808594 L 150.925781 94.214844 C 148.335938 93.929688 148.335938 93.929688 147.28125 93.402344 C 147.242188 88.519531 147.214844 83.636719 147.195312 78.753906 C 147.1875 76.488281 147.175781 74.222656 147.15625 71.953125 C 147.140625 69.765625 147.128906 67.578125 147.125 65.390625 C 147.121094 64.554688 147.117188 63.722656 147.109375 62.886719 C 147.097656 61.71875 147.09375 60.550781 147.097656 59.378906 L 147.078125 58.332031 C 147.085938 57.4375 147.109375 56.617188 147.28125 55.738281 C 148.078125 54.675781 148.476562 54.210938 149.773438 53.929688 M 149.304688 58.980469 L 149.304688 72.75 L 149.710938 72.75 C 149.789062 70.910156 149.863281 69.070312 149.9375 67.230469 L 150.007812 65.652344 L 150.066406 64.125 L 150.125 62.726562 C 150.113281 61.429688 149.960938 60.25 149.710938 58.980469 Z M 149.304688 58.980469 "/><path style=" stroke:none;fill-rule:nonzero;fill:#f9f9f9;fill-opacity:1;" d="M 149.773438 53.929688 L 150.722656 53.945312 L 151.8125 53.957031 L 152.949219 53.992188 L 154.007812 54.003906 C 156.222656 54.039062 158.425781 54.148438 160.636719 54.269531 C 165.046875 54.507812 169.441406 54.585938 173.859375 54.574219 L 174.949219 54.574219 C 179.597656 54.574219 184.242188 54.515625 188.886719 54.402344 L 190.285156 54.371094 C 192.550781 54.320312 194.816406 54.257812 197.078125 54.191406 L 199.558594 54.128906 L 200.703125 54.089844 C 202.179688 54.054688 203.382812 54.066406 204.8125 54.472656 L 205.601562 54.929688 C 206.90625 57.542969 206.46875 61.3125 206.46875 64.175781 L 206.472656 65.441406 C 206.476562 66.8125 206.476562 68.179688 206.476562 69.550781 L 206.480469 72.425781 C 206.484375 74.425781 206.484375 76.429688 206.484375 78.429688 C 206.484375 80.992188 206.492188 83.554688 206.496094 86.117188 C 206.5 88.09375 206.503906 90.070312 206.503906 92.046875 C 206.503906 92.992188 206.503906 93.933594 206.507812 94.878906 C 206.511719 96.199219 206.511719 97.523438 206.507812 98.84375 C 206.511719 99.230469 206.511719 99.617188 206.515625 100.015625 C 206.503906 102.269531 206.292969 104.214844 205.601562 106.363281 C 204.207031 107.839844 202.589844 108.472656 200.714844 109.199219 L 199.90625 109.515625 C 198.285156 110.140625 196.652344 110.699219 194.996094 111.222656 C 192.789062 111.921875 190.839844 112.929688 188.828125 114.070312 L 187.78125 114.464844 C 186.855469 114.191406 186.855469 114.191406 186.160156 113.652344 L 185.753906 112.617188 L 185.351562 111.628906 C 184.53125 111.351562 184.53125 111.351562 183.730469 111.222656 L 185.148438 110.792969 C 189.3125 109.398438 193.3125 107.515625 197.195312 105.476562 L 197.957031 105.085938 C 199.375 104.324219 200.492188 103.53125 201.550781 102.3125 C 202.011719 101.386719 202.007812 100.863281 202.015625 99.832031 L 202.023438 98.773438 L 202.027344 97.609375 L 202.035156 96.382812 C 202.042969 95.042969 202.046875 93.699219 202.050781 92.355469 L 202.054688 90.96875 C 202.066406 88.550781 202.070312 86.128906 202.074219 83.710938 C 202.078125 81.207031 202.09375 78.703125 202.109375 76.195312 C 202.121094 74.273438 202.121094 72.351562 202.125 70.429688 C 202.125 69.507812 202.132812 68.585938 202.136719 67.660156 C 202.148438 66.371094 202.148438 65.078125 202.144531 63.789062 L 202.160156 62.628906 C 202.148438 61.132812 202.105469 60.082031 201.410156 58.742188 C 199.640625 57.800781 197.871094 57.953125 195.902344 57.972656 L 194.53125 57.96875 C 193.035156 57.964844 191.542969 57.972656 190.046875 57.980469 C 189.007812 57.984375 187.96875 57.984375 186.929688 57.984375 C 184.753906 57.984375 182.578125 57.992188 180.402344 58.003906 C 177.886719 58.015625 175.371094 58.019531 172.859375 58.019531 C 170.4375 58.019531 168.015625 58.023438 165.597656 58.027344 C 164.566406 58.03125 163.535156 58.035156 162.507812 58.035156 C 161.070312 58.035156 159.632812 58.042969 158.195312 58.050781 L 156.898438 58.050781 L 155.710938 58.0625 L 154.683594 58.066406 C 153.648438 58.183594 153.003906 58.40625 152.140625 58.980469 C 151.667969 60.394531 151.671875 61.53125 151.652344 63.023438 L 151.640625 63.894531 C 151.628906 64.84375 151.617188 65.792969 151.605469 66.742188 L 151.582031 68.726562 C 151.558594 70.46875 151.539062 72.214844 151.519531 73.957031 C 151.503906 75.375 151.484375 76.789062 151.46875 78.203125 C 151.425781 81.425781 151.386719 84.648438 151.351562 87.871094 C 151.332031 89.378906 151.335938 90.882812 151.351562 92.390625 L 151.328125 93.808594 L 150.925781 94.214844 C 148.335938 93.929688 148.335938 93.929688 147.28125 93.402344 C 147.242188 88.519531 147.214844 83.636719 147.195312 78.753906 C 147.1875 76.488281 147.175781 74.222656 147.15625 71.953125 C 147.140625 69.765625 147.128906 67.578125 147.125 65.390625 C 147.121094 64.554688 147.117188 63.722656 147.109375 62.886719 C 147.097656 61.71875 147.09375 60.550781 147.097656 59.378906 L 147.078125 58.332031 C 147.085938 57.4375 147.109375 56.617188 147.28125 55.738281 C 148.078125 54.675781 148.476562 54.210938 149.773438 53.929688 M 149.304688 58.980469 L 149.304688 72.75 L 149.710938 72.75 C 149.789062 70.910156 149.863281 69.070312 149.9375 67.230469 L 150.007812 65.652344 L 150.066406 64.125 L 150.125 62.726562 C 150.113281 61.429688 149.960938 60.25 149.710938 58.980469 Z M 108.398438 148.890625 C 107.472656 151.046875 105.792969 152.363281 103.945312 153.75 C 102.445312 154.609375 100.894531 155.3125 99.3125 156.003906 C 96.183594 157.382812 93.226562 158.835938 90.578125 161.039062 C 89.558594 162.621094 89.007812 164.144531 88.914062 166.023438 L 88.917969 167.070312 L 88.917969 168.28125 L 88.925781 169.597656 L 88.929688 170.992188 C 88.933594 171.988281 88.9375 172.988281 88.941406 173.988281 C 88.949219 175.566406 88.953125 177.144531 88.957031 178.722656 C 88.964844 183.214844 88.980469 187.707031 89 192.195312 C 89.007812 194.941406 89.015625 197.6875 89.019531 200.433594 C 89.023438 201.480469 89.027344 202.527344 89.03125 203.578125 C 89.042969 205.039062 89.042969 206.503906 89.046875 207.964844 L 89.054688 209.285156 L 89.054688 210.492188 L 89.058594 211.539062 C 88.949219 212.570312 88.703125 213.21875 88.148438 214.09375 C 82.992188 216.671875 73.316406 215.050781 67.699219 215.128906 C 66.179688 215.148438 64.664062 215.171875 63.152344 215.195312 L 61.746094 215.210938 L 60.433594 215.234375 L 59.289062 215.246094 C 58.085938 215.3125 56.933594 215.496094 55.75 215.714844 L 55.699219 214.707031 C 55.570312 213.34375 55.382812 212.152344 54.941406 210.855469 C 54.101562 210.0625 53.4375 209.777344 52.339844 209.429688 C 50.601562 209.105469 49 208.9375 47.246094 209.234375 L 46.230469 209.789062 C 45.308594 211.40625 45.109375 213.085938 44.816406 214.902344 C 44.6875 215.445312 44.550781 215.984375 44.410156 216.523438 L 43.195312 216.523438 C 42.378906 214.730469 41.855469 213.371094 42.03125 211.386719 C 42.203125 210.332031 42.441406 209.5 42.839844 208.5 C 43.902344 207.261719 44.976562 206.722656 46.433594 205.992188 C 47.914062 205.5 48.925781 205.460938 50.484375 205.589844 C 52.808594 206.390625 54.703125 207.882812 56.605469 209.402344 C 59.574219 211.035156 63.082031 210.976562 66.386719 210.960938 L 67.660156 210.964844 C 68.539062 210.964844 69.421875 210.964844 70.304688 210.960938 C 71.648438 210.957031 72.992188 210.960938 74.339844 210.964844 C 75.199219 210.964844 76.058594 210.964844 76.917969 210.960938 L 78.128906 210.964844 C 80.121094 210.953125 81.855469 210.914062 83.695312 210.042969 C 85.476562 206.648438 84.992188 201.746094 85.085938 198.019531 C 85.183594 194.414062 85.3125 190.816406 85.519531 187.214844 L 85.574219 186.242188 C 85.726562 183.609375 85.726562 183.609375 85.804688 182.300781 C 86.019531 178.484375 86.152344 174.683594 86.121094 170.859375 L 86.113281 169.785156 C 86.097656 168.078125 86.066406 166.375 86.023438 164.671875 L 85.996094 162.832031 L 85.953125 161.214844 C 86.125 159.824219 86.125 159.824219 86.832031 158.683594 C 87.710938 157.832031 88.382812 157.351562 89.492188 156.859375 L 90.519531 156.386719 L 91.617188 155.902344 C 92.382812 155.550781 93.148438 155.199219 93.914062 154.84375 L 95.089844 154.300781 C 97.230469 153.28125 99.3125 152.148438 101.390625 151.003906 C 103.683594 149.765625 105.742188 148.890625 108.398438 148.890625 M 85.71875 206.398438 L 85.71875 211.257812 L 86.933594 211.257812 C 86.96875 210.675781 86.992188 210.09375 87.011719 209.511719 L 87.054688 208.53125 L 86.933594 207.613281 Z M 85.71875 206.398438 "/><path style=" stroke:none;fill-rule:nonzero;fill:#e4e5e8;fill-opacity:1;" d="M 258.65625 146.863281 L 259.871094 147.269531 C 260.832031 148.601562 261.230469 149.714844 261.488281 151.320312 C 261.527344 151.964844 261.542969 152.613281 261.546875 153.261719 L 261.554688 154.410156 L 261.554688 155.65625 L 261.5625 156.980469 C 261.566406 158.421875 261.570312 159.867188 261.570312 161.308594 L 261.578125 164.3125 C 261.582031 166.414062 261.585938 168.511719 261.585938 170.613281 C 261.589844 173.304688 261.597656 176 261.609375 178.695312 C 261.617188 180.765625 261.621094 182.832031 261.621094 184.902344 C 261.621094 185.894531 261.625 186.886719 261.628906 187.882812 C 261.636719 189.269531 261.636719 190.65625 261.632812 192.042969 L 261.644531 193.292969 C 261.644531 193.667969 261.640625 194.046875 261.636719 194.433594 L 261.640625 195.429688 L 261.488281 196.273438 C 260.871094 196.996094 260.871094 196.996094 260.273438 197.488281 L 259.058594 197.085938 L 259.464844 196.679688 C 260.246094 191.421875 260.390625 186.191406 260.367188 180.886719 L 260.367188 178.644531 C 260.367188 177.089844 260.363281 175.539062 260.359375 173.984375 C 260.351562 172.007812 260.351562 170.035156 260.351562 168.058594 C 260.351562 166.519531 260.347656 164.980469 260.34375 163.441406 L 260.34375 161.253906 C 260.722656 154.316406 260.722656 154.316406 259.238281 147.75 Z M 258.65625 146.863281 "/><path style=" stroke:none;fill-rule:nonzero;fill:#e6e7ea;fill-opacity:1;" d="M 147.28125 56.550781 L 148.089844 56.953125 C 148.21875 57.925781 148.296875 58.851562 148.339844 59.828125 L 148.386719 60.710938 C 148.53125 63.707031 148.554688 66.699219 148.546875 69.699219 L 148.550781 71.414062 C 148.550781 72.597656 148.550781 73.785156 148.546875 74.96875 C 148.546875 76.480469 148.546875 77.988281 148.550781 79.5 C 148.550781 80.675781 148.550781 81.851562 148.550781 83.027344 C 148.550781 83.582031 148.550781 84.140625 148.550781 84.695312 C 148.554688 87.632812 148.488281 90.492188 148.089844 93.402344 L 147.28125 93.402344 Z M 147.28125 56.550781 "/><path style=" stroke:none;fill-rule:nonzero;fill:#e7e8eb;fill-opacity:1;" d="M 257.035156 153.75 L 257.84375 154.152344 C 257.863281 159.203125 257.878906 164.25 257.886719 169.300781 C 257.890625 171.644531 257.898438 173.988281 257.90625 176.332031 C 257.914062 178.59375 257.917969 180.851562 257.921875 183.113281 C 257.921875 183.976562 257.925781 184.839844 257.929688 185.707031 C 257.9375 186.914062 257.9375 188.121094 257.9375 189.328125 L 257.945312 190.414062 L 257.941406 191.410156 L 257.945312 192.277344 C 257.84375 193.035156 257.84375 193.035156 257.035156 194.25 C 256.664062 191.734375 256.570312 189.296875 256.574219 186.757812 L 256.574219 185.519531 C 256.574219 184.183594 256.578125 182.851562 256.578125 181.515625 L 256.582031 180.140625 C 256.589844 171.339844 256.761719 162.546875 257.035156 153.75 "/><path style=" stroke:none;fill-rule:nonzero;fill:#e3e5e8;fill-opacity:1;" d="M 257.035156 214.5 L 305.636719 214.5 L 305.230469 216.117188 L 304.414062 215.945312 C 301.671875 215.398438 299.082031 215.195312 296.292969 215.21875 L 295.007812 215.21875 C 293.625 215.21875 292.242188 215.222656 290.859375 215.230469 L 287.964844 215.234375 C 285.4375 215.238281 282.910156 215.242188 280.378906 215.253906 C 277.796875 215.261719 275.210938 215.265625 272.625 215.269531 C 267.5625 215.277344 262.5 215.292969 257.441406 215.308594 Z M 257.035156 214.5 "/><path style=" stroke:none;fill-rule:nonzero;fill:#d8dadc;fill-opacity:1;" d="M 153.730469 57.308594 L 155.007812 57.304688 L 156.417969 57.308594 L 157.898438 57.304688 C 159.238281 57.304688 160.578125 57.304688 161.917969 57.304688 C 163.320312 57.304688 164.722656 57.304688 166.121094 57.304688 C 168.476562 57.304688 170.832031 57.304688 173.1875 57.304688 C 175.910156 57.308594 178.632812 57.308594 181.355469 57.304688 C 183.691406 57.304688 186.027344 57.304688 188.363281 57.304688 C 189.757812 57.304688 191.15625 57.304688 192.550781 57.304688 C 194.105469 57.300781 195.664062 57.304688 197.21875 57.308594 L 198.625 57.304688 L 199.90625 57.308594 L 201.023438 57.308594 C 201.953125 57.359375 201.953125 57.359375 203.167969 57.765625 L 203.167969 60.597656 L 202.359375 60.597656 C 201.949219 59.929688 201.542969 59.253906 201.144531 58.574219 C 200.171875 58.085938 199.566406 58.117188 198.480469 58.113281 L 197.296875 58.109375 L 195.992188 58.109375 L 194.625 58.105469 C 193.125 58.101562 191.625 58.101562 190.125 58.101562 L 187.007812 58.097656 C 184.824219 58.09375 182.644531 58.09375 180.464844 58.09375 C 177.941406 58.09375 175.421875 58.089844 172.902344 58.082031 C 170.476562 58.078125 168.050781 58.078125 165.628906 58.078125 C 164.597656 58.078125 163.5625 58.074219 162.53125 58.070312 C 161.089844 58.066406 159.648438 58.066406 158.207031 58.070312 C 157.777344 58.066406 157.347656 58.066406 156.910156 58.0625 L 155.71875 58.070312 L 154.683594 58.066406 C 153.648438 58.179688 153.007812 58.402344 152.140625 58.980469 C 151.78125 60.054688 151.675781 60.714844 151.652344 61.820312 L 151.628906 62.800781 L 151.605469 63.855469 L 151.582031 64.941406 C 151.554688 66.085938 151.53125 67.226562 151.507812 68.371094 L 151.453125 70.695312 C 151.410156 72.59375 151.371094 74.492188 151.328125 76.394531 L 150.925781 76.394531 L 150.925781 57.765625 C 151.933594 57.261719 152.601562 57.308594 153.730469 57.308594 "/><path style=" stroke:none;fill-rule:nonzero;fill:#e3e5e8;fill-opacity:1;" d="M 56.964844 214.09375 L 87.339844 214.09375 L 87.339844 214.5 C 81.347656 214.988281 75.347656 215.03125 69.339844 215.121094 C 67.9375 215.140625 66.539062 215.160156 65.140625 215.183594 C 62.417969 215.226562 59.691406 215.269531 56.964844 215.308594 Z M 56.964844 214.09375 "/><path style=" stroke:none;fill-rule:nonzero;fill:#e4e6e9;fill-opacity:1;" d="M 202.359375 197.488281 C 203.039062 197.601562 203.714844 197.738281 204.386719 197.894531 L 204.367188 199.214844 C 204.34375 200.828125 204.328125 202.441406 204.316406 204.058594 C 204.3125 204.753906 204.304688 205.453125 204.292969 206.152344 C 204.28125 207.15625 204.269531 208.160156 204.265625 209.167969 C 204.261719 209.480469 204.253906 209.792969 204.246094 210.113281 C 204.234375 211.097656 204.234375 211.097656 204.386719 212.472656 C 204.8125 213.304688 204.8125 213.304688 205.601562 213.6875 C 207.039062 214.101562 208.460938 214.167969 209.949219 214.222656 L 211.257812 214.273438 L 212.609375 214.320312 L 213.988281 214.375 C 215.105469 214.417969 216.226562 214.460938 217.34375 214.5 L 217.34375 214.902344 C 215.703125 214.925781 214.058594 214.9375 212.417969 214.949219 C 211.855469 214.953125 211.296875 214.957031 210.738281 214.964844 C 209.9375 214.972656 209.132812 214.980469 208.328125 214.984375 L 206.863281 214.996094 C 205.648438 214.90625 204.976562 214.769531 203.980469 214.09375 C 203.367188 212.867188 203.511719 211.59375 203.503906 210.25 C 203.496094 209.632812 203.484375 209.015625 203.472656 208.398438 C 203.460938 207.421875 203.449219 206.449219 203.441406 205.476562 C 203.4375 204.535156 203.421875 203.59375 203.402344 202.65625 L 203.40625 201.777344 C 203.398438 200.84375 203.398438 200.84375 203.167969 199.515625 C 202.410156 198.511719 202.410156 198.511719 201.550781 197.894531 Z M 202.359375 197.488281 "/><path style=" stroke:none;fill-rule:nonzero;fill:#d8dbdb;fill-opacity:1;" d="M 204.789062 54.523438 L 204.789062 55.335938 L 175.628906 55.335938 L 175.628906 54.929688 C 181.117188 54.601562 186.601562 54.410156 192.101562 54.296875 C 193.417969 54.269531 194.734375 54.238281 196.050781 54.207031 C 196.894531 54.1875 197.742188 54.171875 198.585938 54.152344 L 199.769531 54.125 L 200.871094 54.105469 L 201.835938 54.082031 C 202.855469 54.121094 203.796875 54.300781 204.789062 54.523438 "/><path style=" stroke:none;fill-rule:nonzero;fill:#e5e6e9;fill-opacity:1;" d="M 176.035156 57.359375 C 179.394531 57.351562 182.75 57.34375 186.109375 57.339844 C 187.667969 57.335938 189.230469 57.332031 190.789062 57.328125 C 192.292969 57.324219 193.796875 57.320312 195.304688 57.320312 C 195.878906 57.320312 196.453125 57.320312 197.027344 57.316406 C 197.828125 57.3125 198.632812 57.3125 199.4375 57.3125 L 200.824219 57.308594 C 201.953125 57.359375 201.953125 57.359375 203.167969 57.765625 L 203.167969 60.597656 L 202.359375 60.597656 C 201.949219 59.929688 201.542969 59.253906 201.144531 58.574219 C 200.066406 58.035156 199.222656 58.101562 198.011719 58.085938 L 196.539062 58.0625 L 194.941406 58.042969 L 193.308594 58.015625 C 191.878906 57.992188 190.445312 57.972656 189.015625 57.953125 C 187.554688 57.933594 186.09375 57.910156 184.632812 57.886719 C 181.765625 57.84375 178.902344 57.804688 176.035156 57.765625 Z M 176.035156 57.359375 "/><path style=" stroke:none;fill-rule:nonzero;fill:#eaecee;fill-opacity:1;" d="M 148.898438 54.117188 C 150.359375 54.09375 151.820312 54.082031 153.277344 54.070312 L 154.535156 54.046875 L 155.742188 54.039062 L 156.855469 54.027344 C 157.808594 54.117188 157.808594 54.117188 159.023438 54.929688 L 158.621094 55.335938 C 157.867188 55.371094 157.117188 55.378906 156.367188 55.375 L 154.984375 55.371094 L 153.53125 55.359375 L 152.074219 55.355469 C 150.882812 55.347656 149.6875 55.34375 148.496094 55.335938 Z M 148.898438 54.117188 "/><path style=" stroke:none;fill-rule:nonzero;fill:#e9ebed;fill-opacity:1;" d="M 203.167969 190.199219 L 203.574219 190.199219 C 203.585938 190.78125 203.59375 191.363281 203.601562 191.945312 L 203.613281 192.929688 C 203.574219 193.84375 203.574219 193.84375 203.167969 195.058594 L 195.070312 195.058594 L 195.878906 194.25 C 196.902344 194.136719 197.890625 194.0625 198.917969 194.019531 C 200.902344 194.003906 200.902344 194.003906 202.765625 193.4375 C 202.953125 192.671875 202.953125 192.671875 203.019531 191.792969 Z M 203.167969 190.199219 "/><path style=" stroke:none;fill-rule:nonzero;fill:#e4e5e9;fill-opacity:1;" d="M 207.21875 191.414062 L 208.03125 192.628906 C 208.503906 193.320312 208.503906 193.320312 209.246094 193.84375 C 210.535156 194.167969 210.535156 194.167969 211.953125 194.324219 L 213.402344 194.519531 L 214.511719 194.652344 L 214.511719 195.058594 C 213.371094 195.070312 212.230469 195.078125 211.09375 195.085938 L 210.109375 195.09375 C 209.28125 195.097656 208.453125 195.082031 207.625 195.058594 L 207.21875 194.652344 C 207.164062 193.574219 207.203125 192.496094 207.21875 191.414062 "/><path style=" stroke:none;fill-rule:nonzero;fill:#e9ebed;fill-opacity:1;" d="M 198.714844 104.742188 L 199.929688 105.148438 C 199.40625 105.421875 198.882812 105.691406 198.359375 105.960938 L 197.476562 106.414062 C 196.691406 106.769531 196.691406 106.769531 195.878906 106.769531 L 195.878906 107.578125 L 192.234375 109.199219 L 192.234375 107.984375 C 193.285156 107.429688 194.34375 106.882812 195.398438 106.339844 L 196.304688 105.859375 L 197.179688 105.414062 L 197.980469 104.996094 Z M 198.714844 104.742188 "/><path style=" stroke:none;fill-rule:nonzero;fill:#dad7dd;fill-opacity:1;" d="M 90.175781 160.230469 L 90.984375 160.632812 L 90.429688 161.265625 C 89.613281 162.484375 89.3125 163.675781 88.960938 165.089844 L 88.554688 165.089844 C 88.460938 163.859375 88.40625 162.667969 88.554688 161.445312 C 89.363281 160.609375 89.363281 160.609375 90.175781 160.230469 "/><path style=" stroke:none;fill-rule:nonzero;fill:#e7e8eb;fill-opacity:1;" d="M 187.78125 110.414062 L 187.78125 111.222656 C 186.894531 111.65625 186.894531 111.65625 185.753906 112.035156 C 184.617188 111.882812 184.617188 111.882812 183.730469 111.628906 L 184.136719 110.820312 C 185.378906 110.550781 186.507812 110.414062 187.78125 110.414062 "/><path style=" stroke:none;fill-rule:nonzero;fill:#e7e9eb;fill-opacity:1;" d="M 191.425781 108.792969 L 191.425781 109.605469 L 188.589844 110.820312 L 188.589844 109.605469 C 190.511719 108.792969 190.511719 108.792969 191.425781 108.792969 "/><g style="fill:#ffffff;fill-opacity:1;"><g transform="translate(24.443255, 263.105812)"><path style="stroke:none" d="M 2.0625 -23.65625 L 2.578125 -23.65625 C 2.578125 -23.257812 2.71875 -22.972656 3 -22.796875 C 3.28125 -22.628906 3.625 -22.546875 4.03125 -22.546875 L 22.109375 -22.546875 C 23.085938 -22.546875 23.578125 -22.914062 23.578125 -23.65625 L 24.09375 -23.65625 L 24.09375 -18.59375 L 23.578125 -18.59375 C 23.578125 -19.050781 23.453125 -19.351562 23.203125 -19.5 C 22.960938 -19.644531 22.597656 -19.71875 22.109375 -19.71875 L 14.875 -19.71875 L 14.875 -1.546875 C 14.875 -1.234375 14.941406 -0.984375 15.078125 -0.796875 C 15.222656 -0.609375 15.5 -0.515625 15.90625 -0.515625 L 15.90625 0 L 10.25 0 L 10.25 -0.515625 C 10.925781 -0.515625 11.265625 -0.859375 11.265625 -1.546875 L 11.265625 -19.71875 L 4.078125 -19.71875 C 3.585938 -19.71875 3.210938 -19.644531 2.953125 -19.5 C 2.703125 -19.351562 2.578125 -19.050781 2.578125 -18.59375 L 2.0625 -18.59375 Z M 2.0625 -23.65625 "/></g></g><g style="fill:#ffffff;fill-opacity:1;"><g transform="translate(57.091054, 263.105812)"><path style="stroke:none" d="M 18.515625 -12.6875 C 20.003906 -12.6875 21.160156 -12.972656 21.984375 -13.546875 C 22.816406 -14.117188 23.234375 -15.0625 23.234375 -16.375 C 23.234375 -16.945312 23.15625 -17.4375 23 -17.84375 C 22.84375 -18.257812 22.578125 -18.597656 22.203125 -18.859375 C 21.828125 -19.117188 21.328125 -19.3125 20.703125 -19.4375 C 20.078125 -19.5625 19.273438 -19.625 18.296875 -19.625 L 9.09375 -19.625 L 9.09375 -12.6875 Z M 18.8125 -22.546875 C 21.414062 -22.546875 23.390625 -22.054688 24.734375 -21.078125 C 26.078125 -20.109375 26.75 -18.507812 26.75 -16.28125 C 26.75 -14.488281 26.269531 -13.0625 25.3125 -12 C 24.351562 -10.945312 22.816406 -10.273438 20.703125 -9.984375 L 25.625 -2.359375 C 26.082031 -1.671875 26.414062 -1.191406 26.625 -0.921875 C 26.84375 -0.648438 27.195312 -0.515625 27.6875 -0.515625 L 27.765625 -0.515625 L 27.765625 0 L 21.59375 0 L 21.59375 -0.515625 C 22 -0.515625 22.242188 -0.550781 22.328125 -0.625 C 22.410156 -0.695312 22.453125 -0.789062 22.453125 -0.90625 C 22.453125 -1.019531 22.390625 -1.164062 22.265625 -1.34375 C 22.140625 -1.53125 21.988281 -1.769531 21.8125 -2.0625 L 16.96875 -9.765625 L 9.09375 -9.765625 L 9.09375 -1.546875 C 9.09375 -1.234375 9.160156 -0.984375 9.296875 -0.796875 C 9.441406 -0.609375 9.710938 -0.515625 10.109375 -0.515625 L 10.109375 0 L 4.453125 0 L 4.453125 -0.515625 C 4.859375 -0.515625 5.128906 -0.609375 5.265625 -0.796875 C 5.410156 -0.984375 5.484375 -1.234375 5.484375 -1.546875 L 5.484375 -21 C 5.484375 -21.3125 5.410156 -21.5625 5.265625 -21.75 C 5.128906 -21.9375 4.859375 -22.03125 4.453125 -22.03125 L 4.453125 -22.546875 Z M 18.8125 -22.546875 "/></g></g><g style="fill:#ffffff;fill-opacity:1;"><g transform="translate(94.494249, 263.105812)"><path style="stroke:none" d="M 9.25 -8.828125 L 18.5625 -8.828125 L 13.71875 -18.9375 Z M 16.96875 -22.546875 L 16.96875 -22.03125 C 16.6875 -22.03125 16.5 -21.976562 16.40625 -21.875 C 16.320312 -21.78125 16.28125 -21.660156 16.28125 -21.515625 C 16.28125 -21.347656 16.351562 -21.125 16.5 -20.84375 C 16.644531 -20.570312 16.832031 -20.195312 17.0625 -19.71875 L 24.90625 -3.46875 C 25.21875 -2.8125 25.472656 -2.28125 25.671875 -1.875 C 25.867188 -1.476562 26.007812 -1.210938 26.09375 -1.078125 C 26.269531 -0.816406 26.441406 -0.65625 26.609375 -0.59375 C 26.785156 -0.539062 27.015625 -0.515625 27.296875 -0.515625 L 27.296875 0 L 21.34375 0 L 21.34375 -0.515625 C 21.6875 -0.515625 21.914062 -0.5625 22.03125 -0.65625 C 22.144531 -0.757812 22.203125 -0.910156 22.203125 -1.109375 C 22.203125 -1.253906 22.15625 -1.421875 22.0625 -1.609375 C 21.976562 -1.796875 21.851562 -2.085938 21.6875 -2.484375 L 20.015625 -6 L 7.890625 -6 L 6.125 -1.890625 C 5.925781 -1.460938 5.828125 -1.160156 5.828125 -0.984375 C 5.828125 -0.671875 6.070312 -0.515625 6.5625 -0.515625 L 6.5625 0 L 1.28125 0 L 1.28125 -0.515625 C 1.476562 -0.515625 1.640625 -0.535156 1.765625 -0.578125 C 1.898438 -0.617188 2.03125 -0.710938 2.15625 -0.859375 C 2.289062 -1.003906 2.421875 -1.210938 2.546875 -1.484375 C 2.679688 -1.753906 2.859375 -2.128906 3.078125 -2.609375 L 10.75 -19.765625 C 11.070312 -20.421875 11.273438 -20.835938 11.359375 -21.015625 C 11.441406 -21.203125 11.484375 -21.367188 11.484375 -21.515625 C 11.484375 -21.660156 11.40625 -21.78125 11.25 -21.875 C 11.09375 -21.976562 10.914062 -22.03125 10.71875 -22.03125 L 10.71875 -22.546875 Z M 16.96875 -22.546875 "/></g></g><g style="fill:#ffffff;fill-opacity:1;"><g transform="translate(129.541168, 263.105812)"><path style="stroke:none" d="M 17.359375 -2.828125 C 19.703125 -2.828125 21.535156 -3.519531 22.859375 -4.90625 C 24.191406 -6.289062 24.859375 -8.410156 24.859375 -11.265625 C 24.859375 -14.035156 24.128906 -16.132812 22.671875 -17.5625 C 21.210938 -19 19.15625 -19.71875 16.5 -19.71875 L 8.234375 -19.71875 L 8.234375 -2.828125 Z M 16.96875 -22.546875 C 18.539062 -22.546875 20.019531 -22.285156 21.40625 -21.765625 C 22.789062 -21.253906 24 -20.519531 25.03125 -19.5625 C 26.0625 -18.601562 26.875 -17.421875 27.46875 -16.015625 C 28.070312 -14.617188 28.375 -13.035156 28.375 -11.265625 C 28.375 -9.554688 28.128906 -8.007812 27.640625 -6.625 C 27.160156 -5.238281 26.460938 -4.050781 25.546875 -3.0625 C 24.628906 -2.070312 23.515625 -1.3125 22.203125 -0.78125 C 20.890625 -0.257812 19.414062 0 17.78125 0 L 3.59375 0 L 3.59375 -0.515625 C 4 -0.515625 4.269531 -0.609375 4.40625 -0.796875 C 4.550781 -0.984375 4.625 -1.21875 4.625 -1.5 L 4.625 -21.046875 C 4.625 -21.273438 4.5625 -21.492188 4.4375 -21.703125 C 4.3125 -21.921875 4.03125 -22.03125 3.59375 -22.03125 L 3.59375 -22.546875 Z M 16.96875 -22.546875 "/></g></g><g style="fill:#ffffff;fill-opacity:1;"><g transform="translate(166.944362, 263.105812)"><path style="stroke:none" d="M 24.390625 -18.515625 L 23.875 -18.515625 C 23.875 -19.316406 23.316406 -19.71875 22.203125 -19.71875 L 8.828125 -19.71875 L 8.828125 -12.9375 L 17.578125 -12.9375 C 18.054688 -12.9375 18.457031 -13.019531 18.78125 -13.1875 C 19.113281 -13.363281 19.28125 -13.679688 19.28125 -14.140625 L 19.796875 -14.140625 L 19.796875 -8.953125 L 19.28125 -8.953125 C 19.28125 -9.378906 19.148438 -9.675781 18.890625 -9.84375 C 18.640625 -10.019531 18.210938 -10.109375 17.609375 -10.109375 L 8.828125 -10.109375 L 8.828125 -2.828125 L 23.1875 -2.828125 C 23.695312 -2.828125 24.109375 -2.925781 24.421875 -3.125 C 24.742188 -3.320312 24.90625 -3.707031 24.90625 -4.28125 L 25.421875 -4.28125 L 25.421875 0.9375 L 24.90625 0.9375 C 24.90625 0.570312 24.78125 0.320312 24.53125 0.1875 C 24.289062 0.0625 23.925781 0 23.4375 0 L 4.203125 0 L 4.203125 -0.515625 C 4.597656 -0.515625 4.867188 -0.609375 5.015625 -0.796875 C 5.160156 -0.984375 5.234375 -1.234375 5.234375 -1.546875 L 5.234375 -21 C 5.234375 -21.28125 5.164062 -21.519531 5.03125 -21.71875 C 4.90625 -21.925781 4.628906 -22.03125 4.203125 -22.03125 L 4.203125 -22.546875 L 21.90625 -22.546875 C 22.675781 -22.546875 23.195312 -22.585938 23.46875 -22.671875 C 23.738281 -22.753906 23.875 -23 23.875 -23.40625 L 24.390625 -23.40625 Z M 24.390625 -18.515625 "/></g></g><g style="fill:#ffffff;fill-opacity:1;"><g transform="translate(201.991281, 263.105812)"><path style="stroke:none" d="M 9.6875 -22.546875 L 9.6875 -22.03125 C 9.257812 -22.03125 8.976562 -21.921875 8.84375 -21.703125 C 8.71875 -21.492188 8.65625 -21.203125 8.65625 -20.828125 L 8.65625 -2.828125 L 23.0625 -2.828125 C 24.0625 -2.828125 24.5625 -3.253906 24.5625 -4.109375 L 25.078125 -4.109375 L 25.078125 0.9375 L 24.5625 0.9375 C 24.5625 0.570312 24.4375 0.320312 24.1875 0.1875 C 23.945312 0.0625 23.582031 0 23.09375 0 L 4.03125 0 L 4.03125 -0.515625 C 4.425781 -0.515625 4.695312 -0.609375 4.84375 -0.796875 C 4.988281 -0.984375 5.0625 -1.234375 5.0625 -1.546875 L 5.0625 -21 C 5.0625 -21.28125 4.992188 -21.519531 4.859375 -21.71875 C 4.734375 -21.925781 4.457031 -22.03125 4.03125 -22.03125 L 4.03125 -22.546875 Z M 9.6875 -22.546875 "/></g></g><g style="fill:#ffffff;fill-opacity:1;"><g transform="translate(234.63908, 263.105812)"><path style="stroke:none" d="M 7.5 -22.546875 L 7.5 -22.03125 C 6.78125 -21.96875 6.421875 -21.765625 6.421875 -21.421875 C 6.421875 -21.316406 6.484375 -21.179688 6.609375 -21.015625 C 6.742188 -20.859375 6.925781 -20.625 7.15625 -20.3125 L 13.078125 -12.25 L 19.078125 -20.234375 C 19.359375 -20.628906 19.566406 -20.910156 19.703125 -21.078125 C 19.847656 -21.253906 19.921875 -21.414062 19.921875 -21.5625 C 19.921875 -21.675781 19.847656 -21.78125 19.703125 -21.875 C 19.566406 -21.976562 19.328125 -22.03125 18.984375 -22.03125 L 18.984375 -22.546875 L 25.15625 -22.546875 L 25.15625 -22.03125 C 24.757812 -22.03125 24.414062 -21.894531 24.125 -21.625 C 23.84375 -21.351562 23.414062 -20.832031 22.84375 -20.0625 L 14.75 -9.34375 L 14.75 -1.546875 C 14.75 -1.234375 14.816406 -0.984375 14.953125 -0.796875 C 15.097656 -0.609375 15.367188 -0.515625 15.765625 -0.515625 L 15.765625 0 L 10.109375 0 L 10.109375 -0.515625 C 10.515625 -0.515625 10.785156 -0.609375 10.921875 -0.796875 C 11.066406 -0.984375 11.140625 -1.234375 11.140625 -1.546875 L 11.140625 -9.34375 L 2.875 -20.578125 C 2.46875 -21.117188 2.144531 -21.492188 1.90625 -21.703125 C 1.664062 -21.921875 1.375 -22.03125 1.03125 -22.03125 L 1.03125 -22.546875 Z M 7.5 -22.546875 "/></g></g><g style="fill:#ffffff;fill-opacity:1;"><g transform="translate(267.286879, 263.105812)"><path style="stroke:none" d="M 11.703125 -22.546875 L 11.703125 -22.03125 C 11.359375 -22.03125 11.132812 -21.992188 11.03125 -21.921875 C 10.9375 -21.847656 10.890625 -21.738281 10.890625 -21.59375 C 10.890625 -21.476562 10.929688 -21.363281 11.015625 -21.25 C 11.097656 -21.144531 11.269531 -20.945312 11.53125 -20.65625 L 24.6875 -5.65625 L 24.765625 -5.65625 L 24.765625 -21 C 24.765625 -21.3125 24.691406 -21.5625 24.546875 -21.75 C 24.410156 -21.9375 24.144531 -22.03125 23.75 -22.03125 L 23.75 -22.546875 L 28.890625 -22.546875 L 28.890625 -22.03125 C 28.484375 -22.03125 28.207031 -21.9375 28.0625 -21.75 C 27.925781 -21.5625 27.859375 -21.3125 27.859375 -21 L 27.859375 -1.546875 C 27.859375 -1.234375 27.925781 -0.984375 28.0625 -0.796875 C 28.207031 -0.609375 28.484375 -0.515625 28.890625 -0.515625 L 28.890625 0 L 23.40625 0 L 23.40625 -0.515625 C 23.976562 -0.515625 24.265625 -0.644531 24.265625 -0.90625 C 24.265625 -1.039062 24.207031 -1.179688 24.09375 -1.328125 C 23.976562 -1.472656 23.789062 -1.703125 23.53125 -2.015625 L 8.578125 -19.03125 L 8.578125 -1.546875 C 8.578125 -1.234375 8.644531 -0.984375 8.78125 -0.796875 C 8.925781 -0.609375 9.195312 -0.515625 9.59375 -0.515625 L 9.59375 0 L 4.453125 0 L 4.453125 -0.515625 C 4.859375 -0.515625 5.128906 -0.609375 5.265625 -0.796875 C 5.410156 -0.984375 5.484375 -1.234375 5.484375 -1.546875 L 5.484375 -21 C 5.484375 -21.3125 5.410156 -21.5625 5.265625 -21.75 C 5.128906 -21.9375 4.859375 -22.03125 4.453125 -22.03125 L 4.453125 -22.546875 Z M 11.703125 -22.546875 "/></g></g><g style="fill:#ffffff;fill-opacity:1;"><g transform="translate(307.089194, 263.105812)"><path style="stroke:none" d="M 15.90625 -22.796875 C 16.90625 -22.796875 17.847656 -22.722656 18.734375 -22.578125 C 19.617188 -22.441406 20.414062 -22.28125 21.125 -22.09375 C 21.84375 -21.90625 22.472656 -21.703125 23.015625 -21.484375 C 23.554688 -21.273438 23.984375 -21.113281 24.296875 -21 C 24.585938 -20.882812 24.859375 -20.769531 25.109375 -20.65625 C 25.367188 -20.539062 25.597656 -20.484375 25.796875 -20.484375 C 25.910156 -20.484375 26.007812 -20.503906 26.09375 -20.546875 C 26.1875 -20.585938 26.289062 -20.695312 26.40625 -20.875 L 26.921875 -20.53125 L 24.265625 -15.9375 L 23.703125 -16.203125 C 23.753906 -16.285156 23.800781 -16.363281 23.84375 -16.4375 C 23.894531 -16.507812 23.921875 -16.617188 23.921875 -16.765625 C 23.921875 -17.015625 23.695312 -17.316406 23.25 -17.671875 C 22.8125 -18.035156 22.210938 -18.378906 21.453125 -18.703125 C 20.691406 -19.035156 19.816406 -19.316406 18.828125 -19.546875 C 17.847656 -19.773438 16.816406 -19.890625 15.734375 -19.890625 C 14.390625 -19.890625 13.140625 -19.703125 11.984375 -19.328125 C 10.828125 -18.953125 9.804688 -18.398438 8.921875 -17.671875 C 8.035156 -16.953125 7.34375 -16.066406 6.84375 -15.015625 C 6.34375 -13.972656 6.09375 -12.78125 6.09375 -11.4375 C 6.09375 -10.15625 6.375 -8.96875 6.9375 -7.875 C 7.507812 -6.789062 8.28125 -5.863281 9.25 -5.09375 C 10.226562 -4.320312 11.335938 -3.722656 12.578125 -3.296875 C 13.816406 -2.867188 15.109375 -2.65625 16.453125 -2.65625 C 17.742188 -2.65625 18.898438 -2.863281 19.921875 -3.28125 C 20.953125 -3.695312 21.738281 -4.085938 22.28125 -4.453125 C 22.769531 -4.765625 23.210938 -5.117188 23.609375 -5.515625 C 24.015625 -5.921875 24.21875 -6.28125 24.21875 -6.59375 C 24.21875 -6.707031 24.195312 -6.820312 24.15625 -6.9375 C 24.113281 -7.050781 24.0625 -7.140625 24 -7.203125 L 24.5625 -7.546875 L 27.734375 -3.421875 L 27.171875 -3.046875 C 27.003906 -3.242188 26.804688 -3.34375 26.578125 -3.34375 C 26.429688 -3.34375 26.265625 -3.265625 26.078125 -3.109375 C 25.890625 -2.953125 25.613281 -2.742188 25.25 -2.484375 C 23.957031 -1.546875 22.546875 -0.851562 21.015625 -0.40625 C 19.492188 0.03125 17.847656 0.25 16.078125 0.25 C 14.097656 0.25 12.285156 -0.046875 10.640625 -0.640625 C 9.003906 -1.242188 7.585938 -2.078125 6.390625 -3.140625 C 5.191406 -4.210938 4.253906 -5.484375 3.578125 -6.953125 C 2.910156 -8.429688 2.578125 -10.054688 2.578125 -11.828125 C 2.578125 -13.316406 2.894531 -14.722656 3.53125 -16.046875 C 4.175781 -17.378906 5.078125 -18.546875 6.234375 -19.546875 C 7.390625 -20.546875 8.789062 -21.335938 10.4375 -21.921875 C 12.082031 -22.503906 13.90625 -22.796875 15.90625 -22.796875 Z M 15.90625 -22.796875 "/></g></g><g style="fill:#ffffff;fill-opacity:1;"><g transform="translate(19.127922, 297.400465)"><path style="stroke:none" d="M 4.875 -11.046875 L 4.875 -10.796875 C 4.675781 -10.796875 4.539062 -10.75 4.46875 -10.65625 C 4.40625 -10.5625 4.375 -10.441406 4.375 -10.296875 L 4.375 -0.75 C 4.375 -0.601562 4.40625 -0.484375 4.46875 -0.390625 C 4.539062 -0.296875 4.675781 -0.25 4.875 -0.25 L 4.875 0 L 2.09375 0 L 2.09375 -0.25 C 2.289062 -0.25 2.425781 -0.296875 2.5 -0.390625 C 2.570312 -0.484375 2.609375 -0.601562 2.609375 -0.75 L 2.609375 -10.296875 C 2.609375 -10.441406 2.570312 -10.5625 2.5 -10.65625 C 2.425781 -10.75 2.289062 -10.796875 2.09375 -10.796875 L 2.09375 -11.046875 Z M 4.875 -11.046875 "/></g></g><g style="fill:#ffffff;fill-opacity:1;"><g transform="translate(24.839954, 297.400465)"><path style="stroke:none" d="M 5.734375 -11.046875 L 5.734375 -10.796875 C 5.566406 -10.796875 5.457031 -10.773438 5.40625 -10.734375 C 5.351562 -10.703125 5.328125 -10.648438 5.328125 -10.578125 C 5.328125 -10.523438 5.347656 -10.46875 5.390625 -10.40625 C 5.429688 -10.351562 5.519531 -10.257812 5.65625 -10.125 L 12.09375 -2.765625 L 12.140625 -2.765625 L 12.140625 -10.296875 C 12.140625 -10.441406 12.101562 -10.5625 12.03125 -10.65625 C 11.957031 -10.75 11.828125 -10.796875 11.640625 -10.796875 L 11.640625 -11.046875 L 14.15625 -11.046875 L 14.15625 -10.796875 C 13.957031 -10.796875 13.820312 -10.75 13.75 -10.65625 C 13.6875 -10.5625 13.65625 -10.441406 13.65625 -10.296875 L 13.65625 -0.75 C 13.65625 -0.601562 13.6875 -0.484375 13.75 -0.390625 C 13.820312 -0.296875 13.957031 -0.25 14.15625 -0.25 L 14.15625 0 L 11.46875 0 L 11.46875 -0.25 C 11.75 -0.25 11.890625 -0.3125 11.890625 -0.4375 C 11.890625 -0.507812 11.859375 -0.578125 11.796875 -0.640625 C 11.742188 -0.710938 11.65625 -0.828125 11.53125 -0.984375 L 4.203125 -9.328125 L 4.203125 -0.75 C 4.203125 -0.601562 4.234375 -0.484375 4.296875 -0.390625 C 4.367188 -0.296875 4.503906 -0.25 4.703125 -0.25 L 4.703125 0 L 2.1875 0 L 2.1875 -0.25 C 2.382812 -0.25 2.515625 -0.296875 2.578125 -0.390625 C 2.648438 -0.484375 2.6875 -0.601562 2.6875 -0.75 L 2.6875 -10.296875 C 2.6875 -10.441406 2.648438 -10.5625 2.578125 -10.65625 C 2.515625 -10.75 2.382812 -10.796875 2.1875 -10.796875 L 2.1875 -11.046875 Z M 5.734375 -11.046875 "/></g></g><g style="fill:#ffffff;fill-opacity:1;"><g transform="translate(39.897025, 297.400465)"><path style="stroke:none" d="M 5.734375 -11.046875 L 5.734375 -10.796875 C 5.566406 -10.796875 5.457031 -10.773438 5.40625 -10.734375 C 5.351562 -10.703125 5.328125 -10.648438 5.328125 -10.578125 C 5.328125 -10.523438 5.347656 -10.46875 5.390625 -10.40625 C 5.429688 -10.351562 5.519531 -10.257812 5.65625 -10.125 L 12.09375 -2.765625 L 12.140625 -2.765625 L 12.140625 -10.296875 C 12.140625 -10.441406 12.101562 -10.5625 12.03125 -10.65625 C 11.957031 -10.75 11.828125 -10.796875 11.640625 -10.796875 L 11.640625 -11.046875 L 14.15625 -11.046875 L 14.15625 -10.796875 C 13.957031 -10.796875 13.820312 -10.75 13.75 -10.65625 C 13.6875 -10.5625 13.65625 -10.441406 13.65625 -10.296875 L 13.65625 -0.75 C 13.65625 -0.601562 13.6875 -0.484375 13.75 -0.390625 C 13.820312 -0.296875 13.957031 -0.25 14.15625 -0.25 L 14.15625 0 L 11.46875 0 L 11.46875 -0.25 C 11.75 -0.25 11.890625 -0.3125 11.890625 -0.4375 C 11.890625 -0.507812 11.859375 -0.578125 11.796875 -0.640625 C 11.742188 -0.710938 11.65625 -0.828125 11.53125 -0.984375 L 4.203125 -9.328125 L 4.203125 -0.75 C 4.203125 -0.601562 4.234375 -0.484375 4.296875 -0.390625 C 4.367188 -0.296875 4.503906 -0.25 4.703125 -0.25 L 4.703125 0 L 2.1875 0 L 2.1875 -0.25 C 2.382812 -0.25 2.515625 -0.296875 2.578125 -0.390625 C 2.648438 -0.484375 2.6875 -0.601562 2.6875 -0.75 L 2.6875 -10.296875 C 2.6875 -10.441406 2.648438 -10.5625 2.578125 -10.65625 C 2.515625 -10.75 2.382812 -10.796875 2.1875 -10.796875 L 2.1875 -11.046875 Z M 5.734375 -11.046875 "/></g></g><g style="fill:#ffffff;fill-opacity:1;"><g transform="translate(54.954095, 297.400465)"><path style="stroke:none" d="M 3.109375 -5.515625 C 3.109375 -4.191406 3.503906 -3.15625 4.296875 -2.40625 C 5.085938 -1.664062 6.179688 -1.296875 7.578125 -1.296875 C 8.984375 -1.296875 10.078125 -1.660156 10.859375 -2.390625 C 11.648438 -3.128906 12.046875 -4.171875 12.046875 -5.515625 C 12.046875 -6.835938 11.65625 -7.875 10.875 -8.625 C 10.101562 -9.375 9 -9.75 7.5625 -9.75 C 6.15625 -9.75 5.0625 -9.375 4.28125 -8.625 C 3.5 -7.875 3.109375 -6.835938 3.109375 -5.515625 Z M 7.578125 -11.171875 C 8.503906 -11.171875 9.351562 -11.046875 10.125 -10.796875 C 10.90625 -10.546875 11.570312 -10.175781 12.125 -9.6875 C 12.675781 -9.207031 13.109375 -8.613281 13.421875 -7.90625 C 13.742188 -7.207031 13.90625 -6.410156 13.90625 -5.515625 C 13.90625 -4.648438 13.753906 -3.867188 13.453125 -3.171875 C 13.148438 -2.472656 12.722656 -1.878906 12.171875 -1.390625 C 11.617188 -0.898438 10.953125 -0.523438 10.171875 -0.265625 C 9.398438 -0.00390625 8.535156 0.125 7.578125 0.125 C 6.628906 0.125 5.765625 -0.00390625 4.984375 -0.265625 C 4.210938 -0.535156 3.546875 -0.914062 2.984375 -1.40625 C 2.429688 -1.894531 2.003906 -2.484375 1.703125 -3.171875 C 1.410156 -3.867188 1.265625 -4.648438 1.265625 -5.515625 C 1.265625 -6.410156 1.414062 -7.207031 1.71875 -7.90625 C 2.03125 -8.613281 2.460938 -9.207031 3.015625 -9.6875 C 3.578125 -10.175781 4.242188 -10.546875 5.015625 -10.796875 C 5.796875 -11.046875 6.648438 -11.171875 7.578125 -11.171875 Z M 7.578125 -11.171875 "/></g></g><g style="fill:#ffffff;fill-opacity:1;"><g transform="translate(68.83516, 297.400465)"><path style="stroke:none" d="M 3.296875 -11.046875 L 3.296875 -10.796875 C 2.929688 -10.796875 2.75 -10.691406 2.75 -10.484375 C 2.75 -10.410156 2.757812 -10.34375 2.78125 -10.28125 C 2.8125 -10.21875 2.863281 -10.125 2.9375 -10 L 6.53125 -2.015625 L 9.96875 -10.078125 C 10.050781 -10.265625 10.09375 -10.390625 10.09375 -10.453125 C 10.09375 -10.535156 10.054688 -10.613281 9.984375 -10.6875 C 9.921875 -10.757812 9.78125 -10.796875 9.5625 -10.796875 L 9.5625 -11.046875 L 12.53125 -11.046875 L 12.53125 -10.796875 C 12.363281 -10.796875 12.210938 -10.75 12.078125 -10.65625 C 11.953125 -10.5625 11.828125 -10.367188 11.703125 -10.078125 L 7.875 -1.265625 C 7.78125 -1.035156 7.707031 -0.863281 7.65625 -0.75 C 7.601562 -0.644531 7.578125 -0.5625 7.578125 -0.5 C 7.578125 -0.332031 7.738281 -0.25 8.0625 -0.25 L 8.0625 0 L 4.84375 0 L 4.84375 -0.25 C 5.1875 -0.25 5.359375 -0.34375 5.359375 -0.53125 C 5.359375 -0.59375 5.347656 -0.648438 5.328125 -0.703125 C 5.316406 -0.765625 5.285156 -0.851562 5.234375 -0.96875 L 1.140625 -10.03125 C 0.992188 -10.34375 0.863281 -10.546875 0.75 -10.640625 C 0.644531 -10.742188 0.484375 -10.796875 0.265625 -10.796875 L 0.265625 -11.046875 Z M 3.296875 -11.046875 "/></g></g><g style="fill:#ffffff;fill-opacity:1;"><g transform="translate(78.831218, 297.400465)"><path style="stroke:none" d="M 4.53125 -4.328125 L 9.09375 -4.328125 L 6.71875 -9.28125 Z M 8.3125 -11.046875 L 8.3125 -10.796875 C 8.175781 -10.796875 8.085938 -10.769531 8.046875 -10.71875 C 8.003906 -10.664062 7.984375 -10.609375 7.984375 -10.546875 C 7.984375 -10.460938 8.015625 -10.351562 8.078125 -10.21875 C 8.148438 -10.082031 8.242188 -9.894531 8.359375 -9.65625 L 12.203125 -1.703125 C 12.359375 -1.378906 12.484375 -1.117188 12.578125 -0.921875 C 12.671875 -0.722656 12.738281 -0.59375 12.78125 -0.53125 C 12.875 -0.40625 12.960938 -0.328125 13.046875 -0.296875 C 13.128906 -0.265625 13.238281 -0.25 13.375 -0.25 L 13.375 0 L 10.453125 0 L 10.453125 -0.25 C 10.617188 -0.25 10.726562 -0.273438 10.78125 -0.328125 C 10.84375 -0.378906 10.875 -0.453125 10.875 -0.546875 C 10.875 -0.617188 10.851562 -0.695312 10.8125 -0.78125 C 10.769531 -0.875 10.707031 -1.019531 10.625 -1.21875 L 9.8125 -2.9375 L 3.859375 -2.9375 L 3 -0.921875 C 2.90625 -0.710938 2.859375 -0.566406 2.859375 -0.484375 C 2.859375 -0.328125 2.976562 -0.25 3.21875 -0.25 L 3.21875 0 L 0.625 0 L 0.625 -0.25 C 0.726562 -0.25 0.8125 -0.257812 0.875 -0.28125 C 0.9375 -0.300781 1 -0.347656 1.0625 -0.421875 C 1.125 -0.492188 1.1875 -0.59375 1.25 -0.71875 C 1.3125 -0.851562 1.398438 -1.039062 1.515625 -1.28125 L 5.265625 -9.6875 C 5.421875 -10 5.519531 -10.203125 5.5625 -10.296875 C 5.601562 -10.390625 5.625 -10.472656 5.625 -10.546875 C 5.625 -10.609375 5.582031 -10.664062 5.5 -10.71875 C 5.425781 -10.769531 5.34375 -10.796875 5.25 -10.796875 L 5.25 -11.046875 Z M 8.3125 -11.046875 "/></g></g><g style="fill:#ffffff;fill-opacity:1;"><g transform="translate(90.003272, 297.400465)"><path style="stroke:none" d="M 1.015625 -11.59375 L 1.265625 -11.59375 C 1.265625 -11.394531 1.332031 -11.253906 1.46875 -11.171875 C 1.613281 -11.085938 1.78125 -11.046875 1.96875 -11.046875 L 10.84375 -11.046875 C 11.3125 -11.046875 11.546875 -11.226562 11.546875 -11.59375 L 11.796875 -11.59375 L 11.796875 -9.109375 L 11.546875 -9.109375 C 11.546875 -9.335938 11.484375 -9.484375 11.359375 -9.546875 C 11.242188 -9.617188 11.070312 -9.65625 10.84375 -9.65625 L 7.28125 -9.65625 L 7.28125 -0.75 C 7.28125 -0.601562 7.316406 -0.484375 7.390625 -0.390625 C 7.460938 -0.296875 7.597656 -0.25 7.796875 -0.25 L 7.796875 0 L 5.015625 0 L 5.015625 -0.25 C 5.347656 -0.25 5.515625 -0.414062 5.515625 -0.75 L 5.515625 -9.65625 L 2 -9.65625 C 1.757812 -9.65625 1.578125 -9.617188 1.453125 -9.546875 C 1.328125 -9.484375 1.265625 -9.335938 1.265625 -9.109375 L 1.015625 -9.109375 Z M 1.015625 -11.59375 "/></g></g><g style="fill:#ffffff;fill-opacity:1;"><g transform="translate(101.553335, 297.400465)"><path style="stroke:none" d="M 4.875 -11.046875 L 4.875 -10.796875 C 4.675781 -10.796875 4.539062 -10.75 4.46875 -10.65625 C 4.40625 -10.5625 4.375 -10.441406 4.375 -10.296875 L 4.375 -0.75 C 4.375 -0.601562 4.40625 -0.484375 4.46875 -0.390625 C 4.539062 -0.296875 4.675781 -0.25 4.875 -0.25 L 4.875 0 L 2.09375 0 L 2.09375 -0.25 C 2.289062 -0.25 2.425781 -0.296875 2.5 -0.390625 C 2.570312 -0.484375 2.609375 -0.601562 2.609375 -0.75 L 2.609375 -10.296875 C 2.609375 -10.441406 2.570312 -10.5625 2.5 -10.65625 C 2.425781 -10.75 2.289062 -10.796875 2.09375 -10.796875 L 2.09375 -11.046875 Z M 4.875 -11.046875 "/></g></g><g style="fill:#ffffff;fill-opacity:1;"><g transform="translate(107.265367, 297.400465)"><path style="stroke:none" d="M 3.109375 -5.515625 C 3.109375 -4.191406 3.503906 -3.15625 4.296875 -2.40625 C 5.085938 -1.664062 6.179688 -1.296875 7.578125 -1.296875 C 8.984375 -1.296875 10.078125 -1.660156 10.859375 -2.390625 C 11.648438 -3.128906 12.046875 -4.171875 12.046875 -5.515625 C 12.046875 -6.835938 11.65625 -7.875 10.875 -8.625 C 10.101562 -9.375 9 -9.75 7.5625 -9.75 C 6.15625 -9.75 5.0625 -9.375 4.28125 -8.625 C 3.5 -7.875 3.109375 -6.835938 3.109375 -5.515625 Z M 7.578125 -11.171875 C 8.503906 -11.171875 9.351562 -11.046875 10.125 -10.796875 C 10.90625 -10.546875 11.570312 -10.175781 12.125 -9.6875 C 12.675781 -9.207031 13.109375 -8.613281 13.421875 -7.90625 C 13.742188 -7.207031 13.90625 -6.410156 13.90625 -5.515625 C 13.90625 -4.648438 13.753906 -3.867188 13.453125 -3.171875 C 13.148438 -2.472656 12.722656 -1.878906 12.171875 -1.390625 C 11.617188 -0.898438 10.953125 -0.523438 10.171875 -0.265625 C 9.398438 -0.00390625 8.535156 0.125 7.578125 0.125 C 6.628906 0.125 5.765625 -0.00390625 4.984375 -0.265625 C 4.210938 -0.535156 3.546875 -0.914062 2.984375 -1.40625 C 2.429688 -1.894531 2.003906 -2.484375 1.703125 -3.171875 C 1.410156 -3.867188 1.265625 -4.648438 1.265625 -5.515625 C 1.265625 -6.410156 1.414062 -7.207031 1.71875 -7.90625 C 2.03125 -8.613281 2.460938 -9.207031 3.015625 -9.6875 C 3.578125 -10.175781 4.242188 -10.546875 5.015625 -10.796875 C 5.796875 -11.046875 6.648438 -11.171875 7.578125 -11.171875 Z M 7.578125 -11.171875 "/></g></g><g style="fill:#ffffff;fill-opacity:1;"><g transform="translate(121.146431, 297.400465)"><path style="stroke:none" d="M 5.734375 -11.046875 L 5.734375 -10.796875 C 5.566406 -10.796875 5.457031 -10.773438 5.40625 -10.734375 C 5.351562 -10.703125 5.328125 -10.648438 5.328125 -10.578125 C 5.328125 -10.523438 5.347656 -10.46875 5.390625 -10.40625 C 5.429688 -10.351562 5.519531 -10.257812 5.65625 -10.125 L 12.09375 -2.765625 L 12.140625 -2.765625 L 12.140625 -10.296875 C 12.140625 -10.441406 12.101562 -10.5625 12.03125 -10.65625 C 11.957031 -10.75 11.828125 -10.796875 11.640625 -10.796875 L 11.640625 -11.046875 L 14.15625 -11.046875 L 14.15625 -10.796875 C 13.957031 -10.796875 13.820312 -10.75 13.75 -10.65625 C 13.6875 -10.5625 13.65625 -10.441406 13.65625 -10.296875 L 13.65625 -0.75 C 13.65625 -0.601562 13.6875 -0.484375 13.75 -0.390625 C 13.820312 -0.296875 13.957031 -0.25 14.15625 -0.25 L 14.15625 0 L 11.46875 0 L 11.46875 -0.25 C 11.75 -0.25 11.890625 -0.3125 11.890625 -0.4375 C 11.890625 -0.507812 11.859375 -0.578125 11.796875 -0.640625 C 11.742188 -0.710938 11.65625 -0.828125 11.53125 -0.984375 L 4.203125 -9.328125 L 4.203125 -0.75 C 4.203125 -0.601562 4.234375 -0.484375 4.296875 -0.390625 C 4.367188 -0.296875 4.503906 -0.25 4.703125 -0.25 L 4.703125 0 L 2.1875 0 L 2.1875 -0.25 C 2.382812 -0.25 2.515625 -0.296875 2.578125 -0.390625 C 2.648438 -0.484375 2.6875 -0.601562 2.6875 -0.75 L 2.6875 -10.296875 C 2.6875 -10.441406 2.648438 -10.5625 2.578125 -10.65625 C 2.515625 -10.75 2.382812 -10.796875 2.1875 -10.796875 L 2.1875 -11.046875 Z M 5.734375 -11.046875 "/></g></g><g style="fill:#ffffff;fill-opacity:1;"><g transform="translate(136.203502, 297.400465)"><path style="stroke:none" d=""/></g></g><g style="fill:#ffffff;fill-opacity:1;"><g transform="translate(141.348536, 297.400465)"><path style="stroke:none" d="M 4.875 -11.046875 L 4.875 -10.796875 C 4.675781 -10.796875 4.539062 -10.75 4.46875 -10.65625 C 4.40625 -10.5625 4.375 -10.441406 4.375 -10.296875 L 4.375 -0.75 C 4.375 -0.601562 4.40625 -0.484375 4.46875 -0.390625 C 4.539062 -0.296875 4.675781 -0.25 4.875 -0.25 L 4.875 0 L 2.09375 0 L 2.09375 -0.25 C 2.289062 -0.25 2.425781 -0.296875 2.5 -0.390625 C 2.570312 -0.484375 2.609375 -0.601562 2.609375 -0.75 L 2.609375 -10.296875 C 2.609375 -10.441406 2.570312 -10.5625 2.5 -10.65625 C 2.425781 -10.75 2.289062 -10.796875 2.09375 -10.796875 L 2.09375 -11.046875 Z M 4.875 -11.046875 "/></g></g><g style="fill:#ffffff;fill-opacity:1;"><g transform="translate(147.060568, 297.400465)"><path style="stroke:none" d="M 5.734375 -11.046875 L 5.734375 -10.796875 C 5.566406 -10.796875 5.457031 -10.773438 5.40625 -10.734375 C 5.351562 -10.703125 5.328125 -10.648438 5.328125 -10.578125 C 5.328125 -10.523438 5.347656 -10.46875 5.390625 -10.40625 C 5.429688 -10.351562 5.519531 -10.257812 5.65625 -10.125 L 12.09375 -2.765625 L 12.140625 -2.765625 L 12.140625 -10.296875 C 12.140625 -10.441406 12.101562 -10.5625 12.03125 -10.65625 C 11.957031 -10.75 11.828125 -10.796875 11.640625 -10.796875 L 11.640625 -11.046875 L 14.15625 -11.046875 L 14.15625 -10.796875 C 13.957031 -10.796875 13.820312 -10.75 13.75 -10.65625 C 13.6875 -10.5625 13.65625 -10.441406 13.65625 -10.296875 L 13.65625 -0.75 C 13.65625 -0.601562 13.6875 -0.484375 13.75 -0.390625 C 13.820312 -0.296875 13.957031 -0.25 14.15625 -0.25 L 14.15625 0 L 11.46875 0 L 11.46875 -0.25 C 11.75 -0.25 11.890625 -0.3125 11.890625 -0.4375 C 11.890625 -0.507812 11.859375 -0.578125 11.796875 -0.640625 C 11.742188 -0.710938 11.65625 -0.828125 11.53125 -0.984375 L 4.203125 -9.328125 L 4.203125 -0.75 C 4.203125 -0.601562 4.234375 -0.484375 4.296875 -0.390625 C 4.367188 -0.296875 4.503906 -0.25 4.703125 -0.25 L 4.703125 0 L 2.1875 0 L 2.1875 -0.25 C 2.382812 -0.25 2.515625 -0.296875 2.578125 -0.390625 C 2.648438 -0.484375 2.6875 -0.601562 2.6875 -0.75 L 2.6875 -10.296875 C 2.6875 -10.441406 2.648438 -10.5625 2.578125 -10.65625 C 2.515625 -10.75 2.382812 -10.796875 2.1875 -10.796875 L 2.1875 -11.046875 Z M 5.734375 -11.046875 "/></g></g><g style="fill:#ffffff;fill-opacity:1;"><g transform="translate(162.117639, 297.400465)"><path style="stroke:none" d=""/></g></g><g style="fill:#ffffff;fill-opacity:1;"><g transform="translate(167.262673, 297.400465)"><path style="stroke:none" d="M 11.953125 -9.078125 L 11.703125 -9.078125 C 11.703125 -9.460938 11.425781 -9.65625 10.875 -9.65625 L 4.328125 -9.65625 L 4.328125 -6.34375 L 8.609375 -6.34375 C 8.847656 -6.34375 9.046875 -6.382812 9.203125 -6.46875 C 9.367188 -6.550781 9.453125 -6.707031 9.453125 -6.9375 L 9.703125 -6.9375 L 9.703125 -4.390625 L 9.453125 -4.390625 C 9.453125 -4.597656 9.390625 -4.742188 9.265625 -4.828125 C 9.140625 -4.910156 8.925781 -4.953125 8.625 -4.953125 L 4.328125 -4.953125 L 4.328125 -1.390625 L 11.359375 -1.390625 C 11.609375 -1.390625 11.8125 -1.4375 11.96875 -1.53125 C 12.125 -1.632812 12.203125 -1.820312 12.203125 -2.09375 L 12.453125 -2.09375 L 12.453125 0.46875 L 12.203125 0.46875 C 12.203125 0.28125 12.140625 0.15625 12.015625 0.09375 C 11.898438 0.03125 11.722656 0 11.484375 0 L 2.0625 0 L 2.0625 -0.25 C 2.257812 -0.25 2.390625 -0.296875 2.453125 -0.390625 C 2.523438 -0.484375 2.5625 -0.601562 2.5625 -0.75 L 2.5625 -10.296875 C 2.5625 -10.429688 2.53125 -10.546875 2.46875 -10.640625 C 2.40625 -10.742188 2.269531 -10.796875 2.0625 -10.796875 L 2.0625 -11.046875 L 10.734375 -11.046875 C 11.109375 -11.046875 11.363281 -11.066406 11.5 -11.109375 C 11.632812 -11.148438 11.703125 -11.269531 11.703125 -11.46875 L 11.953125 -11.46875 Z M 11.953125 -9.078125 "/></g></g><g style="fill:#ffffff;fill-opacity:1;"><g transform="translate(179.988731, 297.400465)"><path style="stroke:none" d="M 3.296875 -11.046875 L 3.296875 -10.796875 C 2.929688 -10.796875 2.75 -10.691406 2.75 -10.484375 C 2.75 -10.410156 2.757812 -10.34375 2.78125 -10.28125 C 2.8125 -10.21875 2.863281 -10.125 2.9375 -10 L 6.53125 -2.015625 L 9.96875 -10.078125 C 10.050781 -10.265625 10.09375 -10.390625 10.09375 -10.453125 C 10.09375 -10.535156 10.054688 -10.613281 9.984375 -10.6875 C 9.921875 -10.757812 9.78125 -10.796875 9.5625 -10.796875 L 9.5625 -11.046875 L 12.53125 -11.046875 L 12.53125 -10.796875 C 12.363281 -10.796875 12.210938 -10.75 12.078125 -10.65625 C 11.953125 -10.5625 11.828125 -10.367188 11.703125 -10.078125 L 7.875 -1.265625 C 7.78125 -1.035156 7.707031 -0.863281 7.65625 -0.75 C 7.601562 -0.644531 7.578125 -0.5625 7.578125 -0.5 C 7.578125 -0.332031 7.738281 -0.25 8.0625 -0.25 L 8.0625 0 L 4.84375 0 L 4.84375 -0.25 C 5.1875 -0.25 5.359375 -0.34375 5.359375 -0.53125 C 5.359375 -0.59375 5.347656 -0.648438 5.328125 -0.703125 C 5.316406 -0.765625 5.285156 -0.851562 5.234375 -0.96875 L 1.140625 -10.03125 C 0.992188 -10.34375 0.863281 -10.546875 0.75 -10.640625 C 0.644531 -10.742188 0.484375 -10.796875 0.265625 -10.796875 L 0.265625 -11.046875 Z M 3.296875 -11.046875 "/></g></g><g style="fill:#ffffff;fill-opacity:1;"><g transform="translate(191.538794, 297.400465)"><path style="stroke:none" d="M 11.953125 -9.078125 L 11.703125 -9.078125 C 11.703125 -9.460938 11.425781 -9.65625 10.875 -9.65625 L 4.328125 -9.65625 L 4.328125 -6.34375 L 8.609375 -6.34375 C 8.847656 -6.34375 9.046875 -6.382812 9.203125 -6.46875 C 9.367188 -6.550781 9.453125 -6.707031 9.453125 -6.9375 L 9.703125 -6.9375 L 9.703125 -4.390625 L 9.453125 -4.390625 C 9.453125 -4.597656 9.390625 -4.742188 9.265625 -4.828125 C 9.140625 -4.910156 8.925781 -4.953125 8.625 -4.953125 L 4.328125 -4.953125 L 4.328125 -1.390625 L 11.359375 -1.390625 C 11.609375 -1.390625 11.8125 -1.4375 11.96875 -1.53125 C 12.125 -1.632812 12.203125 -1.820312 12.203125 -2.09375 L 12.453125 -2.09375 L 12.453125 0.46875 L 12.203125 0.46875 C 12.203125 0.28125 12.140625 0.15625 12.015625 0.09375 C 11.898438 0.03125 11.722656 0 11.484375 0 L 2.0625 0 L 2.0625 -0.25 C 2.257812 -0.25 2.390625 -0.296875 2.453125 -0.390625 C 2.523438 -0.484375 2.5625 -0.601562 2.5625 -0.75 L 2.5625 -10.296875 C 2.5625 -10.429688 2.53125 -10.546875 2.46875 -10.640625 C 2.40625 -10.742188 2.269531 -10.796875 2.0625 -10.796875 L 2.0625 -11.046875 L 10.734375 -11.046875 C 11.109375 -11.046875 11.363281 -11.066406 11.5 -11.109375 C 11.632812 -11.148438 11.703125 -11.269531 11.703125 -11.46875 L 11.953125 -11.46875 Z M 11.953125 -9.078125 "/></g></g><g style="fill:#ffffff;fill-opacity:1;"><g transform="translate(204.264853, 297.400465)"><path style="stroke:none" d="M 9.078125 -6.21875 C 9.796875 -6.21875 10.359375 -6.359375 10.765625 -6.640625 C 11.171875 -6.921875 11.375 -7.378906 11.375 -8.015625 C 11.375 -8.296875 11.335938 -8.535156 11.265625 -8.734375 C 11.191406 -8.941406 11.0625 -9.109375 10.875 -9.234375 C 10.695312 -9.359375 10.453125 -9.453125 10.140625 -9.515625 C 9.835938 -9.585938 9.445312 -9.625 8.96875 -9.625 L 4.453125 -9.625 L 4.453125 -6.21875 Z M 9.21875 -11.046875 C 10.488281 -11.046875 11.453125 -10.804688 12.109375 -10.328125 C 12.773438 -9.859375 13.109375 -9.078125 13.109375 -7.984375 C 13.109375 -7.097656 12.875 -6.394531 12.40625 -5.875 C 11.9375 -5.363281 11.179688 -5.035156 10.140625 -4.890625 L 12.5625 -1.15625 C 12.78125 -0.820312 12.941406 -0.585938 13.046875 -0.453125 C 13.148438 -0.316406 13.320312 -0.25 13.5625 -0.25 L 13.609375 -0.25 L 13.609375 0 L 10.578125 0 L 10.578125 -0.25 C 10.773438 -0.25 10.894531 -0.265625 10.9375 -0.296875 C 10.976562 -0.335938 11 -0.382812 11 -0.4375 C 11 -0.5 10.96875 -0.570312 10.90625 -0.65625 C 10.84375 -0.75 10.769531 -0.867188 10.6875 -1.015625 L 8.3125 -4.78125 L 4.453125 -4.78125 L 4.453125 -0.75 C 4.453125 -0.601562 4.484375 -0.484375 4.546875 -0.390625 C 4.617188 -0.296875 4.753906 -0.25 4.953125 -0.25 L 4.953125 0 L 2.1875 0 L 2.1875 -0.25 C 2.382812 -0.25 2.515625 -0.296875 2.578125 -0.390625 C 2.648438 -0.484375 2.6875 -0.601562 2.6875 -0.75 L 2.6875 -10.296875 C 2.6875 -10.441406 2.648438 -10.5625 2.578125 -10.65625 C 2.515625 -10.75 2.382812 -10.796875 2.1875 -10.796875 L 2.1875 -11.046875 Z M 9.21875 -11.046875 "/></g></g><g style="fill:#ffffff;fill-opacity:1;"><g transform="translate(217.767907, 297.400465)"><path style="stroke:none" d="M 3.671875 -11.046875 L 3.671875 -10.796875 C 3.328125 -10.765625 3.15625 -10.664062 3.15625 -10.5 C 3.15625 -10.445312 3.1875 -10.378906 3.25 -10.296875 C 3.3125 -10.222656 3.394531 -10.109375 3.5 -9.953125 L 6.40625 -6 L 9.34375 -9.90625 C 9.488281 -10.101562 9.59375 -10.242188 9.65625 -10.328125 C 9.726562 -10.410156 9.765625 -10.488281 9.765625 -10.5625 C 9.765625 -10.613281 9.726562 -10.664062 9.65625 -10.71875 C 9.59375 -10.769531 9.472656 -10.796875 9.296875 -10.796875 L 9.296875 -11.046875 L 12.328125 -11.046875 L 12.328125 -10.796875 C 12.128906 -10.796875 11.957031 -10.726562 11.8125 -10.59375 C 11.675781 -10.457031 11.46875 -10.203125 11.1875 -9.828125 L 7.21875 -4.578125 L 7.21875 -0.75 C 7.21875 -0.601562 7.253906 -0.484375 7.328125 -0.390625 C 7.398438 -0.296875 7.535156 -0.25 7.734375 -0.25 L 7.734375 0 L 4.953125 0 L 4.953125 -0.25 C 5.148438 -0.25 5.28125 -0.296875 5.34375 -0.390625 C 5.414062 -0.484375 5.453125 -0.601562 5.453125 -0.75 L 5.453125 -4.578125 L 1.40625 -10.078125 C 1.207031 -10.347656 1.046875 -10.535156 0.921875 -10.640625 C 0.804688 -10.742188 0.664062 -10.796875 0.5 -10.796875 L 0.5 -11.046875 Z M 3.671875 -11.046875 "/></g></g><g style="fill:#ffffff;fill-opacity:1;"><g transform="translate(229.31797, 297.400465)"><path style="stroke:none" d=""/></g></g><g style="fill:#ffffff;fill-opacity:1;"><g transform="translate(234.471655, 297.400465)"><path style="stroke:none" d="M 11.953125 -9.078125 L 11.703125 -9.078125 C 11.703125 -9.460938 11.425781 -9.65625 10.875 -9.65625 L 4.328125 -9.65625 L 4.328125 -6.34375 L 8.609375 -6.34375 C 8.847656 -6.34375 9.046875 -6.382812 9.203125 -6.46875 C 9.367188 -6.550781 9.453125 -6.707031 9.453125 -6.9375 L 9.703125 -6.9375 L 9.703125 -4.390625 L 9.453125 -4.390625 C 9.453125 -4.597656 9.390625 -4.742188 9.265625 -4.828125 C 9.140625 -4.910156 8.925781 -4.953125 8.625 -4.953125 L 4.328125 -4.953125 L 4.328125 -1.390625 L 11.359375 -1.390625 C 11.609375 -1.390625 11.8125 -1.4375 11.96875 -1.53125 C 12.125 -1.632812 12.203125 -1.820312 12.203125 -2.09375 L 12.453125 -2.09375 L 12.453125 0.46875 L 12.203125 0.46875 C 12.203125 0.28125 12.140625 0.15625 12.015625 0.09375 C 11.898438 0.03125 11.722656 0 11.484375 0 L 2.0625 0 L 2.0625 -0.25 C 2.257812 -0.25 2.390625 -0.296875 2.453125 -0.390625 C 2.523438 -0.484375 2.5625 -0.601562 2.5625 -0.75 L 2.5625 -10.296875 C 2.5625 -10.429688 2.53125 -10.546875 2.46875 -10.640625 C 2.40625 -10.742188 2.269531 -10.796875 2.0625 -10.796875 L 2.0625 -11.046875 L 10.734375 -11.046875 C 11.109375 -11.046875 11.363281 -11.066406 11.5 -11.109375 C 11.632812 -11.148438 11.703125 -11.269531 11.703125 -11.46875 L 11.953125 -11.46875 Z M 11.953125 -9.078125 "/></g></g><g style="fill:#ffffff;fill-opacity:1;"><g transform="translate(247.197713, 297.400465)"><path style="stroke:none" d="M 4.234375 -11.046875 L 4.234375 -10.796875 C 4.109375 -10.796875 4.023438 -10.773438 3.984375 -10.734375 C 3.941406 -10.691406 3.921875 -10.632812 3.921875 -10.5625 C 3.921875 -10.46875 3.984375 -10.332031 4.109375 -10.15625 L 6.40625 -7.09375 L 8.90625 -10.296875 C 9 -10.429688 9.046875 -10.523438 9.046875 -10.578125 C 9.046875 -10.722656 8.921875 -10.796875 8.671875 -10.796875 L 8.671875 -11.046875 L 11.671875 -11.046875 L 11.671875 -10.796875 L 11.640625 -10.796875 C 11.484375 -10.796875 11.347656 -10.753906 11.234375 -10.671875 C 11.117188 -10.597656 10.941406 -10.398438 10.703125 -10.078125 L 7.40625 -5.875 L 11.046875 -1.140625 C 11.328125 -0.753906 11.53125 -0.507812 11.65625 -0.40625 C 11.78125 -0.300781 11.945312 -0.25 12.15625 -0.25 L 12.15625 0 L 9.015625 0 L 9.015625 -0.25 C 9.203125 -0.25 9.320312 -0.265625 9.375 -0.296875 C 9.425781 -0.328125 9.453125 -0.367188 9.453125 -0.421875 C 9.453125 -0.492188 9.359375 -0.65625 9.171875 -0.90625 L 6.40625 -4.53125 L 3.65625 -1.03125 C 3.507812 -0.863281 3.410156 -0.738281 3.359375 -0.65625 C 3.304688 -0.570312 3.28125 -0.492188 3.28125 -0.421875 C 3.28125 -0.367188 3.300781 -0.328125 3.34375 -0.296875 C 3.382812 -0.265625 3.472656 -0.25 3.609375 -0.25 L 3.609375 0 L 0.65625 0 L 0.65625 -0.25 L 0.6875 -0.25 C 0.957031 -0.25 1.15625 -0.320312 1.28125 -0.46875 C 1.40625 -0.613281 1.5625 -0.804688 1.75 -1.046875 L 5.421875 -5.796875 L 2.0625 -10.15625 C 1.863281 -10.425781 1.691406 -10.597656 1.546875 -10.671875 C 1.398438 -10.753906 1.25 -10.796875 1.09375 -10.796875 L 1.09375 -11.046875 Z M 4.234375 -11.046875 "/></g></g><g style="fill:#ffffff;fill-opacity:1;"><g transform="translate(258.747776, 297.400465)"><path style="stroke:none" d="M 7.796875 -11.171875 C 8.285156 -11.171875 8.742188 -11.132812 9.171875 -11.0625 C 9.609375 -11 10 -10.921875 10.34375 -10.828125 C 10.695312 -10.734375 11.003906 -10.632812 11.265625 -10.53125 C 11.535156 -10.425781 11.75 -10.347656 11.90625 -10.296875 C 12.039062 -10.234375 12.171875 -10.171875 12.296875 -10.109375 C 12.429688 -10.054688 12.546875 -10.03125 12.640625 -10.03125 C 12.691406 -10.03125 12.738281 -10.039062 12.78125 -10.0625 C 12.832031 -10.082031 12.882812 -10.140625 12.9375 -10.234375 L 13.1875 -10.0625 L 11.890625 -7.8125 L 11.609375 -7.9375 C 11.640625 -7.976562 11.664062 -8.015625 11.6875 -8.046875 C 11.707031 -8.085938 11.71875 -8.144531 11.71875 -8.21875 C 11.71875 -8.34375 11.609375 -8.488281 11.390625 -8.65625 C 11.171875 -8.832031 10.875 -9 10.5 -9.15625 C 10.132812 -9.320312 9.707031 -9.460938 9.21875 -9.578125 C 8.738281 -9.691406 8.234375 -9.75 7.703125 -9.75 C 7.046875 -9.75 6.429688 -9.65625 5.859375 -9.46875 C 5.296875 -9.289062 4.796875 -9.019531 4.359375 -8.65625 C 3.929688 -8.300781 3.59375 -7.867188 3.34375 -7.359375 C 3.101562 -6.847656 2.984375 -6.265625 2.984375 -5.609375 C 2.984375 -4.972656 3.125 -4.390625 3.40625 -3.859375 C 3.6875 -3.328125 4.0625 -2.875 4.53125 -2.5 C 5.007812 -2.125 5.550781 -1.828125 6.15625 -1.609375 C 6.769531 -1.398438 7.40625 -1.296875 8.0625 -1.296875 C 8.695312 -1.296875 9.265625 -1.394531 9.765625 -1.59375 C 10.265625 -1.800781 10.648438 -2 10.921875 -2.1875 C 11.160156 -2.34375 11.375 -2.515625 11.5625 -2.703125 C 11.757812 -2.898438 11.859375 -3.078125 11.859375 -3.234375 C 11.859375 -3.285156 11.847656 -3.335938 11.828125 -3.390625 C 11.804688 -3.453125 11.785156 -3.5 11.765625 -3.53125 L 12.03125 -3.703125 L 13.59375 -1.6875 L 13.3125 -1.484375 C 13.226562 -1.585938 13.128906 -1.640625 13.015625 -1.640625 C 12.953125 -1.640625 12.875 -1.597656 12.78125 -1.515625 C 12.6875 -1.441406 12.550781 -1.34375 12.375 -1.21875 C 11.738281 -0.757812 11.046875 -0.421875 10.296875 -0.203125 C 9.546875 0.015625 8.738281 0.125 7.875 0.125 C 6.90625 0.125 6.019531 -0.0195312 5.21875 -0.3125 C 4.414062 -0.601562 3.71875 -1.007812 3.125 -1.53125 C 2.539062 -2.0625 2.082031 -2.6875 1.75 -3.40625 C 1.425781 -4.132812 1.265625 -4.929688 1.265625 -5.796875 C 1.265625 -6.523438 1.421875 -7.210938 1.734375 -7.859375 C 2.046875 -8.515625 2.484375 -9.085938 3.046875 -9.578125 C 3.617188 -10.066406 4.304688 -10.453125 5.109375 -10.734375 C 5.921875 -11.023438 6.816406 -11.171875 7.796875 -11.171875 Z M 7.796875 -11.171875 "/></g></g><g style="fill:#ffffff;fill-opacity:1;"><g transform="translate(272.628841, 297.400465)"><path style="stroke:none" d="M 4.953125 -11.046875 L 4.953125 -10.796875 C 4.753906 -10.796875 4.617188 -10.75 4.546875 -10.65625 C 4.484375 -10.5625 4.453125 -10.441406 4.453125 -10.296875 L 4.453125 -6.34375 L 11.890625 -6.34375 L 11.890625 -10.296875 C 11.890625 -10.441406 11.851562 -10.5625 11.78125 -10.65625 C 11.707031 -10.75 11.570312 -10.796875 11.375 -10.796875 L 11.375 -11.046875 L 14.15625 -11.046875 L 14.15625 -10.796875 C 13.957031 -10.796875 13.820312 -10.75 13.75 -10.65625 C 13.6875 -10.5625 13.65625 -10.441406 13.65625 -10.296875 L 13.65625 -0.75 C 13.65625 -0.601562 13.6875 -0.484375 13.75 -0.390625 C 13.820312 -0.296875 13.957031 -0.25 14.15625 -0.25 L 14.15625 0 L 11.375 0 L 11.375 -0.25 C 11.570312 -0.25 11.707031 -0.296875 11.78125 -0.390625 C 11.851562 -0.484375 11.890625 -0.601562 11.890625 -0.75 L 11.890625 -4.953125 L 4.453125 -4.953125 L 4.453125 -0.75 C 4.453125 -0.601562 4.484375 -0.484375 4.546875 -0.390625 C 4.617188 -0.296875 4.753906 -0.25 4.953125 -0.25 L 4.953125 0 L 2.1875 0 L 2.1875 -0.25 C 2.382812 -0.25 2.515625 -0.296875 2.578125 -0.390625 C 2.648438 -0.484375 2.6875 -0.601562 2.6875 -0.75 L 2.6875 -10.296875 C 2.6875 -10.441406 2.648438 -10.5625 2.578125 -10.65625 C 2.515625 -10.75 2.382812 -10.796875 2.1875 -10.796875 L 2.1875 -11.046875 Z M 4.953125 -11.046875 "/></g></g><g style="fill:#ffffff;fill-opacity:1;"><g transform="translate(287.685911, 297.400465)"><path style="stroke:none" d="M 4.53125 -4.328125 L 9.09375 -4.328125 L 6.71875 -9.28125 Z M 8.3125 -11.046875 L 8.3125 -10.796875 C 8.175781 -10.796875 8.085938 -10.769531 8.046875 -10.71875 C 8.003906 -10.664062 7.984375 -10.609375 7.984375 -10.546875 C 7.984375 -10.460938 8.015625 -10.351562 8.078125 -10.21875 C 8.148438 -10.082031 8.242188 -9.894531 8.359375 -9.65625 L 12.203125 -1.703125 C 12.359375 -1.378906 12.484375 -1.117188 12.578125 -0.921875 C 12.671875 -0.722656 12.738281 -0.59375 12.78125 -0.53125 C 12.875 -0.40625 12.960938 -0.328125 13.046875 -0.296875 C 13.128906 -0.265625 13.238281 -0.25 13.375 -0.25 L 13.375 0 L 10.453125 0 L 10.453125 -0.25 C 10.617188 -0.25 10.726562 -0.273438 10.78125 -0.328125 C 10.84375 -0.378906 10.875 -0.453125 10.875 -0.546875 C 10.875 -0.617188 10.851562 -0.695312 10.8125 -0.78125 C 10.769531 -0.875 10.707031 -1.019531 10.625 -1.21875 L 9.8125 -2.9375 L 3.859375 -2.9375 L 3 -0.921875 C 2.90625 -0.710938 2.859375 -0.566406 2.859375 -0.484375 C 2.859375 -0.328125 2.976562 -0.25 3.21875 -0.25 L 3.21875 0 L 0.625 0 L 0.625 -0.25 C 0.726562 -0.25 0.8125 -0.257812 0.875 -0.28125 C 0.9375 -0.300781 1 -0.347656 1.0625 -0.421875 C 1.125 -0.492188 1.1875 -0.59375 1.25 -0.71875 C 1.3125 -0.851562 1.398438 -1.039062 1.515625 -1.28125 L 5.265625 -9.6875 C 5.421875 -10 5.519531 -10.203125 5.5625 -10.296875 C 5.601562 -10.390625 5.625 -10.472656 5.625 -10.546875 C 5.625 -10.609375 5.582031 -10.664062 5.5 -10.71875 C 5.425781 -10.769531 5.34375 -10.796875 5.25 -10.796875 L 5.25 -11.046875 Z M 8.3125 -11.046875 "/></g></g><g style="fill:#ffffff;fill-opacity:1;"><g transform="translate(300.41197, 297.400465)"><path style="stroke:none" d="M 5.734375 -11.046875 L 5.734375 -10.796875 C 5.566406 -10.796875 5.457031 -10.773438 5.40625 -10.734375 C 5.351562 -10.703125 5.328125 -10.648438 5.328125 -10.578125 C 5.328125 -10.523438 5.347656 -10.46875 5.390625 -10.40625 C 5.429688 -10.351562 5.519531 -10.257812 5.65625 -10.125 L 12.09375 -2.765625 L 12.140625 -2.765625 L 12.140625 -10.296875 C 12.140625 -10.441406 12.101562 -10.5625 12.03125 -10.65625 C 11.957031 -10.75 11.828125 -10.796875 11.640625 -10.796875 L 11.640625 -11.046875 L 14.15625 -11.046875 L 14.15625 -10.796875 C 13.957031 -10.796875 13.820312 -10.75 13.75 -10.65625 C 13.6875 -10.5625 13.65625 -10.441406 13.65625 -10.296875 L 13.65625 -0.75 C 13.65625 -0.601562 13.6875 -0.484375 13.75 -0.390625 C 13.820312 -0.296875 13.957031 -0.25 14.15625 -0.25 L 14.15625 0 L 11.46875 0 L 11.46875 -0.25 C 11.75 -0.25 11.890625 -0.3125 11.890625 -0.4375 C 11.890625 -0.507812 11.859375 -0.578125 11.796875 -0.640625 C 11.742188 -0.710938 11.65625 -0.828125 11.53125 -0.984375 L 4.203125 -9.328125 L 4.203125 -0.75 C 4.203125 -0.601562 4.234375 -0.484375 4.296875 -0.390625 C 4.367188 -0.296875 4.503906 -0.25 4.703125 -0.25 L 4.703125 0 L 2.1875 0 L 2.1875 -0.25 C 2.382812 -0.25 2.515625 -0.296875 2.578125 -0.390625 C 2.648438 -0.484375 2.6875 -0.601562 2.6875 -0.75 L 2.6875 -10.296875 C 2.6875 -10.441406 2.648438 -10.5625 2.578125 -10.65625 C 2.515625 -10.75 2.382812 -10.796875 2.1875 -10.796875 L 2.1875 -11.046875 Z M 5.734375 -11.046875 "/></g></g><g style="fill:#ffffff;fill-opacity:1;"><g transform="translate(315.46904, 297.400465)"><path style="stroke:none" d="M 7.328125 -11.171875 C 8.253906 -11.171875 9.050781 -11.085938 9.71875 -10.921875 C 10.394531 -10.753906 11.015625 -10.515625 11.578125 -10.203125 C 11.785156 -10.085938 11.960938 -9.984375 12.109375 -9.890625 C 12.265625 -9.796875 12.398438 -9.75 12.515625 -9.75 C 12.585938 -9.75 12.644531 -9.757812 12.6875 -9.78125 C 12.738281 -9.8125 12.800781 -9.882812 12.875 -10 L 13.125 -9.828125 L 11.65625 -7.671875 L 11.40625 -7.828125 C 11.457031 -7.910156 11.484375 -7.992188 11.484375 -8.078125 C 11.484375 -8.210938 11.375 -8.375 11.15625 -8.5625 C 10.945312 -8.75 10.65625 -8.925781 10.28125 -9.09375 C 9.90625 -9.269531 9.46875 -9.421875 8.96875 -9.546875 C 8.46875 -9.679688 7.925781 -9.75 7.34375 -9.75 C 6.59375 -9.75 5.929688 -9.640625 5.359375 -9.421875 C 4.796875 -9.210938 4.320312 -8.921875 3.9375 -8.546875 C 3.5625 -8.171875 3.28125 -7.726562 3.09375 -7.21875 C 2.90625 -6.707031 2.8125 -6.148438 2.8125 -5.546875 C 2.8125 -4.898438 2.921875 -4.3125 3.140625 -3.78125 C 3.367188 -3.257812 3.675781 -2.816406 4.0625 -2.453125 C 4.457031 -2.085938 4.921875 -1.800781 5.453125 -1.59375 C 5.992188 -1.394531 6.5625 -1.296875 7.15625 -1.296875 C 8.039062 -1.296875 8.847656 -1.410156 9.578125 -1.640625 C 10.316406 -1.878906 10.929688 -2.1875 11.421875 -2.5625 L 11.421875 -4.15625 L 8.984375 -4.15625 C 8.742188 -4.15625 8.566406 -4.125 8.453125 -4.0625 C 8.335938 -4 8.28125 -3.878906 8.28125 -3.703125 L 8.015625 -3.703125 L 8.015625 -6.171875 L 8.28125 -6.171875 C 8.28125 -5.929688 8.34375 -5.765625 8.46875 -5.671875 C 8.601562 -5.585938 8.789062 -5.546875 9.03125 -5.546875 L 13.53125 -5.546875 L 13.53125 -5.296875 C 13.351562 -5.296875 13.242188 -5.253906 13.203125 -5.171875 C 13.160156 -5.085938 13.140625 -4.925781 13.140625 -4.6875 L 13.140625 -3.03125 C 13.140625 -2.8125 13.15625 -2.644531 13.1875 -2.53125 C 13.21875 -2.414062 13.332031 -2.34375 13.53125 -2.3125 L 13.53125 -2.0625 C 12.632812 -1.34375 11.660156 -0.796875 10.609375 -0.421875 C 9.566406 -0.0546875 8.535156 0.125 7.515625 0.125 C 6.585938 0.125 5.726562 -0.0078125 4.9375 -0.28125 C 4.15625 -0.550781 3.476562 -0.925781 2.90625 -1.40625 C 2.34375 -1.894531 1.898438 -2.476562 1.578125 -3.15625 C 1.253906 -3.832031 1.09375 -4.570312 1.09375 -5.375 C 1.09375 -6.1875 1.242188 -6.945312 1.546875 -7.65625 C 1.859375 -8.363281 2.289062 -8.972656 2.84375 -9.484375 C 3.394531 -10.003906 4.050781 -10.414062 4.8125 -10.71875 C 5.582031 -11.019531 6.421875 -11.171875 7.328125 -11.171875 Z M 7.328125 -11.171875 "/></g></g><g style="fill:#ffffff;fill-opacity:1;"><g transform="translate(329.350105, 297.400465)"><path style="stroke:none" d="M 11.953125 -9.078125 L 11.703125 -9.078125 C 11.703125 -9.460938 11.425781 -9.65625 10.875 -9.65625 L 4.328125 -9.65625 L 4.328125 -6.34375 L 8.609375 -6.34375 C 8.847656 -6.34375 9.046875 -6.382812 9.203125 -6.46875 C 9.367188 -6.550781 9.453125 -6.707031 9.453125 -6.9375 L 9.703125 -6.9375 L 9.703125 -4.390625 L 9.453125 -4.390625 C 9.453125 -4.597656 9.390625 -4.742188 9.265625 -4.828125 C 9.140625 -4.910156 8.925781 -4.953125 8.625 -4.953125 L 4.328125 -4.953125 L 4.328125 -1.390625 L 11.359375 -1.390625 C 11.609375 -1.390625 11.8125 -1.4375 11.96875 -1.53125 C 12.125 -1.632812 12.203125 -1.820312 12.203125 -2.09375 L 12.453125 -2.09375 L 12.453125 0.46875 L 12.203125 0.46875 C 12.203125 0.28125 12.140625 0.15625 12.015625 0.09375 C 11.898438 0.03125 11.722656 0 11.484375 0 L 2.0625 0 L 2.0625 -0.25 C 2.257812 -0.25 2.390625 -0.296875 2.453125 -0.390625 C 2.523438 -0.484375 2.5625 -0.601562 2.5625 -0.75 L 2.5625 -10.296875 C 2.5625 -10.429688 2.53125 -10.546875 2.46875 -10.640625 C 2.40625 -10.742188 2.269531 -10.796875 2.0625 -10.796875 L 2.0625 -11.046875 L 10.734375 -11.046875 C 11.109375 -11.046875 11.363281 -11.066406 11.5 -11.109375 C 11.632812 -11.148438 11.703125 -11.269531 11.703125 -11.46875 L 11.953125 -11.46875 Z M 11.953125 -9.078125 "/></g></g></g></svg>