<svg width="136" height="36" viewBox="0 0 136 36" fill="none" xmlns="http://www.w3.org/2000/svg">
<g clip-path="url(#clip0_2010_2158)">
<path fill-rule="evenodd" clip-rule="evenodd" d="M0.282715 3.96281L2.6603 2.93728C11.499 -0.875091 21.5393 -0.875091 30.3779 2.93728L32.7556 3.96281V19.81C32.7556 28.6955 25.4862 35.8987 16.5191 35.8987C7.55199 35.8987 0.282715 28.6955 0.282715 19.81V3.96281ZM5.42692 7.31421V14.2493C5.97552 14.1177 6.51425 13.9439 7.03809 13.7289C8.36436 13.1845 9.56942 12.3866 10.5845 11.3808C11.5996 10.375 12.4048 9.18089 12.9542 7.8667C13.2975 7.04539 13.5367 6.18719 13.6678 5.31179C10.8618 5.58096 8.08554 6.24846 5.42692 7.31421ZM5.42785 19.9551C5.97613 20.0867 6.51453 20.2604 7.03809 20.4753C8.36436 21.0196 9.56942 21.8175 10.5845 22.8233C11.5996 23.8292 12.4048 25.0233 12.9542 26.3374C13.5013 27.6462 13.7839 29.0486 13.7863 30.4651C9.02703 29.2702 5.49405 25.0269 5.42785 19.9551ZM16.3584 21.8396C15.7432 20.896 15.0276 20.0171 14.222 19.219C13.4165 18.4208 12.5296 17.7116 11.5772 17.1021C12.5296 16.4925 13.4165 15.7834 14.222 14.9852C15.0276 14.187 15.7432 13.3082 16.3584 12.3645C16.9735 13.3082 17.6892 14.187 18.4947 14.9852C19.3002 15.7834 20.1871 16.4925 21.1395 17.1021C20.1871 17.7116 19.3002 18.4208 18.4947 19.219C17.6892 20.0171 16.9735 20.896 16.3584 21.8396ZM18.9305 30.5407C23.8741 29.4548 27.5769 25.1003 27.6111 19.8829C26.9514 20.0204 26.3044 20.2184 25.6786 20.4753C24.3524 21.0196 23.1473 21.8175 22.1322 22.8233C21.1171 23.8292 20.3119 25.0233 19.7626 26.3374C19.2132 27.6516 18.9305 29.0602 18.9305 30.4826V30.5407ZM25.6786 13.7289C26.3045 13.9857 26.9516 14.1838 27.6113 14.3213V7.31421C24.8498 6.2072 21.9614 5.52989 19.0445 5.28232C19.1747 6.16795 19.4154 7.03619 19.7626 7.8667C20.3119 9.18089 21.1171 10.375 22.1322 11.3808C23.1473 12.3866 24.3524 13.1845 25.6786 13.7289Z" fill="#FAF4DF"/>
<path fill-rule="evenodd" clip-rule="evenodd" d="M71.3848 32.7371C70.6131 32.7371 69.9187 32.5536 69.3014 32.1866C68.6841 31.8093 68.1954 31.2995 67.8353 30.6573C67.4855 30.0048 67.3105 29.2708 67.3105 28.4552C67.3105 27.6295 67.4855 26.8954 67.8353 26.2532C68.1954 25.6109 68.6789 25.1063 69.2859 24.7393C69.9032 24.3621 70.6028 24.1735 71.3848 24.1735C72.0947 24.1735 72.7274 24.3264 73.283 24.6322C73.7379 24.8826 74.1134 25.2047 74.4096 25.5985V20.9774H75.567V32.5536H74.4096V31.2179C74.1324 31.6521 73.762 32.0006 73.2984 32.2631C72.7325 32.5791 72.0947 32.7371 71.3848 32.7371ZM71.4465 31.5901C72.0021 31.5901 72.5011 31.4525 72.9435 31.1772C73.3961 30.902 73.7511 30.5298 74.0083 30.0609C74.2758 29.5817 74.4096 29.0465 74.4096 28.4552C74.4096 27.8639 74.2758 27.3338 74.0083 26.8649C73.7511 26.3857 73.3961 26.0085 72.9435 25.7332C72.5011 25.458 72.0021 25.3204 71.4465 25.3204C70.9012 25.3204 70.4074 25.458 69.965 25.7332C69.5226 26.0085 69.1728 26.3806 68.9155 26.8496C68.6686 27.3185 68.5452 27.8537 68.5452 28.4552C68.5452 29.0465 68.6686 29.5817 68.9155 30.0609C69.1728 30.5298 69.5174 30.902 69.9495 31.1772C70.3919 31.4525 70.8909 31.5901 71.4465 31.5901Z" fill="#FAF4DF"/>
<path fill-rule="evenodd" clip-rule="evenodd" d="M79.1474 32.1865C79.7749 32.5535 80.4746 32.737 81.2462 32.737C81.8121 32.737 82.3265 32.6453 82.7895 32.4617C83.2627 32.2681 83.6691 32.0183 84.0086 31.7123C84.3481 31.3963 84.6002 31.0548 84.7648 30.6877L83.7771 30.1678C83.5199 30.596 83.1856 30.9528 82.774 31.2383C82.3625 31.5237 81.8532 31.6664 81.2462 31.6664C80.7215 31.6664 80.2276 31.5339 79.7647 31.2688C79.312 31.0038 78.9519 30.6317 78.6844 30.1525C78.4767 29.7572 78.3696 29.3086 78.3632 28.8068H84.8729C84.8934 28.6743 84.9089 28.5469 84.9192 28.4245C84.9294 28.292 84.9346 28.1748 84.9346 28.0728C84.9346 27.5835 84.8471 27.1094 84.6722 26.6507C84.4973 26.1817 84.2453 25.7637 83.916 25.3967C83.5868 25.0195 83.1856 24.7239 82.7123 24.5098C82.2493 24.2855 81.7195 24.1733 81.1227 24.1733C80.3717 24.1733 79.6926 24.3568 79.0856 24.7239C78.4889 25.0909 78.0156 25.5955 77.6658 26.2378C77.316 26.8698 77.1411 27.5988 77.1411 28.4245C77.1411 29.2503 77.3212 29.9894 77.6813 30.6419C78.0413 31.2943 78.5301 31.8092 79.1474 32.1865ZM78.3815 27.7364C78.4198 27.3749 78.5156 27.0486 78.6689 26.7577C78.9159 26.2785 79.2554 25.9064 79.6875 25.6414C80.1299 25.3763 80.6083 25.2438 81.1227 25.2438C81.6372 25.2438 82.1001 25.3763 82.5117 25.6414C82.9232 25.8962 83.237 26.248 83.4531 26.6965C83.6157 27.0116 83.6958 27.3582 83.6939 27.7364H78.3815Z" fill="#FAF4DF"/>
<path d="M86.5122 24.3568H87.6697V25.3553C87.8806 25.0327 88.1532 24.7713 88.4876 24.5709C88.9403 24.3059 89.4341 24.1733 89.9691 24.1733C90.607 24.1733 91.1831 24.3517 91.6976 24.7086C92.0953 24.9844 92.4039 25.3242 92.6232 25.7279C92.8351 25.2838 93.1386 24.9339 93.534 24.678C94.0485 24.3416 94.6143 24.1733 95.2316 24.1733C95.7872 24.1733 96.2965 24.3059 96.7595 24.5709C97.2327 24.836 97.6083 25.203 97.8861 25.672C98.1741 26.1307 98.3182 26.6506 98.3182 27.2317V32.5535H97.1607V27.6752C97.1607 27.1757 97.0681 26.7526 96.8829 26.406C96.708 26.0594 96.4662 25.7943 96.1576 25.6108C95.8489 25.4171 95.494 25.3202 95.0927 25.3202C94.7018 25.3202 94.3468 25.4171 94.0279 25.6108C93.709 25.7943 93.4569 26.0645 93.2717 26.4213C93.0865 26.7679 92.9939 27.1859 92.9939 27.6752V32.5535H91.8365V27.6752C91.8365 27.1757 91.7439 26.7526 91.5587 26.406C91.3838 26.0594 91.142 25.7943 90.8333 25.6108C90.5247 25.4171 90.1697 25.3202 89.7685 25.3202C89.3672 25.3202 89.0071 25.4171 88.6882 25.6108C88.3796 25.7943 88.1326 26.0645 87.9474 26.4213C87.7622 26.7679 87.6697 27.1859 87.6697 27.6752V32.5535H86.5122V24.3568Z" fill="#FAF4DF"/>
<path d="M100.084 35.9178C99.9197 35.9178 99.7499 35.9025 99.575 35.872C99.4104 35.8516 99.2458 35.8108 99.0812 35.7496V34.6792C99.1841 34.6894 99.3127 34.7047 99.467 34.7251C99.6316 34.7556 99.7962 34.7709 99.9609 34.7709C100.465 34.7709 100.851 34.6639 101.118 34.4498C101.386 34.2459 101.648 33.8483 101.905 33.257L102.204 32.5596L98.896 24.3569H100.146L102.854 31.1229L105.547 24.3569H106.828L103.047 33.5935C102.883 33.991 102.672 34.3682 102.415 34.7251C102.168 35.0819 101.854 35.3673 101.473 35.5814C101.093 35.8057 100.63 35.9178 100.084 35.9178Z" fill="#FAF4DF"/>
<path fill-rule="evenodd" clip-rule="evenodd" d="M60.2688 32.4465C60.6803 32.6402 61.1484 32.737 61.6735 32.737C62.157 32.737 62.5994 32.6656 63.0004 32.5229C63.4119 32.37 63.7668 32.1712 64.0652 31.9265C64.2719 31.7558 64.4417 31.5737 64.5745 31.3802V32.5535H65.7323V26.9259C65.7323 26.3856 65.5985 25.9115 65.3307 25.5037C65.0735 25.0858 64.7082 24.7595 64.2353 24.5251C63.772 24.2906 63.2373 24.1733 62.63 24.1733C62.1673 24.1733 61.7194 24.26 61.2873 24.4333C60.8552 24.5964 60.4694 24.8207 60.1299 25.1062C59.801 25.3916 59.5589 25.7076 59.4046 26.0543L60.4543 26.6201C60.6392 26.2225 60.9221 25.9013 61.3031 25.6567C61.6834 25.4018 62.1258 25.2744 62.63 25.2744C63.2061 25.2744 63.6746 25.4273 64.0347 25.7331C64.3944 26.039 64.5745 26.4366 64.5745 26.9259V27.349L61.5806 27.8434C60.9735 27.9454 60.4745 28.1187 60.0839 28.3634C59.6926 28.608 59.4046 28.9088 59.2194 29.2656C59.0345 29.6122 58.9419 29.9996 58.9419 30.4278C58.9419 30.8763 59.0599 31.2739 59.2965 31.6206C59.5335 31.9673 59.8572 32.2426 60.2688 32.4465ZM64.5745 28.3888V29.0056C64.5745 29.5052 64.4565 29.9588 64.2195 30.3666C63.9829 30.7744 63.6537 31.1006 63.2322 31.3453C62.8103 31.5798 62.3165 31.697 61.7503 31.697C61.2873 31.697 60.9067 31.5696 60.6083 31.3147C60.3205 31.0599 60.1765 30.7489 60.1765 30.3819C60.1765 30.0047 60.3051 29.6785 60.562 29.4032C60.8295 29.128 61.2616 28.9394 61.8583 28.8374L64.5745 28.3888Z" fill="#FAF4DF"/>
<path d="M54.4223 32.737C53.6095 32.737 52.8944 32.5484 52.2771 32.1712C51.6598 31.7939 51.1763 31.2841 50.8265 30.6419C50.4767 29.9894 50.3018 29.2554 50.3018 28.4398C50.3018 27.6242 50.4767 26.8953 50.8265 26.2531C51.1763 25.6108 51.6598 25.1062 52.2771 24.7391C52.8944 24.3619 53.6095 24.1733 54.4223 24.1733C54.9367 24.1733 55.4202 24.2651 55.8729 24.4486C56.3256 24.6321 56.7269 24.8819 57.0767 25.1979C57.4265 25.5037 57.6888 25.8606 57.8637 26.2683L56.8143 26.8036C56.6086 26.3652 56.2948 26.0084 55.8729 25.7331C55.4511 25.4579 54.9676 25.3202 54.4223 25.3202C53.877 25.3202 53.3831 25.4579 52.9407 25.7331C52.5086 25.9982 52.164 26.3703 51.9068 26.8494C51.6598 27.3184 51.5364 27.8536 51.5364 28.4551C51.5364 29.0464 51.6598 29.5816 51.9068 30.0608C52.164 30.5297 52.5086 30.9018 52.9407 31.1771C53.3831 31.4523 53.877 31.59 54.4223 31.59C54.9676 31.59 55.446 31.4523 55.8575 31.1771C56.2793 30.9018 56.5983 30.5348 56.8143 30.0761L57.8637 30.6419C57.6888 31.0395 57.4265 31.3963 57.0767 31.7123C56.7269 32.0285 56.3256 32.2782 55.8729 32.4617C55.4202 32.6453 54.9367 32.737 54.4223 32.737Z" fill="#FAF4DF"/>
<path fill-rule="evenodd" clip-rule="evenodd" d="M44.5175 21.1609L40.3198 32.5536H41.6162L42.6193 29.7703H47.7583L48.746 32.5536H50.0424L45.8447 21.1609H44.5175ZM47.3262 28.6234H43.0205L45.1805 22.5969L47.3262 28.6234Z" fill="#FAF4DF"/>
<path d="M41.3657 2.70752V16.3056H50.0234V13.8415H44.2208V2.70752H41.3657Z" fill="#FAF4DF"/>
<path d="M84.9673 16.3057H87.7304V6.33984H84.9673V16.3057Z" fill="#FAF4DF"/>
<path d="M84.9673 2.70752V5.44541H87.7304V2.70752H84.9673Z" fill="#FAF4DF"/>
<path fill-rule="evenodd" clip-rule="evenodd" d="M89.1997 19.9562V6.33988H91.7786V7.37375C92.0766 7.0263 92.4447 6.74859 92.8836 6.54065C93.4607 6.26077 94.1179 6.12085 94.8548 6.12085C95.8126 6.12085 96.6781 6.35205 97.452 6.81444C98.2255 7.27683 98.8396 7.90349 99.2939 8.69444C99.7482 9.47321 99.9755 10.3493 99.9755 11.3228C99.9755 12.2841 99.7482 13.1602 99.2939 13.9511C98.8519 14.7421 98.2439 15.3687 97.4703 15.8311C96.6967 16.2935 95.8187 16.5247 94.8362 16.5247C94.1484 16.5247 93.5099 16.4031 92.9206 16.1597C92.5576 15.999 92.2383 15.7925 91.9628 15.5404V19.9562H89.1997ZM94.5047 14.0606C95.0204 14.0606 95.4747 13.9451 95.8679 13.7139C96.2608 13.4827 96.5678 13.1602 96.7887 12.7465C97.0099 12.3328 97.1202 11.8582 97.1202 11.3228C97.1202 10.7874 97.0099 10.3189 96.7887 9.91735C96.5678 9.50364 96.2608 9.18117 95.8679 8.94997C95.4747 8.70661 95.0204 8.58491 94.5047 8.58491C94.0134 8.58491 93.5713 8.70052 93.1784 8.93172C92.7978 9.16291 92.4968 9.48535 92.276 9.8991C92.067 10.3128 91.9628 10.7874 91.9628 11.3228C91.9628 11.8582 92.067 12.3328 92.276 12.7465C92.4968 13.1602 92.7978 13.4827 93.1784 13.7139C93.5713 13.9451 94.0134 14.0606 94.5047 14.0606Z" fill="#FAF4DF"/>
<path d="M102.091 15.7581C102.914 16.2692 103.878 16.5247 104.983 16.5247C105.769 16.5247 106.451 16.397 107.028 16.1414C107.605 15.8737 108.053 15.5087 108.373 15.0463C108.704 14.5839 108.87 14.0424 108.87 13.4218C108.87 12.7039 108.649 12.1016 108.207 11.6148C107.765 11.1159 107.126 10.7448 106.291 10.5014L104.688 10.0268C104.443 9.95386 104.234 9.87476 104.062 9.78957C103.903 9.70441 103.786 9.60705 103.712 9.49755C103.639 9.38802 103.602 9.26633 103.602 9.13249C103.602 8.87695 103.7 8.67618 103.897 8.53017C104.105 8.38413 104.388 8.31115 104.744 8.31115C105.235 8.31115 105.671 8.4389 106.052 8.69444C106.445 8.9378 106.715 9.26633 106.862 9.68007L108.907 8.73095C108.6 7.90349 108.072 7.26466 107.323 6.81444C106.586 6.35205 105.726 6.12085 104.744 6.12085C103.995 6.12085 103.332 6.25469 102.754 6.52239C102.177 6.77793 101.729 7.13688 101.41 7.59927C101.09 8.0617 100.931 8.60316 100.931 9.22376C100.931 9.92952 101.152 10.544 101.594 11.0672C102.036 11.5783 102.668 11.9494 103.491 12.1807L105.204 12.6552C105.425 12.716 105.61 12.7891 105.757 12.8742C105.904 12.9594 106.015 13.0568 106.088 13.1663C106.162 13.2636 106.199 13.3853 106.199 13.5313C106.199 13.8112 106.094 14.0302 105.886 14.1884C105.677 14.3466 105.376 14.4257 104.983 14.4257C104.443 14.4257 103.952 14.2736 103.51 13.9694C103.067 13.6652 102.718 13.2454 102.46 12.71L100.434 13.6591C100.728 14.5352 101.281 15.2349 102.091 15.7581Z" fill="#FAF4DF"/>
<path d="M120.443 6.33988H123.022V7.54374C123.21 7.1795 123.474 6.88771 123.814 6.6684C124.379 6.30337 125.054 6.12085 125.84 6.12085C126.675 6.12085 127.406 6.33379 128.032 6.75967C128.404 7.001 128.695 7.29203 128.905 7.63275C129.171 7.2472 129.488 6.93792 129.856 6.70491C130.47 6.31554 131.188 6.12085 132.011 6.12085C132.735 6.12085 133.374 6.27903 133.926 6.59541C134.491 6.91177 134.933 7.3559 135.253 7.92783C135.572 8.48758 135.732 9.14466 135.732 9.8991V16.3057H132.969V10.4832C132.969 10.0938 132.895 9.75918 132.748 9.4793C132.612 9.19942 132.416 8.9804 132.158 8.82219C131.9 8.66401 131.587 8.58491 131.219 8.58491C130.863 8.58491 130.55 8.66401 130.28 8.82219C130.021 8.9804 129.819 9.19942 129.672 9.4793C129.537 9.75918 129.469 10.0938 129.469 10.4832V16.3057H126.706V10.4832C126.706 10.0938 126.632 9.75918 126.485 9.4793C126.35 9.19942 126.153 8.9804 125.895 8.82219C125.638 8.66401 125.324 8.58491 124.956 8.58491C124.6 8.58491 124.287 8.66401 124.016 8.82219C123.759 8.9804 123.556 9.19942 123.409 9.4793C123.273 9.75918 123.206 10.0938 123.206 10.4832V16.3057H120.443V6.33988Z" fill="#FAF4DF"/>
<path d="M113.579 16.5247C112.768 16.5247 112.075 16.3543 111.497 16.0136C110.933 15.6608 110.503 15.174 110.208 14.5534C109.913 13.9328 109.766 13.2088 109.766 12.3814V6.33984H112.529V12.1624C112.529 12.5396 112.603 12.8742 112.75 13.1662C112.91 13.4461 113.131 13.6651 113.413 13.8234C113.696 13.9815 114.015 14.0606 114.371 14.0606C114.74 14.0606 115.059 13.9815 115.329 13.8234C115.612 13.6651 115.826 13.4461 115.974 13.1662C116.133 12.8742 116.213 12.5396 116.213 12.1624V6.33984H118.976V16.3057H116.397V15.0929C116.163 15.5305 115.831 15.8678 115.403 16.1049C114.887 16.3848 114.279 16.5247 113.579 16.5247Z" fill="#FAF4DF"/>
<path fill-rule="evenodd" clip-rule="evenodd" d="M78.5139 16.5247C77.5192 16.5247 76.6103 16.2996 75.7875 15.8494C74.977 15.3992 74.3262 14.7847 73.835 14.0059C73.3562 13.215 73.1167 12.3206 73.1167 11.3228C73.1167 10.3128 73.3562 9.41845 73.835 8.63967C74.3262 7.86089 74.977 7.24641 75.7875 6.79618C76.6103 6.34596 77.5192 6.12085 78.5139 6.12085C79.5084 6.12085 80.4112 6.34596 81.2217 6.79618C82.0319 7.24641 82.6769 7.86089 83.1556 8.63967C83.6469 9.41845 83.8925 10.3128 83.8925 11.3228C83.8925 12.3206 83.6469 13.215 83.1556 14.0059C82.6769 14.7847 82.0319 15.3992 81.2217 15.8494C80.4112 16.2996 79.5084 16.5247 78.5139 16.5247ZM78.5139 14.0606C79.0174 14.0606 79.4534 13.9451 79.8215 13.7139C80.2022 13.4827 80.497 13.1602 80.7057 12.7465C80.9269 12.3328 81.0375 11.8582 81.0375 11.3228C81.0375 10.7874 80.9269 10.3189 80.7057 9.91735C80.497 9.50364 80.2022 9.18117 79.8215 8.94997C79.4534 8.70661 79.0174 8.58491 78.5139 8.58491C78.0104 8.58491 77.5684 8.70661 77.1877 8.94997C76.8067 9.18117 76.5061 9.50364 76.2849 9.91735C76.0762 10.3189 75.9717 10.7874 75.9717 11.3228C75.9717 11.8582 76.0762 12.3328 76.2849 12.7465C76.5061 13.1602 76.8067 13.4827 77.1877 13.7139C77.5684 13.9451 78.0104 14.0606 78.5139 14.0606Z" fill="#FAF4DF"/>
<path fill-rule="evenodd" clip-rule="evenodd" d="M64.9114 19.9379C65.5744 20.1935 66.293 20.3212 67.0665 20.3212C68.0366 20.3212 68.8902 20.1265 69.6271 19.7372C70.3762 19.3478 70.9655 18.8063 71.3954 18.1127C71.8249 17.4313 72.04 16.6525 72.04 15.7764V6.33988H69.4612V7.38658C69.1577 7.03382 68.814 6.75789 68.4298 6.5589C67.8893 6.26686 67.2569 6.12085 66.5322 6.12085C65.6114 6.12085 64.7886 6.32771 64.0639 6.74142C63.3396 7.15513 62.7686 7.72706 62.3509 8.45715C61.9333 9.17508 61.7246 10.0025 61.7246 10.9395C61.7246 11.8765 61.9333 12.716 62.3509 13.4583C62.7686 14.1884 63.3457 14.7664 64.0826 15.1923C64.8192 15.606 65.6541 15.8129 66.5875 15.8129C67.3122 15.8129 67.9446 15.679 68.4847 15.4113C68.7776 15.2596 69.0419 15.0668 69.277 14.8329V15.7764C69.277 16.2023 69.185 16.5734 69.0008 16.8898C68.8288 17.2062 68.577 17.4434 68.2455 17.6016C67.9137 17.772 67.5208 17.8572 67.0665 17.8572C66.4894 17.8572 65.9921 17.7233 65.5744 17.4556C65.1571 17.1879 64.8806 16.8229 64.7455 16.3605L62.185 17.2548C62.394 17.8754 62.7316 18.4108 63.1984 18.861C63.6772 19.3235 64.2482 19.6824 64.9114 19.9379ZM68.1902 13.0385C67.8462 13.2332 67.4411 13.3306 66.9743 13.3306C66.5078 13.3306 66.0901 13.2332 65.722 13.0385C65.3657 12.8317 65.0831 12.5518 64.8745 12.1989C64.678 11.846 64.5796 11.4384 64.5796 10.976C64.5796 10.5014 64.678 10.0877 64.8745 9.73484C65.0831 9.36977 65.3657 9.08989 65.722 8.89521C66.0901 8.68835 66.5078 8.58491 66.9743 8.58491C67.4289 8.58491 67.8279 8.68835 68.1716 8.89521C68.5156 9.08989 68.7857 9.36977 68.9821 9.73484C69.1789 10.0877 69.277 10.5014 69.277 10.976C69.277 11.4505 69.1789 11.8643 68.9821 12.2171C68.7979 12.57 68.5339 12.8438 68.1902 13.0385Z" fill="#FAF4DF"/>
<path fill-rule="evenodd" clip-rule="evenodd" d="M55.6762 16.5247C54.6815 16.5247 53.7729 16.2996 52.9501 15.8494C52.1396 15.3992 51.4888 14.7847 50.9976 14.0059C50.5185 13.215 50.2793 12.3206 50.2793 11.3228C50.2793 10.3128 50.5185 9.41845 50.9976 8.63967C51.4888 7.86089 52.1396 7.24641 52.9501 6.79618C53.7729 6.34596 54.6815 6.12085 55.6762 6.12085C56.671 6.12085 57.5735 6.34596 58.384 6.79618C59.1945 7.24641 59.8392 7.86089 60.3182 8.63967C60.8095 9.41845 61.0551 10.3128 61.0551 11.3228C61.0551 12.3206 60.8095 13.215 60.3182 14.0059C59.8392 14.7847 59.1945 15.3992 58.384 15.8494C57.5735 16.2996 56.671 16.5247 55.6762 16.5247ZM55.6762 14.0606C56.1797 14.0606 56.6157 13.9451 56.9841 13.7139C57.3648 13.4827 57.6596 13.1602 57.8683 12.7465C58.0895 12.3328 58.1998 11.8582 58.1998 11.3228C58.1998 10.7874 58.0895 10.3189 57.8683 9.91735C57.6596 9.50364 57.3648 9.18117 56.9841 8.94997C56.6157 8.70661 56.1797 8.58491 55.6762 8.58491C55.1727 8.58491 54.7306 8.70661 54.35 8.94997C53.9693 9.18117 53.6684 9.50364 53.4475 9.91735C53.2388 10.3189 53.1343 10.7874 53.1343 11.3228C53.1343 11.8582 53.2388 12.3328 53.4475 12.7465C53.6684 13.1602 53.9693 13.4827 54.35 13.7139C54.7306 13.9451 55.1727 14.0606 55.6762 14.0606Z" fill="#FAF4DF"/>
</g>
<defs>
<clipPath id="clip0_2010_2158">
<rect width="136" height="36" fill="white"/>
</clipPath>
</defs>
</svg>
