<svg width="24" height="24" viewBox="0 0 24 24" fill="none" xmlns="http://www.w3.org/2000/svg">
<path d="M14.5 8.99609C14.5 10.3768 13.3807 11.4961 12 11.4961C10.6193 11.4961 9.5 10.3768 9.5 8.99609C9.5 7.61538 10.6193 6.49609 12 6.49609C13.3807 6.49609 14.5 7.61538 14.5 8.99609Z" stroke="white" stroke-width="1.5"/>
<path d="M13.2574 17.4897C12.9201 17.8145 12.4693 17.9961 12.0002 17.9961C11.531 17.9961 11.0802 17.8145 10.7429 17.4897C7.6543 14.4969 3.51519 11.1536 5.53371 6.29983C6.6251 3.67542 9.24494 1.99609 12.0002 1.99609C14.7554 1.99609 17.3752 3.67542 18.4666 6.29983C20.4826 11.1475 16.3536 14.5072 13.2574 17.4897Z" stroke="white" stroke-width="1.5"/>
<path d="M18 19.9961C18 21.1007 15.3137 21.9961 12 21.9961C8.68629 21.9961 6 21.1007 6 19.9961" stroke="white" stroke-width="1.5" stroke-linecap="round"/>
</svg>
