<svg width="55" height="41" viewBox="0 0 55 41" fill="none" xmlns="http://www.w3.org/2000/svg">
<g clip-path="url(#clip0_2010_2179)">
<path d="M54.9999 1.5C54.9999 1.89782 54.8389 2.27936 54.5524 2.56066C54.2659 2.84196 53.8773 3 53.4721 3C53.0669 3 52.6783 2.84196 52.3918 2.56066C52.1053 2.27936 51.9443 1.89782 51.9443 1.5C51.9443 1.10218 52.1053 0.720644 52.3918 0.43934C52.6783 0.158035 53.0669 0 53.4721 0C53.8773 0 54.2659 0.158035 54.5524 0.43934C54.8389 0.720644 54.9999 1.10218 54.9999 1.5Z" fill="#FAF4DF"/>
<path fill-rule="evenodd" clip-rule="evenodd" d="M14.0046 40.794C6.27 40.794 0 34.638 0 27.044V1H5.09259V27.044C5.09259 29.3646 6.03154 31.5902 7.70287 33.2312C9.3742 34.8721 11.641 35.794 14.0046 35.794C18.9882 35.794 22.9167 32.023 22.9167 27.25H28.0093V34.75C28.0093 35.0815 28.1434 35.3995 28.3822 35.6339C28.6209 35.8683 28.9447 36 29.2824 36C29.6201 36 29.9439 35.8683 30.1827 35.6339C30.4214 35.3995 30.5556 35.0815 30.5556 34.75V25.875C29.6306 26.0604 28.6752 26.0414 27.7585 25.8196C26.8419 25.5977 25.9871 25.1784 25.2559 24.5921C24.5247 24.0058 23.9354 23.2672 23.5308 22.4297C23.1263 21.5922 22.9165 20.6769 22.9167 19.75V7.25C22.9167 5.5924 23.5873 4.00269 24.7811 2.83058C25.975 1.65848 27.5941 1 29.2824 1C30.9707 1 32.5899 1.65848 33.7837 2.83058C34.9775 4.00269 35.6482 5.5924 35.6482 7.25V34.75C35.6482 35.0815 35.7823 35.3995 36.021 35.6339C36.2598 35.8683 36.5836 36 36.9213 36C37.259 36 37.5828 35.8683 37.8216 35.6339C38.0603 35.3995 38.1944 35.0815 38.1944 34.75V7.25C38.1944 5.5924 38.8651 4.00269 40.0589 2.83058C41.2527 1.65848 42.8719 1 44.5602 1C46.2485 1 47.8676 1.65848 49.0614 2.83058C50.2553 4.00269 50.9259 5.5924 50.9259 7.25V34.75C50.9259 35.9107 50.5967 37.0485 49.9752 38.0358C49.3537 39.0232 48.4644 39.8211 47.407 40.3402C46.3496 40.8593 45.1659 41.079 43.9885 40.9747C42.8111 40.8705 41.6865 40.4464 40.7407 39.75C39.6398 40.5632 38.299 41.002 36.9213 41C35.5436 41.002 34.2028 40.5632 33.1019 39.75C32.3357 40.3141 31.4498 40.7012 30.5101 40.8826C29.5705 41.064 28.6012 41.0349 27.6746 40.7975C26.748 40.5601 25.8878 40.1205 25.1582 39.5115C24.4286 38.9025 23.8483 38.1397 23.4606 37.28C20.9591 39.477 17.6316 40.794 14.0046 40.794ZM44.5602 36C43.8574 36 43.287 35.44 43.287 34.75V7.25C43.287 6.91848 43.4212 6.60054 43.6599 6.36612C43.8987 6.1317 44.2225 6 44.5602 6C44.8978 6 45.2217 6.1317 45.4604 6.36612C45.6992 6.60054 45.8333 6.91848 45.8333 7.25V34.75C45.8333 35.44 45.263 36 44.5602 36ZM30.5556 19.75C30.5556 20.0815 30.4214 20.3995 30.1827 20.6339C29.9439 20.8683 29.6201 21 29.2824 21C28.9447 21 28.6209 20.8683 28.3822 20.6339C28.1434 20.3995 28.0093 20.0815 28.0093 19.75V7.25C28.0093 6.91848 28.1434 6.60054 28.3822 6.36612C28.6209 6.1317 28.9447 6 29.2824 6C29.6201 6 29.9439 6.1317 30.1827 6.36612C30.4214 6.60054 30.5556 6.91848 30.5556 7.25V19.75Z" fill="#FAF4DF"/>
<path fill-rule="evenodd" clip-rule="evenodd" d="M7.63867 27.25C7.63867 28.9076 8.30935 30.4973 9.50315 31.6694C10.697 32.8415 12.3161 33.5 14.0044 33.5C15.6927 33.5 17.3119 32.8415 18.5057 31.6694C19.6995 30.4973 20.3702 28.9076 20.3702 27.25V7.25C20.3702 5.5924 19.6995 4.00269 18.5057 2.83058C17.3119 1.65848 15.6927 1 14.0044 1C12.3161 1 10.697 1.65848 9.50315 2.83058C8.30935 4.00269 7.63867 5.5924 7.63867 7.25V27.25ZM14.0044 28.5C13.3016 28.5 12.7313 27.94 12.7313 27.25V7.25C12.7313 6.91848 12.8654 6.60054 13.1042 6.36612C13.3429 6.1317 13.6668 6 14.0044 6C14.3421 6 14.6659 6.1317 14.9047 6.36612C15.1434 6.60054 15.2776 6.91848 15.2776 7.25V27.25C15.2776 27.94 14.7072 28.5 14.0044 28.5Z" fill="#FAF4DF"/>
</g>
<defs>
<clipPath id="clip0_2010_2179">
<rect width="55" height="41" fill="white"/>
</clipPath>
</defs>
</svg>
