<svg width="74" height="47" viewBox="0 0 74 47" fill="none" xmlns="http://www.w3.org/2000/svg">
<g clip-path="url(#clip0_2010_2136)">
<path d="M69.2711 5.77727C69.2711 5.83206 69.2711 5.90057 69.2572 5.94167C69.1879 6.47599 69.1879 7.0103 69.2294 7.55832C69.2572 7.69533 69.2849 7.83233 69.3959 7.94194C69.5762 8.14743 69.8535 8.10634 69.9645 7.85973C70.02 7.73643 70.02 7.61312 69.9922 7.48982C69.8535 6.9692 69.8258 6.42119 69.8119 5.88686C69.8119 5.85946 69.8119 5.81836 69.8119 5.77727C69.9645 5.76356 70.1032 5.74986 70.2279 5.74986C70.3251 5.73616 70.4082 5.72246 70.4776 5.68135C70.6855 5.57176 70.6855 5.33885 70.4636 5.22925C70.3804 5.18814 70.2696 5.17444 70.1725 5.17444C69.8258 5.18814 69.4791 5.18814 69.1324 5.18814C69.0076 5.18814 68.8828 5.20185 68.7579 5.21554C68.6886 5.22925 68.6054 5.22925 68.55 5.27035C68.4529 5.31144 68.3975 5.37995 68.3975 5.47585C68.4113 5.57176 68.4529 5.62656 68.55 5.66766C68.6054 5.70876 68.6747 5.72246 68.7441 5.72246C68.9105 5.73616 69.0908 5.76356 69.2711 5.77727ZM73.0846 6.40748C73.0846 6.42119 73.0985 6.43488 73.0985 6.43488C73.154 6.80479 73.2095 7.16101 73.251 7.51722C73.265 7.64052 73.2788 7.75012 73.362 7.84603C73.5423 8.07893 73.8197 8.05153 73.9444 7.80493C73.9999 7.68162 74.0137 7.55832 73.986 7.42132C73.9028 7.0103 73.8612 6.59929 73.778 6.20198C73.7225 5.95536 73.6533 5.72246 73.5839 5.50326C73.5423 5.36625 73.4452 5.27034 73.2788 5.25665C73.1124 5.22925 72.9876 5.31144 72.9182 5.43475C72.835 5.54435 72.7657 5.65396 72.7102 5.77727C72.6131 5.99647 72.5299 6.21568 72.419 6.42119C72.4051 6.47599 72.3912 6.51709 72.3635 6.55818C72.3497 6.53078 72.3358 6.51709 72.3358 6.51709C72.1555 6.17458 71.9891 5.83206 71.8089 5.50326C71.7811 5.47585 71.7672 5.44845 71.7534 5.42105C71.6702 5.29775 71.5731 5.22925 71.4206 5.22925C71.2819 5.24294 71.1709 5.32515 71.1016 5.44845C71.0738 5.50326 71.0738 5.54435 71.06 5.59916C71.0045 6.03757 70.9351 6.47599 70.8797 6.9144C70.8519 7.16101 70.8381 7.40761 70.8381 7.65422C70.8242 7.70902 70.8381 7.77752 70.8658 7.83233C70.8936 7.94193 70.9768 8.01044 71.0877 8.02413C71.2264 8.03784 71.3234 7.99674 71.3651 7.88713C71.4066 7.80493 71.4206 7.73643 71.4344 7.66793C71.4899 7.42132 71.5315 7.18841 71.5731 6.9555C71.6008 6.8185 71.6147 6.70889 71.6563 6.55818C71.684 6.61299 71.7117 6.65409 71.7395 6.69519C71.8643 6.8596 71.9891 7.02401 72.1417 7.16101C72.2942 7.27061 72.419 7.25691 72.5438 7.1336C72.5716 7.1062 72.5854 7.09251 72.6131 7.0651C72.738 6.8733 72.8905 6.68149 73.0153 6.48968C73.0431 6.46228 73.0569 6.43488 73.0846 6.40748Z" fill="#FAF4DF"/>
<path d="M41.1319 6.04641C41.0354 6.30678 41.0171 6.49436 41.0616 6.65027C41.1107 6.86229 41.2383 6.9317 41.4115 6.87777C43.0403 6.47984 46.6121 7.60934 47.9345 7.92414C48.2463 7.99024 48.5 7.5925 48.2872 7.2359C47.9766 6.89056 44.4065 5.41201 43.0442 5.3314C42.5103 5.30159 41.5557 5.16631 41.1319 6.04641Z" fill="#FAF4DF"/>
<path d="M55.091 1.26028C55.2646 1.35927 55.3616 1.4537 55.4095 1.5592C55.4809 1.6976 55.4432 1.79335 55.3233 1.84221C54.2466 2.36137 52.8139 4.59644 52.2355 5.36729C52.0954 5.54462 51.772 5.44158 51.7231 5.14996C51.7332 4.82024 53.0032 2.39468 53.7121 1.73404C53.9906 1.47611 54.4508 0.970015 55.091 1.26028Z" fill="#FAF4DF"/>
<path d="M46.5167 0.160009C46.7253 0.00472017 46.942 -0.0496978 47.0527 0.0512206C48.6772 1.42378 49.5387 3.59735 50.0721 5.5872C50.0922 5.63356 50.0935 5.70009 50.0774 5.76948C50.0707 5.8288 50.0269 5.89146 49.9572 5.93995C49.8828 5.99347 49.8187 6.00977 49.7886 5.96365C49.0766 5.00691 45.0101 1.2844 46.5167 0.160009Z" fill="#FAF4DF"/>
<path d="M12.1159 23.9568C12.5053 23.6704 12.9285 23.432 13.3765 23.2469C13.8451 23.1146 14.3446 23.1365 14.7995 23.3095C15.2543 23.4826 15.6398 23.7972 15.8975 24.2059C16.1281 24.6135 16.2183 25.0841 16.1546 25.5468C16.091 26.0095 15.8769 26.4392 15.5445 26.7713C15.2869 27.0405 14.9944 27.275 14.6748 27.4687C13.2504 28.3778 11.8134 29.2371 10.3764 30.1462C10.0823 30.3737 9.77038 30.5779 9.44354 30.7565C8.9464 31.0014 8.37825 31.067 7.83732 30.9419C7.2964 30.8169 6.81673 30.509 6.48126 30.0716C6.23047 29.7618 6.01882 29.4231 5.85098 29.0628C4.48959 26.2358 3.07779 23.4213 1.76681 20.5444C1.16175 19.2992 0.670137 17.8669 0.191129 16.4846C-0.0161115 16.083 -0.0565809 15.6173 0.0783382 15.1867C0.213257 14.756 0.51292 14.3943 0.913584 14.1785C1.31425 13.9627 1.7843 13.91 2.22377 14.0313C2.66325 14.1527 3.03748 14.4386 3.26686 14.8283C3.97192 15.754 4.59605 16.7372 5.13247 17.7674C6.49386 20.2581 7.79223 22.7487 9.10319 25.1648C9.17953 25.2983 9.2637 25.4271 9.3553 25.5508C10.342 25.1409 11.2701 24.605 12.1159 23.9568Z" fill="#FAF4DF"/>
<path d="M26.1919 23.0879C23.0784 26.6869 17.8597 25.7778 15.2378 21.1451C13.3722 17.8573 13.0445 12.4276 17.1035 9.00283C17.9702 8.28584 19.0066 7.79741 20.1161 7.58311C21.4764 7.39044 22.8636 7.62754 24.0793 8.26052C25.295 8.8935 26.2771 9.88996 26.8853 11.1075C29.1038 15.0927 28.7887 20.1737 26.1919 23.0879ZM24.9314 14.6941C24.6006 13.7148 23.937 12.8788 23.0532 12.3279C22.553 11.9757 21.9453 11.8045 21.3323 11.8431C20.7193 11.8816 20.1385 12.1276 19.6875 12.5396C17.885 14.1213 17.5068 17.8698 18.8177 20.099C18.9849 20.4625 19.2302 20.7856 19.5369 21.0455C19.8436 21.3055 20.2041 21.4962 20.5931 21.6041C20.9821 21.7121 21.3903 21.7347 21.7891 21.6705C22.188 21.6062 22.5677 21.4567 22.902 21.2323C23.8791 20.4838 24.596 19.4532 24.9528 18.2838C25.3098 17.1142 25.2891 15.8639 24.8936 14.7066L24.9314 14.6941Z" fill="#FAF4DF"/>
<path d="M38.8979 16.2633C38.5792 16.331 38.2499 16.3351 37.9295 16.2752C37.6091 16.2153 37.304 16.0927 37.0324 15.9147C36.7946 15.7803 36.5899 15.5956 36.4331 15.3737C36.2763 15.1519 36.1712 14.8985 36.1254 14.6317C36.0796 14.3649 36.0943 14.0915 36.1681 13.831C36.2421 13.5704 36.3738 13.3293 36.5534 13.125C36.8663 12.7144 37.3105 12.4204 37.8139 12.2906C39.1283 11.9138 40.4813 11.684 41.8476 11.6057C42.1479 11.5712 42.452 11.5963 42.7422 11.6795C43.0325 11.7629 43.3029 11.9025 43.5378 12.0905C43.7726 12.2784 43.9671 12.5108 44.1098 12.774C44.2524 13.0372 44.3405 13.3259 44.3687 13.6232C44.7626 15.0834 44.8057 16.6144 44.4947 18.0941C43.3603 22.8762 39.4526 24.52 35.0659 22.9883C33.8345 22.5787 32.7548 21.8156 31.9649 20.7965C30.9114 19.5691 30.1644 18.1146 29.7842 16.5498C29.4761 15.1564 29.5098 13.7105 29.8827 12.3326C30.2554 10.9548 30.9564 9.68498 31.9271 8.62929C32.8483 7.48188 34.0439 6.57888 35.4063 6.00158C36.2671 5.5328 37.2744 5.39952 38.2299 5.62797C38.4466 5.68723 38.6433 5.8027 38.7997 5.96241C38.956 6.12212 39.0663 6.32024 39.1191 6.53623C39.1718 6.75222 39.165 6.97821 39.0996 7.19078C39.0341 7.40334 38.9123 7.59473 38.7467 7.74508C38.4319 8.0266 38.0899 8.27688 37.7256 8.4923C36.605 9.19737 35.6297 10.1059 34.8516 11.1698C34.3415 11.8582 33.9902 12.6488 33.8226 13.4857C33.6548 14.3226 33.6748 15.1857 33.881 16.0143C34.1669 17.144 34.8013 18.1581 35.6961 18.9159C38.4693 21.4067 42.0745 19.0031 41.4442 15.6033C40.5241 15.8275 39.7173 16.0641 38.8979 16.2633Z" fill="#FAF4DF"/>
<path d="M55.8403 23.2871C51.7436 25.7779 47.0796 23.2871 46.0585 18.0567C45.3148 14.3206 46.7266 9.09005 51.668 7.09747C52.7193 6.68265 53.8597 6.537 54.9832 6.67405C56.3331 6.91818 57.5714 7.57472 58.5235 8.55111C59.4755 9.52749 60.0935 10.7744 60.29 12.1163C61.122 16.5622 59.2312 21.307 55.8403 23.2871ZM57.2648 14.9059C57.2636 13.8713 56.8931 12.8702 56.2186 12.0789C55.858 11.5895 55.3367 11.2388 54.7436 11.0866C54.1505 10.9345 53.5224 10.9902 52.9663 11.2446C50.7477 12.191 49.1847 15.6282 49.7519 18.1563C49.7953 18.5531 49.9257 18.9357 50.1343 19.2774C50.3429 19.6191 50.6245 19.9117 50.9595 20.1347C51.2944 20.3576 51.6747 20.5057 52.0735 20.5684C52.4725 20.631 52.8804 20.6068 53.2688 20.4976C54.4415 20.0928 55.4569 19.3365 56.1732 18.334C56.8896 17.3315 57.2713 16.133 57.2648 14.9059Z" fill="#FAF4DF"/>
<path d="M64.4326 24.3333C64.3708 24.7891 64.1283 25.202 63.7583 25.4811C63.3883 25.7601 62.9212 25.8826 62.4599 25.8215C61.9985 25.7604 61.5807 25.5207 61.2982 25.1552C61.0156 24.7898 60.8917 24.3283 60.9536 23.8725C61.0154 23.4167 61.258 23.0039 61.6279 22.7248C61.9979 22.4457 62.465 22.3232 62.9263 22.3843C63.3876 22.4454 63.8055 22.685 64.0881 23.0506C64.3706 23.4161 64.4946 23.8775 64.4326 24.3333ZM63.3359 7.53337C63.5757 7.17163 63.9274 6.89616 64.3386 6.74803C64.7498 6.59991 65.1984 6.58707 65.6176 6.71144C66.0437 6.81677 66.4201 7.06353 66.6841 7.4104C66.948 7.75728 67.0832 8.1832 67.0672 8.61684C67.0116 9.31241 66.9063 10.0032 66.7521 10.6841C66.3361 12.9881 65.9327 15.2919 65.4916 17.571C65.2899 18.4801 65.0251 19.3519 64.7352 20.2734C64.6343 20.5615 64.4658 20.8218 64.2436 21.0331C64.1054 21.192 63.929 21.3139 63.7305 21.3875C63.5319 21.4612 63.3179 21.4842 63.108 21.4544C62.8982 21.4246 62.6992 21.343 62.5298 21.2171C62.3603 21.0912 62.2257 20.9251 62.1385 20.7342C61.9886 20.3917 61.9072 20.0238 61.899 19.6508C61.899 18.1065 61.899 16.5498 61.9998 14.9931C62.1712 12.7714 62.5082 10.5653 63.0082 8.39267C63.0671 8.10159 63.178 7.82323 63.3359 7.57074V7.53337Z" fill="#FAF4DF"/>
<path fill-rule="evenodd" clip-rule="evenodd" d="M6.79023 34.3407C6.64139 34.669 6.60058 35.0349 6.67331 35.3871C6.72169 35.8513 6.82797 36.308 6.98971 36.7466C7.19165 37.2837 7.41761 37.8148 7.69623 38.4694C7.7603 38.62 7.82726 38.7772 7.89733 38.9427C8.27306 39.8295 8.7445 40.9628 9.37335 42.603C9.55134 43.0689 9.70939 43.5387 9.86855 44.0117C9.93285 44.2028 9.99738 44.3946 10.0634 44.5867C10.3002 45.2699 10.7076 45.8837 11.2476 46.3702C11.4768 46.6375 11.781 46.8324 12.122 46.9298C12.4697 47.0291 12.8395 47.0228 13.1835 46.9117C13.5275 46.8005 13.8296 46.5897 14.0507 46.3065C14.2674 46.0289 14.3963 45.6943 14.4213 45.3448C14.5619 44.664 14.5139 43.958 14.2822 43.3016C13.9144 42.2117 13.4955 41.1203 13.0123 40.0527L13.0101 40.048C12.2154 38.3778 11.4075 36.7191 10.5614 35.0598L10.5551 35.0482C10.3074 34.6159 9.98549 34.2294 9.60387 33.9062C9.35611 33.6177 9.01437 33.423 8.63697 33.356C8.25153 33.2875 7.854 33.3565 7.51535 33.5508C7.195 33.7315 6.94105 34.0081 6.79023 34.3407Z" fill="#FAF4DF"/>
<path fill-rule="evenodd" clip-rule="evenodd" d="M18.929 30.228C17.6828 29.9092 16.3814 29.8627 15.1153 30.0919C14.1347 30.1873 13.1703 30.4108 12.5006 30.8534C12.16 31.0787 11.8846 31.368 11.7314 31.7356C11.5774 32.1053 11.5577 32.5281 11.6839 32.9992C11.9144 33.8621 12.2137 34.701 12.5119 35.5373L12.5602 35.6727L12.5614 35.6757C13.4593 38.1052 14.3658 40.5265 15.2806 42.9394C15.3872 43.3196 15.5381 43.6865 15.73 44.0324L15.7336 44.0388C15.9872 44.4687 16.3125 44.8531 16.6957 45.176C16.8874 45.3536 17.1244 45.4764 17.3814 45.5313C17.6409 45.5866 17.9108 45.5706 18.1617 45.4847C18.4127 45.399 18.6349 45.2467 18.8042 45.0446C18.9708 44.8459 19.0799 44.6064 19.12 44.3515C19.2853 43.6591 19.2324 42.9333 18.9681 42.2714C18.8856 42.0487 18.8209 41.8211 18.7527 41.5815C18.73 41.5016 18.707 41.4203 18.6826 41.3375C20.7765 40.5289 23.0045 39.4416 23.7879 36.9122C24.0947 36.0381 24.1203 35.0915 23.8611 34.2024C23.6016 33.3123 23.0694 32.5233 22.3376 31.9441C21.3417 31.1334 20.1783 30.5476 18.929 30.228ZM15.4747 33.3305C15.516 33.3188 15.5575 33.3079 15.5992 33.2977C16.9624 33.086 18.357 33.3681 19.5265 34.0919C20.0418 34.446 20.2529 34.8395 20.2892 35.218C20.3266 35.6078 20.1832 36.0302 19.895 36.4362C19.3504 37.2031 18.3567 37.817 17.4591 37.9314C16.8047 36.4426 16.1402 34.8935 15.4747 33.3305Z" fill="#FAF4DF"/>
<path d="M27.2369 27.5028C28.7209 26.8257 30.5591 26.7087 31.9976 27.1848C32.3599 27.2891 32.6742 27.5146 32.8868 27.8227C33.098 28.129 33.1954 28.498 33.1629 28.867C33.1608 29.1065 33.1013 29.3421 32.9893 29.5547C32.8753 29.7711 32.7103 29.9572 32.5082 30.0973C32.3061 30.2373 32.0728 30.3274 31.828 30.3595C31.5832 30.3918 31.3342 30.3653 31.102 30.2823L31.0843 30.276L31.0677 30.2674C30.9489 30.2059 30.8227 30.1597 30.6921 30.1296L30.6839 30.1278C29.672 29.8622 28.7175 30.3022 28.3688 30.8428C28.2026 31.1005 28.1819 31.3608 28.3204 31.5975C28.4688 31.8509 28.8325 32.1354 29.5686 32.3381C29.771 32.393 29.9786 32.446 30.189 32.4999C30.7711 32.6488 31.376 32.8034 31.9609 33.0178L31.9631 33.0187C34.6616 34.033 35.6664 36.1338 35.3224 38.1097C34.9821 40.0638 33.3303 41.8421 30.8464 42.2615C29.9425 42.4595 29.0019 42.4209 28.1176 42.1497C27.231 41.8776 26.432 41.3813 25.7997 40.7096L25.7832 40.6921C25.5836 40.439 25.4493 40.1417 25.3898 39.8263C25.3351 39.5416 25.3639 39.2475 25.4728 38.9784C25.5811 38.7109 25.7642 38.4794 26.0004 38.3108C26.25 38.1196 26.5509 38.0048 26.8658 37.9809C27.1797 37.9571 27.4937 38.0245 27.7693 38.1747C28.0446 38.3061 28.3007 38.4737 28.5305 38.673L28.5348 38.6766C28.9414 39.044 29.4333 39.1397 29.905 39.051C30.3836 38.9611 30.8336 38.6813 31.123 38.3101C31.4106 37.9413 31.526 37.5031 31.389 37.0778C31.2512 36.6493 30.8366 36.1693 29.9259 35.768C29.6878 35.6681 29.441 35.5875 29.1842 35.5091C29.115 35.488 29.0446 35.467 28.9733 35.4456C28.7835 35.3887 28.5881 35.33 28.3965 35.2654C28.2646 35.2209 28.1337 35.1789 28.0041 35.1371C27.6499 35.0231 27.3045 34.912 26.9722 34.763C26.2488 34.5197 25.6238 34.0525 25.1902 33.4305C24.7549 32.806 24.5359 32.0592 24.5657 31.3017C24.568 29.4555 25.7449 28.1837 27.2369 27.5028Z" fill="#FAF4DF"/>
<path d="M46.0511 27.3061C45.7633 27.1672 45.4451 27.1013 45.1252 27.1143C44.8052 27.1273 44.4936 27.2187 44.2184 27.3806C43.9449 27.5412 43.716 27.7662 43.5519 28.0355C43.4015 28.2622 43.2973 28.5158 43.2454 28.7821C43.1935 29.0482 43.1948 29.3217 43.249 29.5871C43.3026 29.9283 43.362 30.2601 43.4207 30.5872C43.5178 31.1287 43.6124 31.658 43.6747 32.1976L43.6771 32.2113C43.819 33.0576 43.8933 33.9136 43.9 34.7713L43.9006 34.7835C43.9492 35.7098 43.6297 36.6181 43.0107 37.3156L43.0009 37.328C42.7995 37.583 42.5303 37.7776 42.2232 37.8901C41.9162 38.0026 41.5836 38.0284 41.2625 37.9647C40.9415 37.9011 40.6447 37.7505 40.4054 37.5297C40.1661 37.3089 39.9934 37.0258 39.9073 36.7138C39.7233 36.0561 39.6169 35.3796 39.5898 34.6979L39.904 29.7562C39.9087 29.6917 39.9139 29.6255 39.9193 29.5586C39.9313 29.4085 39.9435 29.2556 39.9486 29.113C39.956 28.9033 39.9497 28.6875 39.9002 28.4832C39.8496 28.2745 39.7533 28.0759 39.5824 27.9069C39.4133 27.7395 39.1849 27.616 38.8976 27.5319C38.378 27.3833 37.9387 27.388 37.5726 27.5415C37.2063 27.695 36.9553 27.98 36.7777 28.3092C36.6015 28.6357 36.4883 29.0221 36.4026 29.4093C36.3391 29.6965 36.288 29.998 36.2395 30.2851C36.2227 30.384 36.2063 30.4811 36.1897 30.5754L36.1893 30.5782C35.9297 32.1522 35.8524 33.7504 35.959 35.3418C35.9788 36.2018 36.1603 37.0507 36.4944 37.8451C36.8713 38.8701 37.5539 39.7582 38.4521 40.3922C39.3523 41.0274 40.4264 41.3775 41.5324 41.396C42.6384 41.4144 43.724 41.1005 44.6454 40.4958C45.5653 39.892 46.2783 39.0265 46.6899 38.014C47.2657 36.7242 47.5362 35.3214 47.4803 33.9127C47.4465 32.8843 47.3898 31.8479 47.3335 30.8168C47.3058 30.311 47.2782 29.8063 47.2535 29.3047C47.241 28.8017 47.0731 28.3145 46.7723 27.9085C46.5861 27.6518 46.3383 27.4448 46.0511 27.3061Z" fill="#FAF4DF"/>
<path d="M56.236 35.0549C56.2068 35.0915 56.176 35.1294 56.1439 35.1688C55.9099 33.8349 55.6929 32.5014 55.4757 31.1658C55.3978 30.6866 55.3194 30.2054 55.2407 29.7256L55.2318 29.6721L55.2031 29.6258C55.1488 29.5388 55.1434 29.4534 55.1434 29.2714V29.2504L55.1402 29.2295C55.0814 28.8536 54.9093 28.5038 54.6464 28.2259C54.3842 27.9487 54.0437 27.7558 53.6691 27.672C53.2952 27.5809 52.9023 27.601 52.5398 27.7298C52.1782 27.8583 51.8631 28.0892 51.6337 28.3937C51.443 28.6273 51.2867 28.8864 51.1695 29.1633C50.9037 29.7598 50.6355 30.3577 50.3665 30.9573L50.3619 30.9677C49.6905 32.4645 49.0145 33.9714 48.3583 35.4901L48.3563 35.4951C47.9534 36.4798 47.6208 37.5174 47.2894 38.5519C47.2232 38.7583 47.157 38.9647 47.0903 39.1706C46.9707 39.497 46.9183 39.8437 46.9363 40.1904C46.9145 40.5007 46.9897 40.8102 47.1519 41.0772C47.3172 41.3495 47.5649 41.5638 47.8599 41.69C48.1726 41.8254 48.5222 41.8542 48.8534 41.7717C49.1839 41.6893 49.4774 41.5009 49.6876 41.236C49.9561 40.9097 50.1871 40.5538 50.3755 40.1767C50.9315 39.0532 51.4628 37.916 51.9917 36.7837C52.1963 36.3458 52.3952 35.9535 52.6214 35.5264C52.6369 35.579 52.6528 35.6304 52.6692 35.6819C52.9063 36.7132 53.3065 37.7011 53.8551 38.6092C53.9589 38.8016 54.1035 38.9697 54.279 39.1021C54.4566 39.236 54.6616 39.33 54.8797 39.3778C55.0978 39.4255 55.3238 39.4257 55.542 39.3784C55.7598 39.3312 55.9655 39.2371 56.1432 39.1038L56.4949 38.8437L59.2247 36.572L59.0633 37.5884C58.8417 38.9854 58.6218 40.3709 58.3882 41.7566C58.2354 42.3708 58.2356 43.0124 58.3889 43.6264C58.4552 43.9719 58.6244 44.29 58.8747 44.5402C59.1272 44.7924 59.4504 44.9637 59.8027 45.0321C60.1549 45.1004 60.5198 45.0625 60.85 44.9234C61.1754 44.7863 61.4521 44.5571 61.6456 44.2649C62.0957 43.7132 62.3759 43.0453 62.4528 42.3406C62.5687 41.3455 62.6996 40.3368 62.8305 39.3284C62.9814 38.1661 63.1323 37.0042 63.2596 35.8645L63.2601 35.861C63.3827 34.6135 63.442 33.3608 63.4379 32.1074C63.4647 31.7113 63.3649 31.3168 63.1522 30.9795C62.9388 30.6411 62.6227 30.378 62.2491 30.2275C61.8605 30.053 61.4255 30.0063 61.008 30.0945C60.5933 30.1821 60.2179 30.3981 59.9363 30.711C59.4328 31.1711 58.9605 31.6634 58.5223 32.1848L58.5193 32.1883C58.0409 32.7772 57.5659 33.3776 57.0939 33.9742C56.8068 34.3368 56.5207 34.6986 56.236 35.0549Z" fill="#FAF4DF"/>
</g>
<defs>
<clipPath id="clip0_2010_2136">
<rect width="74" height="47" fill="white"/>
</clipPath>
</defs>
</svg>
