<svg width="181" height="32" viewBox="0 0 181 32" fill="none" xmlns="http://www.w3.org/2000/svg">
<path d="M13.9531 25.1389L5.32918 29.9062L6.97656 19.8089L0 12.6586L9.64115 11.1865L13.9531 2L18.2651 11.1865L27.9062 12.6586L20.9297 19.8089L22.5771 29.9062L13.9531 25.1389Z" fill="#EC8E00"/>
<path d="M51.627 25.1389L43.003 29.9062L44.6504 19.8089L37.6738 12.6586L47.315 11.1865L51.627 2L55.9389 11.1865L65.5801 12.6586L58.6035 19.8089L60.2509 29.9062L51.627 25.1389Z" fill="#EC8E00"/>
<path d="M89.3008 25.1389L80.6768 29.9062L82.3242 19.8089L75.3477 12.6586L84.9888 11.1865L89.3008 2L93.6128 11.1865L103.254 12.6586L96.2773 19.8089L97.9247 29.9062L89.3008 25.1389Z" fill="#EC8E00"/>
<path d="M126.973 25.1389L118.349 29.9062L119.996 19.8089L113.02 12.6586L122.661 11.1865L126.973 2L131.285 11.1865L140.926 12.6586L133.949 19.8089L135.597 29.9062L126.973 25.1389Z" fill="#EC8E00"/>
<path d="M164.646 25.1389L156.023 29.9063L157.67 19.8089L150.693 12.6586L160.335 11.1865L164.646 2L168.958 11.1865L178.6 12.6586L171.623 19.8089L173.27 29.9063L164.646 25.1389Z" stroke="#DABDA3" stroke-width="1.47603" stroke-linecap="square"/>
</svg>
