<svg width="61" height="61" viewBox="0 0 61 61" fill="none" xmlns="http://www.w3.org/2000/svg">
<path opacity="0.3" d="M5.12357 34.2512C5.28973 42.0428 5.37281 45.9385 8.24776 48.8244C11.1227 51.7103 15.1239 51.8108 23.1264 52.0119C28.0584 52.1358 32.9419 52.1358 37.874 52.0119C45.8764 51.8108 49.8776 51.7103 52.7526 48.8244C55.6275 45.9385 55.7106 42.0428 55.8768 34.2512C55.9302 31.7459 55.9302 29.2554 55.8768 26.7502C55.7106 18.9586 55.6275 15.0628 52.7526 12.1769C49.8776 9.29103 45.8764 9.1905 37.874 8.98943C32.9419 8.86551 28.0584 8.8655 23.1263 8.98941C15.1239 9.19046 11.1227 9.29099 8.24775 12.1769C5.3728 15.0628 5.28972 18.9586 5.12356 26.7501C5.07014 29.2554 5.07014 31.7459 5.12357 34.2512Z" fill="#D3FF55"/>
<path d="M17.7915 21.6035L25.2691 26.0246C29.6286 28.6021 31.3711 28.6021 35.7305 26.0246L43.2082 21.6035" stroke="#D3FF55" stroke-width="4.35714" stroke-linecap="round" stroke-linejoin="round"/>
<path d="M5.12357 34.2512C5.28973 42.0428 5.37281 45.9385 8.24776 48.8244C11.1227 51.7103 15.1239 51.8108 23.1264 52.0119C28.0584 52.1358 32.9419 52.1358 37.874 52.0119C45.8764 51.8108 49.8776 51.7103 52.7526 48.8244C55.6275 45.9385 55.7106 42.0428 55.8768 34.2512C55.9302 31.7459 55.9302 29.2554 55.8768 26.7502C55.7106 18.9586 55.6275 15.0628 52.7526 12.1769C49.8776 9.29103 45.8764 9.1905 37.874 8.98943C32.9419 8.86551 28.0584 8.8655 23.1263 8.98941C15.1239 9.19046 11.1227 9.29099 8.24775 12.1769C5.3728 15.0628 5.28972 18.9586 5.12356 26.7501C5.07014 29.2554 5.07014 31.7459 5.12357 34.2512Z" stroke="#D3FF55" stroke-width="4.35714" stroke-linejoin="round"/>
</svg>
